<svg xmlns="http://www.w3.org/2000/svg" width="1120" height="360" viewBox="0 0 1120 360">
<rect width="100%" height="100%" fill="#fafafa"/>
<text x="72" y="24" font-size="16" font-family="monospace" fill="#222">seatbelt.both.hang.zhangyu.20260205.batch.1 episode_000001</text>
<rect x="72" y="46" width="1020" height="264" fill="#fff" stroke="#c9c9c9"/>
<rect x="191.33" y="46" width="52.78" height="264" fill="#ffb000" opacity="0.16"/>
<rect x="401.29" y="46" width="37.86" height="264" fill="#ffb000" opacity="0.16"/>
<rect x="534.38" y="46" width="71.14" height="264" fill="#ffb000" opacity="0.16"/>
<rect x="825.81" y="46" width="92.94" height="264" fill="#ffb000" opacity="0.16"/>
<rect x="999.06" y="46" width="35.57" height="264" fill="#ffb000" opacity="0.16"/>
<line x1="72" y1="310.00" x2="1092" y2="310.00" stroke="#e7e7e7"/>
<text x="62" y="314.00" text-anchor="end" font-size="11" font-family="monospace" fill="#555">0.00</text>
<line x1="72" y1="244.00" x2="1092" y2="244.00" stroke="#e7e7e7"/>
<text x="62" y="248.00" text-anchor="end" font-size="11" font-family="monospace" fill="#555">0.25</text>
<line x1="72" y1="178.00" x2="1092" y2="178.00" stroke="#e7e7e7"/>
<text x="62" y="182.00" text-anchor="end" font-size="11" font-family="monospace" fill="#555">0.50</text>
<line x1="72" y1="112.00" x2="1092" y2="112.00" stroke="#e7e7e7"/>
<text x="62" y="116.00" text-anchor="end" font-size="11" font-family="monospace" fill="#555">0.75</text>
<line x1="72" y1="46.00" x2="1092" y2="46.00" stroke="#e7e7e7"/>
<text x="62" y="50.00" text-anchor="end" font-size="11" font-family="monospace" fill="#555">1.00</text>
<line x1="72.00" y1="310" x2="72.00" y2="315" stroke="#999"/>
<text x="72.00" y="330" text-anchor="middle" font-size="11" font-family="monospace" fill="#555">0s</text>
<line x1="244.10" y1="310" x2="244.10" y2="315" stroke="#999"/>
<text x="244.10" y="330" text-anchor="middle" font-size="11" font-family="monospace" fill="#555">5s</text>
<line x1="416.21" y1="310" x2="416.21" y2="315" stroke="#999"/>
<text x="416.21" y="330" text-anchor="middle" font-size="11" font-family="monospace" fill="#555">10s</text>
<line x1="588.31" y1="310" x2="588.31" y2="315" stroke="#999"/>
<text x="588.31" y="330" text-anchor="middle" font-size="11" font-family="monospace" fill="#555">15s</text>
<line x1="760.41" y1="310" x2="760.41" y2="315" stroke="#999"/>
<text x="760.41" y="330" text-anchor="middle" font-size="11" font-family="monospace" fill="#555">20s</text>
<line x1="932.52" y1="310" x2="932.52" y2="315" stroke="#999"/>
<text x="932.52" y="330" text-anchor="middle" font-size="11" font-family="monospace" fill="#555">25s</text>
<line x1="72" y1="196.51" x2="1092" y2="196.51" stroke="#d62728" stroke-width="1.4" stroke-dasharray="6 5"/>
<text x="1088" y="190.51" text-anchor="end" font-size="11" font-family="monospace" fill="#d62728">precision threshold 0.430</text>
<polyline points="72.00,217.60 73.15,217.60 74.29,194.57 75.44,194.57 76.59,194.57 77.74,194.53 78.88,177.60 80.03,194.10 81.18,194.47 82.33,194.47 83.47,194.53 84.62,217.60 85.77,217.60 86.92,217.60 88.06,217.60 89.21,217.60 90.36,217.60 91.51,217.60 92.65,217.60 93.80,217.60 94.95,217.60 96.09,217.60 97.24,205.12 98.39,182.57 99.54,177.94 100.68,177.94 101.83,177.95 102.98,177.95 104.13,191.62 105.27,194.90 106.42,181.30 107.57,175.57 108.72,175.14 109.86,164.97 111.01,157.05 112.16,160.49 113.30,163.69 114.45,163.01 115.60,214.46 116.75,220.49 117.89,223.91 119.04,228.46 120.19,232.71 121.34,238.24 122.48,239.62 123.63,238.71 124.78,237.12 125.93,237.72 127.07,227.55 128.22,210.21 129.37,211.23 130.52,211.90 131.66,211.47 132.81,210.88 133.96,224.86 135.10,231.16 136.25,229.98 137.40,230.21 138.55,212.43 139.69,210.87 140.84,211.06 141.99,211.83 143.14,210.07 144.28,209.96 145.43,210.00 146.58,209.67 147.73,213.33 148.87,234.70 150.02,248.13 151.17,250.54 152.31,250.22 153.46,243.21 154.61,240.58 155.76,231.47 156.90,218.94 158.05,226.38 159.20,228.36 160.35,226.93 161.49,227.32 162.64,229.87 163.79,228.78 164.94,228.73 166.08,228.67 167.23,225.34 168.38,225.33 169.53,226.60 170.67,226.06 171.82,226.83 172.97,230.67 174.11,232.16 175.26,246.83 176.41,249.63 177.56,249.15 178.70,248.11 179.85,250.16 181.00,246.84 182.15,246.02 183.29,244.35 184.44,244.32 185.59,245.78 186.74,244.73 187.88,242.63 189.03,241.22 190.18,238.95 191.33,237.00 192.47,239.12 193.62,236.48 194.77,228.23 195.91,219.91 197.06,214.80 198.21,210.93 199.36,207.28 200.50,188.46 201.65,192.07 202.80,189.21 203.95,182.76 205.09,184.00 206.24,190.42 207.39,191.50 208.54,194.30 209.68,200.42 210.83,203.71 211.98,201.02 213.12,199.89 214.27,200.44 215.42,200.21 216.57,200.51 217.71,200.35 218.86,197.02 220.01,193.37 221.16,188.52 222.30,188.02 223.45,191.13 224.60,194.93 225.75,198.18 226.89,203.01 228.04,204.12 229.19,202.23 230.34,201.91 231.48,200.77 232.63,198.21 233.78,196.06 234.92,197.30 236.07,197.75 237.22,198.70 238.37,201.60 239.51,203.20 240.66,203.10 241.81,204.45 242.96,222.51 244.10,222.31 245.25,220.89 246.40,221.58 247.55,221.18 248.69,221.41 249.84,222.95 250.99,224.16 252.13,224.23 253.28,223.66 254.43,222.75 255.58,222.38 256.72,216.23 257.87,215.32 259.02,215.19 260.17,207.26 261.31,193.29 262.46,192.81 263.61,189.81 264.76,184.56 265.90,190.30 267.05,203.61 268.20,210.62 269.35,213.05 270.49,218.99 271.64,222.05 272.79,213.06 273.93,214.79 275.08,219.15 276.23,217.03 277.38,220.48 278.52,231.53 279.67,227.59 280.82,214.34 281.97,206.44 283.11,198.58 284.26,197.39 285.41,212.01 286.56,221.86 287.70,234.29 288.85,238.32 290.00,239.01 291.15,241.35 292.29,242.95 293.44,235.81 294.59,225.65 295.73,219.50 296.88,214.78 298.03,212.21 299.18,218.61 300.32,229.51 301.47,235.56 302.62,240.51 303.77,245.38 304.91,249.49 306.06,255.24 307.21,259.59 308.36,257.34 309.50,245.50 310.65,240.86 311.80,236.82 312.94,237.14 314.09,241.62 315.24,253.56 316.39,254.67 317.53,256.64 318.68,252.19 319.83,242.99 320.98,237.09 322.12,232.73 323.27,229.04 324.42,224.40 325.57,220.22 326.71,221.70 327.86,217.78 329.01,207.68 330.16,205.86 331.30,204.89 332.45,204.04 333.60,210.54 334.74,221.62 335.89,224.10 337.04,224.20 338.19,221.78 339.33,220.53 340.48,225.37 341.63,226.54 342.78,224.33 343.92,225.02 345.07,212.59 346.22,205.55 347.37,205.40 348.51,204.93 349.66,204.57 350.81,204.63 351.96,204.54 353.10,205.45 354.25,220.59 355.40,227.27 356.54,212.57 357.69,197.97 358.84,195.57 359.99,192.88 361.13,187.64 362.28,199.90 363.43,212.82 364.58,213.55 365.72,211.47 366.87,213.50 368.02,212.42 369.17,211.38 370.31,212.99 371.46,212.28 372.61,204.61 373.75,203.61 374.90,200.98 376.05,207.32 377.20,211.67 378.34,218.60 379.49,219.93 380.64,220.27 381.79,205.89 382.93,196.95 384.08,191.32 385.23,188.79 386.38,190.22 387.52,202.50 388.67,208.93 389.82,215.51 390.97,215.82 392.11,211.42 393.26,213.00 394.41,215.70 395.55,213.51 396.70,205.84 397.85,209.92 399.00,211.46 400.14,203.44 401.29,201.62 402.44,208.78 403.59,204.70 404.73,198.58 405.88,200.24 407.03,201.61 408.18,197.29 409.32,198.47 410.47,196.39 411.62,195.28 412.76,182.95 413.91,189.97 415.06,193.36 416.21,198.07 417.35,201.16 418.50,200.52 419.65,197.29 420.80,195.74 421.94,191.47 423.09,187.99 424.24,182.46 425.39,173.01 426.53,172.95 427.68,183.82 428.83,193.42 429.98,206.28 431.12,227.85 432.27,240.76 433.42,247.48 434.56,254.90 435.71,258.32 436.86,258.95 438.01,260.67 439.15,258.97 440.30,259.42 441.45,256.97 442.60,257.82 443.74,257.34 444.89,260.05 446.04,256.77 447.19,259.71 448.33,257.84 449.48,252.87 450.63,244.10 451.78,241.76 452.92,240.36 454.07,233.50 455.22,218.66 456.36,219.10 457.51,222.89 458.66,226.39 459.81,236.99 460.95,245.73 462.10,252.46 463.25,252.07 464.40,248.58 465.54,245.08 466.69,239.70 467.84,238.91 468.99,243.04 470.13,240.44 471.28,233.43 472.43,236.57 473.57,237.59 474.72,238.37 475.87,245.94 477.02,254.83 478.16,256.74 479.31,249.86 480.46,242.24 481.61,238.97 482.75,241.99 483.90,242.99 485.05,249.01 486.20,254.80 487.34,259.47 488.49,256.51 489.64,254.26 490.79,250.69 491.93,248.56 493.08,247.22 494.23,248.02 495.37,250.08 496.52,250.04 497.67,253.11 498.82,248.80 499.96,251.16 501.11,251.59 502.26,252.86 503.41,252.05 504.55,255.69 505.70,252.16 506.85,246.60 508.00,247.77 509.14,247.68 510.29,245.20 511.44,246.90 512.58,249.74 513.73,241.18 514.88,241.09 516.03,246.52 517.17,248.85 518.32,248.76 519.47,258.54 520.62,261.19 521.76,261.05 522.91,259.58 524.06,260.30 525.21,259.27 526.35,258.43 527.50,257.54 528.65,257.29 529.80,260.12 530.94,259.20 532.09,250.72 533.24,245.63 534.38,244.65 535.53,235.56 536.68,233.94 537.83,238.16 538.97,227.13 540.12,221.28 541.27,212.70 542.42,202.74 543.56,192.61 544.71,192.68 545.86,192.78 547.01,192.01 548.15,189.11 549.30,190.58 550.45,182.01 551.60,184.40 552.74,189.14 553.89,181.16 555.04,179.97 556.18,185.47 557.33,186.84 558.48,170.35 559.63,180.98 560.77,180.29 561.92,175.48 563.07,165.13 564.22,179.83 565.36,179.96 566.51,177.33 567.66,181.21 568.81,190.34 569.95,176.74 571.10,165.36 572.25,165.74 573.39,162.20 574.54,164.14 575.69,170.70 576.84,164.04 577.98,163.28 579.13,168.67 580.28,168.71 581.43,168.71 582.57,183.41 583.72,183.38 584.87,183.33 586.02,196.06 587.16,201.11 588.31,200.98 589.46,203.34 590.61,190.58 591.75,183.53 592.90,182.52 594.05,183.76 595.19,187.42 596.34,202.97 597.49,211.80 598.64,211.99 599.78,210.42 600.93,209.38 602.08,208.25 603.23,206.97 604.37,204.00 605.52,204.80 606.67,204.78 607.82,206.95 608.96,207.24 610.11,206.76 611.26,202.58 612.40,202.77 613.55,191.72 614.70,167.38 615.85,161.59 616.99,166.38 618.14,166.77 619.29,173.75 620.44,194.64 621.58,207.79 622.73,197.82 623.88,183.18 625.03,207.67 626.17,225.88 627.32,240.83 628.47,255.84 629.62,289.02 630.76,296.04 631.91,294.90 633.06,295.53 634.20,293.83 635.35,289.48 636.50,290.60 637.65,291.47 638.79,286.86 639.94,284.58 641.09,287.47 642.24,279.91 643.38,275.48 644.53,278.32 645.68,282.60 646.83,273.19 647.97,268.30 649.12,268.36 650.27,268.41 651.42,267.80 652.56,267.88 653.71,265.90 654.86,264.65 656.00,264.84 657.15,265.96 658.30,264.45 659.45,266.72 660.59,276.88 661.74,279.72 662.89,292.73 664.04,287.66 665.18,281.05 666.33,279.61 667.48,272.33 668.63,273.85 669.77,283.13 670.92,292.62 672.07,295.21 673.21,292.36 674.36,289.55 675.51,280.04 676.66,268.26 677.80,262.60 678.95,260.77 680.10,257.99 681.25,259.85 682.39,268.49 683.54,269.57 684.69,268.42 685.84,269.19 686.98,272.42 688.13,270.48 689.28,268.32 690.43,269.80 691.57,268.69 692.72,268.74 693.87,269.41 695.01,271.37 696.16,269.56 697.31,266.93 698.46,256.93 699.60,252.79 700.75,253.59 701.90,252.40 703.05,253.80 704.19,259.32 705.34,261.40 706.49,260.00 707.64,257.21 708.78,251.02 709.93,246.27 711.08,246.88 712.22,246.34 713.37,250.92 714.52,257.60 715.67,260.13 716.81,258.13 717.96,253.07 719.11,252.96 720.26,252.05 721.40,251.36 722.55,253.86 723.70,256.10 724.85,255.69 725.99,251.74 727.14,244.37 728.29,242.90 729.44,246.78 730.58,244.77 731.73,248.39 732.88,254.17 734.02,253.42 735.17,252.11 736.32,254.27 737.47,252.60 738.61,246.56 739.76,246.45 740.91,247.80 742.06,250.39 743.20,252.23 744.35,255.78 745.50,257.09 746.65,257.17 747.79,255.12 748.94,253.64 750.09,257.69 751.24,253.14 752.38,238.55 753.53,235.83 754.68,240.89 755.82,241.63 756.97,246.48 758.12,253.82 759.27,255.36 760.41,243.38 761.56,240.28 762.71,242.68 763.86,247.60 765.00,250.83 766.15,267.09 767.30,277.45 768.45,282.61 769.59,284.61 770.74,289.28 771.89,289.75 773.03,287.00 774.18,284.72 775.33,284.37 776.48,284.77 777.62,280.78 778.77,282.58 779.92,280.71 781.07,278.39 782.21,263.38 783.36,257.69 784.51,245.86 785.66,244.97 786.80,246.18 787.95,252.81 789.10,259.54 790.25,268.28 791.39,269.50 792.54,270.86 793.69,278.93 794.83,265.04 795.98,270.59 797.13,272.39 798.28,265.30 799.42,246.05 800.57,234.95 801.72,225.46 802.87,224.17 804.01,223.32 805.16,238.09 806.31,247.51 807.46,255.93 808.60,258.03 809.75,262.00 810.90,263.06 812.04,262.38 813.19,261.53 814.34,258.21 815.49,259.53 816.63,260.63 817.78,255.59 818.93,249.89 820.08,248.18 821.22,241.34 822.37,241.49 823.52,245.29 824.67,249.27 825.81,252.22 826.96,256.28 828.11,250.80 829.26,244.34 830.40,237.73 831.55,226.08 832.70,214.56 833.84,204.65 834.99,190.16 836.14,179.98 837.29,175.59 838.43,175.10 839.58,176.60 840.73,181.69 841.88,184.08 843.02,192.08 844.17,192.35 845.32,191.47 846.47,192.95 847.61,193.22 848.76,191.85 849.91,184.41 851.06,175.13 852.20,170.70 853.35,167.79 854.50,166.48 855.64,172.61 856.79,169.42 857.94,168.87 859.09,166.19 860.23,161.68 861.38,164.74 862.53,177.34 863.68,183.50 864.82,189.93 865.97,196.39 867.12,193.04 868.27,191.15 869.41,188.92 870.56,187.16 871.71,187.67 872.85,188.05 874.00,188.66 875.15,185.82 876.30,184.84 877.44,181.34 878.59,179.68 879.74,199.78 880.89,201.56 882.03,201.36 883.18,201.17 884.33,200.38 885.48,201.96 886.62,203.20 887.77,205.11 888.92,209.46 890.07,204.20 891.21,192.42 892.36,187.25 893.51,186.71 894.65,181.48 895.80,177.40 896.95,183.34 898.10,185.28 899.24,185.13 900.39,190.00 901.54,203.29 902.69,209.01 903.83,199.99 904.98,199.00 906.13,197.65 907.28,196.30 908.42,194.36 909.57,207.02 910.72,209.57 911.87,212.07 913.01,215.20 914.16,218.12 915.31,222.69 916.45,231.23 917.60,244.71 918.75,257.91 919.90,271.34 921.04,279.14 922.19,285.10 923.34,283.87 924.49,283.11 925.63,284.94 926.78,287.07 927.93,292.19 929.08,293.38 930.22,290.94 931.37,286.35 932.52,278.28 933.66,263.77 934.81,256.46 935.96,255.81 937.11,256.74 938.25,263.75 939.40,273.90 940.55,276.79 941.70,276.38 942.84,277.58 943.99,274.56 945.14,277.11 946.29,276.33 947.43,273.48 948.58,272.85 949.73,277.10 950.88,266.30 952.02,255.72 953.17,256.51 954.32,255.81 955.46,255.11 956.61,254.89 957.76,264.40 958.91,264.93 960.05,260.99 961.20,268.35 962.35,270.11 963.50,277.02 964.64,253.40 965.79,258.74 966.94,257.71 968.09,258.64 969.23,258.80 970.38,259.21 971.53,260.20 972.67,259.25 973.82,256.87 974.97,247.80 976.12,239.38 977.26,233.64 978.41,229.71 979.56,227.81 980.71,234.93 981.85,242.55 983.00,248.48 984.15,253.81 985.30,257.45 986.44,259.10 987.59,256.88 988.74,251.43 989.89,239.51 991.03,235.46 992.18,226.26 993.33,224.92 994.47,227.76 995.62,237.79 996.77,238.53 997.92,246.43 999.06,236.79 1000.21,220.49 1001.36,217.35 1002.51,217.72 1003.65,218.75 1004.80,223.62 1005.95,239.12 1007.10,202.21 1008.24,185.59 1009.39,182.51 1010.54,182.52 1011.69,183.74 1012.83,194.82 1013.98,209.86 1015.13,213.56 1016.27,210.15 1017.42,206.98 1018.57,202.80 1019.72,200.28 1020.86,201.33 1022.01,193.42 1023.16,190.51 1024.31,194.85 1025.45,202.44 1026.60,201.60 1027.75,211.97 1028.90,214.03 1030.04,209.01 1031.19,203.91 1032.34,204.85 1033.48,207.56 1034.63,208.96 1035.78,210.39 1036.93,214.08 1038.07,217.00 1039.22,214.93 1040.37,217.22 1041.52,221.14 1042.66,209.60 1043.81,198.81 1044.96,190.64 1046.11,193.24 1047.25,194.69 1048.40,208.74 1049.55,179.38 1050.70,194.87 1051.84,194.87 1052.99,194.87 1054.14,194.87 1055.28,217.60 1056.43,217.60 1057.58,217.60 1058.73,217.60 1059.87,195.64 1061.02,195.64 1062.17,195.64 1063.32,187.71 1064.46,177.99 1065.61,187.38 1066.76,187.38 1067.91,187.38 1069.05,195.30 1070.20,217.58 1071.35,194.54 1072.49,194.54 1073.64,194.54 1074.79,194.54 1075.94,194.57 1077.08,194.61 1078.23,194.61 1079.38,194.59 1080.53,177.96 1081.67,177.79 1082.82,194.53 1083.97,194.53 1085.12,194.56 1086.26,217.60 1087.41,217.60 1088.56,217.60 1089.71,194.57 1090.85,194.57 1092.00,194.57" fill="none" stroke="#1f77b4" stroke-width="1.7"/>
<text x="72" y="348" font-size="12" font-family="monospace" fill="#333">time (s)</text>
<text x="18" y="178.00" transform="rotate(-90 18,178.00)" font-size="12" font-family="monospace" fill="#333">hard_score</text>
<text x="1092" y="348" text-anchor="end" font-size="12" font-family="monospace" fill="#555">orange = hard_span</text>
</svg>
