<svg xmlns="http://www.w3.org/2000/svg" width="1120" height="360" viewBox="0 0 1120 360">
<rect width="100%" height="100%" fill="#fafafa"/>
<text x="72" y="24" font-size="16" font-family="monospace" fill="#222">seatbelt.both.hang.zhangyu.20260205.batch.1 episode_000004</text>
<rect x="72" y="46" width="1020" height="264" fill="#fff" stroke="#c9c9c9"/>
<rect x="80.98" y="46" width="41.92" height="264" fill="#ffb000" opacity="0.16"/>
<rect x="185.78" y="46" width="74.85" height="264" fill="#ffb000" opacity="0.16"/>
<rect x="556.05" y="46" width="76.85" height="264" fill="#ffb000" opacity="0.16"/>
<rect x="848.48" y="46" width="41.92" height="264" fill="#ffb000" opacity="0.16"/>
<rect x="1016.15" y="46" width="50.90" height="264" fill="#ffb000" opacity="0.16"/>
<line x1="72" y1="310.00" x2="1092" y2="310.00" stroke="#e7e7e7"/>
<text x="62" y="314.00" text-anchor="end" font-size="11" font-family="monospace" fill="#555">0.00</text>
<line x1="72" y1="244.00" x2="1092" y2="244.00" stroke="#e7e7e7"/>
<text x="62" y="248.00" text-anchor="end" font-size="11" font-family="monospace" fill="#555">0.25</text>
<line x1="72" y1="178.00" x2="1092" y2="178.00" stroke="#e7e7e7"/>
<text x="62" y="182.00" text-anchor="end" font-size="11" font-family="monospace" fill="#555">0.50</text>
<line x1="72" y1="112.00" x2="1092" y2="112.00" stroke="#e7e7e7"/>
<text x="62" y="116.00" text-anchor="end" font-size="11" font-family="monospace" fill="#555">0.75</text>
<line x1="72" y1="46.00" x2="1092" y2="46.00" stroke="#e7e7e7"/>
<text x="62" y="50.00" text-anchor="end" font-size="11" font-family="monospace" fill="#555">1.00</text>
<line x1="72.00" y1="310" x2="72.00" y2="315" stroke="#999"/>
<text x="72.00" y="330" text-anchor="middle" font-size="11" font-family="monospace" fill="#555">0s</text>
<line x1="221.71" y1="310" x2="221.71" y2="315" stroke="#999"/>
<text x="221.71" y="330" text-anchor="middle" font-size="11" font-family="monospace" fill="#555">5s</text>
<line x1="371.41" y1="310" x2="371.41" y2="315" stroke="#999"/>
<text x="371.41" y="330" text-anchor="middle" font-size="11" font-family="monospace" fill="#555">10s</text>
<line x1="521.12" y1="310" x2="521.12" y2="315" stroke="#999"/>
<text x="521.12" y="330" text-anchor="middle" font-size="11" font-family="monospace" fill="#555">15s</text>
<line x1="670.83" y1="310" x2="670.83" y2="315" stroke="#999"/>
<text x="670.83" y="330" text-anchor="middle" font-size="11" font-family="monospace" fill="#555">20s</text>
<line x1="820.53" y1="310" x2="820.53" y2="315" stroke="#999"/>
<text x="820.53" y="330" text-anchor="middle" font-size="11" font-family="monospace" fill="#555">25s</text>
<line x1="970.24" y1="310" x2="970.24" y2="315" stroke="#999"/>
<text x="970.24" y="330" text-anchor="middle" font-size="11" font-family="monospace" fill="#555">30s</text>
<line x1="72" y1="196.51" x2="1092" y2="196.51" stroke="#d62728" stroke-width="1.4" stroke-dasharray="6 5"/>
<text x="1088" y="190.51" text-anchor="end" font-size="11" font-family="monospace" fill="#d62728">precision threshold 0.430</text>
<polyline points="72.00,199.65 73.00,177.89 74.00,177.82 74.99,177.48 75.99,177.22 76.99,177.72 77.99,177.87 78.99,177.92 79.98,177.99 80.98,177.99 81.98,178.00 82.98,178.00 83.98,194.57 84.97,182.84 85.97,182.84 86.97,177.99 87.97,176.43 88.97,174.51 89.96,187.74 90.96,196.26 91.96,201.28 92.96,188.64 93.96,182.20 94.95,182.08 95.95,183.11 96.95,187.50 97.95,199.91 98.95,206.04 99.95,196.17 100.94,183.32 101.94,176.48 102.94,175.69 103.94,170.99 104.94,178.02 105.93,185.37 106.93,184.61 107.93,181.60 108.93,184.25 109.93,185.86 110.92,188.46 111.92,194.00 112.92,195.55 113.92,192.09 114.92,235.68 115.91,234.21 116.91,230.77 117.91,226.39 118.91,224.21 119.91,223.88 120.90,223.81 121.90,223.16 122.90,226.83 123.90,229.08 124.90,229.00 125.89,232.28 126.89,238.61 127.89,242.60 128.89,243.01 129.89,241.56 130.88,241.09 131.88,240.02 132.88,238.27 133.88,242.44 134.88,245.24 135.87,247.29 136.87,242.18 137.87,236.23 138.87,230.58 139.87,223.93 140.86,219.68 141.86,216.38 142.86,206.21 143.86,204.62 144.86,204.95 145.86,205.29 146.85,208.25 147.85,219.31 148.85,229.39 149.85,237.07 150.85,239.45 151.84,234.22 152.84,232.76 153.84,227.96 154.84,223.78 155.84,221.54 156.83,226.66 157.83,250.14 158.83,254.39 159.83,254.43 160.83,254.30 161.82,253.32 162.82,251.92 163.82,253.36 164.82,257.25 165.82,261.30 166.81,263.15 167.81,267.14 168.81,268.04 169.81,268.36 170.81,267.16 171.80,266.26 172.80,263.44 173.80,263.47 174.80,264.91 175.80,265.76 176.79,264.28 177.79,264.85 178.79,261.29 179.79,255.55 180.79,242.15 181.78,228.42 182.78,223.41 183.78,223.20 184.78,218.15 185.78,217.54 186.77,214.93 187.77,207.65 188.77,200.34 189.77,199.02 190.77,199.93 191.77,202.29 192.76,199.11 193.76,190.19 194.76,181.39 195.76,173.18 196.76,176.26 197.75,176.33 198.75,181.56 199.75,166.57 200.75,172.93 201.75,171.86 202.74,175.92 203.74,177.06 204.74,179.37 205.74,178.83 206.74,178.31 207.73,177.58 208.73,177.88 209.73,175.41 210.73,172.78 211.73,168.37 212.72,163.13 213.72,161.20 214.72,164.57 215.72,167.96 216.72,171.19 217.71,174.13 218.71,175.64 219.71,175.64 220.71,175.46 221.71,174.97 222.70,170.33 223.70,167.32 224.70,167.60 225.70,169.29 226.70,172.96 227.69,181.66 228.69,185.76 229.69,186.05 230.69,186.47 231.69,186.30 232.68,186.24 233.68,185.70 234.68,184.63 235.68,184.41 236.68,184.44 237.68,183.67 238.67,183.57 239.67,183.86 240.67,183.90 241.67,183.44 242.67,199.22 243.66,199.66 244.66,198.84 245.66,191.65 246.66,191.70 247.66,190.51 248.65,191.09 249.65,193.08 250.65,198.41 251.65,193.32 252.65,200.22 253.64,208.92 254.64,217.19 255.64,222.82 256.64,231.31 257.64,227.69 258.63,221.76 259.63,221.56 260.63,227.39 261.63,233.36 262.63,237.17 263.62,241.69 264.62,240.53 265.62,240.68 266.62,237.11 267.62,232.03 268.61,229.78 269.61,231.42 270.61,230.88 271.61,234.52 272.61,245.91 273.60,249.31 274.60,248.19 275.60,246.64 276.60,247.22 277.60,243.61 278.59,243.11 279.59,244.41 280.59,247.63 281.59,250.76 282.59,256.49 283.59,260.96 284.58,271.72 285.58,268.52 286.58,268.35 287.58,262.88 288.58,249.84 289.57,244.73 290.57,244.24 291.57,240.06 292.57,240.27 293.57,247.00 294.56,256.83 295.56,259.62 296.56,263.08 297.56,269.19 298.56,271.40 299.55,267.35 300.55,262.52 301.55,257.40 302.55,250.79 303.55,251.09 304.54,253.22 305.54,255.49 306.54,253.45 307.54,251.83 308.54,248.89 309.53,247.25 310.53,250.78 311.53,259.67 312.53,265.38 313.53,267.66 314.52,269.00 315.52,272.18 316.52,269.36 317.52,270.96 318.52,273.41 319.51,274.05 320.51,273.79 321.51,276.50 322.51,277.66 323.51,278.32 324.50,279.87 325.50,275.86 326.50,275.69 327.50,271.59 328.50,267.77 329.50,257.22 330.49,249.31 331.49,239.58 332.49,240.60 333.49,242.14 334.49,246.22 335.48,249.80 336.48,254.08 337.48,268.91 338.48,278.30 339.48,276.30 340.47,272.47 341.47,272.77 342.47,274.08 343.47,273.39 344.47,274.03 345.46,274.34 346.46,266.14 347.46,259.18 348.46,255.42 349.46,247.98 350.45,243.41 351.45,244.70 352.45,242.93 353.45,239.67 354.45,234.98 355.44,227.58 356.44,223.72 357.44,223.51 358.44,222.20 359.44,222.31 360.43,221.15 361.43,219.73 362.43,218.60 363.43,218.20 364.43,220.01 365.42,220.71 366.42,226.50 367.42,232.64 368.42,233.19 369.42,225.41 370.41,233.60 371.41,232.16 372.41,233.73 373.41,231.63 374.41,236.25 375.41,231.19 376.40,232.57 377.40,234.27 378.40,240.13 379.40,244.60 380.40,244.64 381.39,243.08 382.39,241.70 383.39,240.72 384.39,242.22 385.39,248.72 386.38,249.25 387.38,251.64 388.38,253.07 389.38,255.14 390.38,255.80 391.37,259.40 392.37,260.53 393.37,259.80 394.37,259.78 395.37,261.46 396.36,260.87 397.36,258.74 398.36,259.29 399.36,259.90 400.36,259.63 401.35,260.81 402.35,263.24 403.35,261.89 404.35,261.21 405.35,255.61 406.34,252.92 407.34,252.63 408.34,254.61 409.34,255.66 410.34,261.71 411.33,264.13 412.33,251.09 413.33,250.55 414.33,249.21 415.33,235.21 416.32,229.93 417.32,229.97 418.32,229.52 419.32,229.19 420.32,235.18 421.32,233.23 422.31,230.79 423.31,229.21 424.31,227.12 425.31,232.36 426.31,239.16 427.30,241.70 428.30,242.33 429.30,245.18 430.30,238.26 431.30,236.95 432.29,237.57 433.29,239.31 434.29,239.28 435.29,246.65 436.29,244.44 437.28,241.35 438.28,225.98 439.28,204.88 440.28,198.84 441.28,199.15 442.27,198.75 443.27,196.46 444.27,198.71 445.27,204.54 446.27,203.24 447.26,207.99 448.26,219.89 449.26,219.22 450.26,212.96 451.26,210.68 452.25,208.18 453.25,212.97 454.25,220.19 455.25,208.67 456.25,205.70 457.24,206.60 458.24,206.52 459.24,204.67 460.24,204.43 461.24,208.49 462.23,217.33 463.23,224.48 464.23,231.12 465.23,243.53 466.23,254.69 467.23,256.69 468.22,254.15 469.22,253.16 470.22,250.23 471.22,248.39 472.22,243.55 473.21,237.34 474.21,238.03 475.21,241.16 476.21,241.56 477.21,245.77 478.20,247.99 479.20,241.44 480.20,238.47 481.20,239.93 482.20,241.08 483.19,243.13 484.19,253.20 485.19,247.39 486.19,238.59 487.19,228.31 488.18,220.49 489.18,219.55 490.18,226.27 491.18,234.96 492.18,245.42 493.17,258.91 494.17,263.09 495.17,257.46 496.17,253.37 497.17,251.53 498.16,251.19 499.16,251.47 500.16,254.89 501.16,251.69 502.16,251.98 503.15,250.86 504.15,251.82 505.15,253.99 506.15,259.21 507.15,259.93 508.14,260.37 509.14,257.62 510.14,253.75 511.14,246.79 512.14,244.76 513.14,247.34 514.13,242.97 515.13,242.19 516.13,245.34 517.13,244.08 518.13,242.09 519.12,247.49 520.12,246.88 521.12,252.07 522.12,254.45 523.12,251.27 524.11,251.46 525.11,254.27 526.11,250.52 527.11,249.32 528.11,246.54 529.10,246.29 530.10,248.02 531.10,252.22 532.10,256.62 533.10,264.08 534.09,266.67 535.09,267.49 536.09,267.30 537.09,265.56 538.09,264.21 539.08,261.93 540.08,272.61 541.08,269.46 542.08,266.17 543.08,266.63 544.07,270.31 545.07,273.22 546.07,278.39 547.07,283.37 548.07,284.48 549.06,284.18 550.06,282.22 551.06,281.20 552.06,278.83 553.06,274.59 554.05,270.37 555.05,269.00 556.05,260.91 557.05,255.68 558.05,248.67 559.05,241.61 560.04,231.20 561.04,217.96 562.04,209.09 563.04,204.09 564.04,194.45 565.03,188.55 566.03,193.79 567.03,192.97 568.03,192.65 569.03,197.57 570.02,196.30 571.02,195.98 572.02,192.70 573.02,188.97 574.02,185.48 575.01,185.95 576.01,180.98 577.01,183.21 578.01,183.69 579.01,184.48 580.00,177.02 581.00,177.67 582.00,187.38 583.00,186.17 584.00,180.21 584.99,181.11 585.99,186.98 586.99,194.65 587.99,199.52 588.99,208.98 589.98,219.35 590.98,216.47 591.98,213.84 592.98,214.03 593.98,213.30 594.97,211.68 595.97,213.27 596.97,207.01 597.97,185.64 598.97,183.51 599.96,183.43 600.96,183.44 601.96,175.57 602.96,175.65 603.96,180.44 604.95,182.35 605.95,184.63 606.95,206.72 607.95,215.98 608.95,209.89 609.95,209.35 610.94,210.08 611.94,210.27 612.94,206.08 613.94,198.69 614.94,193.22 615.93,189.01 616.93,185.22 617.93,191.24 618.93,191.04 619.93,181.14 620.92,179.17 621.92,182.64 622.92,181.28 623.92,191.61 624.92,211.32 625.91,215.17 626.91,214.31 627.91,211.14 628.91,208.02 629.91,207.94 630.90,208.41 631.90,218.46 632.90,236.01 633.90,241.61 634.90,249.10 635.89,263.65 636.89,269.82 637.89,262.99 638.89,274.70 639.89,285.10 640.88,285.10 641.88,277.56 642.88,284.48 643.88,283.24 644.88,283.37 645.87,285.49 646.87,284.00 647.87,277.07 648.87,276.46 649.87,274.33 650.86,267.76 651.86,276.94 652.86,286.94 653.86,281.10 654.86,271.97 655.86,270.89 656.85,265.32 657.85,259.43 658.85,264.78 659.85,272.88 660.85,275.78 661.84,274.19 662.84,273.13 663.84,275.34 664.84,275.53 665.84,276.07 666.83,282.92 667.83,282.70 668.83,284.21 669.83,286.74 670.83,289.21 671.82,288.33 672.82,284.81 673.82,283.41 674.82,282.57 675.82,281.67 676.81,281.29 677.81,284.25 678.81,279.62 679.81,276.16 680.81,272.05 681.80,265.01 682.80,260.79 683.80,258.18 684.80,261.36 685.80,268.17 686.79,273.67 687.79,275.65 688.79,282.69 689.79,281.41 690.79,279.34 691.78,269.40 692.78,260.60 693.78,260.87 694.78,260.15 695.78,260.30 696.77,272.19 697.77,283.37 698.77,284.48 699.77,288.37 700.77,289.39 701.77,289.99 702.76,291.65 703.76,293.24 704.76,292.74 705.76,291.74 706.76,292.12 707.75,291.06 708.75,290.95 709.75,285.95 710.75,284.50 711.75,283.33 712.74,284.67 713.74,284.19 714.74,283.61 715.74,284.98 716.74,285.72 717.73,280.70 718.73,279.87 719.73,279.61 720.73,281.29 721.73,281.42 722.72,286.68 723.72,285.13 724.72,280.96 725.72,272.24 726.72,265.06 727.71,253.43 728.71,241.74 729.71,232.23 730.71,231.23 731.71,218.47 732.70,212.85 733.70,216.15 734.70,223.54 735.70,222.62 736.70,234.55 737.69,233.81 738.69,232.06 739.69,231.91 740.69,231.92 741.69,232.91 742.68,242.14 743.68,245.35 744.68,243.65 745.68,241.24 746.68,239.92 747.68,236.68 748.67,227.97 749.67,227.91 750.67,225.09 751.67,220.03 752.67,206.51 753.66,207.82 754.66,208.48 755.66,210.42 756.66,198.08 757.66,198.72 758.65,204.74 759.65,205.08 760.65,205.76 761.65,205.38 762.65,206.11 763.64,206.21 764.64,205.09 765.64,202.99 766.64,207.33 767.64,209.68 768.63,203.30 769.63,205.45 770.63,205.61 771.63,217.96 772.63,220.92 773.62,227.04 774.62,224.23 775.62,228.04 776.62,229.19 777.62,231.15 778.61,232.16 779.61,230.27 780.61,228.53 781.61,226.18 782.61,225.78 783.60,220.41 784.60,214.57 785.60,214.57 786.60,224.98 787.60,234.55 788.59,246.84 789.59,266.28 790.59,277.51 791.59,271.84 792.59,271.82 793.59,274.89 794.58,245.68 795.58,235.78 796.58,239.74 797.58,241.23 798.58,238.28 799.57,247.27 800.57,257.55 801.57,260.66 802.57,260.99 803.57,264.49 804.56,264.07 805.56,264.20 806.56,263.53 807.56,256.23 808.56,251.72 809.55,255.01 810.55,256.16 811.55,255.84 812.55,263.08 813.55,265.77 814.54,265.10 815.54,265.95 816.54,264.68 817.54,259.32 818.54,256.53 819.53,245.48 820.53,239.32 821.53,236.96 822.53,241.05 823.53,244.54 824.52,253.20 825.52,257.41 826.52,262.54 827.52,258.65 828.52,252.89 829.51,248.69 830.51,241.58 831.51,233.35 832.51,227.65 833.51,223.98 834.50,225.00 835.50,228.52 836.50,230.36 837.50,230.25 838.50,229.77 839.50,226.33 840.49,217.26 841.49,209.06 842.49,211.72 843.49,208.06 844.49,203.09 845.48,202.23 846.48,200.56 847.48,200.48 848.48,200.55 849.48,200.35 850.47,201.21 851.47,202.71 852.47,199.65 853.47,199.15 854.47,197.51 855.46,196.82 856.46,195.96 857.46,198.79 858.46,194.29 859.46,185.86 860.45,180.89 861.45,177.65 862.45,176.32 863.45,180.18 864.45,189.20 865.44,194.66 866.44,197.40 867.44,196.29 868.44,195.80 869.44,195.07 870.43,192.67 871.43,191.84 872.43,189.67 873.43,185.83 874.43,182.35 875.42,180.10 876.42,177.03 877.42,165.88 878.42,162.95 879.42,164.40 880.41,188.61 881.41,188.62 882.41,200.63 883.41,209.51 884.41,209.98 885.41,211.46 886.40,215.61 887.40,219.15 888.40,209.05 889.40,203.57 890.40,201.80 891.39,200.33 892.39,198.41 893.39,208.50 894.39,212.62 895.39,212.91 896.38,212.33 897.38,210.72 898.38,208.29 899.38,200.85 900.38,194.53 901.37,186.17 902.37,176.80 903.37,173.22 904.37,180.71 905.37,185.38 906.36,189.71 907.36,197.76 908.36,201.26 909.36,204.86 910.36,215.81 911.35,233.59 912.35,249.78 913.35,264.08 914.35,275.19 915.35,280.90 916.34,280.84 917.34,279.41 918.34,278.59 919.34,268.49 920.34,244.56 921.33,242.98 922.33,250.79 923.33,253.21 924.33,255.32 925.33,269.66 926.32,280.91 927.32,277.67 928.32,274.00 929.32,277.84 930.32,277.28 931.32,275.86 932.31,276.94 933.31,275.59 934.31,274.50 935.31,265.18 936.31,261.39 937.30,260.34 938.30,262.72 939.30,264.32 940.30,271.64 941.30,274.50 942.29,281.12 943.29,280.83 944.29,281.28 945.29,285.61 946.29,279.04 947.28,260.41 948.28,256.82 949.28,256.72 950.28,256.43 951.28,256.25 952.27,256.34 953.27,256.64 954.27,255.85 955.27,256.29 956.27,263.55 957.26,279.98 958.26,287.43 959.26,289.16 960.26,289.76 961.26,288.96 962.25,288.33 963.25,282.73 964.25,270.01 965.25,227.61 966.25,230.41 967.24,232.47 968.24,240.20 969.24,247.98 970.24,245.19 971.24,241.57 972.23,242.26 973.23,242.36 974.23,242.74 975.23,238.79 976.23,238.42 977.23,235.37 978.22,234.87 979.22,241.63 980.22,257.12 981.22,263.75 982.22,268.15 983.21,268.43 984.21,264.33 985.21,261.72 986.21,261.58 987.21,256.33 988.20,251.49 989.20,238.34 990.20,239.91 991.20,227.84 992.20,228.52 993.19,231.12 994.19,241.55 995.19,240.48 996.19,250.19 997.19,256.06 998.18,246.40 999.18,238.48 1000.18,234.50 1001.18,236.76 1002.18,235.45 1003.17,244.11 1004.17,249.52 1005.17,252.30 1006.17,251.41 1007.17,211.88 1008.16,211.76 1009.16,209.49 1010.16,206.61 1011.16,203.81 1012.16,202.08 1013.15,201.71 1014.15,201.40 1015.15,202.56 1016.15,204.67 1017.15,209.04 1018.14,210.31 1019.14,215.60 1020.14,216.21 1021.14,212.38 1022.14,208.35 1023.14,207.41 1024.13,195.44 1025.13,194.91 1026.13,191.67 1027.13,193.07 1028.13,193.14 1029.12,204.49 1030.12,205.06 1031.12,210.50 1032.12,211.97 1033.12,206.50 1034.11,200.35 1035.11,197.18 1036.11,194.11 1037.11,195.11 1038.11,197.69 1039.10,206.61 1040.10,210.69 1041.10,218.75 1042.10,221.05 1043.10,222.37 1044.09,204.55 1045.09,186.20 1046.09,178.94 1047.09,180.59 1048.09,186.59 1049.08,192.14 1050.08,173.93 1051.08,174.21 1052.08,176.66 1053.08,189.67 1054.07,198.07 1055.07,199.43 1056.07,174.11 1057.07,174.78 1058.07,184.82 1059.06,175.95 1060.06,172.18 1061.06,180.12 1062.06,182.80 1063.06,178.00 1064.05,182.29 1065.05,205.82 1066.05,194.05 1067.05,194.05 1068.05,206.33 1069.05,194.57 1070.04,194.57 1071.04,206.30 1072.04,182.84 1073.04,177.93 1074.04,177.89 1075.03,177.88 1076.03,177.93 1077.03,177.97 1078.03,177.97 1079.03,194.57 1080.02,177.97 1081.02,177.94 1082.02,177.94 1083.02,177.88 1084.02,177.89 1085.01,177.93 1086.01,177.94 1087.01,177.95 1088.01,178.00 1089.01,178.00 1090.00,178.00 1091.00,195.52 1092.00,195.52" fill="none" stroke="#1f77b4" stroke-width="1.7"/>
<text x="72" y="348" font-size="12" font-family="monospace" fill="#333">time (s)</text>
<text x="18" y="178.00" transform="rotate(-90 18,178.00)" font-size="12" font-family="monospace" fill="#333">hard_score</text>
<text x="1092" y="348" text-anchor="end" font-size="12" font-family="monospace" fill="#555">orange = hard_span</text>
</svg>
