<svg xmlns="http://www.w3.org/2000/svg" width="1120" height="360" viewBox="0 0 1120 360">
<rect width="100%" height="100%" fill="#fafafa"/>
<text x="72" y="24" font-size="16" font-family="monospace" fill="#222">seatbelt.both.hang.zhangyu.20260205.batch.1 episode_000000</text>
<rect x="72" y="46" width="1020" height="264" fill="#fff" stroke="#c9c9c9"/>
<rect x="161.94" y="46" width="78.08" height="264" fill="#ffb000" opacity="0.16"/>
<rect x="590.90" y="46" width="34.59" height="264" fill="#ffb000" opacity="0.16"/>
<rect x="630.43" y="46" width="37.56" height="264" fill="#ffb000" opacity="0.16"/>
<rect x="887.41" y="46" width="80.06" height="264" fill="#ffb000" opacity="0.16"/>
<rect x="1000.08" y="46" width="64.25" height="264" fill="#ffb000" opacity="0.16"/>
<line x1="72" y1="310.00" x2="1092" y2="310.00" stroke="#e7e7e7"/>
<text x="62" y="314.00" text-anchor="end" font-size="11" font-family="monospace" fill="#555">0.00</text>
<line x1="72" y1="244.00" x2="1092" y2="244.00" stroke="#e7e7e7"/>
<text x="62" y="248.00" text-anchor="end" font-size="11" font-family="monospace" fill="#555">0.25</text>
<line x1="72" y1="178.00" x2="1092" y2="178.00" stroke="#e7e7e7"/>
<text x="62" y="182.00" text-anchor="end" font-size="11" font-family="monospace" fill="#555">0.50</text>
<line x1="72" y1="112.00" x2="1092" y2="112.00" stroke="#e7e7e7"/>
<text x="62" y="116.00" text-anchor="end" font-size="11" font-family="monospace" fill="#555">0.75</text>
<line x1="72" y1="46.00" x2="1092" y2="46.00" stroke="#e7e7e7"/>
<text x="62" y="50.00" text-anchor="end" font-size="11" font-family="monospace" fill="#555">1.00</text>
<line x1="72.00" y1="310" x2="72.00" y2="315" stroke="#999"/>
<text x="72.00" y="330" text-anchor="middle" font-size="11" font-family="monospace" fill="#555">0s</text>
<line x1="220.26" y1="310" x2="220.26" y2="315" stroke="#999"/>
<text x="220.26" y="330" text-anchor="middle" font-size="11" font-family="monospace" fill="#555">5s</text>
<line x1="368.51" y1="310" x2="368.51" y2="315" stroke="#999"/>
<text x="368.51" y="330" text-anchor="middle" font-size="11" font-family="monospace" fill="#555">10s</text>
<line x1="516.77" y1="310" x2="516.77" y2="315" stroke="#999"/>
<text x="516.77" y="330" text-anchor="middle" font-size="11" font-family="monospace" fill="#555">15s</text>
<line x1="665.02" y1="310" x2="665.02" y2="315" stroke="#999"/>
<text x="665.02" y="330" text-anchor="middle" font-size="11" font-family="monospace" fill="#555">20s</text>
<line x1="813.28" y1="310" x2="813.28" y2="315" stroke="#999"/>
<text x="813.28" y="330" text-anchor="middle" font-size="11" font-family="monospace" fill="#555">25s</text>
<line x1="961.53" y1="310" x2="961.53" y2="315" stroke="#999"/>
<text x="961.53" y="330" text-anchor="middle" font-size="11" font-family="monospace" fill="#555">30s</text>
<line x1="72" y1="196.51" x2="1092" y2="196.51" stroke="#d62728" stroke-width="1.4" stroke-dasharray="6 5"/>
<text x="1088" y="190.51" text-anchor="end" font-size="11" font-family="monospace" fill="#d62728">precision threshold 0.430</text>
<polyline points="72.00,217.60 72.99,217.60 73.98,194.87 74.97,194.87 75.95,194.87 76.94,177.99 77.93,177.95 78.92,177.95 79.91,177.95 80.90,177.91 81.88,177.73 82.87,177.74 83.86,177.92 84.85,177.92 85.84,177.96 86.83,177.99 87.81,178.00 88.80,178.00 89.79,178.00 90.78,178.00 91.77,178.00 92.76,178.00 93.74,178.00 94.73,177.99 95.72,177.99 96.71,177.88 97.70,177.24 98.69,176.80 99.67,176.47 100.66,176.47 101.65,176.91 102.64,177.08 103.63,193.42 104.62,194.35 105.60,184.46 106.59,176.47 107.58,180.10 108.57,177.59 109.56,177.86 110.55,171.97 111.53,174.39 112.52,171.65 113.51,172.36 114.50,225.48 115.49,234.42 116.48,236.41 117.47,240.18 118.45,240.40 119.44,241.57 120.43,231.01 121.42,212.11 122.41,211.74 123.40,210.49 124.38,210.10 125.37,209.81 126.36,216.53 127.35,228.12 128.34,232.76 129.33,233.14 130.31,233.48 131.30,230.62 132.29,231.71 133.28,229.55 134.27,226.34 135.26,222.06 136.24,216.74 137.23,210.02 138.22,211.80 139.21,222.29 140.20,232.61 141.19,243.43 142.17,250.82 143.16,251.10 144.15,247.42 145.14,247.08 146.13,247.83 147.12,249.94 148.10,251.93 149.09,254.98 150.08,251.60 151.07,248.60 152.06,247.48 153.05,244.49 154.03,236.56 155.02,225.57 156.01,220.77 157.00,227.88 157.99,214.42 158.98,212.17 159.97,210.41 160.95,210.89 161.94,211.33 162.93,208.61 163.92,206.29 164.91,211.61 165.90,209.68 166.88,203.23 167.87,200.19 168.86,197.68 169.85,194.28 170.84,186.93 171.83,186.52 172.81,184.79 173.80,187.19 174.79,188.62 175.78,189.63 176.77,188.86 177.76,185.21 178.74,181.80 179.73,181.52 180.72,180.64 181.71,183.28 182.70,187.81 183.69,189.36 184.67,189.01 185.66,186.77 186.65,179.42 187.64,176.92 188.63,177.41 189.62,179.54 190.60,185.60 191.59,194.24 192.58,197.77 193.57,197.99 194.56,196.31 195.55,195.28 196.53,194.09 197.52,193.37 198.51,190.16 199.50,160.24 200.49,155.30 201.48,155.70 202.47,156.02 203.45,160.51 204.44,174.22 205.43,180.30 206.42,180.92 207.41,180.45 208.40,181.10 209.38,182.23 210.37,181.25 211.36,180.24 212.35,179.29 213.34,173.92 214.33,169.39 215.31,167.81 216.30,169.73 217.29,172.30 218.28,178.50 219.27,182.08 220.26,172.64 221.24,170.73 222.23,170.63 223.22,146.48 224.21,131.60 225.20,137.61 226.19,130.78 227.17,128.90 228.16,139.51 229.15,161.94 230.14,175.35 231.13,193.85 232.12,199.98 233.10,202.27 234.09,202.30 235.08,199.68 236.07,199.96 237.06,206.30 238.05,209.46 239.03,206.97 240.02,205.80 241.01,201.03 242.00,207.81 242.99,203.13 243.98,201.00 244.97,195.72 245.95,190.78 246.94,188.82 247.93,187.10 248.92,187.03 249.91,182.81 250.90,186.86 251.88,194.98 252.87,193.11 253.86,188.66 254.85,191.87 255.84,194.71 256.83,195.00 257.81,198.93 258.80,206.93 259.79,209.57 260.78,212.97 261.77,221.76 262.76,235.33 263.74,247.35 264.73,254.83 265.72,263.05 266.71,266.83 267.70,264.00 268.69,262.67 269.67,263.02 270.66,263.32 271.65,261.50 272.64,262.02 273.63,260.66 274.62,261.90 275.60,253.62 276.59,238.15 277.58,231.66 278.57,232.23 279.56,230.64 280.55,235.50 281.53,251.31 282.52,259.89 283.51,259.27 284.50,272.30 285.49,276.88 286.48,278.20 287.47,276.21 288.45,273.58 289.44,269.57 290.43,265.80 291.42,263.05 292.41,266.34 293.40,257.38 294.38,252.92 295.37,250.15 296.36,246.10 297.35,242.20 298.34,236.11 299.33,241.06 300.31,232.82 301.30,233.44 302.29,230.77 303.28,242.65 304.27,244.58 305.26,246.65 306.24,246.41 307.23,249.45 308.22,256.03 309.21,254.21 310.20,259.41 311.19,256.82 312.17,248.44 313.16,220.56 314.15,217.79 315.14,214.94 316.13,212.23 317.12,212.50 318.10,215.76 319.09,219.93 320.08,227.06 321.07,223.72 322.06,226.63 323.05,226.93 324.03,221.69 325.02,221.54 326.01,224.86 327.00,227.14 327.99,228.40 328.98,234.03 329.97,232.80 330.95,236.29 331.94,232.00 332.93,232.09 333.92,223.25 334.91,224.09 335.90,224.02 336.88,227.72 337.87,231.37 338.86,239.17 339.85,236.27 340.84,229.05 341.83,218.92 342.81,212.72 343.80,212.89 344.79,222.84 345.78,230.38 346.77,242.18 347.76,249.75 348.74,251.42 349.73,251.08 350.72,251.19 351.71,246.06 352.70,241.40 353.69,237.31 354.67,229.32 355.66,223.80 356.65,221.76 357.64,221.66 358.63,219.85 359.62,222.64 360.60,221.64 361.59,221.77 362.58,222.16 363.57,221.26 364.56,221.57 365.55,208.69 366.53,199.89 367.52,195.37 368.51,185.99 369.50,189.50 370.49,197.31 371.48,208.57 372.47,201.94 373.45,204.84 374.44,209.48 375.43,205.07 376.42,197.35 377.41,204.21 378.40,212.81 379.38,211.43 380.37,222.21 381.36,232.60 382.35,224.03 383.34,219.67 384.33,218.60 385.31,215.29 386.30,216.19 387.29,225.46 388.28,230.61 389.27,232.97 390.26,237.13 391.24,234.81 392.23,228.38 393.22,219.53 394.21,215.55 395.20,209.26 396.19,210.05 397.17,215.80 398.16,223.94 399.15,227.42 400.14,232.80 401.13,233.08 402.12,226.75 403.10,218.55 404.09,206.38 405.08,206.48 406.07,208.51 407.06,215.33 408.05,224.58 409.03,236.12 410.02,233.47 411.01,230.63 412.00,223.02 412.99,226.53 413.98,232.28 414.97,235.06 415.95,239.76 416.94,237.71 417.93,238.60 418.92,235.72 419.91,239.96 420.90,231.08 421.88,230.81 422.87,230.45 423.86,233.20 424.85,233.26 425.84,241.74 426.83,228.71 427.81,223.93 428.80,223.79 429.79,223.68 430.78,224.64 431.77,235.92 432.76,235.61 433.74,232.89 434.73,230.86 435.72,230.51 436.71,230.81 437.70,231.73 438.69,228.67 439.67,226.93 440.66,225.00 441.65,226.02 442.64,225.59 443.63,226.74 444.62,221.40 445.60,215.28 446.59,208.65 447.58,205.87 448.57,204.16 449.56,201.63 450.55,200.81 451.53,196.24 452.52,196.43 453.51,193.32 454.50,184.27 455.49,189.74 456.48,204.60 457.47,217.46 458.45,221.32 459.44,223.98 460.43,224.34 461.42,221.42 462.41,225.63 463.40,237.13 464.38,242.08 465.37,245.65 466.36,248.39 467.35,247.23 468.34,241.61 469.33,231.99 470.31,230.26 471.30,233.22 472.29,236.50 473.28,242.22 474.27,249.55 475.26,251.36 476.24,252.55 477.23,252.55 478.22,254.51 479.21,256.13 480.20,253.62 481.19,246.20 482.17,240.47 483.16,237.05 484.15,238.92 485.14,243.54 486.13,249.24 487.12,251.36 488.10,254.43 489.09,252.58 490.08,249.60 491.07,243.07 492.06,239.14 493.05,235.74 494.03,236.62 495.02,238.11 496.01,246.77 497.00,252.63 497.99,248.73 498.98,236.48 499.97,228.41 500.95,226.32 501.94,220.63 502.93,225.50 503.92,240.89 504.91,248.51 505.90,248.67 506.88,253.01 507.87,252.90 508.86,248.40 509.85,249.22 510.84,241.61 511.83,239.48 512.81,241.08 513.80,238.54 514.79,233.33 515.78,231.04 516.77,227.22 517.76,227.33 518.74,219.42 519.73,217.35 520.72,224.72 521.71,233.69 522.70,233.26 523.69,243.38 524.67,251.31 525.66,256.64 526.65,257.47 527.64,257.33 528.63,261.82 529.62,263.65 530.60,263.71 531.59,265.82 532.58,269.28 533.57,262.67 534.56,258.20 535.55,253.97 536.53,245.54 537.52,237.63 538.51,237.14 539.50,249.36 540.49,249.03 541.48,255.69 542.47,254.31 543.45,258.73 544.44,255.35 545.43,251.98 546.42,252.12 547.41,260.34 548.40,263.34 549.38,271.31 550.37,269.57 551.36,260.52 552.35,247.19 553.34,247.48 554.33,247.52 555.31,247.13 556.30,246.83 557.29,246.48 558.28,246.31 559.27,249.06 560.26,254.15 561.24,257.97 562.23,260.33 563.22,264.62 564.21,271.52 565.20,267.03 566.19,264.15 567.17,265.49 568.16,264.69 569.15,265.53 570.14,268.59 571.13,256.58 572.12,254.98 573.10,256.84 574.09,256.02 575.08,255.07 576.07,269.28 577.06,270.97 578.05,269.61 579.03,268.34 580.02,267.79 581.01,259.34 582.00,258.74 582.99,242.59 583.98,230.21 584.97,216.15 585.95,212.45 586.94,213.68 587.93,214.55 588.92,215.13 589.91,218.82 590.90,216.99 591.88,215.08 592.87,215.19 593.86,213.03 594.85,210.75 595.84,209.35 596.83,208.50 597.81,204.20 598.80,195.55 599.79,193.69 600.78,193.82 601.77,188.78 602.76,190.09 603.74,196.72 604.73,189.80 605.72,188.74 606.71,195.30 607.70,199.43 608.69,194.47 609.67,204.03 610.66,205.21 611.65,200.98 612.64,189.63 613.63,190.77 614.62,190.06 615.60,191.54 616.59,195.11 617.58,204.38 618.57,210.43 619.56,211.16 620.55,211.52 621.53,212.93 622.52,215.05 623.51,216.62 624.50,222.46 625.49,216.01 626.48,209.80 627.47,208.10 628.45,204.55 629.44,204.75 630.43,207.46 631.42,206.33 632.41,205.01 633.40,206.64 634.38,202.35 635.37,200.97 636.36,203.26 637.35,197.24 638.34,187.29 639.33,189.89 640.31,188.38 641.30,190.25 642.29,193.19 643.28,189.08 644.27,182.15 645.26,180.66 646.24,182.73 647.23,188.64 648.22,199.46 649.21,205.28 650.20,210.41 651.19,207.88 652.17,201.49 653.16,202.44 654.15,203.30 655.14,194.67 656.13,188.46 657.12,191.33 658.10,191.12 659.09,195.51 660.08,208.30 661.07,222.72 662.06,232.42 663.05,241.76 664.03,241.34 665.02,241.48 666.01,239.60 667.00,228.08 667.99,220.86 668.98,210.87 669.97,211.44 670.95,209.31 671.94,213.36 672.93,221.26 673.92,236.55 674.91,241.37 675.90,244.20 676.88,244.90 677.87,240.98 678.86,240.95 679.85,236.12 680.84,232.27 681.83,230.69 682.81,220.01 683.80,215.03 684.79,220.68 685.78,228.28 686.77,230.90 687.76,233.72 688.74,239.08 689.73,239.51 690.72,239.27 691.71,239.76 692.70,252.00 693.69,252.12 694.67,251.12 695.66,250.89 696.65,250.90 697.64,251.00 698.63,252.26 699.62,251.35 700.60,236.00 701.59,223.67 702.58,212.01 703.57,212.06 704.56,212.51 705.55,226.76 706.53,236.02 707.52,237.16 708.51,234.54 709.50,230.24 710.49,227.25 711.48,228.26 712.47,237.16 713.45,242.68 714.44,243.90 715.43,249.16 716.42,251.12 717.41,254.14 718.40,252.83 719.38,253.25 720.37,254.15 721.36,252.69 722.35,247.20 723.34,245.13 724.33,245.37 725.31,236.22 726.30,234.74 727.29,240.42 728.28,240.32 729.27,237.90 730.26,242.44 731.24,246.72 732.23,247.51 733.22,250.92 734.21,249.53 735.20,245.60 736.19,243.96 737.17,247.74 738.16,249.02 739.15,247.74 740.14,252.84 741.13,258.84 742.12,259.63 743.10,264.02 744.09,277.76 745.08,284.31 746.07,289.39 747.06,283.96 748.05,278.53 749.03,266.47 750.02,265.24 751.01,260.95 752.00,252.00 752.99,254.74 753.98,268.56 754.97,272.15 755.95,275.88 756.94,281.61 757.93,284.04 758.92,283.53 759.91,285.02 760.90,283.47 761.88,280.97 762.87,279.36 763.86,279.95 764.85,279.63 765.84,281.92 766.83,286.90 767.81,288.98 768.80,287.91 769.79,286.82 770.78,283.58 771.77,278.00 772.76,274.54 773.74,270.61 774.73,270.92 775.72,273.08 776.71,278.12 777.70,276.73 778.69,279.52 779.67,274.25 780.66,264.51 781.65,255.11 782.64,255.09 783.63,257.09 784.62,261.31 785.60,270.72 786.59,279.37 787.58,283.60 788.57,281.13 789.56,269.97 790.55,266.86 791.53,265.60 792.52,266.56 793.51,267.76 794.50,261.70 795.49,259.76 796.48,244.66 797.47,237.59 798.45,235.15 799.44,234.45 800.43,237.00 801.42,253.72 802.41,253.42 803.40,253.78 804.38,250.11 805.37,243.02 806.36,241.84 807.35,244.58 808.34,243.51 809.33,245.93 810.31,255.58 811.30,256.04 812.29,254.81 813.28,255.62 814.27,254.93 815.26,254.52 816.24,256.30 817.23,263.30 818.22,262.98 819.21,260.24 820.20,258.54 821.19,258.19 822.17,257.81 823.16,258.84 824.15,257.41 825.14,259.09 826.13,259.02 827.12,254.34 828.10,250.21 829.09,258.44 830.08,257.59 831.07,255.74 832.06,259.28 833.05,262.58 834.03,260.43 835.02,263.39 836.01,264.85 837.00,268.60 837.99,269.21 838.98,269.41 839.97,267.09 840.95,267.38 841.94,271.14 842.93,272.32 843.92,272.29 844.91,267.99 845.90,263.89 846.88,260.09 847.87,261.03 848.86,262.45 849.85,267.53 850.84,271.24 851.83,268.76 852.81,263.86 853.80,262.57 854.79,261.75 855.78,258.55 856.77,262.36 857.76,266.67 858.74,264.78 859.73,265.62 860.72,269.59 861.71,269.55 862.70,268.32 863.69,270.38 864.67,270.89 865.66,271.00 866.65,272.39 867.64,274.83 868.63,276.19 869.62,276.19 870.60,276.56 871.59,278.35 872.58,278.36 873.57,278.44 874.56,279.78 875.55,279.89 876.53,280.38 877.52,281.46 878.51,280.84 879.50,299.01 880.49,297.86 881.48,297.81 882.47,297.20 883.45,294.79 884.44,294.67 885.43,292.42 886.42,288.13 887.41,287.25 888.40,290.06 889.38,288.66 890.37,274.53 891.36,259.64 892.35,243.18 893.34,223.45 894.33,206.74 895.31,196.18 896.30,190.83 897.29,187.85 898.28,191.55 899.27,188.75 900.26,198.79 901.24,197.13 902.23,193.32 903.22,192.06 904.21,195.13 905.20,192.76 906.19,193.86 907.17,198.11 908.16,197.06 909.15,196.53 910.14,194.36 911.13,202.20 912.12,207.06 913.10,207.21 914.09,206.30 915.08,209.89 916.07,210.95 917.06,210.87 918.05,212.43 919.03,212.85 920.02,206.11 921.01,194.24 922.00,195.44 922.99,193.88 923.98,197.22 924.97,201.76 925.95,210.00 926.94,211.59 927.93,210.43 928.92,209.83 929.91,213.11 930.90,204.56 931.88,196.72 932.87,195.34 933.86,188.18 934.85,183.47 935.84,193.70 936.83,201.47 937.81,202.75 938.80,206.21 939.79,208.69 940.78,209.03 941.77,210.32 942.76,212.69 943.74,216.58 944.73,210.79 945.72,198.54 946.71,193.76 947.70,188.75 948.69,185.48 949.67,186.53 950.66,192.84 951.65,190.39 952.64,183.01 953.63,175.85 954.62,176.42 955.60,179.81 956.59,183.71 957.58,185.22 958.57,191.20 959.56,198.79 960.55,207.27 961.53,211.08 962.52,227.39 963.51,244.98 964.50,218.50 965.49,218.15 966.48,218.70 967.47,218.78 968.45,219.14 969.44,223.62 970.43,230.55 971.42,220.07 972.41,218.82 973.40,218.13 974.38,217.88 975.37,218.81 976.36,235.86 977.35,243.72 978.34,242.88 979.33,235.07 980.31,232.34 981.30,234.51 982.29,236.70 983.28,242.91 984.27,253.21 985.26,250.75 986.24,237.58 987.23,230.30 988.22,229.82 989.21,230.07 990.20,236.61 991.19,250.45 992.17,258.67 993.16,258.38 994.15,258.29 995.14,258.83 996.13,258.79 997.12,258.71 998.10,257.73 999.09,257.11 1000.08,257.45 1001.07,257.71 1002.06,258.12 1003.05,259.49 1004.03,260.57 1005.02,251.14 1006.01,239.03 1007.00,197.24 1007.99,196.25 1008.98,196.27 1009.97,199.60 1010.95,202.18 1011.94,201.73 1012.93,203.75 1013.92,204.90 1014.91,207.86 1015.90,199.86 1016.88,197.84 1017.87,191.63 1018.86,188.42 1019.85,192.04 1020.84,207.00 1021.83,211.77 1022.81,214.51 1023.80,212.61 1024.79,206.55 1025.78,204.46 1026.77,199.32 1027.76,196.75 1028.74,197.96 1029.73,200.07 1030.72,193.90 1031.71,186.73 1032.70,185.93 1033.69,177.79 1034.67,177.29 1035.66,179.64 1036.65,179.54 1037.64,176.49 1038.63,182.96 1039.62,194.63 1040.60,189.25 1041.59,199.15 1042.58,209.54 1043.57,212.54 1044.56,209.83 1045.55,218.05 1046.53,215.98 1047.52,209.64 1048.51,204.18 1049.50,178.11 1050.49,173.73 1051.48,171.85 1052.47,174.74 1053.45,174.39 1054.44,183.23 1055.43,188.22 1056.42,195.63 1057.41,200.77 1058.40,209.48 1059.38,201.01 1060.37,206.33 1061.36,206.33 1062.35,183.02 1063.34,183.02 1064.33,194.78 1065.31,182.35 1066.30,182.35 1067.29,205.66 1068.28,205.66 1069.27,193.90 1070.26,182.86 1071.24,177.99 1072.23,177.99 1073.22,177.98 1074.21,177.71 1075.20,182.15 1076.19,195.38 1077.17,195.38 1078.16,195.39 1079.15,205.78 1080.14,182.25 1081.13,182.25 1082.12,182.24 1083.10,182.25 1084.09,194.57 1085.08,217.60 1086.07,217.60 1087.06,217.60 1088.05,217.60 1089.03,217.60 1090.02,217.60 1091.01,217.60 1092.00,217.60" fill="none" stroke="#1f77b4" stroke-width="1.7"/>
<text x="72" y="348" font-size="12" font-family="monospace" fill="#333">time (s)</text>
<text x="18" y="178.00" transform="rotate(-90 18,178.00)" font-size="12" font-family="monospace" fill="#333">hard_score</text>
<text x="1092" y="348" text-anchor="end" font-size="12" font-family="monospace" fill="#555">orange = hard_span</text>
</svg>
