<svg xmlns="http://www.w3.org/2000/svg" width="1120" height="1800" viewBox="0 0 1120 1800">
<rect width="100%" height="100%" fill="#fafafa"/>
<text x="72" y="24" font-size="16" font-family="monospace" fill="#222">seatbelt.both.hang.zhangyu.20260205.batch.1 episode_000000</text>
<rect x="72" y="46" width="1020" height="264" fill="#fff" stroke="#c9c9c9"/>
<rect x="161.94" y="46" width="78.08" height="264" fill="#ffb000" opacity="0.16"/>
<rect x="590.90" y="46" width="34.59" height="264" fill="#ffb000" opacity="0.16"/>
<rect x="630.43" y="46" width="37.56" height="264" fill="#ffb000" opacity="0.16"/>
<rect x="887.41" y="46" width="80.06" height="264" fill="#ffb000" opacity="0.16"/>
<rect x="1000.08" y="46" width="64.25" height="264" fill="#ffb000" opacity="0.16"/>
<line x1="72" y1="310.00" x2="1092" y2="310.00" stroke="#e7e7e7"/>
<text x="62" y="314.00" text-anchor="end" font-size="11" font-family="monospace" fill="#555">0.00</text>
<line x1="72" y1="244.00" x2="1092" y2="244.00" stroke="#e7e7e7"/>
<text x="62" y="248.00" text-anchor="end" font-size="11" font-family="monospace" fill="#555">0.25</text>
<line x1="72" y1="178.00" x2="1092" y2="178.00" stroke="#e7e7e7"/>
<text x="62" y="182.00" text-anchor="end" font-size="11" font-family="monospace" fill="#555">0.50</text>
<line x1="72" y1="112.00" x2="1092" y2="112.00" stroke="#e7e7e7"/>
<text x="62" y="116.00" text-anchor="end" font-size="11" font-family="monospace" fill="#555">0.75</text>
<line x1="72" y1="46.00" x2="1092" y2="46.00" stroke="#e7e7e7"/>
<text x="62" y="50.00" text-anchor="end" font-size="11" font-family="monospace" fill="#555">1.00</text>
<line x1="72.00" y1="310" x2="72.00" y2="315" stroke="#999"/>
<text x="72.00" y="330" text-anchor="middle" font-size="11" font-family="monospace" fill="#555">0s</text>
<line x1="220.26" y1="310" x2="220.26" y2="315" stroke="#999"/>
<text x="220.26" y="330" text-anchor="middle" font-size="11" font-family="monospace" fill="#555">5s</text>
<line x1="368.51" y1="310" x2="368.51" y2="315" stroke="#999"/>
<text x="368.51" y="330" text-anchor="middle" font-size="11" font-family="monospace" fill="#555">10s</text>
<line x1="516.77" y1="310" x2="516.77" y2="315" stroke="#999"/>
<text x="516.77" y="330" text-anchor="middle" font-size="11" font-family="monospace" fill="#555">15s</text>
<line x1="665.02" y1="310" x2="665.02" y2="315" stroke="#999"/>
<text x="665.02" y="330" text-anchor="middle" font-size="11" font-family="monospace" fill="#555">20s</text>
<line x1="813.28" y1="310" x2="813.28" y2="315" stroke="#999"/>
<text x="813.28" y="330" text-anchor="middle" font-size="11" font-family="monospace" fill="#555">25s</text>
<line x1="961.53" y1="310" x2="961.53" y2="315" stroke="#999"/>
<text x="961.53" y="330" text-anchor="middle" font-size="11" font-family="monospace" fill="#555">30s</text>
<line x1="72" y1="196.51" x2="1092" y2="196.51" stroke="#d62728" stroke-width="1.4" stroke-dasharray="6 5"/>
<text x="1088" y="190.51" text-anchor="end" font-size="11" font-family="monospace" fill="#d62728">precision threshold 0.430</text>
<polyline points="72.00,217.60 72.99,217.60 73.98,194.87 74.97,194.87 75.95,194.87 76.94,177.99 77.93,177.95 78.92,177.95 79.91,177.95 80.90,177.91 81.88,177.73 82.87,177.74 83.86,177.92 84.85,177.92 85.84,177.96 86.83,177.99 87.81,178.00 88.80,178.00 89.79,178.00 90.78,178.00 91.77,178.00 92.76,178.00 93.74,178.00 94.73,177.99 95.72,177.99 96.71,177.88 97.70,177.24 98.69,176.80 99.67,176.47 100.66,176.47 101.65,176.91 102.64,177.08 103.63,193.42 104.62,194.35 105.60,184.46 106.59,176.47 107.58,180.10 108.57,177.59 109.56,177.86 110.55,171.97 111.53,174.39 112.52,171.65 113.51,172.36 114.50,225.48 115.49,234.42 116.48,236.41 117.47,240.18 118.45,240.40 119.44,241.57 120.43,231.01 121.42,212.11 122.41,211.74 123.40,210.49 124.38,210.10 125.37,209.81 126.36,216.53 127.35,228.12 128.34,232.76 129.33,233.14 130.31,233.48 131.30,230.62 132.29,231.71 133.28,229.55 134.27,226.34 135.26,222.06 136.24,216.74 137.23,210.02 138.22,211.80 139.21,222.29 140.20,232.61 141.19,243.43 142.17,250.82 143.16,251.10 144.15,247.42 145.14,247.08 146.13,247.83 147.12,249.94 148.10,251.93 149.09,254.98 150.08,251.60 151.07,248.60 152.06,247.48 153.05,244.49 154.03,236.56 155.02,225.57 156.01,220.77 157.00,227.88 157.99,214.42 158.98,212.17 159.97,210.41 160.95,210.89 161.94,211.33 162.93,208.61 163.92,206.29 164.91,211.61 165.90,209.68 166.88,203.23 167.87,200.19 168.86,197.68 169.85,194.28 170.84,186.93 171.83,186.52 172.81,184.79 173.80,187.19 174.79,188.62 175.78,189.63 176.77,188.86 177.76,185.21 178.74,181.80 179.73,181.52 180.72,180.64 181.71,183.28 182.70,187.81 183.69,189.36 184.67,189.01 185.66,186.77 186.65,179.42 187.64,176.92 188.63,177.41 189.62,179.54 190.60,185.60 191.59,194.24 192.58,197.77 193.57,197.99 194.56,196.31 195.55,195.28 196.53,194.09 197.52,193.37 198.51,190.16 199.50,160.24 200.49,155.30 201.48,155.70 202.47,156.02 203.45,160.51 204.44,174.22 205.43,180.30 206.42,180.92 207.41,180.45 208.40,181.10 209.38,182.23 210.37,181.25 211.36,180.24 212.35,179.29 213.34,173.92 214.33,169.39 215.31,167.81 216.30,169.73 217.29,172.30 218.28,178.50 219.27,182.08 220.26,172.64 221.24,170.73 222.23,170.63 223.22,146.48 224.21,131.60 225.20,137.61 226.19,130.78 227.17,128.90 228.16,139.51 229.15,161.94 230.14,175.35 231.13,193.85 232.12,199.98 233.10,202.27 234.09,202.30 235.08,199.68 236.07,199.96 237.06,206.30 238.05,209.46 239.03,206.97 240.02,205.80 241.01,201.03 242.00,207.81 242.99,203.13 243.98,201.00 244.97,195.72 245.95,190.78 246.94,188.82 247.93,187.10 248.92,187.03 249.91,182.81 250.90,186.86 251.88,194.98 252.87,193.11 253.86,188.66 254.85,191.87 255.84,194.71 256.83,195.00 257.81,198.93 258.80,206.93 259.79,209.57 260.78,212.97 261.77,221.76 262.76,235.33 263.74,247.35 264.73,254.83 265.72,263.05 266.71,266.83 267.70,264.00 268.69,262.67 269.67,263.02 270.66,263.32 271.65,261.50 272.64,262.02 273.63,260.66 274.62,261.90 275.60,253.62 276.59,238.15 277.58,231.66 278.57,232.23 279.56,230.64 280.55,235.50 281.53,251.31 282.52,259.89 283.51,259.27 284.50,272.30 285.49,276.88 286.48,278.20 287.47,276.21 288.45,273.58 289.44,269.57 290.43,265.80 291.42,263.05 292.41,266.34 293.40,257.38 294.38,252.92 295.37,250.15 296.36,246.10 297.35,242.20 298.34,236.11 299.33,241.06 300.31,232.82 301.30,233.44 302.29,230.77 303.28,242.65 304.27,244.58 305.26,246.65 306.24,246.41 307.23,249.45 308.22,256.03 309.21,254.21 310.20,259.41 311.19,256.82 312.17,248.44 313.16,220.56 314.15,217.79 315.14,214.94 316.13,212.23 317.12,212.50 318.10,215.76 319.09,219.93 320.08,227.06 321.07,223.72 322.06,226.63 323.05,226.93 324.03,221.69 325.02,221.54 326.01,224.86 327.00,227.14 327.99,228.40 328.98,234.03 329.97,232.80 330.95,236.29 331.94,232.00 332.93,232.09 333.92,223.25 334.91,224.09 335.90,224.02 336.88,227.72 337.87,231.37 338.86,239.17 339.85,236.27 340.84,229.05 341.83,218.92 342.81,212.72 343.80,212.89 344.79,222.84 345.78,230.38 346.77,242.18 347.76,249.75 348.74,251.42 349.73,251.08 350.72,251.19 351.71,246.06 352.70,241.40 353.69,237.31 354.67,229.32 355.66,223.80 356.65,221.76 357.64,221.66 358.63,219.85 359.62,222.64 360.60,221.64 361.59,221.77 362.58,222.16 363.57,221.26 364.56,221.57 365.55,208.69 366.53,199.89 367.52,195.37 368.51,185.99 369.50,189.50 370.49,197.31 371.48,208.57 372.47,201.94 373.45,204.84 374.44,209.48 375.43,205.07 376.42,197.35 377.41,204.21 378.40,212.81 379.38,211.43 380.37,222.21 381.36,232.60 382.35,224.03 383.34,219.67 384.33,218.60 385.31,215.29 386.30,216.19 387.29,225.46 388.28,230.61 389.27,232.97 390.26,237.13 391.24,234.81 392.23,228.38 393.22,219.53 394.21,215.55 395.20,209.26 396.19,210.05 397.17,215.80 398.16,223.94 399.15,227.42 400.14,232.80 401.13,233.08 402.12,226.75 403.10,218.55 404.09,206.38 405.08,206.48 406.07,208.51 407.06,215.33 408.05,224.58 409.03,236.12 410.02,233.47 411.01,230.63 412.00,223.02 412.99,226.53 413.98,232.28 414.97,235.06 415.95,239.76 416.94,237.71 417.93,238.60 418.92,235.72 419.91,239.96 420.90,231.08 421.88,230.81 422.87,230.45 423.86,233.20 424.85,233.26 425.84,241.74 426.83,228.71 427.81,223.93 428.80,223.79 429.79,223.68 430.78,224.64 431.77,235.92 432.76,235.61 433.74,232.89 434.73,230.86 435.72,230.51 436.71,230.81 437.70,231.73 438.69,228.67 439.67,226.93 440.66,225.00 441.65,226.02 442.64,225.59 443.63,226.74 444.62,221.40 445.60,215.28 446.59,208.65 447.58,205.87 448.57,204.16 449.56,201.63 450.55,200.81 451.53,196.24 452.52,196.43 453.51,193.32 454.50,184.27 455.49,189.74 456.48,204.60 457.47,217.46 458.45,221.32 459.44,223.98 460.43,224.34 461.42,221.42 462.41,225.63 463.40,237.13 464.38,242.08 465.37,245.65 466.36,248.39 467.35,247.23 468.34,241.61 469.33,231.99 470.31,230.26 471.30,233.22 472.29,236.50 473.28,242.22 474.27,249.55 475.26,251.36 476.24,252.55 477.23,252.55 478.22,254.51 479.21,256.13 480.20,253.62 481.19,246.20 482.17,240.47 483.16,237.05 484.15,238.92 485.14,243.54 486.13,249.24 487.12,251.36 488.10,254.43 489.09,252.58 490.08,249.60 491.07,243.07 492.06,239.14 493.05,235.74 494.03,236.62 495.02,238.11 496.01,246.77 497.00,252.63 497.99,248.73 498.98,236.48 499.97,228.41 500.95,226.32 501.94,220.63 502.93,225.50 503.92,240.89 504.91,248.51 505.90,248.67 506.88,253.01 507.87,252.90 508.86,248.40 509.85,249.22 510.84,241.61 511.83,239.48 512.81,241.08 513.80,238.54 514.79,233.33 515.78,231.04 516.77,227.22 517.76,227.33 518.74,219.42 519.73,217.35 520.72,224.72 521.71,233.69 522.70,233.26 523.69,243.38 524.67,251.31 525.66,256.64 526.65,257.47 527.64,257.33 528.63,261.82 529.62,263.65 530.60,263.71 531.59,265.82 532.58,269.28 533.57,262.67 534.56,258.20 535.55,253.97 536.53,245.54 537.52,237.63 538.51,237.14 539.50,249.36 540.49,249.03 541.48,255.69 542.47,254.31 543.45,258.73 544.44,255.35 545.43,251.98 546.42,252.12 547.41,260.34 548.40,263.34 549.38,271.31 550.37,269.57 551.36,260.52 552.35,247.19 553.34,247.48 554.33,247.52 555.31,247.13 556.30,246.83 557.29,246.48 558.28,246.31 559.27,249.06 560.26,254.15 561.24,257.97 562.23,260.33 563.22,264.62 564.21,271.52 565.20,267.03 566.19,264.15 567.17,265.49 568.16,264.69 569.15,265.53 570.14,268.59 571.13,256.58 572.12,254.98 573.10,256.84 574.09,256.02 575.08,255.07 576.07,269.28 577.06,270.97 578.05,269.61 579.03,268.34 580.02,267.79 581.01,259.34 582.00,258.74 582.99,242.59 583.98,230.21 584.97,216.15 585.95,212.45 586.94,213.68 587.93,214.55 588.92,215.13 589.91,218.82 590.90,216.99 591.88,215.08 592.87,215.19 593.86,213.03 594.85,210.75 595.84,209.35 596.83,208.50 597.81,204.20 598.80,195.55 599.79,193.69 600.78,193.82 601.77,188.78 602.76,190.09 603.74,196.72 604.73,189.80 605.72,188.74 606.71,195.30 607.70,199.43 608.69,194.47 609.67,204.03 610.66,205.21 611.65,200.98 612.64,189.63 613.63,190.77 614.62,190.06 615.60,191.54 616.59,195.11 617.58,204.38 618.57,210.43 619.56,211.16 620.55,211.52 621.53,212.93 622.52,215.05 623.51,216.62 624.50,222.46 625.49,216.01 626.48,209.80 627.47,208.10 628.45,204.55 629.44,204.75 630.43,207.46 631.42,206.33 632.41,205.01 633.40,206.64 634.38,202.35 635.37,200.97 636.36,203.26 637.35,197.24 638.34,187.29 639.33,189.89 640.31,188.38 641.30,190.25 642.29,193.19 643.28,189.08 644.27,182.15 645.26,180.66 646.24,182.73 647.23,188.64 648.22,199.46 649.21,205.28 650.20,210.41 651.19,207.88 652.17,201.49 653.16,202.44 654.15,203.30 655.14,194.67 656.13,188.46 657.12,191.33 658.10,191.12 659.09,195.51 660.08,208.30 661.07,222.72 662.06,232.42 663.05,241.76 664.03,241.34 665.02,241.48 666.01,239.60 667.00,228.08 667.99,220.86 668.98,210.87 669.97,211.44 670.95,209.31 671.94,213.36 672.93,221.26 673.92,236.55 674.91,241.37 675.90,244.20 676.88,244.90 677.87,240.98 678.86,240.95 679.85,236.12 680.84,232.27 681.83,230.69 682.81,220.01 683.80,215.03 684.79,220.68 685.78,228.28 686.77,230.90 687.76,233.72 688.74,239.08 689.73,239.51 690.72,239.27 691.71,239.76 692.70,252.00 693.69,252.12 694.67,251.12 695.66,250.89 696.65,250.90 697.64,251.00 698.63,252.26 699.62,251.35 700.60,236.00 701.59,223.67 702.58,212.01 703.57,212.06 704.56,212.51 705.55,226.76 706.53,236.02 707.52,237.16 708.51,234.54 709.50,230.24 710.49,227.25 711.48,228.26 712.47,237.16 713.45,242.68 714.44,243.90 715.43,249.16 716.42,251.12 717.41,254.14 718.40,252.83 719.38,253.25 720.37,254.15 721.36,252.69 722.35,247.20 723.34,245.13 724.33,245.37 725.31,236.22 726.30,234.74 727.29,240.42 728.28,240.32 729.27,237.90 730.26,242.44 731.24,246.72 732.23,247.51 733.22,250.92 734.21,249.53 735.20,245.60 736.19,243.96 737.17,247.74 738.16,249.02 739.15,247.74 740.14,252.84 741.13,258.84 742.12,259.63 743.10,264.02 744.09,277.76 745.08,284.31 746.07,289.39 747.06,283.96 748.05,278.53 749.03,266.47 750.02,265.24 751.01,260.95 752.00,252.00 752.99,254.74 753.98,268.56 754.97,272.15 755.95,275.88 756.94,281.61 757.93,284.04 758.92,283.53 759.91,285.02 760.90,283.47 761.88,280.97 762.87,279.36 763.86,279.95 764.85,279.63 765.84,281.92 766.83,286.90 767.81,288.98 768.80,287.91 769.79,286.82 770.78,283.58 771.77,278.00 772.76,274.54 773.74,270.61 774.73,270.92 775.72,273.08 776.71,278.12 777.70,276.73 778.69,279.52 779.67,274.25 780.66,264.51 781.65,255.11 782.64,255.09 783.63,257.09 784.62,261.31 785.60,270.72 786.59,279.37 787.58,283.60 788.57,281.13 789.56,269.97 790.55,266.86 791.53,265.60 792.52,266.56 793.51,267.76 794.50,261.70 795.49,259.76 796.48,244.66 797.47,237.59 798.45,235.15 799.44,234.45 800.43,237.00 801.42,253.72 802.41,253.42 803.40,253.78 804.38,250.11 805.37,243.02 806.36,241.84 807.35,244.58 808.34,243.51 809.33,245.93 810.31,255.58 811.30,256.04 812.29,254.81 813.28,255.62 814.27,254.93 815.26,254.52 816.24,256.30 817.23,263.30 818.22,262.98 819.21,260.24 820.20,258.54 821.19,258.19 822.17,257.81 823.16,258.84 824.15,257.41 825.14,259.09 826.13,259.02 827.12,254.34 828.10,250.21 829.09,258.44 830.08,257.59 831.07,255.74 832.06,259.28 833.05,262.58 834.03,260.43 835.02,263.39 836.01,264.85 837.00,268.60 837.99,269.21 838.98,269.41 839.97,267.09 840.95,267.38 841.94,271.14 842.93,272.32 843.92,272.29 844.91,267.99 845.90,263.89 846.88,260.09 847.87,261.03 848.86,262.45 849.85,267.53 850.84,271.24 851.83,268.76 852.81,263.86 853.80,262.57 854.79,261.75 855.78,258.55 856.77,262.36 857.76,266.67 858.74,264.78 859.73,265.62 860.72,269.59 861.71,269.55 862.70,268.32 863.69,270.38 864.67,270.89 865.66,271.00 866.65,272.39 867.64,274.83 868.63,276.19 869.62,276.19 870.60,276.56 871.59,278.35 872.58,278.36 873.57,278.44 874.56,279.78 875.55,279.89 876.53,280.38 877.52,281.46 878.51,280.84 879.50,299.01 880.49,297.86 881.48,297.81 882.47,297.20 883.45,294.79 884.44,294.67 885.43,292.42 886.42,288.13 887.41,287.25 888.40,290.06 889.38,288.66 890.37,274.53 891.36,259.64 892.35,243.18 893.34,223.45 894.33,206.74 895.31,196.18 896.30,190.83 897.29,187.85 898.28,191.55 899.27,188.75 900.26,198.79 901.24,197.13 902.23,193.32 903.22,192.06 904.21,195.13 905.20,192.76 906.19,193.86 907.17,198.11 908.16,197.06 909.15,196.53 910.14,194.36 911.13,202.20 912.12,207.06 913.10,207.21 914.09,206.30 915.08,209.89 916.07,210.95 917.06,210.87 918.05,212.43 919.03,212.85 920.02,206.11 921.01,194.24 922.00,195.44 922.99,193.88 923.98,197.22 924.97,201.76 925.95,210.00 926.94,211.59 927.93,210.43 928.92,209.83 929.91,213.11 930.90,204.56 931.88,196.72 932.87,195.34 933.86,188.18 934.85,183.47 935.84,193.70 936.83,201.47 937.81,202.75 938.80,206.21 939.79,208.69 940.78,209.03 941.77,210.32 942.76,212.69 943.74,216.58 944.73,210.79 945.72,198.54 946.71,193.76 947.70,188.75 948.69,185.48 949.67,186.53 950.66,192.84 951.65,190.39 952.64,183.01 953.63,175.85 954.62,176.42 955.60,179.81 956.59,183.71 957.58,185.22 958.57,191.20 959.56,198.79 960.55,207.27 961.53,211.08 962.52,227.39 963.51,244.98 964.50,218.50 965.49,218.15 966.48,218.70 967.47,218.78 968.45,219.14 969.44,223.62 970.43,230.55 971.42,220.07 972.41,218.82 973.40,218.13 974.38,217.88 975.37,218.81 976.36,235.86 977.35,243.72 978.34,242.88 979.33,235.07 980.31,232.34 981.30,234.51 982.29,236.70 983.28,242.91 984.27,253.21 985.26,250.75 986.24,237.58 987.23,230.30 988.22,229.82 989.21,230.07 990.20,236.61 991.19,250.45 992.17,258.67 993.16,258.38 994.15,258.29 995.14,258.83 996.13,258.79 997.12,258.71 998.10,257.73 999.09,257.11 1000.08,257.45 1001.07,257.71 1002.06,258.12 1003.05,259.49 1004.03,260.57 1005.02,251.14 1006.01,239.03 1007.00,197.24 1007.99,196.25 1008.98,196.27 1009.97,199.60 1010.95,202.18 1011.94,201.73 1012.93,203.75 1013.92,204.90 1014.91,207.86 1015.90,199.86 1016.88,197.84 1017.87,191.63 1018.86,188.42 1019.85,192.04 1020.84,207.00 1021.83,211.77 1022.81,214.51 1023.80,212.61 1024.79,206.55 1025.78,204.46 1026.77,199.32 1027.76,196.75 1028.74,197.96 1029.73,200.07 1030.72,193.90 1031.71,186.73 1032.70,185.93 1033.69,177.79 1034.67,177.29 1035.66,179.64 1036.65,179.54 1037.64,176.49 1038.63,182.96 1039.62,194.63 1040.60,189.25 1041.59,199.15 1042.58,209.54 1043.57,212.54 1044.56,209.83 1045.55,218.05 1046.53,215.98 1047.52,209.64 1048.51,204.18 1049.50,178.11 1050.49,173.73 1051.48,171.85 1052.47,174.74 1053.45,174.39 1054.44,183.23 1055.43,188.22 1056.42,195.63 1057.41,200.77 1058.40,209.48 1059.38,201.01 1060.37,206.33 1061.36,206.33 1062.35,183.02 1063.34,183.02 1064.33,194.78 1065.31,182.35 1066.30,182.35 1067.29,205.66 1068.28,205.66 1069.27,193.90 1070.26,182.86 1071.24,177.99 1072.23,177.99 1073.22,177.98 1074.21,177.71 1075.20,182.15 1076.19,195.38 1077.17,195.38 1078.16,195.39 1079.15,205.78 1080.14,182.25 1081.13,182.25 1082.12,182.24 1083.10,182.25 1084.09,194.57 1085.08,217.60 1086.07,217.60 1087.06,217.60 1088.05,217.60 1089.03,217.60 1090.02,217.60 1091.01,217.60 1092.00,217.60" fill="none" stroke="#1f77b4" stroke-width="1.7"/>
<text x="72" y="348" font-size="12" font-family="monospace" fill="#333">time (s)</text>
<text x="18" y="178.00" transform="rotate(-90 18,178.00)" font-size="12" font-family="monospace" fill="#333">hard_score</text>
<text x="1092" y="348" text-anchor="end" font-size="12" font-family="monospace" fill="#555">orange = hard_span</text>
<text x="72" y="384" font-size="16" font-family="monospace" fill="#222">seatbelt.both.hang.zhangyu.20260205.batch.1 episode_000001</text>
<rect x="72" y="406" width="1020" height="264" fill="#fff" stroke="#c9c9c9"/>
<rect x="191.33" y="406" width="52.78" height="264" fill="#ffb000" opacity="0.16"/>
<rect x="401.29" y="406" width="37.86" height="264" fill="#ffb000" opacity="0.16"/>
<rect x="534.38" y="406" width="71.14" height="264" fill="#ffb000" opacity="0.16"/>
<rect x="825.81" y="406" width="92.94" height="264" fill="#ffb000" opacity="0.16"/>
<rect x="999.06" y="406" width="35.57" height="264" fill="#ffb000" opacity="0.16"/>
<line x1="72" y1="670.00" x2="1092" y2="670.00" stroke="#e7e7e7"/>
<text x="62" y="674.00" text-anchor="end" font-size="11" font-family="monospace" fill="#555">0.00</text>
<line x1="72" y1="604.00" x2="1092" y2="604.00" stroke="#e7e7e7"/>
<text x="62" y="608.00" text-anchor="end" font-size="11" font-family="monospace" fill="#555">0.25</text>
<line x1="72" y1="538.00" x2="1092" y2="538.00" stroke="#e7e7e7"/>
<text x="62" y="542.00" text-anchor="end" font-size="11" font-family="monospace" fill="#555">0.50</text>
<line x1="72" y1="472.00" x2="1092" y2="472.00" stroke="#e7e7e7"/>
<text x="62" y="476.00" text-anchor="end" font-size="11" font-family="monospace" fill="#555">0.75</text>
<line x1="72" y1="406.00" x2="1092" y2="406.00" stroke="#e7e7e7"/>
<text x="62" y="410.00" text-anchor="end" font-size="11" font-family="monospace" fill="#555">1.00</text>
<line x1="72.00" y1="670" x2="72.00" y2="675" stroke="#999"/>
<text x="72.00" y="690" text-anchor="middle" font-size="11" font-family="monospace" fill="#555">0s</text>
<line x1="244.10" y1="670" x2="244.10" y2="675" stroke="#999"/>
<text x="244.10" y="690" text-anchor="middle" font-size="11" font-family="monospace" fill="#555">5s</text>
<line x1="416.21" y1="670" x2="416.21" y2="675" stroke="#999"/>
<text x="416.21" y="690" text-anchor="middle" font-size="11" font-family="monospace" fill="#555">10s</text>
<line x1="588.31" y1="670" x2="588.31" y2="675" stroke="#999"/>
<text x="588.31" y="690" text-anchor="middle" font-size="11" font-family="monospace" fill="#555">15s</text>
<line x1="760.41" y1="670" x2="760.41" y2="675" stroke="#999"/>
<text x="760.41" y="690" text-anchor="middle" font-size="11" font-family="monospace" fill="#555">20s</text>
<line x1="932.52" y1="670" x2="932.52" y2="675" stroke="#999"/>
<text x="932.52" y="690" text-anchor="middle" font-size="11" font-family="monospace" fill="#555">25s</text>
<line x1="72" y1="556.51" x2="1092" y2="556.51" stroke="#d62728" stroke-width="1.4" stroke-dasharray="6 5"/>
<text x="1088" y="550.51" text-anchor="end" font-size="11" font-family="monospace" fill="#d62728">precision threshold 0.430</text>
<polyline points="72.00,577.60 73.15,577.60 74.29,554.57 75.44,554.57 76.59,554.57 77.74,554.53 78.88,537.60 80.03,554.10 81.18,554.47 82.33,554.47 83.47,554.53 84.62,577.60 85.77,577.60 86.92,577.60 88.06,577.60 89.21,577.60 90.36,577.60 91.51,577.60 92.65,577.60 93.80,577.60 94.95,577.60 96.09,577.60 97.24,565.12 98.39,542.57 99.54,537.94 100.68,537.94 101.83,537.95 102.98,537.95 104.13,551.62 105.27,554.90 106.42,541.30 107.57,535.57 108.72,535.14 109.86,524.97 111.01,517.05 112.16,520.49 113.30,523.69 114.45,523.01 115.60,574.46 116.75,580.49 117.89,583.91 119.04,588.46 120.19,592.71 121.34,598.24 122.48,599.62 123.63,598.71 124.78,597.12 125.93,597.72 127.07,587.55 128.22,570.21 129.37,571.23 130.52,571.90 131.66,571.47 132.81,570.88 133.96,584.86 135.10,591.16 136.25,589.98 137.40,590.21 138.55,572.43 139.69,570.87 140.84,571.06 141.99,571.83 143.14,570.07 144.28,569.96 145.43,570.00 146.58,569.67 147.73,573.33 148.87,594.70 150.02,608.13 151.17,610.54 152.31,610.22 153.46,603.21 154.61,600.58 155.76,591.47 156.90,578.94 158.05,586.38 159.20,588.36 160.35,586.93 161.49,587.32 162.64,589.87 163.79,588.78 164.94,588.73 166.08,588.67 167.23,585.34 168.38,585.33 169.53,586.60 170.67,586.06 171.82,586.83 172.97,590.67 174.11,592.16 175.26,606.83 176.41,609.63 177.56,609.15 178.70,608.11 179.85,610.16 181.00,606.84 182.15,606.02 183.29,604.35 184.44,604.32 185.59,605.78 186.74,604.73 187.88,602.63 189.03,601.22 190.18,598.95 191.33,597.00 192.47,599.12 193.62,596.48 194.77,588.23 195.91,579.91 197.06,574.80 198.21,570.93 199.36,567.28 200.50,548.46 201.65,552.07 202.80,549.21 203.95,542.76 205.09,544.00 206.24,550.42 207.39,551.50 208.54,554.30 209.68,560.42 210.83,563.71 211.98,561.02 213.12,559.89 214.27,560.44 215.42,560.21 216.57,560.51 217.71,560.35 218.86,557.02 220.01,553.37 221.16,548.52 222.30,548.02 223.45,551.13 224.60,554.93 225.75,558.18 226.89,563.01 228.04,564.12 229.19,562.23 230.34,561.91 231.48,560.77 232.63,558.21 233.78,556.06 234.92,557.30 236.07,557.75 237.22,558.70 238.37,561.60 239.51,563.20 240.66,563.10 241.81,564.45 242.96,582.51 244.10,582.31 245.25,580.89 246.40,581.58 247.55,581.18 248.69,581.41 249.84,582.95 250.99,584.16 252.13,584.23 253.28,583.66 254.43,582.75 255.58,582.38 256.72,576.23 257.87,575.32 259.02,575.19 260.17,567.26 261.31,553.29 262.46,552.81 263.61,549.81 264.76,544.56 265.90,550.30 267.05,563.61 268.20,570.62 269.35,573.05 270.49,578.99 271.64,582.05 272.79,573.06 273.93,574.79 275.08,579.15 276.23,577.03 277.38,580.48 278.52,591.53 279.67,587.59 280.82,574.34 281.97,566.44 283.11,558.58 284.26,557.39 285.41,572.01 286.56,581.86 287.70,594.29 288.85,598.32 290.00,599.01 291.15,601.35 292.29,602.95 293.44,595.81 294.59,585.65 295.73,579.50 296.88,574.78 298.03,572.21 299.18,578.61 300.32,589.51 301.47,595.56 302.62,600.51 303.77,605.38 304.91,609.49 306.06,615.24 307.21,619.59 308.36,617.34 309.50,605.50 310.65,600.86 311.80,596.82 312.94,597.14 314.09,601.62 315.24,613.56 316.39,614.67 317.53,616.64 318.68,612.19 319.83,602.99 320.98,597.09 322.12,592.73 323.27,589.04 324.42,584.40 325.57,580.22 326.71,581.70 327.86,577.78 329.01,567.68 330.16,565.86 331.30,564.89 332.45,564.04 333.60,570.54 334.74,581.62 335.89,584.10 337.04,584.20 338.19,581.78 339.33,580.53 340.48,585.37 341.63,586.54 342.78,584.33 343.92,585.02 345.07,572.59 346.22,565.55 347.37,565.40 348.51,564.93 349.66,564.57 350.81,564.63 351.96,564.54 353.10,565.45 354.25,580.59 355.40,587.27 356.54,572.57 357.69,557.97 358.84,555.57 359.99,552.88 361.13,547.64 362.28,559.90 363.43,572.82 364.58,573.55 365.72,571.47 366.87,573.50 368.02,572.42 369.17,571.38 370.31,572.99 371.46,572.28 372.61,564.61 373.75,563.61 374.90,560.98 376.05,567.32 377.20,571.67 378.34,578.60 379.49,579.93 380.64,580.27 381.79,565.89 382.93,556.95 384.08,551.32 385.23,548.79 386.38,550.22 387.52,562.50 388.67,568.93 389.82,575.51 390.97,575.82 392.11,571.42 393.26,573.00 394.41,575.70 395.55,573.51 396.70,565.84 397.85,569.92 399.00,571.46 400.14,563.44 401.29,561.62 402.44,568.78 403.59,564.70 404.73,558.58 405.88,560.24 407.03,561.61 408.18,557.29 409.32,558.47 410.47,556.39 411.62,555.28 412.76,542.95 413.91,549.97 415.06,553.36 416.21,558.07 417.35,561.16 418.50,560.52 419.65,557.29 420.80,555.74 421.94,551.47 423.09,547.99 424.24,542.46 425.39,533.01 426.53,532.95 427.68,543.82 428.83,553.42 429.98,566.28 431.12,587.85 432.27,600.76 433.42,607.48 434.56,614.90 435.71,618.32 436.86,618.95 438.01,620.67 439.15,618.97 440.30,619.42 441.45,616.97 442.60,617.82 443.74,617.34 444.89,620.05 446.04,616.77 447.19,619.71 448.33,617.84 449.48,612.87 450.63,604.10 451.78,601.76 452.92,600.36 454.07,593.50 455.22,578.66 456.36,579.10 457.51,582.89 458.66,586.39 459.81,596.99 460.95,605.73 462.10,612.46 463.25,612.07 464.40,608.58 465.54,605.08 466.69,599.70 467.84,598.91 468.99,603.04 470.13,600.44 471.28,593.43 472.43,596.57 473.57,597.59 474.72,598.37 475.87,605.94 477.02,614.83 478.16,616.74 479.31,609.86 480.46,602.24 481.61,598.97 482.75,601.99 483.90,602.99 485.05,609.01 486.20,614.80 487.34,619.47 488.49,616.51 489.64,614.26 490.79,610.69 491.93,608.56 493.08,607.22 494.23,608.02 495.37,610.08 496.52,610.04 497.67,613.11 498.82,608.80 499.96,611.16 501.11,611.59 502.26,612.86 503.41,612.05 504.55,615.69 505.70,612.16 506.85,606.60 508.00,607.77 509.14,607.68 510.29,605.20 511.44,606.90 512.58,609.74 513.73,601.18 514.88,601.09 516.03,606.52 517.17,608.85 518.32,608.76 519.47,618.54 520.62,621.19 521.76,621.05 522.91,619.58 524.06,620.30 525.21,619.27 526.35,618.43 527.50,617.54 528.65,617.29 529.80,620.12 530.94,619.20 532.09,610.72 533.24,605.63 534.38,604.65 535.53,595.56 536.68,593.94 537.83,598.16 538.97,587.13 540.12,581.28 541.27,572.70 542.42,562.74 543.56,552.61 544.71,552.68 545.86,552.78 547.01,552.01 548.15,549.11 549.30,550.58 550.45,542.01 551.60,544.40 552.74,549.14 553.89,541.16 555.04,539.97 556.18,545.47 557.33,546.84 558.48,530.35 559.63,540.98 560.77,540.29 561.92,535.48 563.07,525.13 564.22,539.83 565.36,539.96 566.51,537.33 567.66,541.21 568.81,550.34 569.95,536.74 571.10,525.36 572.25,525.74 573.39,522.20 574.54,524.14 575.69,530.70 576.84,524.04 577.98,523.28 579.13,528.67 580.28,528.71 581.43,528.71 582.57,543.41 583.72,543.38 584.87,543.33 586.02,556.06 587.16,561.11 588.31,560.98 589.46,563.34 590.61,550.58 591.75,543.53 592.90,542.52 594.05,543.76 595.19,547.42 596.34,562.97 597.49,571.80 598.64,571.99 599.78,570.42 600.93,569.38 602.08,568.25 603.23,566.97 604.37,564.00 605.52,564.80 606.67,564.78 607.82,566.95 608.96,567.24 610.11,566.76 611.26,562.58 612.40,562.77 613.55,551.72 614.70,527.38 615.85,521.59 616.99,526.38 618.14,526.77 619.29,533.75 620.44,554.64 621.58,567.79 622.73,557.82 623.88,543.18 625.03,567.67 626.17,585.88 627.32,600.83 628.47,615.84 629.62,649.02 630.76,656.04 631.91,654.90 633.06,655.53 634.20,653.83 635.35,649.48 636.50,650.60 637.65,651.47 638.79,646.86 639.94,644.58 641.09,647.47 642.24,639.91 643.38,635.48 644.53,638.32 645.68,642.60 646.83,633.19 647.97,628.30 649.12,628.36 650.27,628.41 651.42,627.80 652.56,627.88 653.71,625.90 654.86,624.65 656.00,624.84 657.15,625.96 658.30,624.45 659.45,626.72 660.59,636.88 661.74,639.72 662.89,652.73 664.04,647.66 665.18,641.05 666.33,639.61 667.48,632.33 668.63,633.85 669.77,643.13 670.92,652.62 672.07,655.21 673.21,652.36 674.36,649.55 675.51,640.04 676.66,628.26 677.80,622.60 678.95,620.77 680.10,617.99 681.25,619.85 682.39,628.49 683.54,629.57 684.69,628.42 685.84,629.19 686.98,632.42 688.13,630.48 689.28,628.32 690.43,629.80 691.57,628.69 692.72,628.74 693.87,629.41 695.01,631.37 696.16,629.56 697.31,626.93 698.46,616.93 699.60,612.79 700.75,613.59 701.90,612.40 703.05,613.80 704.19,619.32 705.34,621.40 706.49,620.00 707.64,617.21 708.78,611.02 709.93,606.27 711.08,606.88 712.22,606.34 713.37,610.92 714.52,617.60 715.67,620.13 716.81,618.13 717.96,613.07 719.11,612.96 720.26,612.05 721.40,611.36 722.55,613.86 723.70,616.10 724.85,615.69 725.99,611.74 727.14,604.37 728.29,602.90 729.44,606.78 730.58,604.77 731.73,608.39 732.88,614.17 734.02,613.42 735.17,612.11 736.32,614.27 737.47,612.60 738.61,606.56 739.76,606.45 740.91,607.80 742.06,610.39 743.20,612.23 744.35,615.78 745.50,617.09 746.65,617.17 747.79,615.12 748.94,613.64 750.09,617.69 751.24,613.14 752.38,598.55 753.53,595.83 754.68,600.89 755.82,601.63 756.97,606.48 758.12,613.82 759.27,615.36 760.41,603.38 761.56,600.28 762.71,602.68 763.86,607.60 765.00,610.83 766.15,627.09 767.30,637.45 768.45,642.61 769.59,644.61 770.74,649.28 771.89,649.75 773.03,647.00 774.18,644.72 775.33,644.37 776.48,644.77 777.62,640.78 778.77,642.58 779.92,640.71 781.07,638.39 782.21,623.38 783.36,617.69 784.51,605.86 785.66,604.97 786.80,606.18 787.95,612.81 789.10,619.54 790.25,628.28 791.39,629.50 792.54,630.86 793.69,638.93 794.83,625.04 795.98,630.59 797.13,632.39 798.28,625.30 799.42,606.05 800.57,594.95 801.72,585.46 802.87,584.17 804.01,583.32 805.16,598.09 806.31,607.51 807.46,615.93 808.60,618.03 809.75,622.00 810.90,623.06 812.04,622.38 813.19,621.53 814.34,618.21 815.49,619.53 816.63,620.63 817.78,615.59 818.93,609.89 820.08,608.18 821.22,601.34 822.37,601.49 823.52,605.29 824.67,609.27 825.81,612.22 826.96,616.28 828.11,610.80 829.26,604.34 830.40,597.73 831.55,586.08 832.70,574.56 833.84,564.65 834.99,550.16 836.14,539.98 837.29,535.59 838.43,535.10 839.58,536.60 840.73,541.69 841.88,544.08 843.02,552.08 844.17,552.35 845.32,551.47 846.47,552.95 847.61,553.22 848.76,551.85 849.91,544.41 851.06,535.13 852.20,530.70 853.35,527.79 854.50,526.48 855.64,532.61 856.79,529.42 857.94,528.87 859.09,526.19 860.23,521.68 861.38,524.74 862.53,537.34 863.68,543.50 864.82,549.93 865.97,556.39 867.12,553.04 868.27,551.15 869.41,548.92 870.56,547.16 871.71,547.67 872.85,548.05 874.00,548.66 875.15,545.82 876.30,544.84 877.44,541.34 878.59,539.68 879.74,559.78 880.89,561.56 882.03,561.36 883.18,561.17 884.33,560.38 885.48,561.96 886.62,563.20 887.77,565.11 888.92,569.46 890.07,564.20 891.21,552.42 892.36,547.25 893.51,546.71 894.65,541.48 895.80,537.40 896.95,543.34 898.10,545.28 899.24,545.13 900.39,550.00 901.54,563.29 902.69,569.01 903.83,559.99 904.98,559.00 906.13,557.65 907.28,556.30 908.42,554.36 909.57,567.02 910.72,569.57 911.87,572.07 913.01,575.20 914.16,578.12 915.31,582.69 916.45,591.23 917.60,604.71 918.75,617.91 919.90,631.34 921.04,639.14 922.19,645.10 923.34,643.87 924.49,643.11 925.63,644.94 926.78,647.07 927.93,652.19 929.08,653.38 930.22,650.94 931.37,646.35 932.52,638.28 933.66,623.77 934.81,616.46 935.96,615.81 937.11,616.74 938.25,623.75 939.40,633.90 940.55,636.79 941.70,636.38 942.84,637.58 943.99,634.56 945.14,637.11 946.29,636.33 947.43,633.48 948.58,632.85 949.73,637.10 950.88,626.30 952.02,615.72 953.17,616.51 954.32,615.81 955.46,615.11 956.61,614.89 957.76,624.40 958.91,624.93 960.05,620.99 961.20,628.35 962.35,630.11 963.50,637.02 964.64,613.40 965.79,618.74 966.94,617.71 968.09,618.64 969.23,618.80 970.38,619.21 971.53,620.20 972.67,619.25 973.82,616.87 974.97,607.80 976.12,599.38 977.26,593.64 978.41,589.71 979.56,587.81 980.71,594.93 981.85,602.55 983.00,608.48 984.15,613.81 985.30,617.45 986.44,619.10 987.59,616.88 988.74,611.43 989.89,599.51 991.03,595.46 992.18,586.26 993.33,584.92 994.47,587.76 995.62,597.79 996.77,598.53 997.92,606.43 999.06,596.79 1000.21,580.49 1001.36,577.35 1002.51,577.72 1003.65,578.75 1004.80,583.62 1005.95,599.12 1007.10,562.21 1008.24,545.59 1009.39,542.51 1010.54,542.52 1011.69,543.74 1012.83,554.82 1013.98,569.86 1015.13,573.56 1016.27,570.15 1017.42,566.98 1018.57,562.80 1019.72,560.28 1020.86,561.33 1022.01,553.42 1023.16,550.51 1024.31,554.85 1025.45,562.44 1026.60,561.60 1027.75,571.97 1028.90,574.03 1030.04,569.01 1031.19,563.91 1032.34,564.85 1033.48,567.56 1034.63,568.96 1035.78,570.39 1036.93,574.08 1038.07,577.00 1039.22,574.93 1040.37,577.22 1041.52,581.14 1042.66,569.60 1043.81,558.81 1044.96,550.64 1046.11,553.24 1047.25,554.69 1048.40,568.74 1049.55,539.38 1050.70,554.87 1051.84,554.87 1052.99,554.87 1054.14,554.87 1055.28,577.60 1056.43,577.60 1057.58,577.60 1058.73,577.60 1059.87,555.64 1061.02,555.64 1062.17,555.64 1063.32,547.71 1064.46,537.99 1065.61,547.38 1066.76,547.38 1067.91,547.38 1069.05,555.30 1070.20,577.58 1071.35,554.54 1072.49,554.54 1073.64,554.54 1074.79,554.54 1075.94,554.57 1077.08,554.61 1078.23,554.61 1079.38,554.59 1080.53,537.96 1081.67,537.79 1082.82,554.53 1083.97,554.53 1085.12,554.56 1086.26,577.60 1087.41,577.60 1088.56,577.60 1089.71,554.57 1090.85,554.57 1092.00,554.57" fill="none" stroke="#1f77b4" stroke-width="1.7"/>
<text x="72" y="708" font-size="12" font-family="monospace" fill="#333">time (s)</text>
<text x="18" y="538.00" transform="rotate(-90 18,538.00)" font-size="12" font-family="monospace" fill="#333">hard_score</text>
<text x="1092" y="708" text-anchor="end" font-size="12" font-family="monospace" fill="#555">orange = hard_span</text>
<text x="72" y="744" font-size="16" font-family="monospace" fill="#222">seatbelt.both.hang.zhangyu.20260205.batch.1 episode_000002</text>
<rect x="72" y="766" width="1020" height="264" fill="#fff" stroke="#c9c9c9"/>
<rect x="214.59" y="766" width="77.95" height="264" fill="#ffb000" opacity="0.16"/>
<rect x="323.91" y="766" width="48.48" height="264" fill="#ffb000" opacity="0.16"/>
<rect x="371.44" y="766" width="38.02" height="264" fill="#ffb000" opacity="0.16"/>
<rect x="439.88" y="766" width="35.17" height="264" fill="#ffb000" opacity="0.16"/>
<rect x="473.16" y="766" width="30.42" height="264" fill="#ffb000" opacity="0.16"/>
<rect x="659.47" y="766" width="34.22" height="264" fill="#ffb000" opacity="0.16"/>
<rect x="957.01" y="766" width="45.63" height="264" fill="#ffb000" opacity="0.16"/>
<rect x="1042.57" y="766" width="31.37" height="264" fill="#ffb000" opacity="0.16"/>
<line x1="72" y1="1030.00" x2="1092" y2="1030.00" stroke="#e7e7e7"/>
<text x="62" y="1034.00" text-anchor="end" font-size="11" font-family="monospace" fill="#555">0.00</text>
<line x1="72" y1="964.00" x2="1092" y2="964.00" stroke="#e7e7e7"/>
<text x="62" y="968.00" text-anchor="end" font-size="11" font-family="monospace" fill="#555">0.25</text>
<line x1="72" y1="898.00" x2="1092" y2="898.00" stroke="#e7e7e7"/>
<text x="62" y="902.00" text-anchor="end" font-size="11" font-family="monospace" fill="#555">0.50</text>
<line x1="72" y1="832.00" x2="1092" y2="832.00" stroke="#e7e7e7"/>
<text x="62" y="836.00" text-anchor="end" font-size="11" font-family="monospace" fill="#555">0.75</text>
<line x1="72" y1="766.00" x2="1092" y2="766.00" stroke="#e7e7e7"/>
<text x="62" y="770.00" text-anchor="end" font-size="11" font-family="monospace" fill="#555">1.00</text>
<line x1="72.00" y1="1030" x2="72.00" y2="1035" stroke="#999"/>
<text x="72.00" y="1050" text-anchor="middle" font-size="11" font-family="monospace" fill="#555">0s</text>
<line x1="214.59" y1="1030" x2="214.59" y2="1035" stroke="#999"/>
<text x="214.59" y="1050" text-anchor="middle" font-size="11" font-family="monospace" fill="#555">5s</text>
<line x1="357.18" y1="1030" x2="357.18" y2="1035" stroke="#999"/>
<text x="357.18" y="1050" text-anchor="middle" font-size="11" font-family="monospace" fill="#555">10s</text>
<line x1="499.77" y1="1030" x2="499.77" y2="1035" stroke="#999"/>
<text x="499.77" y="1050" text-anchor="middle" font-size="11" font-family="monospace" fill="#555">15s</text>
<line x1="642.36" y1="1030" x2="642.36" y2="1035" stroke="#999"/>
<text x="642.36" y="1050" text-anchor="middle" font-size="11" font-family="monospace" fill="#555">20s</text>
<line x1="784.95" y1="1030" x2="784.95" y2="1035" stroke="#999"/>
<text x="784.95" y="1050" text-anchor="middle" font-size="11" font-family="monospace" fill="#555">25s</text>
<line x1="927.55" y1="1030" x2="927.55" y2="1035" stroke="#999"/>
<text x="927.55" y="1050" text-anchor="middle" font-size="11" font-family="monospace" fill="#555">30s</text>
<line x1="1070.14" y1="1030" x2="1070.14" y2="1035" stroke="#999"/>
<text x="1070.14" y="1050" text-anchor="middle" font-size="11" font-family="monospace" fill="#555">35s</text>
<line x1="72" y1="916.51" x2="1092" y2="916.51" stroke="#d62728" stroke-width="1.4" stroke-dasharray="6 5"/>
<text x="1088" y="910.51" text-anchor="end" font-size="11" font-family="monospace" fill="#d62728">precision threshold 0.430</text>
<polyline points="72.00,937.60 72.95,937.60 73.90,923.26 74.85,899.77 75.80,898.00 76.75,897.95 77.70,897.73 78.65,897.78 79.60,898.00 80.56,902.80 81.51,914.57 82.46,914.57 83.41,914.57 84.36,926.33 85.31,937.60 86.26,937.60 87.21,937.60 88.16,937.60 89.11,926.33 90.06,914.57 91.01,898.00 91.96,897.77 92.91,897.78 93.86,905.15 94.81,916.92 95.77,937.60 96.72,937.60 97.67,937.60 98.62,937.60 99.57,937.60 100.52,937.60 101.47,937.60 102.42,914.57 103.37,914.57 104.32,914.57 105.27,914.57 106.22,914.57 107.17,937.60 108.12,937.60 109.07,917.79 110.02,906.37 110.97,901.11 111.93,899.03 112.88,894.06 113.83,906.01 114.78,963.42 115.73,965.16 116.68,962.92 117.63,967.02 118.58,968.09 119.53,964.76 120.48,964.84 121.43,966.04 122.38,965.96 123.33,967.32 124.28,966.62 125.23,965.69 126.18,963.44 127.14,963.46 128.09,962.33 129.04,963.32 129.99,962.46 130.94,963.03 131.89,960.15 132.84,959.38 133.79,957.55 134.74,958.80 135.69,961.20 136.64,959.50 137.59,958.71 138.54,959.92 139.49,956.74 140.44,951.66 141.39,953.70 142.34,955.02 143.30,956.24 144.25,956.69 145.20,958.34 146.15,959.24 147.10,957.81 148.05,955.58 149.00,956.08 149.95,956.39 150.90,957.06 151.85,958.50 152.80,961.55 153.75,964.27 154.70,966.72 155.65,968.88 156.60,972.79 157.55,993.69 158.51,993.20 159.46,994.11 160.41,988.37 161.36,979.24 162.31,976.18 163.26,972.86 164.21,970.29 165.16,973.19 166.11,980.64 167.06,979.82 168.01,983.89 168.96,983.66 169.91,984.28 170.86,983.36 171.81,986.82 172.76,983.08 173.71,983.46 174.67,982.17 175.62,979.29 176.57,976.51 177.52,977.11 178.47,975.08 179.42,974.49 180.37,972.93 181.32,969.93 182.27,967.09 183.22,966.99 184.17,962.80 185.12,963.79 186.07,966.44 187.02,967.29 187.97,967.41 188.92,968.79 189.88,969.77 190.83,967.14 191.78,967.76 192.73,962.81 193.68,961.89 194.63,958.80 195.58,958.36 196.53,957.73 197.48,961.05 198.43,961.10 199.38,958.93 200.33,938.24 201.28,939.41 202.23,941.04 203.18,943.87 204.13,946.87 205.08,953.19 206.04,954.14 206.99,958.06 207.94,960.41 208.89,962.41 209.84,960.35 210.79,958.99 211.74,957.71 212.69,954.83 213.64,953.56 214.59,955.50 215.54,957.23 216.49,957.12 217.44,955.97 218.39,949.77 219.34,939.89 220.29,932.08 221.25,923.50 222.20,910.01 223.15,899.13 224.10,892.93 225.05,886.90 226.00,883.00 226.95,885.10 227.90,888.40 228.85,885.90 229.80,887.14 230.75,876.29 231.70,872.87 232.65,869.07 233.60,867.45 234.55,863.15 235.50,872.53 236.45,877.54 237.41,882.86 238.36,889.55 239.31,889.80 240.26,887.40 241.21,879.14 242.16,891.54 243.11,890.15 244.06,894.34 245.01,899.91 245.96,906.68 246.91,911.38 247.86,913.36 248.81,915.00 249.76,915.42 250.71,917.06 251.66,915.17 252.62,914.69 253.57,912.00 254.52,908.18 255.47,907.88 256.42,901.02 257.37,898.94 258.32,901.69 259.27,905.81 260.22,907.49 261.17,918.16 262.12,922.08 263.07,922.60 264.02,922.57 264.97,923.10 265.92,922.23 266.87,918.41 267.82,914.20 268.78,909.14 269.73,908.24 270.68,907.55 271.63,910.59 272.58,913.91 273.53,917.97 274.48,917.55 275.43,918.36 276.38,919.18 277.33,920.14 278.28,920.95 279.23,920.70 280.18,919.15 281.13,918.82 282.08,908.27 283.03,906.47 283.99,903.53 284.94,918.04 285.89,923.51 286.84,942.19 287.79,953.81 288.74,967.30 289.69,971.32 290.64,970.27 291.59,968.02 292.54,959.24 293.49,951.46 294.44,954.33 295.39,957.79 296.34,959.67 297.29,965.16 298.24,967.93 299.19,965.74 300.15,959.58 301.10,956.86 302.05,957.57 303.00,958.19 303.95,955.87 304.90,960.06 305.85,963.21 306.80,963.59 307.75,961.01 308.70,960.03 309.65,958.58 310.60,954.82 311.55,952.40 312.50,956.88 313.45,961.65 314.40,962.78 315.36,962.86 316.31,963.12 317.26,960.15 318.21,943.57 319.16,936.64 320.11,937.94 321.06,939.04 322.01,946.19 322.96,963.64 323.91,971.12 324.86,971.73 325.81,972.82 326.76,969.28 327.71,967.07 328.66,956.12 329.61,943.17 330.56,928.09 331.52,916.03 332.47,901.70 333.42,899.83 334.37,899.50 335.32,902.65 336.27,901.16 337.22,899.55 338.17,901.20 339.12,906.79 340.07,908.42 341.02,917.56 341.97,906.02 342.92,899.76 343.87,900.13 344.82,901.43 345.77,901.52 346.73,902.13 347.68,901.69 348.63,911.16 349.58,913.53 350.53,907.93 351.48,904.44 352.43,907.10 353.38,904.67 354.33,899.10 355.28,901.88 356.23,899.99 357.18,895.11 358.13,898.53 359.08,900.32 360.03,889.36 360.98,889.47 361.93,886.32 362.89,886.34 363.84,912.98 364.79,925.86 365.74,927.94 366.69,930.85 367.64,928.69 368.59,922.00 369.54,929.68 370.49,930.67 371.44,927.36 372.39,929.01 373.34,932.71 374.29,932.12 375.24,928.42 376.19,928.74 377.14,922.80 378.10,919.51 379.05,916.40 380.00,918.77 380.95,916.93 381.90,922.05 382.85,921.14 383.80,922.27 384.75,916.82 385.70,911.87 386.65,910.04 387.60,908.37 388.55,902.66 389.50,905.91 390.45,914.34 391.40,914.73 392.35,919.81 393.30,927.12 394.26,928.49 395.21,928.92 396.16,913.47 397.11,898.49 398.06,898.76 399.01,900.54 399.96,900.62 400.91,906.61 401.86,925.83 402.81,921.85 403.76,920.03 404.71,919.21 405.66,919.75 406.61,925.44 407.56,938.27 408.51,941.41 409.47,943.86 410.42,944.29 411.37,942.95 412.32,924.75 413.27,919.88 414.22,917.42 415.17,916.29 416.12,913.79 417.07,917.05 418.02,920.91 418.97,923.31 419.92,923.84 420.87,927.71 421.82,928.43 422.77,928.06 423.72,926.82 424.67,925.96 425.63,918.91 426.58,919.23 427.53,919.71 428.48,922.01 429.43,924.96 430.38,926.13 431.33,923.22 432.28,923.17 433.23,919.09 434.18,919.40 435.13,922.39 436.08,923.65 437.03,926.63 437.98,931.85 438.93,930.86 439.88,928.92 440.84,929.36 441.79,929.21 442.74,929.58 443.69,931.00 444.64,937.15 445.59,926.21 446.54,920.11 447.49,915.44 448.44,914.87 449.39,915.43 450.34,920.38 451.29,919.99 452.24,922.21 453.19,921.59 454.14,920.28 455.09,914.66 456.04,918.97 457.00,920.39 457.95,916.89 458.90,914.39 459.85,913.68 460.80,912.94 461.75,911.26 462.70,909.74 463.65,913.28 464.60,914.44 465.55,910.28 466.50,911.98 467.45,917.76 468.40,920.92 469.35,922.28 470.30,921.18 471.25,919.94 472.21,920.74 473.16,918.98 474.11,920.71 475.06,932.73 476.01,939.16 476.96,940.30 477.91,942.15 478.86,938.39 479.81,922.81 480.76,911.95 481.71,909.20 482.66,905.85 483.61,904.84 484.56,915.44 485.51,918.63 486.46,918.23 487.41,917.06 488.37,907.30 489.32,907.25 490.27,894.08 491.22,895.90 492.17,895.71 493.12,896.02 494.07,894.47 495.02,904.44 495.97,922.32 496.92,924.69 497.87,928.00 498.82,928.87 499.77,927.93 500.72,927.27 501.67,928.27 502.62,923.84 503.58,926.47 504.53,926.69 505.48,922.32 506.43,919.00 507.38,919.87 508.33,920.75 509.28,916.89 510.23,920.17 511.18,923.31 512.13,926.96 513.08,925.18 514.03,936.19 514.98,945.59 515.93,948.66 516.88,953.72 517.83,961.03 518.78,952.24 519.74,948.33 520.69,953.45 521.64,954.21 522.59,955.44 523.54,959.75 524.49,952.84 525.44,948.12 526.39,947.97 527.34,945.74 528.29,950.41 529.24,959.62 530.19,963.55 531.14,963.05 532.09,962.26 533.04,959.28 533.99,957.29 534.95,954.95 535.90,950.47 536.85,946.34 537.80,939.33 538.75,935.59 539.70,947.27 540.65,949.18 541.60,949.39 542.55,959.28 543.50,966.09 544.45,968.20 545.40,969.27 546.35,968.30 547.30,967.32 548.25,965.23 549.20,966.60 550.15,962.34 551.11,962.33 552.06,963.35 553.01,971.68 553.96,978.11 554.91,983.75 555.86,983.50 556.81,978.50 557.76,976.79 558.71,978.44 559.66,978.23 560.61,982.30 561.56,990.77 562.51,993.70 563.46,993.16 564.41,990.28 565.36,992.00 566.32,986.20 567.27,983.46 568.22,973.77 569.17,972.13 570.12,971.82 571.07,974.21 572.02,976.61 572.97,983.35 573.92,988.98 574.87,990.05 575.82,993.19 576.77,994.55 577.72,996.85 578.67,993.54 579.62,991.71 580.57,991.85 581.52,988.89 582.48,1001.61 583.43,1002.76 584.38,1002.49 585.33,1002.00 586.28,1003.18 587.23,1003.39 588.18,1005.12 589.13,1008.08 590.08,1007.70 591.03,1007.34 591.98,1005.91 592.93,1005.14 593.88,998.74 594.83,998.63 595.78,997.78 596.73,999.54 597.68,1001.82 598.64,1002.41 599.59,1003.47 600.54,1003.92 601.49,1006.65 602.44,1006.02 603.39,1011.87 604.34,1013.32 605.29,1015.05 606.24,1007.69 607.19,1000.10 608.14,996.32 609.09,992.13 610.04,989.98 610.99,995.20 611.94,997.92 612.89,999.97 613.85,1003.43 614.80,1004.41 615.75,1002.70 616.70,1004.02 617.65,1003.11 618.60,1000.32 619.55,1001.23 620.50,1005.05 621.45,1006.62 622.40,1005.01 623.35,1005.29 624.30,999.92 625.25,1003.08 626.20,1002.34 627.15,1004.73 628.10,1004.26 629.05,1004.40 630.01,1001.20 630.96,996.34 631.91,987.20 632.86,982.40 633.81,981.74 634.76,974.31 635.71,968.43 636.66,967.18 637.61,956.10 638.56,946.92 639.51,944.93 640.46,939.42 641.41,935.19 642.36,934.49 643.31,931.25 644.26,932.18 645.22,936.34 646.17,934.12 647.12,933.51 648.07,931.01 649.02,927.01 649.97,925.68 650.92,919.79 651.87,924.72 652.82,920.21 653.77,921.52 654.72,922.00 655.67,930.16 656.62,919.00 657.57,930.49 658.52,935.57 659.47,936.68 660.42,937.63 661.38,948.00 662.33,946.93 663.28,945.72 664.23,945.20 665.18,944.00 666.13,933.67 667.08,908.43 668.03,902.55 668.98,902.65 669.93,903.03 670.88,904.04 671.83,921.41 672.78,930.50 673.73,931.28 674.68,927.34 675.63,923.78 676.59,919.97 677.54,915.73 678.49,914.35 679.44,904.02 680.39,891.31 681.34,890.47 682.29,888.91 683.24,887.42 684.19,891.52 685.14,907.60 686.09,916.86 687.04,917.52 687.99,919.14 688.94,920.34 689.89,920.30 690.84,922.14 691.79,927.15 692.75,928.80 693.70,930.93 694.65,933.10 695.60,932.90 696.55,927.30 697.50,921.12 698.45,915.05 699.40,907.25 700.35,904.70 701.30,908.58 702.25,916.63 703.20,922.73 704.15,929.75 705.10,933.54 706.05,940.27 707.00,946.96 707.96,954.14 708.91,969.71 709.86,979.83 710.81,985.27 711.76,985.58 712.71,993.59 713.66,986.17 714.61,975.11 715.56,981.56 716.51,990.89 717.46,993.38 718.41,1003.48 719.36,1014.17 720.31,1004.83 721.26,1002.42 722.21,1000.36 723.16,997.54 724.12,998.27 725.07,1006.70 726.02,1007.56 726.97,1006.38 727.92,1006.96 728.87,1007.39 729.82,1008.65 730.77,1005.89 731.72,1004.58 732.67,1003.92 733.62,1001.61 734.57,999.00 735.52,998.87 736.47,999.50 737.42,992.36 738.37,982.06 739.33,976.14 740.28,975.49 741.23,971.70 742.18,976.95 743.13,988.54 744.08,995.44 745.03,999.87 745.98,1006.10 746.93,1008.40 747.88,1007.70 748.83,1008.82 749.78,1008.94 750.73,1008.08 751.68,1008.67 752.63,1005.06 753.58,1004.22 754.53,1000.63 755.49,991.65 756.44,987.93 757.39,985.80 758.34,984.61 759.29,983.89 760.24,993.64 761.19,994.79 762.14,996.83 763.09,999.52 764.04,1004.59 764.99,1005.19 765.94,1003.52 766.89,1001.97 767.84,992.19 768.79,988.59 769.74,986.86 770.70,991.53 771.65,991.72 772.60,1001.27 773.55,997.28 774.50,996.09 775.45,995.28 776.40,991.93 777.35,989.90 778.30,993.95 779.25,991.44 780.20,981.39 781.15,977.31 782.10,973.34 783.05,971.53 784.00,971.24 784.95,976.49 785.90,980.82 786.86,986.54 787.81,992.39 788.76,998.64 789.71,1004.87 790.66,1009.53 791.61,1009.36 792.56,1006.59 793.51,1003.09 794.46,999.65 795.41,975.58 796.36,970.03 797.31,967.96 798.26,967.47 799.21,967.80 800.16,973.24 801.11,974.84 802.07,974.49 803.02,968.85 803.97,970.91 804.92,970.85 805.87,971.91 806.82,970.56 807.77,976.98 808.72,978.08 809.67,977.27 810.62,979.43 811.57,984.98 812.52,988.15 813.47,988.38 814.42,990.69 815.37,991.26 816.32,990.22 817.27,982.16 818.23,964.52 819.18,958.81 820.13,959.38 821.08,959.76 822.03,966.24 822.98,982.76 823.93,984.01 824.88,977.71 825.83,969.32 826.78,962.98 827.73,954.34 828.68,948.59 829.63,946.13 830.58,944.30 831.53,942.54 832.48,943.96 833.44,943.34 834.39,944.14 835.34,947.77 836.29,949.54 837.24,950.50 838.19,951.98 839.14,947.94 840.09,938.73 841.04,930.05 841.99,930.16 842.94,922.62 843.89,924.90 844.84,930.96 845.79,935.94 846.74,938.83 847.69,945.16 848.64,945.95 849.60,944.32 850.55,942.43 851.50,936.83 852.45,928.63 853.40,923.22 854.35,922.62 855.30,917.21 856.25,920.32 857.20,925.23 858.15,928.28 859.10,930.36 860.05,939.40 861.00,940.21 861.95,943.17 862.90,944.72 863.85,943.85 864.81,943.69 865.76,947.16 866.71,949.50 867.66,952.43 868.61,955.01 869.56,955.61 870.51,953.45 871.46,952.98 872.41,951.03 873.36,951.08 874.31,951.58 875.26,954.33 876.21,954.19 877.16,954.10 878.11,954.44 879.06,955.66 880.01,978.64 880.97,980.34 881.92,982.57 882.87,983.50 883.82,983.77 884.77,984.47 885.72,985.49 886.67,985.34 887.62,985.70 888.57,987.23 889.52,987.74 890.47,987.68 891.42,988.56 892.37,982.32 893.32,971.34 894.27,962.03 895.22,952.28 896.18,950.23 897.13,958.05 898.08,966.61 899.03,975.89 899.98,985.63 900.93,984.29 901.88,983.28 902.83,982.53 903.78,969.08 904.73,965.34 905.68,961.27 906.63,958.58 907.58,952.88 908.53,957.93 909.48,953.77 910.43,952.56 911.38,944.55 912.34,946.34 913.29,955.14 914.24,962.22 915.19,970.33 916.14,982.25 917.09,989.82 918.04,988.78 918.99,985.67 919.94,984.14 920.89,974.85 921.84,967.85 922.79,966.16 923.74,959.59 924.69,949.42 925.64,948.12 926.59,944.61 927.55,942.75 928.50,943.23 929.45,946.73 930.40,947.14 931.35,947.04 932.30,947.19 933.25,939.73 934.20,929.64 935.15,919.13 936.10,914.00 937.05,911.87 938.00,918.99 938.95,926.36 939.90,933.75 940.85,938.47 941.80,938.64 942.75,936.84 943.71,935.65 944.66,933.61 945.61,930.03 946.56,929.83 947.51,929.11 948.46,925.32 949.41,926.57 950.36,920.46 951.31,916.85 952.26,916.24 953.21,920.79 954.16,920.38 955.11,925.52 956.06,924.35 957.01,922.28 957.96,921.47 958.92,923.56 959.87,926.06 960.82,929.02 961.77,930.70 962.72,927.34 963.67,922.19 964.62,881.24 965.57,880.19 966.52,873.81 967.47,872.54 968.42,873.98 969.37,875.64 970.32,877.71 971.27,883.87 972.22,886.95 973.17,884.07 974.12,882.45 975.08,882.56 976.03,880.49 976.98,881.62 977.93,883.73 978.88,884.44 979.83,884.80 980.78,887.66 981.73,887.43 982.68,887.84 983.63,888.87 984.58,888.73 985.53,888.99 986.48,882.70 987.43,873.70 988.38,875.14 989.33,874.72 990.29,871.62 991.24,877.41 992.19,891.62 993.14,897.30 994.09,907.89 995.04,921.39 995.99,932.19 996.94,943.89 997.89,950.06 998.84,952.11 999.79,954.28 1000.74,957.79 1001.69,958.11 1002.64,961.19 1003.59,963.56 1004.54,965.88 1005.49,967.82 1006.45,967.97 1007.40,930.41 1008.35,932.13 1009.30,930.49 1010.25,927.83 1011.20,926.46 1012.15,928.77 1013.10,928.92 1014.05,929.65 1015.00,933.25 1015.95,937.04 1016.90,936.87 1017.85,937.79 1018.80,940.34 1019.75,940.72 1020.70,936.18 1021.66,927.87 1022.61,923.23 1023.56,924.38 1024.51,926.44 1025.46,931.61 1026.41,941.82 1027.36,946.91 1028.31,944.80 1029.26,939.98 1030.21,933.09 1031.16,926.76 1032.11,919.79 1033.06,917.46 1034.01,921.56 1034.96,926.37 1035.91,927.63 1036.86,932.15 1037.82,931.66 1038.77,929.07 1039.72,927.72 1040.67,930.26 1041.62,930.93 1042.57,932.88 1043.52,932.78 1044.47,933.44 1045.42,933.95 1046.37,935.43 1047.32,935.94 1048.27,928.48 1049.22,921.78 1050.17,901.20 1051.12,898.65 1052.07,899.26 1053.03,894.13 1053.98,899.78 1054.93,896.20 1055.88,896.55 1056.83,890.12 1057.78,900.48 1058.73,898.49 1059.68,900.36 1060.63,885.14 1061.58,888.80 1062.53,890.11 1063.48,881.84 1064.43,883.17 1065.38,901.16 1066.33,890.06 1067.28,894.54 1068.23,914.58 1069.19,917.04 1070.14,917.36 1071.09,937.60 1072.04,937.60 1072.99,937.60 1073.94,937.60 1074.89,937.60 1075.84,926.22 1076.79,905.58 1077.74,896.28 1078.69,893.72 1079.64,889.83 1080.59,887.72 1081.54,888.12 1082.49,889.34 1083.44,892.08 1084.40,895.77 1085.35,897.35 1086.30,897.20 1087.25,896.93 1088.20,896.44 1089.15,896.55 1090.10,896.76 1091.05,897.83 1092.00,897.91" fill="none" stroke="#1f77b4" stroke-width="1.7"/>
<text x="72" y="1068" font-size="12" font-family="monospace" fill="#333">time (s)</text>
<text x="18" y="898.00" transform="rotate(-90 18,898.00)" font-size="12" font-family="monospace" fill="#333">hard_score</text>
<text x="1092" y="1068" text-anchor="end" font-size="12" font-family="monospace" fill="#555">orange = hard_span</text>
<text x="72" y="1104" font-size="16" font-family="monospace" fill="#222">seatbelt.both.hang.zhangyu.20260205.batch.1 episode_000003</text>
<rect x="72" y="1126" width="1020" height="264" fill="#fff" stroke="#c9c9c9"/>
<rect x="153.21" y="1126" width="97.45" height="264" fill="#ffb000" opacity="0.16"/>
<rect x="332.95" y="1126" width="58.47" height="264" fill="#ffb000" opacity="0.16"/>
<rect x="423.91" y="1126" width="90.96" height="264" fill="#ffb000" opacity="0.16"/>
<rect x="646.97" y="1126" width="33.57" height="264" fill="#ffb000" opacity="0.16"/>
<rect x="825.63" y="1126" width="62.80" height="264" fill="#ffb000" opacity="0.16"/>
<rect x="883.02" y="1126" width="34.65" height="264" fill="#ffb000" opacity="0.16"/>
<line x1="72" y1="1390.00" x2="1092" y2="1390.00" stroke="#e7e7e7"/>
<text x="62" y="1394.00" text-anchor="end" font-size="11" font-family="monospace" fill="#555">0.00</text>
<line x1="72" y1="1324.00" x2="1092" y2="1324.00" stroke="#e7e7e7"/>
<text x="62" y="1328.00" text-anchor="end" font-size="11" font-family="monospace" fill="#555">0.25</text>
<line x1="72" y1="1258.00" x2="1092" y2="1258.00" stroke="#e7e7e7"/>
<text x="62" y="1262.00" text-anchor="end" font-size="11" font-family="monospace" fill="#555">0.50</text>
<line x1="72" y1="1192.00" x2="1092" y2="1192.00" stroke="#e7e7e7"/>
<text x="62" y="1196.00" text-anchor="end" font-size="11" font-family="monospace" fill="#555">0.75</text>
<line x1="72" y1="1126.00" x2="1092" y2="1126.00" stroke="#e7e7e7"/>
<text x="62" y="1130.00" text-anchor="end" font-size="11" font-family="monospace" fill="#555">1.00</text>
<line x1="72.00" y1="1390" x2="72.00" y2="1395" stroke="#999"/>
<text x="72.00" y="1410" text-anchor="middle" font-size="11" font-family="monospace" fill="#555">0s</text>
<line x1="234.42" y1="1390" x2="234.42" y2="1395" stroke="#999"/>
<text x="234.42" y="1410" text-anchor="middle" font-size="11" font-family="monospace" fill="#555">5s</text>
<line x1="396.84" y1="1390" x2="396.84" y2="1395" stroke="#999"/>
<text x="396.84" y="1410" text-anchor="middle" font-size="11" font-family="monospace" fill="#555">10s</text>
<line x1="559.26" y1="1390" x2="559.26" y2="1395" stroke="#999"/>
<text x="559.26" y="1410" text-anchor="middle" font-size="11" font-family="monospace" fill="#555">15s</text>
<line x1="721.68" y1="1390" x2="721.68" y2="1395" stroke="#999"/>
<text x="721.68" y="1410" text-anchor="middle" font-size="11" font-family="monospace" fill="#555">20s</text>
<line x1="884.10" y1="1390" x2="884.10" y2="1395" stroke="#999"/>
<text x="884.10" y="1410" text-anchor="middle" font-size="11" font-family="monospace" fill="#555">25s</text>
<line x1="1046.52" y1="1390" x2="1046.52" y2="1395" stroke="#999"/>
<text x="1046.52" y="1410" text-anchor="middle" font-size="11" font-family="monospace" fill="#555">30s</text>
<line x1="72" y1="1276.51" x2="1092" y2="1276.51" stroke="#d62728" stroke-width="1.4" stroke-dasharray="6 5"/>
<text x="1088" y="1270.51" text-anchor="end" font-size="11" font-family="monospace" fill="#d62728">precision threshold 0.430</text>
<polyline points="72.00,1297.60 73.08,1297.60 74.17,1286.33 75.25,1262.80 76.33,1262.80 77.41,1262.75 78.50,1257.69 79.58,1257.07 80.66,1261.28 81.75,1257.87 82.83,1257.71 83.91,1257.98 84.99,1257.99 86.08,1258.00 87.16,1262.63 88.24,1257.99 89.32,1274.57 90.41,1274.53 91.49,1274.51 92.57,1261.96 93.66,1276.15 94.74,1275.18 95.82,1273.62 96.90,1272.02 97.99,1280.35 99.07,1288.43 100.15,1284.24 101.24,1280.86 102.32,1280.73 103.40,1281.21 104.48,1280.17 105.57,1282.98 106.65,1283.88 107.73,1279.41 108.82,1277.84 109.90,1272.86 110.98,1269.39 112.06,1268.65 113.15,1270.51 114.23,1263.71 115.31,1298.47 116.39,1291.89 117.48,1291.25 118.56,1291.08 119.64,1291.48 120.73,1306.01 121.81,1311.34 122.89,1311.00 123.97,1309.35 125.06,1310.81 126.14,1312.24 127.22,1314.08 128.31,1317.03 129.39,1316.97 130.47,1307.95 131.55,1291.65 132.64,1287.07 133.72,1286.54 134.80,1286.43 135.89,1291.43 136.97,1302.03 138.05,1320.06 139.13,1315.35 140.22,1314.41 141.30,1313.50 142.38,1306.15 143.46,1304.11 144.55,1311.96 145.63,1309.33 146.71,1306.48 147.80,1307.75 148.88,1307.47 149.96,1302.08 151.04,1303.83 152.13,1303.16 153.21,1302.94 154.29,1302.43 155.38,1299.46 156.46,1294.69 157.54,1307.46 158.62,1303.46 159.71,1290.59 160.79,1277.65 161.87,1263.93 162.96,1253.05 164.04,1243.61 165.12,1248.27 166.20,1246.08 167.29,1245.13 168.37,1247.51 169.45,1247.71 170.54,1249.03 171.62,1253.13 172.70,1257.00 173.78,1260.08 174.87,1264.25 175.95,1260.38 177.03,1258.60 178.11,1258.61 179.20,1258.40 180.28,1253.36 181.36,1253.82 182.45,1251.04 183.53,1251.89 184.61,1251.79 185.69,1256.26 186.78,1261.19 187.86,1267.42 188.94,1270.31 190.03,1269.35 191.11,1272.61 192.19,1270.93 193.27,1260.50 194.36,1255.16 195.44,1259.30 196.52,1258.70 197.61,1260.38 198.69,1269.84 199.77,1255.62 200.85,1253.82 201.94,1253.45 203.02,1254.73 204.10,1257.27 205.18,1259.46 206.27,1259.35 207.35,1254.16 208.43,1250.87 209.52,1248.26 210.60,1243.40 211.68,1244.69 212.76,1252.15 213.85,1255.93 214.93,1258.72 216.01,1260.23 217.10,1261.57 218.18,1260.05 219.26,1258.20 220.34,1256.02 221.43,1258.58 222.51,1257.28 223.59,1255.23 224.68,1253.45 225.76,1254.90 226.84,1248.64 227.92,1243.13 229.01,1235.67 230.09,1231.68 231.17,1229.33 232.25,1234.27 233.34,1238.04 234.42,1247.10 235.50,1254.33 236.59,1256.30 237.67,1258.23 238.75,1260.67 239.83,1265.91 240.92,1270.84 242.00,1287.22 243.08,1293.51 244.17,1297.88 245.25,1295.85 246.33,1297.95 247.41,1305.25 248.50,1304.80 249.58,1306.25 250.66,1311.73 251.75,1315.53 252.83,1317.82 253.91,1320.30 254.99,1320.53 256.08,1321.48 257.16,1320.82 258.24,1321.72 259.32,1327.19 260.41,1328.72 261.49,1315.89 262.57,1317.62 263.66,1316.72 264.74,1312.04 265.82,1308.78 266.90,1312.14 267.99,1320.47 269.07,1317.59 270.15,1323.67 271.24,1326.12 272.32,1321.28 273.40,1312.69 274.48,1310.99 275.57,1307.88 276.65,1307.22 277.73,1313.22 278.82,1321.67 279.90,1326.30 280.98,1327.05 282.06,1323.83 283.15,1321.66 284.23,1316.36 285.31,1327.05 286.39,1322.97 287.48,1321.17 288.56,1321.06 289.64,1310.13 290.73,1291.21 291.81,1286.95 292.89,1280.90 293.97,1274.78 295.06,1272.27 296.14,1280.58 297.22,1286.68 298.31,1290.16 299.39,1288.99 300.47,1287.03 301.55,1285.61 302.64,1286.61 303.72,1285.39 304.80,1280.80 305.89,1283.92 306.97,1289.50 308.05,1291.91 309.13,1292.74 310.22,1301.22 311.30,1302.86 312.38,1297.24 313.46,1296.38 314.55,1293.19 315.63,1289.81 316.71,1288.16 317.80,1289.95 318.88,1292.16 319.96,1299.65 321.04,1304.78 322.13,1307.61 323.21,1307.52 324.29,1299.82 325.38,1296.24 326.46,1297.96 327.54,1297.99 328.62,1299.74 329.71,1306.29 330.79,1305.95 331.87,1303.31 332.96,1296.05 334.04,1284.62 335.12,1281.72 336.20,1282.56 337.29,1283.95 338.37,1285.83 339.45,1295.12 340.54,1284.51 341.62,1275.55 342.70,1269.81 343.78,1269.33 344.87,1263.25 345.95,1273.80 347.03,1281.87 348.11,1273.39 349.20,1272.51 350.28,1272.61 351.36,1270.37 352.45,1262.61 353.53,1271.61 354.61,1271.85 355.69,1276.39 356.78,1273.24 357.86,1269.88 358.94,1267.73 360.03,1269.87 361.11,1258.39 362.19,1243.54 363.27,1247.93 364.36,1249.25 365.44,1244.81 366.52,1246.79 367.61,1255.86 368.69,1246.99 369.77,1254.04 370.85,1254.10 371.94,1258.05 373.02,1262.89 374.10,1276.32 375.18,1277.48 376.27,1268.76 377.35,1270.21 378.43,1259.72 379.52,1259.49 380.60,1262.58 381.68,1276.12 382.76,1279.07 383.85,1286.63 384.93,1285.66 386.01,1285.86 387.10,1283.62 388.18,1285.25 389.26,1287.95 390.34,1290.12 391.43,1292.27 392.51,1293.48 393.59,1294.05 394.68,1293.39 395.76,1290.15 396.84,1290.03 397.92,1291.00 399.01,1287.58 400.09,1283.39 401.17,1285.44 402.25,1286.38 403.34,1285.39 404.42,1284.58 405.50,1288.05 406.59,1289.76 407.67,1284.60 408.75,1287.49 409.83,1297.14 410.92,1296.12 412.00,1284.56 413.08,1281.52 414.17,1281.55 415.25,1280.53 416.33,1285.09 417.41,1283.94 418.50,1289.02 419.58,1291.85 420.66,1291.28 421.75,1287.41 422.83,1286.74 423.91,1289.27 424.99,1287.22 426.08,1287.25 427.16,1286.00 428.24,1285.25 429.32,1277.30 430.41,1270.59 431.49,1270.61 432.57,1269.25 433.66,1269.19 434.74,1272.82 435.82,1276.31 436.90,1276.74 437.99,1279.67 439.07,1279.56 440.15,1283.95 441.24,1284.21 442.32,1286.99 443.40,1278.20 444.48,1262.86 445.57,1249.32 446.65,1249.42 447.73,1243.38 448.82,1246.75 449.90,1263.00 450.98,1276.99 452.06,1278.92 453.15,1285.70 454.23,1285.66 455.31,1268.53 456.39,1265.55 457.48,1264.91 458.56,1264.64 459.64,1259.97 460.73,1261.13 461.81,1262.12 462.89,1261.09 463.97,1249.47 465.06,1247.42 466.14,1245.24 467.22,1244.75 468.31,1240.78 469.39,1250.78 470.47,1257.91 471.55,1256.68 472.64,1242.21 473.72,1240.05 474.80,1235.94 475.89,1232.29 476.97,1231.38 478.05,1240.73 479.13,1239.59 480.22,1240.61 481.30,1236.26 482.38,1236.09 483.46,1238.25 484.55,1241.60 485.63,1243.23 486.71,1244.28 487.80,1244.31 488.88,1240.68 489.96,1238.61 491.04,1233.53 492.13,1232.36 493.21,1232.31 494.29,1233.55 495.38,1235.90 496.46,1241.30 497.54,1248.82 498.62,1252.70 499.71,1258.60 500.79,1257.31 501.87,1255.54 502.96,1253.88 504.04,1254.76 505.12,1263.50 506.20,1281.46 507.29,1298.45 508.37,1312.05 509.45,1325.79 510.54,1329.52 511.62,1321.72 512.70,1318.06 513.78,1317.14 514.87,1314.50 515.95,1315.71 517.03,1324.22 518.11,1327.26 519.20,1330.71 520.28,1332.63 521.36,1330.24 522.45,1327.97 523.53,1328.94 524.61,1327.29 525.69,1327.33 526.78,1330.63 527.86,1331.74 528.94,1316.52 530.03,1299.95 531.11,1300.03 532.19,1299.74 533.27,1296.67 534.36,1298.32 535.44,1307.11 536.52,1315.64 537.61,1316.30 538.69,1319.18 539.77,1334.26 540.85,1340.58 541.94,1342.63 543.02,1339.04 544.10,1340.15 545.18,1343.07 546.27,1340.20 547.35,1340.52 548.43,1346.12 549.52,1346.46 550.60,1345.34 551.68,1347.76 552.76,1337.69 553.85,1327.13 554.93,1310.22 556.01,1298.55 557.10,1293.37 558.18,1301.27 559.26,1309.69 560.34,1321.41 561.43,1334.86 562.51,1341.69 563.59,1340.30 564.68,1346.14 565.76,1345.59 566.84,1343.77 567.92,1343.00 569.01,1342.54 570.09,1341.61 571.17,1342.38 572.25,1344.20 573.34,1344.05 574.42,1340.42 575.50,1339.50 576.59,1336.88 577.67,1332.93 578.75,1333.00 579.83,1334.42 580.92,1332.69 582.00,1351.71 583.08,1356.62 584.17,1357.56 585.25,1360.06 586.33,1359.24 587.41,1355.90 588.50,1355.45 589.58,1356.41 590.66,1357.63 591.75,1362.78 592.83,1365.28 593.91,1361.56 594.99,1357.28 596.08,1353.38 597.16,1349.23 598.24,1348.37 599.32,1348.54 600.41,1348.33 601.49,1339.28 602.57,1334.00 603.66,1331.09 604.74,1321.70 605.82,1316.93 606.90,1315.10 607.99,1310.51 609.07,1298.89 610.15,1295.79 611.24,1293.75 612.32,1292.84 613.40,1290.04 614.48,1292.45 615.57,1289.83 616.65,1284.76 617.73,1275.98 618.82,1265.67 619.90,1261.23 620.98,1260.52 622.06,1251.54 623.15,1259.16 624.23,1269.48 625.31,1278.99 626.39,1283.32 627.48,1293.10 628.56,1292.08 629.64,1294.50 630.73,1295.07 631.81,1287.85 632.89,1283.71 633.97,1279.87 635.06,1278.49 636.14,1278.17 637.22,1285.22 638.31,1288.15 639.39,1293.09 640.47,1292.39 641.55,1291.42 642.64,1288.00 643.72,1287.58 644.80,1288.39 645.89,1287.44 646.97,1286.85 648.05,1290.26 649.13,1288.13 650.22,1285.62 651.30,1284.46 652.38,1282.97 653.46,1280.47 654.55,1279.10 655.63,1275.44 656.71,1269.72 657.80,1266.50 658.88,1262.07 659.96,1265.98 661.04,1263.58 662.13,1261.99 663.21,1264.06 664.29,1267.17 665.38,1264.54 666.46,1263.88 667.54,1265.22 668.62,1269.09 669.71,1270.21 670.79,1270.43 671.87,1280.20 672.96,1281.40 674.04,1280.43 675.12,1281.78 676.20,1282.03 677.29,1281.27 678.37,1283.43 679.45,1282.79 680.54,1281.65 681.62,1287.19 682.70,1288.68 683.78,1289.63 684.87,1293.41 685.95,1298.98 687.03,1304.25 688.11,1309.27 689.20,1321.40 690.28,1333.31 691.36,1345.19 692.45,1353.09 693.53,1363.57 694.61,1363.68 695.69,1363.56 696.78,1361.55 697.86,1350.64 698.94,1343.75 700.03,1340.83 701.11,1344.16 702.19,1337.88 703.27,1340.42 704.36,1340.25 705.44,1341.09 706.52,1337.83 707.61,1336.76 708.69,1335.71 709.77,1336.25 710.85,1336.29 711.94,1351.61 713.02,1365.30 714.10,1369.88 715.18,1372.94 716.27,1374.27 717.35,1372.16 718.43,1369.68 719.52,1365.85 720.60,1363.48 721.68,1360.40 722.76,1358.36 723.85,1358.94 724.93,1358.62 726.01,1359.34 727.10,1355.22 728.18,1338.74 729.26,1335.39 730.34,1335.13 731.43,1334.18 732.51,1331.91 733.59,1340.02 734.68,1342.33 735.76,1329.07 736.84,1324.14 737.92,1323.94 739.01,1324.10 740.09,1325.19 741.17,1331.04 742.25,1329.78 743.34,1327.06 744.42,1318.95 745.50,1293.80 746.59,1293.59 747.67,1291.40 748.75,1292.39 749.83,1292.66 750.92,1307.39 752.00,1305.43 753.08,1303.87 754.17,1307.32 755.25,1307.95 756.33,1311.82 757.41,1316.92 758.50,1320.34 759.58,1318.42 760.66,1302.87 761.75,1283.80 762.83,1284.46 763.91,1284.29 764.99,1282.57 766.08,1286.16 767.16,1303.33 768.24,1307.99 769.32,1298.46 770.41,1297.59 771.49,1292.48 772.57,1296.23 773.66,1292.80 774.74,1298.71 775.82,1300.33 776.90,1300.16 777.99,1288.09 779.07,1288.36 780.15,1285.85 781.24,1285.52 782.32,1285.10 783.40,1298.21 784.48,1298.92 785.57,1300.46 786.65,1302.71 787.73,1307.27 788.82,1305.66 789.90,1305.71 790.98,1306.64 792.06,1305.50 793.15,1304.07 794.23,1307.02 795.31,1288.34 796.39,1286.86 797.48,1282.66 798.56,1277.29 799.64,1273.72 800.73,1276.71 801.81,1285.30 802.89,1296.68 803.97,1313.83 805.06,1327.66 806.14,1336.36 807.22,1339.93 808.31,1343.97 809.39,1343.12 810.47,1342.98 811.55,1343.90 812.64,1338.75 813.72,1327.20 814.80,1325.92 815.89,1324.79 816.97,1320.58 818.05,1324.73 819.13,1334.86 820.22,1338.11 821.30,1340.27 822.38,1341.46 823.46,1342.38 824.55,1337.17 825.63,1328.46 826.71,1328.66 827.80,1327.39 828.88,1322.89 829.96,1320.64 831.04,1316.94 832.13,1292.46 833.21,1278.32 834.29,1265.44 835.38,1257.86 836.46,1254.88 837.54,1268.50 838.62,1270.81 839.71,1270.98 840.79,1271.97 841.87,1273.39 842.96,1275.34 844.04,1277.03 845.12,1280.57 846.20,1281.70 847.29,1279.08 848.37,1274.13 849.45,1271.89 850.54,1271.65 851.62,1271.66 852.70,1269.12 853.78,1266.78 854.87,1264.84 855.95,1261.18 857.03,1260.28 858.11,1264.56 859.20,1271.54 860.28,1273.68 861.36,1270.83 862.45,1270.34 863.53,1270.49 864.61,1264.70 865.69,1256.30 866.78,1256.85 867.86,1255.97 868.94,1253.47 870.03,1256.34 871.11,1265.84 872.19,1269.35 873.27,1269.59 874.36,1270.77 875.44,1271.25 876.52,1267.85 877.61,1268.56 878.69,1265.64 879.77,1286.48 880.85,1288.56 881.94,1290.79 883.02,1287.69 884.10,1290.62 885.18,1291.24 886.27,1290.86 887.35,1290.77 888.43,1288.73 889.52,1286.70 890.60,1276.81 891.68,1270.71 892.76,1267.42 893.85,1265.95 894.93,1264.69 896.01,1268.85 897.10,1269.41 898.18,1268.69 899.26,1266.41 900.34,1254.99 901.43,1253.21 902.51,1254.05 903.59,1251.45 904.68,1252.67 905.76,1258.22 906.84,1266.74 907.92,1272.28 909.01,1280.10 910.09,1291.41 911.17,1298.96 912.25,1300.48 913.34,1298.69 914.42,1298.08 915.50,1301.99 916.59,1306.39 917.67,1311.74 918.75,1316.14 919.83,1322.90 920.92,1321.03 922.00,1322.94 923.08,1317.75 924.17,1317.80 925.25,1313.06 926.33,1312.50 927.41,1315.71 928.50,1317.48 929.58,1313.82 930.66,1315.51 931.75,1317.32 932.83,1316.40 933.91,1300.62 934.99,1308.01 936.08,1316.63 937.16,1324.11 938.24,1327.13 939.32,1343.05 940.41,1358.48 941.49,1362.52 942.57,1365.64 943.66,1367.21 944.74,1366.08 945.82,1364.13 946.90,1362.92 947.99,1363.17 949.07,1364.23 950.15,1364.50 951.24,1366.30 952.32,1367.29 953.40,1366.48 954.48,1365.86 955.57,1368.07 956.65,1369.07 957.73,1369.73 958.82,1371.73 959.90,1373.05 960.98,1372.15 962.06,1372.17 963.15,1372.37 964.23,1372.51 965.31,1335.43 966.39,1336.81 967.48,1338.28 968.56,1339.77 969.64,1339.85 970.73,1340.76 971.81,1342.19 972.89,1340.15 973.97,1335.39 975.06,1334.00 976.14,1331.82 977.22,1329.94 978.31,1332.17 979.39,1326.98 980.47,1323.63 981.55,1315.44 982.64,1312.18 983.72,1307.93 984.80,1317.70 985.89,1323.36 986.97,1334.07 988.05,1337.52 989.13,1339.24 990.22,1337.20 991.30,1332.11 992.38,1328.80 993.46,1326.96 994.55,1327.78 995.63,1328.11 996.71,1330.45 997.80,1331.58 998.88,1331.80 999.96,1331.20 1001.04,1331.38 1002.13,1330.85 1003.21,1331.18 1004.29,1327.52 1005.38,1323.03 1006.46,1319.63 1007.54,1280.81 1008.62,1278.63 1009.71,1279.28 1010.79,1281.37 1011.87,1285.70 1012.96,1291.43 1014.04,1295.01 1015.12,1293.44 1016.20,1293.90 1017.29,1287.01 1018.37,1282.11 1019.45,1278.47 1020.54,1281.71 1021.62,1281.40 1022.70,1277.33 1023.78,1272.29 1024.87,1269.75 1025.95,1272.89 1027.03,1276.56 1028.11,1290.53 1029.20,1301.93 1030.28,1293.03 1031.36,1287.79 1032.45,1274.56 1033.53,1274.37 1034.61,1274.80 1035.69,1276.38 1036.78,1276.91 1037.86,1276.88 1038.94,1276.55 1040.03,1275.90 1041.11,1275.17 1042.19,1274.76 1043.27,1275.38 1044.36,1275.92 1045.44,1294.78 1046.52,1302.08 1047.61,1285.61 1048.69,1276.77 1049.77,1257.78 1050.85,1257.26 1051.94,1257.47 1053.02,1257.80 1054.10,1257.93 1055.18,1257.90 1056.27,1257.95 1057.35,1257.95 1058.43,1257.95 1059.52,1257.95 1060.60,1257.89 1061.68,1257.85 1062.76,1257.79 1063.85,1257.67 1064.93,1256.16 1066.01,1254.94 1067.10,1253.97 1068.18,1250.22 1069.26,1249.11 1070.34,1250.04 1071.43,1253.68 1072.51,1255.56 1073.59,1256.20 1074.68,1274.37 1075.76,1258.00 1076.84,1257.28 1077.92,1257.02 1079.01,1256.77 1080.09,1255.74 1081.17,1255.48 1082.25,1255.44 1083.34,1255.41 1084.42,1255.36 1085.50,1255.33 1086.59,1255.33 1087.67,1255.39 1088.75,1255.67 1089.83,1256.47 1090.92,1257.52 1092.00,1274.57" fill="none" stroke="#1f77b4" stroke-width="1.7"/>
<text x="72" y="1428" font-size="12" font-family="monospace" fill="#333">time (s)</text>
<text x="18" y="1258.00" transform="rotate(-90 18,1258.00)" font-size="12" font-family="monospace" fill="#333">hard_score</text>
<text x="1092" y="1428" text-anchor="end" font-size="12" font-family="monospace" fill="#555">orange = hard_span</text>
<text x="72" y="1464" font-size="16" font-family="monospace" fill="#222">seatbelt.both.hang.zhangyu.20260205.batch.1 episode_000004</text>
<rect x="72" y="1486" width="1020" height="264" fill="#fff" stroke="#c9c9c9"/>
<rect x="80.98" y="1486" width="41.92" height="264" fill="#ffb000" opacity="0.16"/>
<rect x="185.78" y="1486" width="74.85" height="264" fill="#ffb000" opacity="0.16"/>
<rect x="556.05" y="1486" width="76.85" height="264" fill="#ffb000" opacity="0.16"/>
<rect x="848.48" y="1486" width="41.92" height="264" fill="#ffb000" opacity="0.16"/>
<rect x="1016.15" y="1486" width="50.90" height="264" fill="#ffb000" opacity="0.16"/>
<line x1="72" y1="1750.00" x2="1092" y2="1750.00" stroke="#e7e7e7"/>
<text x="62" y="1754.00" text-anchor="end" font-size="11" font-family="monospace" fill="#555">0.00</text>
<line x1="72" y1="1684.00" x2="1092" y2="1684.00" stroke="#e7e7e7"/>
<text x="62" y="1688.00" text-anchor="end" font-size="11" font-family="monospace" fill="#555">0.25</text>
<line x1="72" y1="1618.00" x2="1092" y2="1618.00" stroke="#e7e7e7"/>
<text x="62" y="1622.00" text-anchor="end" font-size="11" font-family="monospace" fill="#555">0.50</text>
<line x1="72" y1="1552.00" x2="1092" y2="1552.00" stroke="#e7e7e7"/>
<text x="62" y="1556.00" text-anchor="end" font-size="11" font-family="monospace" fill="#555">0.75</text>
<line x1="72" y1="1486.00" x2="1092" y2="1486.00" stroke="#e7e7e7"/>
<text x="62" y="1490.00" text-anchor="end" font-size="11" font-family="monospace" fill="#555">1.00</text>
<line x1="72.00" y1="1750" x2="72.00" y2="1755" stroke="#999"/>
<text x="72.00" y="1770" text-anchor="middle" font-size="11" font-family="monospace" fill="#555">0s</text>
<line x1="221.71" y1="1750" x2="221.71" y2="1755" stroke="#999"/>
<text x="221.71" y="1770" text-anchor="middle" font-size="11" font-family="monospace" fill="#555">5s</text>
<line x1="371.41" y1="1750" x2="371.41" y2="1755" stroke="#999"/>
<text x="371.41" y="1770" text-anchor="middle" font-size="11" font-family="monospace" fill="#555">10s</text>
<line x1="521.12" y1="1750" x2="521.12" y2="1755" stroke="#999"/>
<text x="521.12" y="1770" text-anchor="middle" font-size="11" font-family="monospace" fill="#555">15s</text>
<line x1="670.83" y1="1750" x2="670.83" y2="1755" stroke="#999"/>
<text x="670.83" y="1770" text-anchor="middle" font-size="11" font-family="monospace" fill="#555">20s</text>
<line x1="820.53" y1="1750" x2="820.53" y2="1755" stroke="#999"/>
<text x="820.53" y="1770" text-anchor="middle" font-size="11" font-family="monospace" fill="#555">25s</text>
<line x1="970.24" y1="1750" x2="970.24" y2="1755" stroke="#999"/>
<text x="970.24" y="1770" text-anchor="middle" font-size="11" font-family="monospace" fill="#555">30s</text>
<line x1="72" y1="1636.51" x2="1092" y2="1636.51" stroke="#d62728" stroke-width="1.4" stroke-dasharray="6 5"/>
<text x="1088" y="1630.51" text-anchor="end" font-size="11" font-family="monospace" fill="#d62728">precision threshold 0.430</text>
<polyline points="72.00,1639.65 73.00,1617.89 74.00,1617.82 74.99,1617.48 75.99,1617.22 76.99,1617.72 77.99,1617.87 78.99,1617.92 79.98,1617.99 80.98,1617.99 81.98,1618.00 82.98,1618.00 83.98,1634.57 84.97,1622.84 85.97,1622.84 86.97,1617.99 87.97,1616.43 88.97,1614.51 89.96,1627.74 90.96,1636.26 91.96,1641.28 92.96,1628.64 93.96,1622.20 94.95,1622.08 95.95,1623.11 96.95,1627.50 97.95,1639.91 98.95,1646.04 99.95,1636.17 100.94,1623.32 101.94,1616.48 102.94,1615.69 103.94,1610.99 104.94,1618.02 105.93,1625.37 106.93,1624.61 107.93,1621.60 108.93,1624.25 109.93,1625.86 110.92,1628.46 111.92,1634.00 112.92,1635.55 113.92,1632.09 114.92,1675.68 115.91,1674.21 116.91,1670.77 117.91,1666.39 118.91,1664.21 119.91,1663.88 120.90,1663.81 121.90,1663.16 122.90,1666.83 123.90,1669.08 124.90,1669.00 125.89,1672.28 126.89,1678.61 127.89,1682.60 128.89,1683.01 129.89,1681.56 130.88,1681.09 131.88,1680.02 132.88,1678.27 133.88,1682.44 134.88,1685.24 135.87,1687.29 136.87,1682.18 137.87,1676.23 138.87,1670.58 139.87,1663.93 140.86,1659.68 141.86,1656.38 142.86,1646.21 143.86,1644.62 144.86,1644.95 145.86,1645.29 146.85,1648.25 147.85,1659.31 148.85,1669.39 149.85,1677.07 150.85,1679.45 151.84,1674.22 152.84,1672.76 153.84,1667.96 154.84,1663.78 155.84,1661.54 156.83,1666.66 157.83,1690.14 158.83,1694.39 159.83,1694.43 160.83,1694.30 161.82,1693.32 162.82,1691.92 163.82,1693.36 164.82,1697.25 165.82,1701.30 166.81,1703.15 167.81,1707.14 168.81,1708.04 169.81,1708.36 170.81,1707.16 171.80,1706.26 172.80,1703.44 173.80,1703.47 174.80,1704.91 175.80,1705.76 176.79,1704.28 177.79,1704.85 178.79,1701.29 179.79,1695.55 180.79,1682.15 181.78,1668.42 182.78,1663.41 183.78,1663.20 184.78,1658.15 185.78,1657.54 186.77,1654.93 187.77,1647.65 188.77,1640.34 189.77,1639.02 190.77,1639.93 191.77,1642.29 192.76,1639.11 193.76,1630.19 194.76,1621.39 195.76,1613.18 196.76,1616.26 197.75,1616.33 198.75,1621.56 199.75,1606.57 200.75,1612.93 201.75,1611.86 202.74,1615.92 203.74,1617.06 204.74,1619.37 205.74,1618.83 206.74,1618.31 207.73,1617.58 208.73,1617.88 209.73,1615.41 210.73,1612.78 211.73,1608.37 212.72,1603.13 213.72,1601.20 214.72,1604.57 215.72,1607.96 216.72,1611.19 217.71,1614.13 218.71,1615.64 219.71,1615.64 220.71,1615.46 221.71,1614.97 222.70,1610.33 223.70,1607.32 224.70,1607.60 225.70,1609.29 226.70,1612.96 227.69,1621.66 228.69,1625.76 229.69,1626.05 230.69,1626.47 231.69,1626.30 232.68,1626.24 233.68,1625.70 234.68,1624.63 235.68,1624.41 236.68,1624.44 237.68,1623.67 238.67,1623.57 239.67,1623.86 240.67,1623.90 241.67,1623.44 242.67,1639.22 243.66,1639.66 244.66,1638.84 245.66,1631.65 246.66,1631.70 247.66,1630.51 248.65,1631.09 249.65,1633.08 250.65,1638.41 251.65,1633.32 252.65,1640.22 253.64,1648.92 254.64,1657.19 255.64,1662.82 256.64,1671.31 257.64,1667.69 258.63,1661.76 259.63,1661.56 260.63,1667.39 261.63,1673.36 262.63,1677.17 263.62,1681.69 264.62,1680.53 265.62,1680.68 266.62,1677.11 267.62,1672.03 268.61,1669.78 269.61,1671.42 270.61,1670.88 271.61,1674.52 272.61,1685.91 273.60,1689.31 274.60,1688.19 275.60,1686.64 276.60,1687.22 277.60,1683.61 278.59,1683.11 279.59,1684.41 280.59,1687.63 281.59,1690.76 282.59,1696.49 283.59,1700.96 284.58,1711.72 285.58,1708.52 286.58,1708.35 287.58,1702.88 288.58,1689.84 289.57,1684.73 290.57,1684.24 291.57,1680.06 292.57,1680.27 293.57,1687.00 294.56,1696.83 295.56,1699.62 296.56,1703.08 297.56,1709.19 298.56,1711.40 299.55,1707.35 300.55,1702.52 301.55,1697.40 302.55,1690.79 303.55,1691.09 304.54,1693.22 305.54,1695.49 306.54,1693.45 307.54,1691.83 308.54,1688.89 309.53,1687.25 310.53,1690.78 311.53,1699.67 312.53,1705.38 313.53,1707.66 314.52,1709.00 315.52,1712.18 316.52,1709.36 317.52,1710.96 318.52,1713.41 319.51,1714.05 320.51,1713.79 321.51,1716.50 322.51,1717.66 323.51,1718.32 324.50,1719.87 325.50,1715.86 326.50,1715.69 327.50,1711.59 328.50,1707.77 329.50,1697.22 330.49,1689.31 331.49,1679.58 332.49,1680.60 333.49,1682.14 334.49,1686.22 335.48,1689.80 336.48,1694.08 337.48,1708.91 338.48,1718.30 339.48,1716.30 340.47,1712.47 341.47,1712.77 342.47,1714.08 343.47,1713.39 344.47,1714.03 345.46,1714.34 346.46,1706.14 347.46,1699.18 348.46,1695.42 349.46,1687.98 350.45,1683.41 351.45,1684.70 352.45,1682.93 353.45,1679.67 354.45,1674.98 355.44,1667.58 356.44,1663.72 357.44,1663.51 358.44,1662.20 359.44,1662.31 360.43,1661.15 361.43,1659.73 362.43,1658.60 363.43,1658.20 364.43,1660.01 365.42,1660.71 366.42,1666.50 367.42,1672.64 368.42,1673.19 369.42,1665.41 370.41,1673.60 371.41,1672.16 372.41,1673.73 373.41,1671.63 374.41,1676.25 375.41,1671.19 376.40,1672.57 377.40,1674.27 378.40,1680.13 379.40,1684.60 380.40,1684.64 381.39,1683.08 382.39,1681.70 383.39,1680.72 384.39,1682.22 385.39,1688.72 386.38,1689.25 387.38,1691.64 388.38,1693.07 389.38,1695.14 390.38,1695.80 391.37,1699.40 392.37,1700.53 393.37,1699.80 394.37,1699.78 395.37,1701.46 396.36,1700.87 397.36,1698.74 398.36,1699.29 399.36,1699.90 400.36,1699.63 401.35,1700.81 402.35,1703.24 403.35,1701.89 404.35,1701.21 405.35,1695.61 406.34,1692.92 407.34,1692.63 408.34,1694.61 409.34,1695.66 410.34,1701.71 411.33,1704.13 412.33,1691.09 413.33,1690.55 414.33,1689.21 415.33,1675.21 416.32,1669.93 417.32,1669.97 418.32,1669.52 419.32,1669.19 420.32,1675.18 421.32,1673.23 422.31,1670.79 423.31,1669.21 424.31,1667.12 425.31,1672.36 426.31,1679.16 427.30,1681.70 428.30,1682.33 429.30,1685.18 430.30,1678.26 431.30,1676.95 432.29,1677.57 433.29,1679.31 434.29,1679.28 435.29,1686.65 436.29,1684.44 437.28,1681.35 438.28,1665.98 439.28,1644.88 440.28,1638.84 441.28,1639.15 442.27,1638.75 443.27,1636.46 444.27,1638.71 445.27,1644.54 446.27,1643.24 447.26,1647.99 448.26,1659.89 449.26,1659.22 450.26,1652.96 451.26,1650.68 452.25,1648.18 453.25,1652.97 454.25,1660.19 455.25,1648.67 456.25,1645.70 457.24,1646.60 458.24,1646.52 459.24,1644.67 460.24,1644.43 461.24,1648.49 462.23,1657.33 463.23,1664.48 464.23,1671.12 465.23,1683.53 466.23,1694.69 467.23,1696.69 468.22,1694.15 469.22,1693.16 470.22,1690.23 471.22,1688.39 472.22,1683.55 473.21,1677.34 474.21,1678.03 475.21,1681.16 476.21,1681.56 477.21,1685.77 478.20,1687.99 479.20,1681.44 480.20,1678.47 481.20,1679.93 482.20,1681.08 483.19,1683.13 484.19,1693.20 485.19,1687.39 486.19,1678.59 487.19,1668.31 488.18,1660.49 489.18,1659.55 490.18,1666.27 491.18,1674.96 492.18,1685.42 493.17,1698.91 494.17,1703.09 495.17,1697.46 496.17,1693.37 497.17,1691.53 498.16,1691.19 499.16,1691.47 500.16,1694.89 501.16,1691.69 502.16,1691.98 503.15,1690.86 504.15,1691.82 505.15,1693.99 506.15,1699.21 507.15,1699.93 508.14,1700.37 509.14,1697.62 510.14,1693.75 511.14,1686.79 512.14,1684.76 513.14,1687.34 514.13,1682.97 515.13,1682.19 516.13,1685.34 517.13,1684.08 518.13,1682.09 519.12,1687.49 520.12,1686.88 521.12,1692.07 522.12,1694.45 523.12,1691.27 524.11,1691.46 525.11,1694.27 526.11,1690.52 527.11,1689.32 528.11,1686.54 529.10,1686.29 530.10,1688.02 531.10,1692.22 532.10,1696.62 533.10,1704.08 534.09,1706.67 535.09,1707.49 536.09,1707.30 537.09,1705.56 538.09,1704.21 539.08,1701.93 540.08,1712.61 541.08,1709.46 542.08,1706.17 543.08,1706.63 544.07,1710.31 545.07,1713.22 546.07,1718.39 547.07,1723.37 548.07,1724.48 549.06,1724.18 550.06,1722.22 551.06,1721.20 552.06,1718.83 553.06,1714.59 554.05,1710.37 555.05,1709.00 556.05,1700.91 557.05,1695.68 558.05,1688.67 559.05,1681.61 560.04,1671.20 561.04,1657.96 562.04,1649.09 563.04,1644.09 564.04,1634.45 565.03,1628.55 566.03,1633.79 567.03,1632.97 568.03,1632.65 569.03,1637.57 570.02,1636.30 571.02,1635.98 572.02,1632.70 573.02,1628.97 574.02,1625.48 575.01,1625.95 576.01,1620.98 577.01,1623.21 578.01,1623.69 579.01,1624.48 580.00,1617.02 581.00,1617.67 582.00,1627.38 583.00,1626.17 584.00,1620.21 584.99,1621.11 585.99,1626.98 586.99,1634.65 587.99,1639.52 588.99,1648.98 589.98,1659.35 590.98,1656.47 591.98,1653.84 592.98,1654.03 593.98,1653.30 594.97,1651.68 595.97,1653.27 596.97,1647.01 597.97,1625.64 598.97,1623.51 599.96,1623.43 600.96,1623.44 601.96,1615.57 602.96,1615.65 603.96,1620.44 604.95,1622.35 605.95,1624.63 606.95,1646.72 607.95,1655.98 608.95,1649.89 609.95,1649.35 610.94,1650.08 611.94,1650.27 612.94,1646.08 613.94,1638.69 614.94,1633.22 615.93,1629.01 616.93,1625.22 617.93,1631.24 618.93,1631.04 619.93,1621.14 620.92,1619.17 621.92,1622.64 622.92,1621.28 623.92,1631.61 624.92,1651.32 625.91,1655.17 626.91,1654.31 627.91,1651.14 628.91,1648.02 629.91,1647.94 630.90,1648.41 631.90,1658.46 632.90,1676.01 633.90,1681.61 634.90,1689.10 635.89,1703.65 636.89,1709.82 637.89,1702.99 638.89,1714.70 639.89,1725.10 640.88,1725.10 641.88,1717.56 642.88,1724.48 643.88,1723.24 644.88,1723.37 645.87,1725.49 646.87,1724.00 647.87,1717.07 648.87,1716.46 649.87,1714.33 650.86,1707.76 651.86,1716.94 652.86,1726.94 653.86,1721.10 654.86,1711.97 655.86,1710.89 656.85,1705.32 657.85,1699.43 658.85,1704.78 659.85,1712.88 660.85,1715.78 661.84,1714.19 662.84,1713.13 663.84,1715.34 664.84,1715.53 665.84,1716.07 666.83,1722.92 667.83,1722.70 668.83,1724.21 669.83,1726.74 670.83,1729.21 671.82,1728.33 672.82,1724.81 673.82,1723.41 674.82,1722.57 675.82,1721.67 676.81,1721.29 677.81,1724.25 678.81,1719.62 679.81,1716.16 680.81,1712.05 681.80,1705.01 682.80,1700.79 683.80,1698.18 684.80,1701.36 685.80,1708.17 686.79,1713.67 687.79,1715.65 688.79,1722.69 689.79,1721.41 690.79,1719.34 691.78,1709.40 692.78,1700.60 693.78,1700.87 694.78,1700.15 695.78,1700.30 696.77,1712.19 697.77,1723.37 698.77,1724.48 699.77,1728.37 700.77,1729.39 701.77,1729.99 702.76,1731.65 703.76,1733.24 704.76,1732.74 705.76,1731.74 706.76,1732.12 707.75,1731.06 708.75,1730.95 709.75,1725.95 710.75,1724.50 711.75,1723.33 712.74,1724.67 713.74,1724.19 714.74,1723.61 715.74,1724.98 716.74,1725.72 717.73,1720.70 718.73,1719.87 719.73,1719.61 720.73,1721.29 721.73,1721.42 722.72,1726.68 723.72,1725.13 724.72,1720.96 725.72,1712.24 726.72,1705.06 727.71,1693.43 728.71,1681.74 729.71,1672.23 730.71,1671.23 731.71,1658.47 732.70,1652.85 733.70,1656.15 734.70,1663.54 735.70,1662.62 736.70,1674.55 737.69,1673.81 738.69,1672.06 739.69,1671.91 740.69,1671.92 741.69,1672.91 742.68,1682.14 743.68,1685.35 744.68,1683.65 745.68,1681.24 746.68,1679.92 747.68,1676.68 748.67,1667.97 749.67,1667.91 750.67,1665.09 751.67,1660.03 752.67,1646.51 753.66,1647.82 754.66,1648.48 755.66,1650.42 756.66,1638.08 757.66,1638.72 758.65,1644.74 759.65,1645.08 760.65,1645.76 761.65,1645.38 762.65,1646.11 763.64,1646.21 764.64,1645.09 765.64,1642.99 766.64,1647.33 767.64,1649.68 768.63,1643.30 769.63,1645.45 770.63,1645.61 771.63,1657.96 772.63,1660.92 773.62,1667.04 774.62,1664.23 775.62,1668.04 776.62,1669.19 777.62,1671.15 778.61,1672.16 779.61,1670.27 780.61,1668.53 781.61,1666.18 782.61,1665.78 783.60,1660.41 784.60,1654.57 785.60,1654.57 786.60,1664.98 787.60,1674.55 788.59,1686.84 789.59,1706.28 790.59,1717.51 791.59,1711.84 792.59,1711.82 793.59,1714.89 794.58,1685.68 795.58,1675.78 796.58,1679.74 797.58,1681.23 798.58,1678.28 799.57,1687.27 800.57,1697.55 801.57,1700.66 802.57,1700.99 803.57,1704.49 804.56,1704.07 805.56,1704.20 806.56,1703.53 807.56,1696.23 808.56,1691.72 809.55,1695.01 810.55,1696.16 811.55,1695.84 812.55,1703.08 813.55,1705.77 814.54,1705.10 815.54,1705.95 816.54,1704.68 817.54,1699.32 818.54,1696.53 819.53,1685.48 820.53,1679.32 821.53,1676.96 822.53,1681.05 823.53,1684.54 824.52,1693.20 825.52,1697.41 826.52,1702.54 827.52,1698.65 828.52,1692.89 829.51,1688.69 830.51,1681.58 831.51,1673.35 832.51,1667.65 833.51,1663.98 834.50,1665.00 835.50,1668.52 836.50,1670.36 837.50,1670.25 838.50,1669.77 839.50,1666.33 840.49,1657.26 841.49,1649.06 842.49,1651.72 843.49,1648.06 844.49,1643.09 845.48,1642.23 846.48,1640.56 847.48,1640.48 848.48,1640.55 849.48,1640.35 850.47,1641.21 851.47,1642.71 852.47,1639.65 853.47,1639.15 854.47,1637.51 855.46,1636.82 856.46,1635.96 857.46,1638.79 858.46,1634.29 859.46,1625.86 860.45,1620.89 861.45,1617.65 862.45,1616.32 863.45,1620.18 864.45,1629.20 865.44,1634.66 866.44,1637.40 867.44,1636.29 868.44,1635.80 869.44,1635.07 870.43,1632.67 871.43,1631.84 872.43,1629.67 873.43,1625.83 874.43,1622.35 875.42,1620.10 876.42,1617.03 877.42,1605.88 878.42,1602.95 879.42,1604.40 880.41,1628.61 881.41,1628.62 882.41,1640.63 883.41,1649.51 884.41,1649.98 885.41,1651.46 886.40,1655.61 887.40,1659.15 888.40,1649.05 889.40,1643.57 890.40,1641.80 891.39,1640.33 892.39,1638.41 893.39,1648.50 894.39,1652.62 895.39,1652.91 896.38,1652.33 897.38,1650.72 898.38,1648.29 899.38,1640.85 900.38,1634.53 901.37,1626.17 902.37,1616.80 903.37,1613.22 904.37,1620.71 905.37,1625.38 906.36,1629.71 907.36,1637.76 908.36,1641.26 909.36,1644.86 910.36,1655.81 911.35,1673.59 912.35,1689.78 913.35,1704.08 914.35,1715.19 915.35,1720.90 916.34,1720.84 917.34,1719.41 918.34,1718.59 919.34,1708.49 920.34,1684.56 921.33,1682.98 922.33,1690.79 923.33,1693.21 924.33,1695.32 925.33,1709.66 926.32,1720.91 927.32,1717.67 928.32,1714.00 929.32,1717.84 930.32,1717.28 931.32,1715.86 932.31,1716.94 933.31,1715.59 934.31,1714.50 935.31,1705.18 936.31,1701.39 937.30,1700.34 938.30,1702.72 939.30,1704.32 940.30,1711.64 941.30,1714.50 942.29,1721.12 943.29,1720.83 944.29,1721.28 945.29,1725.61 946.29,1719.04 947.28,1700.41 948.28,1696.82 949.28,1696.72 950.28,1696.43 951.28,1696.25 952.27,1696.34 953.27,1696.64 954.27,1695.85 955.27,1696.29 956.27,1703.55 957.26,1719.98 958.26,1727.43 959.26,1729.16 960.26,1729.76 961.26,1728.96 962.25,1728.33 963.25,1722.73 964.25,1710.01 965.25,1667.61 966.25,1670.41 967.24,1672.47 968.24,1680.20 969.24,1687.98 970.24,1685.19 971.24,1681.57 972.23,1682.26 973.23,1682.36 974.23,1682.74 975.23,1678.79 976.23,1678.42 977.23,1675.37 978.22,1674.87 979.22,1681.63 980.22,1697.12 981.22,1703.75 982.22,1708.15 983.21,1708.43 984.21,1704.33 985.21,1701.72 986.21,1701.58 987.21,1696.33 988.20,1691.49 989.20,1678.34 990.20,1679.91 991.20,1667.84 992.20,1668.52 993.19,1671.12 994.19,1681.55 995.19,1680.48 996.19,1690.19 997.19,1696.06 998.18,1686.40 999.18,1678.48 1000.18,1674.50 1001.18,1676.76 1002.18,1675.45 1003.17,1684.11 1004.17,1689.52 1005.17,1692.30 1006.17,1691.41 1007.17,1651.88 1008.16,1651.76 1009.16,1649.49 1010.16,1646.61 1011.16,1643.81 1012.16,1642.08 1013.15,1641.71 1014.15,1641.40 1015.15,1642.56 1016.15,1644.67 1017.15,1649.04 1018.14,1650.31 1019.14,1655.60 1020.14,1656.21 1021.14,1652.38 1022.14,1648.35 1023.14,1647.41 1024.13,1635.44 1025.13,1634.91 1026.13,1631.67 1027.13,1633.07 1028.13,1633.14 1029.12,1644.49 1030.12,1645.06 1031.12,1650.50 1032.12,1651.97 1033.12,1646.50 1034.11,1640.35 1035.11,1637.18 1036.11,1634.11 1037.11,1635.11 1038.11,1637.69 1039.10,1646.61 1040.10,1650.69 1041.10,1658.75 1042.10,1661.05 1043.10,1662.37 1044.09,1644.55 1045.09,1626.20 1046.09,1618.94 1047.09,1620.59 1048.09,1626.59 1049.08,1632.14 1050.08,1613.93 1051.08,1614.21 1052.08,1616.66 1053.08,1629.67 1054.07,1638.07 1055.07,1639.43 1056.07,1614.11 1057.07,1614.78 1058.07,1624.82 1059.06,1615.95 1060.06,1612.18 1061.06,1620.12 1062.06,1622.80 1063.06,1618.00 1064.05,1622.29 1065.05,1645.82 1066.05,1634.05 1067.05,1634.05 1068.05,1646.33 1069.05,1634.57 1070.04,1634.57 1071.04,1646.30 1072.04,1622.84 1073.04,1617.93 1074.04,1617.89 1075.03,1617.88 1076.03,1617.93 1077.03,1617.97 1078.03,1617.97 1079.03,1634.57 1080.02,1617.97 1081.02,1617.94 1082.02,1617.94 1083.02,1617.88 1084.02,1617.89 1085.01,1617.93 1086.01,1617.94 1087.01,1617.95 1088.01,1618.00 1089.01,1618.00 1090.00,1618.00 1091.00,1635.52 1092.00,1635.52" fill="none" stroke="#1f77b4" stroke-width="1.7"/>
<text x="72" y="1788" font-size="12" font-family="monospace" fill="#333">time (s)</text>
<text x="18" y="1618.00" transform="rotate(-90 18,1618.00)" font-size="12" font-family="monospace" fill="#333">hard_score</text>
<text x="1092" y="1788" text-anchor="end" font-size="12" font-family="monospace" fill="#555">orange = hard_span</text>
</svg>
