<svg xmlns="http://www.w3.org/2000/svg" width="1120" height="360" viewBox="0 0 1120 360">
<rect width="100%" height="100%" fill="#fafafa"/>
<text x="72" y="24" font-size="16" font-family="monospace" fill="#222">seatbelt.both.hang.zhangyu.20260205.batch.1 episode_000003</text>
<rect x="72" y="46" width="1020" height="264" fill="#fff" stroke="#c9c9c9"/>
<rect x="153.21" y="46" width="97.45" height="264" fill="#ffb000" opacity="0.16"/>
<rect x="332.95" y="46" width="58.47" height="264" fill="#ffb000" opacity="0.16"/>
<rect x="423.91" y="46" width="90.96" height="264" fill="#ffb000" opacity="0.16"/>
<rect x="646.97" y="46" width="33.57" height="264" fill="#ffb000" opacity="0.16"/>
<rect x="825.63" y="46" width="62.80" height="264" fill="#ffb000" opacity="0.16"/>
<rect x="883.02" y="46" width="34.65" height="264" fill="#ffb000" opacity="0.16"/>
<line x1="72" y1="310.00" x2="1092" y2="310.00" stroke="#e7e7e7"/>
<text x="62" y="314.00" text-anchor="end" font-size="11" font-family="monospace" fill="#555">0.00</text>
<line x1="72" y1="244.00" x2="1092" y2="244.00" stroke="#e7e7e7"/>
<text x="62" y="248.00" text-anchor="end" font-size="11" font-family="monospace" fill="#555">0.25</text>
<line x1="72" y1="178.00" x2="1092" y2="178.00" stroke="#e7e7e7"/>
<text x="62" y="182.00" text-anchor="end" font-size="11" font-family="monospace" fill="#555">0.50</text>
<line x1="72" y1="112.00" x2="1092" y2="112.00" stroke="#e7e7e7"/>
<text x="62" y="116.00" text-anchor="end" font-size="11" font-family="monospace" fill="#555">0.75</text>
<line x1="72" y1="46.00" x2="1092" y2="46.00" stroke="#e7e7e7"/>
<text x="62" y="50.00" text-anchor="end" font-size="11" font-family="monospace" fill="#555">1.00</text>
<line x1="72.00" y1="310" x2="72.00" y2="315" stroke="#999"/>
<text x="72.00" y="330" text-anchor="middle" font-size="11" font-family="monospace" fill="#555">0s</text>
<line x1="234.42" y1="310" x2="234.42" y2="315" stroke="#999"/>
<text x="234.42" y="330" text-anchor="middle" font-size="11" font-family="monospace" fill="#555">5s</text>
<line x1="396.84" y1="310" x2="396.84" y2="315" stroke="#999"/>
<text x="396.84" y="330" text-anchor="middle" font-size="11" font-family="monospace" fill="#555">10s</text>
<line x1="559.26" y1="310" x2="559.26" y2="315" stroke="#999"/>
<text x="559.26" y="330" text-anchor="middle" font-size="11" font-family="monospace" fill="#555">15s</text>
<line x1="721.68" y1="310" x2="721.68" y2="315" stroke="#999"/>
<text x="721.68" y="330" text-anchor="middle" font-size="11" font-family="monospace" fill="#555">20s</text>
<line x1="884.10" y1="310" x2="884.10" y2="315" stroke="#999"/>
<text x="884.10" y="330" text-anchor="middle" font-size="11" font-family="monospace" fill="#555">25s</text>
<line x1="1046.52" y1="310" x2="1046.52" y2="315" stroke="#999"/>
<text x="1046.52" y="330" text-anchor="middle" font-size="11" font-family="monospace" fill="#555">30s</text>
<line x1="72" y1="196.51" x2="1092" y2="196.51" stroke="#d62728" stroke-width="1.4" stroke-dasharray="6 5"/>
<text x="1088" y="190.51" text-anchor="end" font-size="11" font-family="monospace" fill="#d62728">precision threshold 0.430</text>
<polyline points="72.00,217.60 73.08,217.60 74.17,206.33 75.25,182.80 76.33,182.80 77.41,182.75 78.50,177.69 79.58,177.07 80.66,181.28 81.75,177.87 82.83,177.71 83.91,177.98 84.99,177.99 86.08,178.00 87.16,182.63 88.24,177.99 89.32,194.57 90.41,194.53 91.49,194.51 92.57,181.96 93.66,196.15 94.74,195.18 95.82,193.62 96.90,192.02 97.99,200.35 99.07,208.43 100.15,204.24 101.24,200.86 102.32,200.73 103.40,201.21 104.48,200.17 105.57,202.98 106.65,203.88 107.73,199.41 108.82,197.84 109.90,192.86 110.98,189.39 112.06,188.65 113.15,190.51 114.23,183.71 115.31,218.47 116.39,211.89 117.48,211.25 118.56,211.08 119.64,211.48 120.73,226.01 121.81,231.34 122.89,231.00 123.97,229.35 125.06,230.81 126.14,232.24 127.22,234.08 128.31,237.03 129.39,236.97 130.47,227.95 131.55,211.65 132.64,207.07 133.72,206.54 134.80,206.43 135.89,211.43 136.97,222.03 138.05,240.06 139.13,235.35 140.22,234.41 141.30,233.50 142.38,226.15 143.46,224.11 144.55,231.96 145.63,229.33 146.71,226.48 147.80,227.75 148.88,227.47 149.96,222.08 151.04,223.83 152.13,223.16 153.21,222.94 154.29,222.43 155.38,219.46 156.46,214.69 157.54,227.46 158.62,223.46 159.71,210.59 160.79,197.65 161.87,183.93 162.96,173.05 164.04,163.61 165.12,168.27 166.20,166.08 167.29,165.13 168.37,167.51 169.45,167.71 170.54,169.03 171.62,173.13 172.70,177.00 173.78,180.08 174.87,184.25 175.95,180.38 177.03,178.60 178.11,178.61 179.20,178.40 180.28,173.36 181.36,173.82 182.45,171.04 183.53,171.89 184.61,171.79 185.69,176.26 186.78,181.19 187.86,187.42 188.94,190.31 190.03,189.35 191.11,192.61 192.19,190.93 193.27,180.50 194.36,175.16 195.44,179.30 196.52,178.70 197.61,180.38 198.69,189.84 199.77,175.62 200.85,173.82 201.94,173.45 203.02,174.73 204.10,177.27 205.18,179.46 206.27,179.35 207.35,174.16 208.43,170.87 209.52,168.26 210.60,163.40 211.68,164.69 212.76,172.15 213.85,175.93 214.93,178.72 216.01,180.23 217.10,181.57 218.18,180.05 219.26,178.20 220.34,176.02 221.43,178.58 222.51,177.28 223.59,175.23 224.68,173.45 225.76,174.90 226.84,168.64 227.92,163.13 229.01,155.67 230.09,151.68 231.17,149.33 232.25,154.27 233.34,158.04 234.42,167.10 235.50,174.33 236.59,176.30 237.67,178.23 238.75,180.67 239.83,185.91 240.92,190.84 242.00,207.22 243.08,213.51 244.17,217.88 245.25,215.85 246.33,217.95 247.41,225.25 248.50,224.80 249.58,226.25 250.66,231.73 251.75,235.53 252.83,237.82 253.91,240.30 254.99,240.53 256.08,241.48 257.16,240.82 258.24,241.72 259.32,247.19 260.41,248.72 261.49,235.89 262.57,237.62 263.66,236.72 264.74,232.04 265.82,228.78 266.90,232.14 267.99,240.47 269.07,237.59 270.15,243.67 271.24,246.12 272.32,241.28 273.40,232.69 274.48,230.99 275.57,227.88 276.65,227.22 277.73,233.22 278.82,241.67 279.90,246.30 280.98,247.05 282.06,243.83 283.15,241.66 284.23,236.36 285.31,247.05 286.39,242.97 287.48,241.17 288.56,241.06 289.64,230.13 290.73,211.21 291.81,206.95 292.89,200.90 293.97,194.78 295.06,192.27 296.14,200.58 297.22,206.68 298.31,210.16 299.39,208.99 300.47,207.03 301.55,205.61 302.64,206.61 303.72,205.39 304.80,200.80 305.89,203.92 306.97,209.50 308.05,211.91 309.13,212.74 310.22,221.22 311.30,222.86 312.38,217.24 313.46,216.38 314.55,213.19 315.63,209.81 316.71,208.16 317.80,209.95 318.88,212.16 319.96,219.65 321.04,224.78 322.13,227.61 323.21,227.52 324.29,219.82 325.38,216.24 326.46,217.96 327.54,217.99 328.62,219.74 329.71,226.29 330.79,225.95 331.87,223.31 332.96,216.05 334.04,204.62 335.12,201.72 336.20,202.56 337.29,203.95 338.37,205.83 339.45,215.12 340.54,204.51 341.62,195.55 342.70,189.81 343.78,189.33 344.87,183.25 345.95,193.80 347.03,201.87 348.11,193.39 349.20,192.51 350.28,192.61 351.36,190.37 352.45,182.61 353.53,191.61 354.61,191.85 355.69,196.39 356.78,193.24 357.86,189.88 358.94,187.73 360.03,189.87 361.11,178.39 362.19,163.54 363.27,167.93 364.36,169.25 365.44,164.81 366.52,166.79 367.61,175.86 368.69,166.99 369.77,174.04 370.85,174.10 371.94,178.05 373.02,182.89 374.10,196.32 375.18,197.48 376.27,188.76 377.35,190.21 378.43,179.72 379.52,179.49 380.60,182.58 381.68,196.12 382.76,199.07 383.85,206.63 384.93,205.66 386.01,205.86 387.10,203.62 388.18,205.25 389.26,207.95 390.34,210.12 391.43,212.27 392.51,213.48 393.59,214.05 394.68,213.39 395.76,210.15 396.84,210.03 397.92,211.00 399.01,207.58 400.09,203.39 401.17,205.44 402.25,206.38 403.34,205.39 404.42,204.58 405.50,208.05 406.59,209.76 407.67,204.60 408.75,207.49 409.83,217.14 410.92,216.12 412.00,204.56 413.08,201.52 414.17,201.55 415.25,200.53 416.33,205.09 417.41,203.94 418.50,209.02 419.58,211.85 420.66,211.28 421.75,207.41 422.83,206.74 423.91,209.27 424.99,207.22 426.08,207.25 427.16,206.00 428.24,205.25 429.32,197.30 430.41,190.59 431.49,190.61 432.57,189.25 433.66,189.19 434.74,192.82 435.82,196.31 436.90,196.74 437.99,199.67 439.07,199.56 440.15,203.95 441.24,204.21 442.32,206.99 443.40,198.20 444.48,182.86 445.57,169.32 446.65,169.42 447.73,163.38 448.82,166.75 449.90,183.00 450.98,196.99 452.06,198.92 453.15,205.70 454.23,205.66 455.31,188.53 456.39,185.55 457.48,184.91 458.56,184.64 459.64,179.97 460.73,181.13 461.81,182.12 462.89,181.09 463.97,169.47 465.06,167.42 466.14,165.24 467.22,164.75 468.31,160.78 469.39,170.78 470.47,177.91 471.55,176.68 472.64,162.21 473.72,160.05 474.80,155.94 475.89,152.29 476.97,151.38 478.05,160.73 479.13,159.59 480.22,160.61 481.30,156.26 482.38,156.09 483.46,158.25 484.55,161.60 485.63,163.23 486.71,164.28 487.80,164.31 488.88,160.68 489.96,158.61 491.04,153.53 492.13,152.36 493.21,152.31 494.29,153.55 495.38,155.90 496.46,161.30 497.54,168.82 498.62,172.70 499.71,178.60 500.79,177.31 501.87,175.54 502.96,173.88 504.04,174.76 505.12,183.50 506.20,201.46 507.29,218.45 508.37,232.05 509.45,245.79 510.54,249.52 511.62,241.72 512.70,238.06 513.78,237.14 514.87,234.50 515.95,235.71 517.03,244.22 518.11,247.26 519.20,250.71 520.28,252.63 521.36,250.24 522.45,247.97 523.53,248.94 524.61,247.29 525.69,247.33 526.78,250.63 527.86,251.74 528.94,236.52 530.03,219.95 531.11,220.03 532.19,219.74 533.27,216.67 534.36,218.32 535.44,227.11 536.52,235.64 537.61,236.30 538.69,239.18 539.77,254.26 540.85,260.58 541.94,262.63 543.02,259.04 544.10,260.15 545.18,263.07 546.27,260.20 547.35,260.52 548.43,266.12 549.52,266.46 550.60,265.34 551.68,267.76 552.76,257.69 553.85,247.13 554.93,230.22 556.01,218.55 557.10,213.37 558.18,221.27 559.26,229.69 560.34,241.41 561.43,254.86 562.51,261.69 563.59,260.30 564.68,266.14 565.76,265.59 566.84,263.77 567.92,263.00 569.01,262.54 570.09,261.61 571.17,262.38 572.25,264.20 573.34,264.05 574.42,260.42 575.50,259.50 576.59,256.88 577.67,252.93 578.75,253.00 579.83,254.42 580.92,252.69 582.00,271.71 583.08,276.62 584.17,277.56 585.25,280.06 586.33,279.24 587.41,275.90 588.50,275.45 589.58,276.41 590.66,277.63 591.75,282.78 592.83,285.28 593.91,281.56 594.99,277.28 596.08,273.38 597.16,269.23 598.24,268.37 599.32,268.54 600.41,268.33 601.49,259.28 602.57,254.00 603.66,251.09 604.74,241.70 605.82,236.93 606.90,235.10 607.99,230.51 609.07,218.89 610.15,215.79 611.24,213.75 612.32,212.84 613.40,210.04 614.48,212.45 615.57,209.83 616.65,204.76 617.73,195.98 618.82,185.67 619.90,181.23 620.98,180.52 622.06,171.54 623.15,179.16 624.23,189.48 625.31,198.99 626.39,203.32 627.48,213.10 628.56,212.08 629.64,214.50 630.73,215.07 631.81,207.85 632.89,203.71 633.97,199.87 635.06,198.49 636.14,198.17 637.22,205.22 638.31,208.15 639.39,213.09 640.47,212.39 641.55,211.42 642.64,208.00 643.72,207.58 644.80,208.39 645.89,207.44 646.97,206.85 648.05,210.26 649.13,208.13 650.22,205.62 651.30,204.46 652.38,202.97 653.46,200.47 654.55,199.10 655.63,195.44 656.71,189.72 657.80,186.50 658.88,182.07 659.96,185.98 661.04,183.58 662.13,181.99 663.21,184.06 664.29,187.17 665.38,184.54 666.46,183.88 667.54,185.22 668.62,189.09 669.71,190.21 670.79,190.43 671.87,200.20 672.96,201.40 674.04,200.43 675.12,201.78 676.20,202.03 677.29,201.27 678.37,203.43 679.45,202.79 680.54,201.65 681.62,207.19 682.70,208.68 683.78,209.63 684.87,213.41 685.95,218.98 687.03,224.25 688.11,229.27 689.20,241.40 690.28,253.31 691.36,265.19 692.45,273.09 693.53,283.57 694.61,283.68 695.69,283.56 696.78,281.55 697.86,270.64 698.94,263.75 700.03,260.83 701.11,264.16 702.19,257.88 703.27,260.42 704.36,260.25 705.44,261.09 706.52,257.83 707.61,256.76 708.69,255.71 709.77,256.25 710.85,256.29 711.94,271.61 713.02,285.30 714.10,289.88 715.18,292.94 716.27,294.27 717.35,292.16 718.43,289.68 719.52,285.85 720.60,283.48 721.68,280.40 722.76,278.36 723.85,278.94 724.93,278.62 726.01,279.34 727.10,275.22 728.18,258.74 729.26,255.39 730.34,255.13 731.43,254.18 732.51,251.91 733.59,260.02 734.68,262.33 735.76,249.07 736.84,244.14 737.92,243.94 739.01,244.10 740.09,245.19 741.17,251.04 742.25,249.78 743.34,247.06 744.42,238.95 745.50,213.80 746.59,213.59 747.67,211.40 748.75,212.39 749.83,212.66 750.92,227.39 752.00,225.43 753.08,223.87 754.17,227.32 755.25,227.95 756.33,231.82 757.41,236.92 758.50,240.34 759.58,238.42 760.66,222.87 761.75,203.80 762.83,204.46 763.91,204.29 764.99,202.57 766.08,206.16 767.16,223.33 768.24,227.99 769.32,218.46 770.41,217.59 771.49,212.48 772.57,216.23 773.66,212.80 774.74,218.71 775.82,220.33 776.90,220.16 777.99,208.09 779.07,208.36 780.15,205.85 781.24,205.52 782.32,205.10 783.40,218.21 784.48,218.92 785.57,220.46 786.65,222.71 787.73,227.27 788.82,225.66 789.90,225.71 790.98,226.64 792.06,225.50 793.15,224.07 794.23,227.02 795.31,208.34 796.39,206.86 797.48,202.66 798.56,197.29 799.64,193.72 800.73,196.71 801.81,205.30 802.89,216.68 803.97,233.83 805.06,247.66 806.14,256.36 807.22,259.93 808.31,263.97 809.39,263.12 810.47,262.98 811.55,263.90 812.64,258.75 813.72,247.20 814.80,245.92 815.89,244.79 816.97,240.58 818.05,244.73 819.13,254.86 820.22,258.11 821.30,260.27 822.38,261.46 823.46,262.38 824.55,257.17 825.63,248.46 826.71,248.66 827.80,247.39 828.88,242.89 829.96,240.64 831.04,236.94 832.13,212.46 833.21,198.32 834.29,185.44 835.38,177.86 836.46,174.88 837.54,188.50 838.62,190.81 839.71,190.98 840.79,191.97 841.87,193.39 842.96,195.34 844.04,197.03 845.12,200.57 846.20,201.70 847.29,199.08 848.37,194.13 849.45,191.89 850.54,191.65 851.62,191.66 852.70,189.12 853.78,186.78 854.87,184.84 855.95,181.18 857.03,180.28 858.11,184.56 859.20,191.54 860.28,193.68 861.36,190.83 862.45,190.34 863.53,190.49 864.61,184.70 865.69,176.30 866.78,176.85 867.86,175.97 868.94,173.47 870.03,176.34 871.11,185.84 872.19,189.35 873.27,189.59 874.36,190.77 875.44,191.25 876.52,187.85 877.61,188.56 878.69,185.64 879.77,206.48 880.85,208.56 881.94,210.79 883.02,207.69 884.10,210.62 885.18,211.24 886.27,210.86 887.35,210.77 888.43,208.73 889.52,206.70 890.60,196.81 891.68,190.71 892.76,187.42 893.85,185.95 894.93,184.69 896.01,188.85 897.10,189.41 898.18,188.69 899.26,186.41 900.34,174.99 901.43,173.21 902.51,174.05 903.59,171.45 904.68,172.67 905.76,178.22 906.84,186.74 907.92,192.28 909.01,200.10 910.09,211.41 911.17,218.96 912.25,220.48 913.34,218.69 914.42,218.08 915.50,221.99 916.59,226.39 917.67,231.74 918.75,236.14 919.83,242.90 920.92,241.03 922.00,242.94 923.08,237.75 924.17,237.80 925.25,233.06 926.33,232.50 927.41,235.71 928.50,237.48 929.58,233.82 930.66,235.51 931.75,237.32 932.83,236.40 933.91,220.62 934.99,228.01 936.08,236.63 937.16,244.11 938.24,247.13 939.32,263.05 940.41,278.48 941.49,282.52 942.57,285.64 943.66,287.21 944.74,286.08 945.82,284.13 946.90,282.92 947.99,283.17 949.07,284.23 950.15,284.50 951.24,286.30 952.32,287.29 953.40,286.48 954.48,285.86 955.57,288.07 956.65,289.07 957.73,289.73 958.82,291.73 959.90,293.05 960.98,292.15 962.06,292.17 963.15,292.37 964.23,292.51 965.31,255.43 966.39,256.81 967.48,258.28 968.56,259.77 969.64,259.85 970.73,260.76 971.81,262.19 972.89,260.15 973.97,255.39 975.06,254.00 976.14,251.82 977.22,249.94 978.31,252.17 979.39,246.98 980.47,243.63 981.55,235.44 982.64,232.18 983.72,227.93 984.80,237.70 985.89,243.36 986.97,254.07 988.05,257.52 989.13,259.24 990.22,257.20 991.30,252.11 992.38,248.80 993.46,246.96 994.55,247.78 995.63,248.11 996.71,250.45 997.80,251.58 998.88,251.80 999.96,251.20 1001.04,251.38 1002.13,250.85 1003.21,251.18 1004.29,247.52 1005.38,243.03 1006.46,239.63 1007.54,200.81 1008.62,198.63 1009.71,199.28 1010.79,201.37 1011.87,205.70 1012.96,211.43 1014.04,215.01 1015.12,213.44 1016.20,213.90 1017.29,207.01 1018.37,202.11 1019.45,198.47 1020.54,201.71 1021.62,201.40 1022.70,197.33 1023.78,192.29 1024.87,189.75 1025.95,192.89 1027.03,196.56 1028.11,210.53 1029.20,221.93 1030.28,213.03 1031.36,207.79 1032.45,194.56 1033.53,194.37 1034.61,194.80 1035.69,196.38 1036.78,196.91 1037.86,196.88 1038.94,196.55 1040.03,195.90 1041.11,195.17 1042.19,194.76 1043.27,195.38 1044.36,195.92 1045.44,214.78 1046.52,222.08 1047.61,205.61 1048.69,196.77 1049.77,177.78 1050.85,177.26 1051.94,177.47 1053.02,177.80 1054.10,177.93 1055.18,177.90 1056.27,177.95 1057.35,177.95 1058.43,177.95 1059.52,177.95 1060.60,177.89 1061.68,177.85 1062.76,177.79 1063.85,177.67 1064.93,176.16 1066.01,174.94 1067.10,173.97 1068.18,170.22 1069.26,169.11 1070.34,170.04 1071.43,173.68 1072.51,175.56 1073.59,176.20 1074.68,194.37 1075.76,178.00 1076.84,177.28 1077.92,177.02 1079.01,176.77 1080.09,175.74 1081.17,175.48 1082.25,175.44 1083.34,175.41 1084.42,175.36 1085.50,175.33 1086.59,175.33 1087.67,175.39 1088.75,175.67 1089.83,176.47 1090.92,177.52 1092.00,194.57" fill="none" stroke="#1f77b4" stroke-width="1.7"/>
<text x="72" y="348" font-size="12" font-family="monospace" fill="#333">time (s)</text>
<text x="18" y="178.00" transform="rotate(-90 18,178.00)" font-size="12" font-family="monospace" fill="#333">hard_score</text>
<text x="1092" y="348" text-anchor="end" font-size="12" font-family="monospace" fill="#555">orange = hard_span</text>
</svg>
