<svg xmlns="http://www.w3.org/2000/svg" width="1120" height="360" viewBox="0 0 1120 360">
<rect width="100%" height="100%" fill="#fafafa"/>
<text x="72" y="24" font-size="16" font-family="monospace" fill="#222">seatbelt.both.hang.zhangyu.20260205.batch.1 episode_000002</text>
<rect x="72" y="46" width="1020" height="264" fill="#fff" stroke="#c9c9c9"/>
<rect x="214.59" y="46" width="77.95" height="264" fill="#ffb000" opacity="0.16"/>
<rect x="323.91" y="46" width="48.48" height="264" fill="#ffb000" opacity="0.16"/>
<rect x="371.44" y="46" width="38.02" height="264" fill="#ffb000" opacity="0.16"/>
<rect x="439.88" y="46" width="35.17" height="264" fill="#ffb000" opacity="0.16"/>
<rect x="473.16" y="46" width="30.42" height="264" fill="#ffb000" opacity="0.16"/>
<rect x="659.47" y="46" width="34.22" height="264" fill="#ffb000" opacity="0.16"/>
<rect x="957.01" y="46" width="45.63" height="264" fill="#ffb000" opacity="0.16"/>
<rect x="1042.57" y="46" width="31.37" height="264" fill="#ffb000" opacity="0.16"/>
<line x1="72" y1="310.00" x2="1092" y2="310.00" stroke="#e7e7e7"/>
<text x="62" y="314.00" text-anchor="end" font-size="11" font-family="monospace" fill="#555">0.00</text>
<line x1="72" y1="244.00" x2="1092" y2="244.00" stroke="#e7e7e7"/>
<text x="62" y="248.00" text-anchor="end" font-size="11" font-family="monospace" fill="#555">0.25</text>
<line x1="72" y1="178.00" x2="1092" y2="178.00" stroke="#e7e7e7"/>
<text x="62" y="182.00" text-anchor="end" font-size="11" font-family="monospace" fill="#555">0.50</text>
<line x1="72" y1="112.00" x2="1092" y2="112.00" stroke="#e7e7e7"/>
<text x="62" y="116.00" text-anchor="end" font-size="11" font-family="monospace" fill="#555">0.75</text>
<line x1="72" y1="46.00" x2="1092" y2="46.00" stroke="#e7e7e7"/>
<text x="62" y="50.00" text-anchor="end" font-size="11" font-family="monospace" fill="#555">1.00</text>
<line x1="72.00" y1="310" x2="72.00" y2="315" stroke="#999"/>
<text x="72.00" y="330" text-anchor="middle" font-size="11" font-family="monospace" fill="#555">0s</text>
<line x1="214.59" y1="310" x2="214.59" y2="315" stroke="#999"/>
<text x="214.59" y="330" text-anchor="middle" font-size="11" font-family="monospace" fill="#555">5s</text>
<line x1="357.18" y1="310" x2="357.18" y2="315" stroke="#999"/>
<text x="357.18" y="330" text-anchor="middle" font-size="11" font-family="monospace" fill="#555">10s</text>
<line x1="499.77" y1="310" x2="499.77" y2="315" stroke="#999"/>
<text x="499.77" y="330" text-anchor="middle" font-size="11" font-family="monospace" fill="#555">15s</text>
<line x1="642.36" y1="310" x2="642.36" y2="315" stroke="#999"/>
<text x="642.36" y="330" text-anchor="middle" font-size="11" font-family="monospace" fill="#555">20s</text>
<line x1="784.95" y1="310" x2="784.95" y2="315" stroke="#999"/>
<text x="784.95" y="330" text-anchor="middle" font-size="11" font-family="monospace" fill="#555">25s</text>
<line x1="927.55" y1="310" x2="927.55" y2="315" stroke="#999"/>
<text x="927.55" y="330" text-anchor="middle" font-size="11" font-family="monospace" fill="#555">30s</text>
<line x1="1070.14" y1="310" x2="1070.14" y2="315" stroke="#999"/>
<text x="1070.14" y="330" text-anchor="middle" font-size="11" font-family="monospace" fill="#555">35s</text>
<line x1="72" y1="196.51" x2="1092" y2="196.51" stroke="#d62728" stroke-width="1.4" stroke-dasharray="6 5"/>
<text x="1088" y="190.51" text-anchor="end" font-size="11" font-family="monospace" fill="#d62728">precision threshold 0.430</text>
<polyline points="72.00,217.60 72.95,217.60 73.90,203.26 74.85,179.77 75.80,178.00 76.75,177.95 77.70,177.73 78.65,177.78 79.60,178.00 80.56,182.80 81.51,194.57 82.46,194.57 83.41,194.57 84.36,206.33 85.31,217.60 86.26,217.60 87.21,217.60 88.16,217.60 89.11,206.33 90.06,194.57 91.01,178.00 91.96,177.77 92.91,177.78 93.86,185.15 94.81,196.92 95.77,217.60 96.72,217.60 97.67,217.60 98.62,217.60 99.57,217.60 100.52,217.60 101.47,217.60 102.42,194.57 103.37,194.57 104.32,194.57 105.27,194.57 106.22,194.57 107.17,217.60 108.12,217.60 109.07,197.79 110.02,186.37 110.97,181.11 111.93,179.03 112.88,174.06 113.83,186.01 114.78,243.42 115.73,245.16 116.68,242.92 117.63,247.02 118.58,248.09 119.53,244.76 120.48,244.84 121.43,246.04 122.38,245.96 123.33,247.32 124.28,246.62 125.23,245.69 126.18,243.44 127.14,243.46 128.09,242.33 129.04,243.32 129.99,242.46 130.94,243.03 131.89,240.15 132.84,239.38 133.79,237.55 134.74,238.80 135.69,241.20 136.64,239.50 137.59,238.71 138.54,239.92 139.49,236.74 140.44,231.66 141.39,233.70 142.34,235.02 143.30,236.24 144.25,236.69 145.20,238.34 146.15,239.24 147.10,237.81 148.05,235.58 149.00,236.08 149.95,236.39 150.90,237.06 151.85,238.50 152.80,241.55 153.75,244.27 154.70,246.72 155.65,248.88 156.60,252.79 157.55,273.69 158.51,273.20 159.46,274.11 160.41,268.37 161.36,259.24 162.31,256.18 163.26,252.86 164.21,250.29 165.16,253.19 166.11,260.64 167.06,259.82 168.01,263.89 168.96,263.66 169.91,264.28 170.86,263.36 171.81,266.82 172.76,263.08 173.71,263.46 174.67,262.17 175.62,259.29 176.57,256.51 177.52,257.11 178.47,255.08 179.42,254.49 180.37,252.93 181.32,249.93 182.27,247.09 183.22,246.99 184.17,242.80 185.12,243.79 186.07,246.44 187.02,247.29 187.97,247.41 188.92,248.79 189.88,249.77 190.83,247.14 191.78,247.76 192.73,242.81 193.68,241.89 194.63,238.80 195.58,238.36 196.53,237.73 197.48,241.05 198.43,241.10 199.38,238.93 200.33,218.24 201.28,219.41 202.23,221.04 203.18,223.87 204.13,226.87 205.08,233.19 206.04,234.14 206.99,238.06 207.94,240.41 208.89,242.41 209.84,240.35 210.79,238.99 211.74,237.71 212.69,234.83 213.64,233.56 214.59,235.50 215.54,237.23 216.49,237.12 217.44,235.97 218.39,229.77 219.34,219.89 220.29,212.08 221.25,203.50 222.20,190.01 223.15,179.13 224.10,172.93 225.05,166.90 226.00,163.00 226.95,165.10 227.90,168.40 228.85,165.90 229.80,167.14 230.75,156.29 231.70,152.87 232.65,149.07 233.60,147.45 234.55,143.15 235.50,152.53 236.45,157.54 237.41,162.86 238.36,169.55 239.31,169.80 240.26,167.40 241.21,159.14 242.16,171.54 243.11,170.15 244.06,174.34 245.01,179.91 245.96,186.68 246.91,191.38 247.86,193.36 248.81,195.00 249.76,195.42 250.71,197.06 251.66,195.17 252.62,194.69 253.57,192.00 254.52,188.18 255.47,187.88 256.42,181.02 257.37,178.94 258.32,181.69 259.27,185.81 260.22,187.49 261.17,198.16 262.12,202.08 263.07,202.60 264.02,202.57 264.97,203.10 265.92,202.23 266.87,198.41 267.82,194.20 268.78,189.14 269.73,188.24 270.68,187.55 271.63,190.59 272.58,193.91 273.53,197.97 274.48,197.55 275.43,198.36 276.38,199.18 277.33,200.14 278.28,200.95 279.23,200.70 280.18,199.15 281.13,198.82 282.08,188.27 283.03,186.47 283.99,183.53 284.94,198.04 285.89,203.51 286.84,222.19 287.79,233.81 288.74,247.30 289.69,251.32 290.64,250.27 291.59,248.02 292.54,239.24 293.49,231.46 294.44,234.33 295.39,237.79 296.34,239.67 297.29,245.16 298.24,247.93 299.19,245.74 300.15,239.58 301.10,236.86 302.05,237.57 303.00,238.19 303.95,235.87 304.90,240.06 305.85,243.21 306.80,243.59 307.75,241.01 308.70,240.03 309.65,238.58 310.60,234.82 311.55,232.40 312.50,236.88 313.45,241.65 314.40,242.78 315.36,242.86 316.31,243.12 317.26,240.15 318.21,223.57 319.16,216.64 320.11,217.94 321.06,219.04 322.01,226.19 322.96,243.64 323.91,251.12 324.86,251.73 325.81,252.82 326.76,249.28 327.71,247.07 328.66,236.12 329.61,223.17 330.56,208.09 331.52,196.03 332.47,181.70 333.42,179.83 334.37,179.50 335.32,182.65 336.27,181.16 337.22,179.55 338.17,181.20 339.12,186.79 340.07,188.42 341.02,197.56 341.97,186.02 342.92,179.76 343.87,180.13 344.82,181.43 345.77,181.52 346.73,182.13 347.68,181.69 348.63,191.16 349.58,193.53 350.53,187.93 351.48,184.44 352.43,187.10 353.38,184.67 354.33,179.10 355.28,181.88 356.23,179.99 357.18,175.11 358.13,178.53 359.08,180.32 360.03,169.36 360.98,169.47 361.93,166.32 362.89,166.34 363.84,192.98 364.79,205.86 365.74,207.94 366.69,210.85 367.64,208.69 368.59,202.00 369.54,209.68 370.49,210.67 371.44,207.36 372.39,209.01 373.34,212.71 374.29,212.12 375.24,208.42 376.19,208.74 377.14,202.80 378.10,199.51 379.05,196.40 380.00,198.77 380.95,196.93 381.90,202.05 382.85,201.14 383.80,202.27 384.75,196.82 385.70,191.87 386.65,190.04 387.60,188.37 388.55,182.66 389.50,185.91 390.45,194.34 391.40,194.73 392.35,199.81 393.30,207.12 394.26,208.49 395.21,208.92 396.16,193.47 397.11,178.49 398.06,178.76 399.01,180.54 399.96,180.62 400.91,186.61 401.86,205.83 402.81,201.85 403.76,200.03 404.71,199.21 405.66,199.75 406.61,205.44 407.56,218.27 408.51,221.41 409.47,223.86 410.42,224.29 411.37,222.95 412.32,204.75 413.27,199.88 414.22,197.42 415.17,196.29 416.12,193.79 417.07,197.05 418.02,200.91 418.97,203.31 419.92,203.84 420.87,207.71 421.82,208.43 422.77,208.06 423.72,206.82 424.67,205.96 425.63,198.91 426.58,199.23 427.53,199.71 428.48,202.01 429.43,204.96 430.38,206.13 431.33,203.22 432.28,203.17 433.23,199.09 434.18,199.40 435.13,202.39 436.08,203.65 437.03,206.63 437.98,211.85 438.93,210.86 439.88,208.92 440.84,209.36 441.79,209.21 442.74,209.58 443.69,211.00 444.64,217.15 445.59,206.21 446.54,200.11 447.49,195.44 448.44,194.87 449.39,195.43 450.34,200.38 451.29,199.99 452.24,202.21 453.19,201.59 454.14,200.28 455.09,194.66 456.04,198.97 457.00,200.39 457.95,196.89 458.90,194.39 459.85,193.68 460.80,192.94 461.75,191.26 462.70,189.74 463.65,193.28 464.60,194.44 465.55,190.28 466.50,191.98 467.45,197.76 468.40,200.92 469.35,202.28 470.30,201.18 471.25,199.94 472.21,200.74 473.16,198.98 474.11,200.71 475.06,212.73 476.01,219.16 476.96,220.30 477.91,222.15 478.86,218.39 479.81,202.81 480.76,191.95 481.71,189.20 482.66,185.85 483.61,184.84 484.56,195.44 485.51,198.63 486.46,198.23 487.41,197.06 488.37,187.30 489.32,187.25 490.27,174.08 491.22,175.90 492.17,175.71 493.12,176.02 494.07,174.47 495.02,184.44 495.97,202.32 496.92,204.69 497.87,208.00 498.82,208.87 499.77,207.93 500.72,207.27 501.67,208.27 502.62,203.84 503.58,206.47 504.53,206.69 505.48,202.32 506.43,199.00 507.38,199.87 508.33,200.75 509.28,196.89 510.23,200.17 511.18,203.31 512.13,206.96 513.08,205.18 514.03,216.19 514.98,225.59 515.93,228.66 516.88,233.72 517.83,241.03 518.78,232.24 519.74,228.33 520.69,233.45 521.64,234.21 522.59,235.44 523.54,239.75 524.49,232.84 525.44,228.12 526.39,227.97 527.34,225.74 528.29,230.41 529.24,239.62 530.19,243.55 531.14,243.05 532.09,242.26 533.04,239.28 533.99,237.29 534.95,234.95 535.90,230.47 536.85,226.34 537.80,219.33 538.75,215.59 539.70,227.27 540.65,229.18 541.60,229.39 542.55,239.28 543.50,246.09 544.45,248.20 545.40,249.27 546.35,248.30 547.30,247.32 548.25,245.23 549.20,246.60 550.15,242.34 551.11,242.33 552.06,243.35 553.01,251.68 553.96,258.11 554.91,263.75 555.86,263.50 556.81,258.50 557.76,256.79 558.71,258.44 559.66,258.23 560.61,262.30 561.56,270.77 562.51,273.70 563.46,273.16 564.41,270.28 565.36,272.00 566.32,266.20 567.27,263.46 568.22,253.77 569.17,252.13 570.12,251.82 571.07,254.21 572.02,256.61 572.97,263.35 573.92,268.98 574.87,270.05 575.82,273.19 576.77,274.55 577.72,276.85 578.67,273.54 579.62,271.71 580.57,271.85 581.52,268.89 582.48,281.61 583.43,282.76 584.38,282.49 585.33,282.00 586.28,283.18 587.23,283.39 588.18,285.12 589.13,288.08 590.08,287.70 591.03,287.34 591.98,285.91 592.93,285.14 593.88,278.74 594.83,278.63 595.78,277.78 596.73,279.54 597.68,281.82 598.64,282.41 599.59,283.47 600.54,283.92 601.49,286.65 602.44,286.02 603.39,291.87 604.34,293.32 605.29,295.05 606.24,287.69 607.19,280.10 608.14,276.32 609.09,272.13 610.04,269.98 610.99,275.20 611.94,277.92 612.89,279.97 613.85,283.43 614.80,284.41 615.75,282.70 616.70,284.02 617.65,283.11 618.60,280.32 619.55,281.23 620.50,285.05 621.45,286.62 622.40,285.01 623.35,285.29 624.30,279.92 625.25,283.08 626.20,282.34 627.15,284.73 628.10,284.26 629.05,284.40 630.01,281.20 630.96,276.34 631.91,267.20 632.86,262.40 633.81,261.74 634.76,254.31 635.71,248.43 636.66,247.18 637.61,236.10 638.56,226.92 639.51,224.93 640.46,219.42 641.41,215.19 642.36,214.49 643.31,211.25 644.26,212.18 645.22,216.34 646.17,214.12 647.12,213.51 648.07,211.01 649.02,207.01 649.97,205.68 650.92,199.79 651.87,204.72 652.82,200.21 653.77,201.52 654.72,202.00 655.67,210.16 656.62,199.00 657.57,210.49 658.52,215.57 659.47,216.68 660.42,217.63 661.38,228.00 662.33,226.93 663.28,225.72 664.23,225.20 665.18,224.00 666.13,213.67 667.08,188.43 668.03,182.55 668.98,182.65 669.93,183.03 670.88,184.04 671.83,201.41 672.78,210.50 673.73,211.28 674.68,207.34 675.63,203.78 676.59,199.97 677.54,195.73 678.49,194.35 679.44,184.02 680.39,171.31 681.34,170.47 682.29,168.91 683.24,167.42 684.19,171.52 685.14,187.60 686.09,196.86 687.04,197.52 687.99,199.14 688.94,200.34 689.89,200.30 690.84,202.14 691.79,207.15 692.75,208.80 693.70,210.93 694.65,213.10 695.60,212.90 696.55,207.30 697.50,201.12 698.45,195.05 699.40,187.25 700.35,184.70 701.30,188.58 702.25,196.63 703.20,202.73 704.15,209.75 705.10,213.54 706.05,220.27 707.00,226.96 707.96,234.14 708.91,249.71 709.86,259.83 710.81,265.27 711.76,265.58 712.71,273.59 713.66,266.17 714.61,255.11 715.56,261.56 716.51,270.89 717.46,273.38 718.41,283.48 719.36,294.17 720.31,284.83 721.26,282.42 722.21,280.36 723.16,277.54 724.12,278.27 725.07,286.70 726.02,287.56 726.97,286.38 727.92,286.96 728.87,287.39 729.82,288.65 730.77,285.89 731.72,284.58 732.67,283.92 733.62,281.61 734.57,279.00 735.52,278.87 736.47,279.50 737.42,272.36 738.37,262.06 739.33,256.14 740.28,255.49 741.23,251.70 742.18,256.95 743.13,268.54 744.08,275.44 745.03,279.87 745.98,286.10 746.93,288.40 747.88,287.70 748.83,288.82 749.78,288.94 750.73,288.08 751.68,288.67 752.63,285.06 753.58,284.22 754.53,280.63 755.49,271.65 756.44,267.93 757.39,265.80 758.34,264.61 759.29,263.89 760.24,273.64 761.19,274.79 762.14,276.83 763.09,279.52 764.04,284.59 764.99,285.19 765.94,283.52 766.89,281.97 767.84,272.19 768.79,268.59 769.74,266.86 770.70,271.53 771.65,271.72 772.60,281.27 773.55,277.28 774.50,276.09 775.45,275.28 776.40,271.93 777.35,269.90 778.30,273.95 779.25,271.44 780.20,261.39 781.15,257.31 782.10,253.34 783.05,251.53 784.00,251.24 784.95,256.49 785.90,260.82 786.86,266.54 787.81,272.39 788.76,278.64 789.71,284.87 790.66,289.53 791.61,289.36 792.56,286.59 793.51,283.09 794.46,279.65 795.41,255.58 796.36,250.03 797.31,247.96 798.26,247.47 799.21,247.80 800.16,253.24 801.11,254.84 802.07,254.49 803.02,248.85 803.97,250.91 804.92,250.85 805.87,251.91 806.82,250.56 807.77,256.98 808.72,258.08 809.67,257.27 810.62,259.43 811.57,264.98 812.52,268.15 813.47,268.38 814.42,270.69 815.37,271.26 816.32,270.22 817.27,262.16 818.23,244.52 819.18,238.81 820.13,239.38 821.08,239.76 822.03,246.24 822.98,262.76 823.93,264.01 824.88,257.71 825.83,249.32 826.78,242.98 827.73,234.34 828.68,228.59 829.63,226.13 830.58,224.30 831.53,222.54 832.48,223.96 833.44,223.34 834.39,224.14 835.34,227.77 836.29,229.54 837.24,230.50 838.19,231.98 839.14,227.94 840.09,218.73 841.04,210.05 841.99,210.16 842.94,202.62 843.89,204.90 844.84,210.96 845.79,215.94 846.74,218.83 847.69,225.16 848.64,225.95 849.60,224.32 850.55,222.43 851.50,216.83 852.45,208.63 853.40,203.22 854.35,202.62 855.30,197.21 856.25,200.32 857.20,205.23 858.15,208.28 859.10,210.36 860.05,219.40 861.00,220.21 861.95,223.17 862.90,224.72 863.85,223.85 864.81,223.69 865.76,227.16 866.71,229.50 867.66,232.43 868.61,235.01 869.56,235.61 870.51,233.45 871.46,232.98 872.41,231.03 873.36,231.08 874.31,231.58 875.26,234.33 876.21,234.19 877.16,234.10 878.11,234.44 879.06,235.66 880.01,258.64 880.97,260.34 881.92,262.57 882.87,263.50 883.82,263.77 884.77,264.47 885.72,265.49 886.67,265.34 887.62,265.70 888.57,267.23 889.52,267.74 890.47,267.68 891.42,268.56 892.37,262.32 893.32,251.34 894.27,242.03 895.22,232.28 896.18,230.23 897.13,238.05 898.08,246.61 899.03,255.89 899.98,265.63 900.93,264.29 901.88,263.28 902.83,262.53 903.78,249.08 904.73,245.34 905.68,241.27 906.63,238.58 907.58,232.88 908.53,237.93 909.48,233.77 910.43,232.56 911.38,224.55 912.34,226.34 913.29,235.14 914.24,242.22 915.19,250.33 916.14,262.25 917.09,269.82 918.04,268.78 918.99,265.67 919.94,264.14 920.89,254.85 921.84,247.85 922.79,246.16 923.74,239.59 924.69,229.42 925.64,228.12 926.59,224.61 927.55,222.75 928.50,223.23 929.45,226.73 930.40,227.14 931.35,227.04 932.30,227.19 933.25,219.73 934.20,209.64 935.15,199.13 936.10,194.00 937.05,191.87 938.00,198.99 938.95,206.36 939.90,213.75 940.85,218.47 941.80,218.64 942.75,216.84 943.71,215.65 944.66,213.61 945.61,210.03 946.56,209.83 947.51,209.11 948.46,205.32 949.41,206.57 950.36,200.46 951.31,196.85 952.26,196.24 953.21,200.79 954.16,200.38 955.11,205.52 956.06,204.35 957.01,202.28 957.96,201.47 958.92,203.56 959.87,206.06 960.82,209.02 961.77,210.70 962.72,207.34 963.67,202.19 964.62,161.24 965.57,160.19 966.52,153.81 967.47,152.54 968.42,153.98 969.37,155.64 970.32,157.71 971.27,163.87 972.22,166.95 973.17,164.07 974.12,162.45 975.08,162.56 976.03,160.49 976.98,161.62 977.93,163.73 978.88,164.44 979.83,164.80 980.78,167.66 981.73,167.43 982.68,167.84 983.63,168.87 984.58,168.73 985.53,168.99 986.48,162.70 987.43,153.70 988.38,155.14 989.33,154.72 990.29,151.62 991.24,157.41 992.19,171.62 993.14,177.30 994.09,187.89 995.04,201.39 995.99,212.19 996.94,223.89 997.89,230.06 998.84,232.11 999.79,234.28 1000.74,237.79 1001.69,238.11 1002.64,241.19 1003.59,243.56 1004.54,245.88 1005.49,247.82 1006.45,247.97 1007.40,210.41 1008.35,212.13 1009.30,210.49 1010.25,207.83 1011.20,206.46 1012.15,208.77 1013.10,208.92 1014.05,209.65 1015.00,213.25 1015.95,217.04 1016.90,216.87 1017.85,217.79 1018.80,220.34 1019.75,220.72 1020.70,216.18 1021.66,207.87 1022.61,203.23 1023.56,204.38 1024.51,206.44 1025.46,211.61 1026.41,221.82 1027.36,226.91 1028.31,224.80 1029.26,219.98 1030.21,213.09 1031.16,206.76 1032.11,199.79 1033.06,197.46 1034.01,201.56 1034.96,206.37 1035.91,207.63 1036.86,212.15 1037.82,211.66 1038.77,209.07 1039.72,207.72 1040.67,210.26 1041.62,210.93 1042.57,212.88 1043.52,212.78 1044.47,213.44 1045.42,213.95 1046.37,215.43 1047.32,215.94 1048.27,208.48 1049.22,201.78 1050.17,181.20 1051.12,178.65 1052.07,179.26 1053.03,174.13 1053.98,179.78 1054.93,176.20 1055.88,176.55 1056.83,170.12 1057.78,180.48 1058.73,178.49 1059.68,180.36 1060.63,165.14 1061.58,168.80 1062.53,170.11 1063.48,161.84 1064.43,163.17 1065.38,181.16 1066.33,170.06 1067.28,174.54 1068.23,194.58 1069.19,197.04 1070.14,197.36 1071.09,217.60 1072.04,217.60 1072.99,217.60 1073.94,217.60 1074.89,217.60 1075.84,206.22 1076.79,185.58 1077.74,176.28 1078.69,173.72 1079.64,169.83 1080.59,167.72 1081.54,168.12 1082.49,169.34 1083.44,172.08 1084.40,175.77 1085.35,177.35 1086.30,177.20 1087.25,176.93 1088.20,176.44 1089.15,176.55 1090.10,176.76 1091.05,177.83 1092.00,177.91" fill="none" stroke="#1f77b4" stroke-width="1.7"/>
<text x="72" y="348" font-size="12" font-family="monospace" fill="#333">time (s)</text>
<text x="18" y="178.00" transform="rotate(-90 18,178.00)" font-size="12" font-family="monospace" fill="#333">hard_score</text>
<text x="1092" y="348" text-anchor="end" font-size="12" font-family="monospace" fill="#555">orange = hard_span</text>
</svg>
