<svg xmlns="http://www.w3.org/2000/svg" width="960" height="320" viewBox="0 0 960 320">
  <rect width="100%" height="100%" fill="#fffaf0"/>
  <rect x="92.12" y="44" width="64.15" height="232" fill="#f3c565" opacity="0.24"/> <rect x="174.84" y="44" width="48.12" height="232" fill="#f3c565" opacity="0.24"/> <rect x="239.00" y="44" width="32.08" height="232" fill="#f3c565" opacity="0.24"/> <rect x="298.93" y="44" width="32.08" height="232" fill="#f3c565" opacity="0.24"/> <rect x="342.83" y="44" width="26.17" height="232" fill="#f3c565" opacity="0.24"/> <rect x="371.53" y="44" width="31.23" height="232" fill="#f3c565" opacity="0.24"/> <rect x="516.72" y="44" width="29.55" height="232" fill="#f3c565" opacity="0.24"/> <rect x="594.38" y="44" width="32.08" height="232" fill="#f3c565" opacity="0.24"/> <rect x="780.09" y="44" width="48.12" height="232" fill="#f3c565" opacity="0.24"/>
  <line x1="44" y1="276" x2="916" y2="276" stroke="#333" stroke-width="1"/>
  <line x1="44" y1="44" x2="44" y2="276" stroke="#333" stroke-width="1"/>
  <line x1="44" y1="110.87" x2="916" y2="110.87" stroke="#a23b3b" stroke-width="1.5" stroke-dasharray="6 6"/>
  <polyline points="44.00,276.00 44.84,273.57 45.69,276.00 46.53,271.49 47.38,264.07 48.22,242.52 49.07,212.30 49.91,183.18 50.76,149.21 51.60,130.66 52.45,134.85 53.29,114.66 54.14,96.27 54.98,81.99 55.83,98.53 56.67,98.38 57.52,140.90 58.36,110.04 59.21,104.61 60.05,60.45 60.90,54.71 61.74,47.94 62.59,44.00 63.43,65.05 64.28,89.97 65.12,101.11 65.97,103.90 66.81,98.69 67.66,119.46 68.50,163.99 69.35,168.52 70.19,160.52 71.04,138.87 71.88,139.96 72.73,171.21 73.57,174.52 74.42,215.24 75.26,238.67 76.11,258.57 76.95,242.92 77.80,217.63 78.64,154.28 79.49,143.12 80.33,134.46 81.18,159.60 82.02,155.78 82.87,163.04 83.71,204.82 84.56,218.98 85.40,207.48 86.25,214.78 87.09,176.04 87.94,181.38 88.78,142.30 89.63,144.75 90.47,129.90 91.32,172.40 92.16,179.51 93.01,228.45 93.85,226.78 94.70,237.28 95.54,216.55 96.39,198.70 97.23,167.45 98.08,119.83 98.92,69.86 99.77,142.55 100.61,81.29 101.46,89.51 102.30,86.46 103.15,85.92 103.99,68.65 104.84,64.29 105.68,54.13 106.53,44.00 107.37,49.66 108.22,52.80 109.06,44.00 109.91,44.91 110.75,44.00 111.60,44.00 112.44,44.00 113.29,44.00 114.13,44.00 114.98,44.00 115.82,44.00 116.67,44.00 117.51,44.00 118.36,44.00 119.20,44.00 120.05,44.00 120.89,44.00 121.74,44.00 122.58,44.00 123.43,44.00 124.27,44.00 125.12,67.71 125.96,66.28 126.81,44.00 127.65,59.64 128.50,77.27 129.34,60.65 130.19,79.29 131.03,90.00 131.88,102.12 132.72,95.07 133.57,116.84 134.41,157.86 135.26,109.32 136.10,108.01 136.95,99.43 137.79,71.38 138.64,44.00 139.48,51.88 140.33,44.00 141.17,60.32 142.02,66.42 142.86,56.97 143.71,88.94 144.55,74.52 145.40,65.45 146.24,62.99 147.09,85.24 147.93,77.44 148.78,70.26 149.62,160.61 150.47,149.01 151.31,152.51 152.16,153.73 153.00,179.44 153.84,170.42 154.69,202.77 155.53,241.61 156.38,266.43 157.22,274.36 158.07,269.64 158.91,261.37 159.76,253.59 160.60,251.14 161.45,220.10 162.29,225.18 163.14,244.99 163.98,139.92 164.83,140.63 165.67,159.46 166.52,197.30 167.36,207.70 168.21,203.40 169.05,233.02 169.90,172.46 170.74,135.44 171.59,125.90 172.43,112.23 173.28,119.61 174.12,113.83 174.97,126.07 175.81,114.89 176.66,102.25 177.50,147.09 178.35,192.77 179.19,189.73 180.04,172.92 180.88,137.44 181.73,108.12 182.57,122.38 183.42,105.05 184.26,136.39 185.11,141.57 185.95,107.15 186.80,118.37 187.64,120.54 188.49,144.62 189.33,138.76 190.18,144.42 191.02,126.33 191.87,89.58 192.71,80.35 193.56,112.25 194.40,86.18 195.25,90.54 196.09,102.90 196.94,98.73 197.78,85.97 198.63,44.00 199.47,55.19 200.32,70.55 201.16,68.03 202.01,48.13 202.85,70.89 203.70,65.87 204.54,97.32 205.39,119.12 206.23,112.86 207.08,88.65 207.92,51.59 208.77,55.48 209.61,59.97 210.46,70.62 211.30,44.00 212.15,63.34 212.99,74.06 213.84,58.86 214.68,74.03 215.53,96.73 216.37,159.09 217.22,196.72 218.06,209.06 218.91,194.21 219.75,234.10 220.60,209.99 221.44,225.96 222.29,247.39 223.13,274.97 223.98,276.00 224.82,253.40 225.67,276.00 226.51,276.00 227.36,276.00 228.20,276.00 229.05,276.00 229.89,276.00 230.74,276.00 231.58,255.85 232.43,216.88 233.27,217.65 234.12,178.17 234.96,181.25 235.81,210.16 236.65,197.10 237.50,179.38 238.34,197.45 239.19,211.38 240.03,189.27 240.88,187.10 241.72,178.17 242.57,158.26 243.41,184.81 244.26,158.21 245.10,126.81 245.95,83.34 246.79,122.61 247.64,103.60 248.48,118.82 249.33,138.90 250.17,117.51 251.02,108.41 251.86,126.35 252.71,104.13 253.55,95.08 254.40,82.23 255.24,79.41 256.09,115.86 256.93,122.99 257.78,103.09 258.62,96.08 259.47,94.81 260.31,91.74 261.16,64.84 262.00,93.63 262.84,117.21 263.69,108.45 264.53,122.58 265.38,145.42 266.22,139.29 267.07,183.53 267.91,202.96 268.76,214.47 269.60,230.91 270.45,264.26 271.29,238.64 272.14,258.31 272.98,276.00 273.83,276.00 274.67,276.00 275.52,276.00 276.36,276.00 277.21,264.80 278.05,266.22 278.90,250.73 279.74,254.66 280.59,276.00 281.43,262.31 282.28,249.36 283.12,245.03 283.97,222.42 284.81,181.51 285.66,222.80 286.50,174.04 287.35,137.98 288.19,188.19 289.04,188.52 289.88,228.41 290.73,255.45 291.57,276.00 292.42,268.24 293.26,276.00 294.11,262.21 294.95,217.91 295.80,179.10 296.64,179.83 297.49,167.88 298.33,155.29 299.18,148.79 300.02,151.23 300.87,159.87 301.71,114.92 302.56,82.08 303.40,54.32 304.25,44.00 305.09,44.00 305.94,44.00 306.78,44.00 307.63,44.00 308.47,44.00 309.32,44.00 310.16,44.00 311.01,44.00 311.85,44.00 312.70,44.00 313.54,48.00 314.39,44.00 315.23,59.51 316.08,104.11 316.92,101.84 317.77,114.84 318.61,85.82 319.46,125.03 320.30,141.87 321.15,131.15 321.99,141.27 322.84,122.95 323.68,109.05 324.53,155.30 325.37,166.19 326.22,178.18 327.06,141.39 327.91,115.38 328.75,151.77 329.60,164.37 330.44,168.39 331.29,168.72 332.13,157.75 332.98,194.11 333.82,182.08 334.67,151.60 335.51,141.41 336.36,139.50 337.20,158.07 338.05,190.87 338.89,181.29 339.74,183.62 340.58,191.72 341.43,219.29 342.27,241.60 343.12,191.45 343.96,191.78 344.81,144.47 345.65,148.79 346.50,164.62 347.34,148.55 348.19,116.51 349.03,133.35 349.88,90.78 350.72,79.58 351.57,87.52 352.41,61.22 353.26,61.47 354.10,76.18 354.95,58.78 355.79,44.00 356.64,44.00 357.48,44.00 358.33,44.00 359.17,44.00 360.02,45.34 360.86,58.39 361.71,81.38 362.55,115.26 363.40,124.83 364.24,204.09 365.09,219.29 365.93,200.32 366.78,212.34 367.62,222.57 368.47,202.94 369.31,193.66 370.16,215.62 371.00,192.73 371.84,206.14 372.69,210.37 373.53,160.03 374.38,158.52 375.22,145.58 376.07,113.89 376.91,117.66 377.76,120.80 378.60,109.27 379.45,79.26 380.29,56.78 381.14,60.51 381.98,44.00 382.83,44.00 383.67,44.00 384.52,44.00 385.36,46.08 386.21,44.00 387.05,59.04 387.90,76.82 388.74,67.23 389.59,72.12 390.43,124.82 391.28,98.21 392.12,73.72 392.97,57.08 393.81,81.27 394.66,113.47 395.50,99.29 396.35,114.69 397.19,137.48 398.04,161.75 398.88,165.16 399.73,160.10 400.57,169.48 401.42,163.78 402.26,173.10 403.11,203.15 403.95,178.99 404.80,152.66 405.64,173.95 406.49,193.91 407.33,211.41 408.18,229.79 409.02,213.05 409.87,269.96 410.71,268.62 411.56,255.10 412.40,262.03 413.25,218.65 414.09,214.34 414.94,204.94 415.78,179.16 416.63,198.48 417.47,165.06 418.32,192.48 419.16,180.67 420.01,190.69 420.85,190.94 421.70,185.63 422.54,175.13 423.39,183.96 424.23,134.41 425.08,134.61 425.92,111.35 426.77,83.05 427.61,122.35 428.46,138.25 429.30,153.55 430.15,155.29 430.99,122.45 431.84,131.53 432.68,121.15 433.53,133.44 434.37,92.62 435.22,84.56 436.06,76.10 436.91,56.60 437.75,82.86 438.60,121.03 439.44,148.21 440.29,154.51 441.13,193.82 441.98,183.27 442.82,204.71 443.67,220.87 444.51,237.48 445.36,250.10 446.20,276.00 447.05,276.00 447.89,276.00 448.74,276.00 449.58,276.00 450.43,276.00 451.27,276.00 452.12,276.00 452.96,276.00 453.81,270.58 454.65,276.00 455.50,276.00 456.34,276.00 457.19,276.00 458.03,244.84 458.88,224.31 459.72,241.90 460.57,172.61 461.41,147.85 462.26,137.07 463.10,88.85 463.95,119.30 464.79,106.90 465.64,122.52 466.48,140.29 467.33,139.95 468.17,139.17 469.02,131.42 469.86,110.01 470.71,117.24 471.55,112.85 472.40,110.70 473.24,111.29 474.09,85.68 474.93,90.04 475.78,107.75 476.62,126.60 477.47,167.83 478.31,153.44 479.16,146.89 480.00,157.55 480.84,140.49 481.69,131.13 482.53,127.13 483.38,110.14 484.22,161.83 485.07,135.72 485.91,110.91 486.76,127.85 487.60,176.29 488.45,159.94 489.29,187.59 490.14,188.98 490.98,212.98 491.83,196.21 492.67,156.69 493.52,150.67 494.36,114.68 495.21,112.79 496.05,128.63 496.90,108.65 497.74,93.92 498.59,44.00 499.43,62.94 500.28,104.89 501.12,131.46 501.97,125.77 502.81,155.21 503.66,109.47 504.50,114.60 505.35,89.49 506.19,116.28 507.04,142.58 507.88,143.51 508.73,182.49 509.57,224.17 510.42,224.86 511.26,223.48 512.11,230.29 512.95,214.96 513.80,192.16 514.64,162.51 515.49,163.30 516.33,165.51 517.18,142.81 518.02,155.32 518.87,114.97 519.71,124.20 520.56,115.06 521.40,113.89 522.25,131.04 523.09,127.86 523.94,109.53 524.78,88.84 525.63,87.64 526.47,89.14 527.32,84.63 528.16,116.53 529.01,142.44 529.85,111.87 530.70,68.91 531.54,94.86 532.39,100.00 533.23,113.94 534.08,121.54 534.92,107.09 535.77,109.40 536.61,98.43 537.46,98.70 538.30,71.74 539.15,85.50 539.99,115.72 540.84,129.58 541.68,165.71 542.53,140.88 543.37,165.09 544.22,184.36 545.06,216.07 545.91,208.50 546.75,214.42 547.60,218.82 548.44,212.58 549.29,237.61 550.13,276.00 550.98,276.00 551.82,276.00 552.67,276.00 553.51,276.00 554.36,260.25 555.20,257.38 556.05,227.98 556.89,276.00 557.74,263.81 558.58,266.99 559.43,234.82 560.27,228.47 561.12,206.41 561.96,199.70 562.81,205.87 563.65,176.17 564.50,131.98 565.34,102.71 566.19,128.05 567.03,113.26 567.88,112.56 568.72,139.83 569.57,136.67 570.41,148.27 571.26,96.23 572.10,111.96 572.95,102.09 573.79,121.04 574.64,132.51 575.48,146.56 576.33,185.47 577.17,161.82 578.02,181.22 578.86,178.49 579.71,177.26 580.55,179.47 581.40,183.80 582.24,199.43 583.09,185.36 583.93,187.92 584.78,223.42 585.62,232.05 586.47,210.32 587.31,201.74 588.16,207.19 589.00,212.71 589.84,235.01 590.69,216.29 591.53,225.72 592.38,217.55 593.22,189.50 594.07,181.16 594.91,200.94 595.76,232.08 596.60,224.82 597.45,231.17 598.29,229.53 599.14,154.04 599.98,129.16 600.83,127.95 601.67,95.23 602.52,115.52 603.36,93.47 604.21,85.40 605.05,95.92 605.90,80.95 606.74,58.26 607.59,78.66 608.43,89.28 609.28,83.22 610.12,51.66 610.97,76.84 611.81,80.75 612.66,76.17 613.50,110.05 614.35,129.34 615.19,144.59 616.04,186.55 616.88,173.48 617.73,166.82 618.57,133.52 619.42,108.95 620.26,123.49 621.11,156.70 621.95,177.66 622.80,190.82 623.64,194.51 624.49,188.48 625.33,168.28 626.18,142.44 627.02,172.61 627.87,187.06 628.71,212.70 629.56,236.83 630.40,241.84 631.25,257.40 632.09,274.73 632.94,276.00 633.78,276.00 634.63,276.00 635.47,276.00 636.32,276.00 637.16,276.00 638.01,276.00 638.85,276.00 639.70,276.00 640.54,276.00 641.39,276.00 642.23,276.00 643.08,272.19 643.92,232.06 644.77,225.65 645.61,207.73 646.46,217.78 647.30,182.25 648.15,182.18 648.99,196.70 649.84,184.98 650.68,156.91 651.53,158.37 652.37,170.25 653.22,205.06 654.06,229.69 654.91,201.73 655.75,185.50 656.60,200.66 657.44,206.28 658.29,188.30 659.13,162.45 659.98,170.50 660.82,166.93 661.67,170.19 662.51,154.77 663.36,152.90 664.20,134.42 665.05,146.04 665.89,144.04 666.74,116.65 667.58,60.73 668.43,45.89 669.27,91.40 670.12,99.01 670.96,110.38 671.81,105.20 672.65,124.11 673.50,160.32 674.34,156.99 675.19,177.85 676.03,193.27 676.88,215.73 677.72,223.04 678.57,220.66 679.41,194.66 680.26,217.57 681.10,205.94 681.95,236.75 682.79,229.60 683.64,222.44 684.48,213.66 685.33,233.48 686.17,211.14 687.02,212.10 687.86,180.35 688.71,158.21 689.55,160.07 690.40,102.47 691.24,107.22 692.09,81.64 692.93,111.53 693.78,127.09 694.62,109.48 695.47,144.38 696.31,148.08 697.16,151.24 698.00,127.71 698.84,174.13 699.69,157.87 700.53,200.24 701.38,191.91 702.22,200.76 703.07,231.79 703.91,182.13 704.76,248.13 705.60,196.43 706.45,218.52 707.29,223.67 708.14,212.35 708.98,201.20 709.83,210.83 710.67,209.69 711.52,219.87 712.36,241.23 713.21,178.74 714.05,187.15 714.90,174.56 715.74,163.44 716.59,165.71 717.43,147.99 718.28,140.65 719.12,118.17 719.97,139.39 720.81,131.22 721.66,117.35 722.50,151.97 723.35,143.36 724.19,131.98 725.04,114.45 725.88,87.26 726.73,91.36 727.57,119.26 728.42,73.34 729.26,81.05 730.11,71.16 730.95,47.27 731.80,74.73 732.64,72.52 733.49,60.84 734.33,110.81 735.18,100.98 736.02,103.42 736.87,107.31 737.71,159.58 738.56,118.14 739.40,115.71 740.25,156.52 741.09,175.76 741.94,152.68 742.78,172.36 743.63,131.15 744.47,173.74 745.32,195.82 746.16,174.44 747.01,211.67 747.85,249.69 748.70,207.68 749.54,212.61 750.39,192.37 751.23,169.86 752.08,129.93 752.92,161.73 753.77,178.70 754.61,180.89 755.46,167.26 756.30,189.02 757.15,200.71 757.99,219.70 758.84,187.18 759.68,217.83 760.53,207.23 761.37,192.35 762.22,145.94 763.06,161.36 763.91,150.04 764.75,163.43 765.60,142.12 766.44,153.64 767.29,172.82 768.13,156.80 768.98,158.39 769.82,134.90 770.67,102.95 771.51,100.23 772.36,103.05 773.20,126.43 774.05,92.48 774.89,91.81 775.74,101.67 776.58,160.78 777.43,162.45 778.27,157.62 779.12,122.11 779.96,153.56 780.81,177.20 781.65,159.07 782.50,158.72 783.34,145.53 784.19,152.25 785.03,162.64 785.88,142.15 786.72,128.43 787.57,100.53 788.41,71.56 789.26,60.90 790.10,64.05 790.95,44.00 791.79,44.00 792.64,44.00 793.48,44.00 794.33,44.00 795.17,44.00 796.02,44.00 796.86,44.00 797.71,44.00 798.55,44.00 799.40,44.00 800.24,44.00 801.09,57.84 801.93,50.67 802.78,89.79 803.62,83.58 804.47,74.82 805.31,114.86 806.16,133.86 807.00,130.12 807.84,134.29 808.69,138.74 809.53,147.53 810.38,100.39 811.22,90.88 812.07,57.48 812.91,44.00 813.76,60.42 814.60,44.00 815.45,44.00 816.29,44.00 817.14,44.00 817.98,44.00 818.83,59.87 819.67,65.01 820.52,70.00 821.36,108.47 822.21,137.16 823.05,140.18 823.90,142.33 824.74,149.68 825.59,130.37 826.43,131.38 827.28,118.25 828.12,128.97 828.97,145.06 829.81,146.22 830.66,111.25 831.50,141.93 832.35,168.12 833.19,161.50 834.04,152.86 834.88,161.20 835.73,125.21 836.57,132.38 837.42,103.82 838.26,130.21 839.11,135.19 839.95,142.82 840.80,141.34 841.64,198.62 842.49,216.21 843.33,233.04 844.18,254.25 845.02,276.00 845.87,230.94 846.71,225.30 847.56,241.88 848.40,223.21 849.25,200.80 850.09,199.71 850.94,204.85 851.78,227.27 852.63,185.03 853.47,175.35 854.32,210.59 855.16,229.50 856.01,191.19 856.85,171.98 857.70,156.96 858.54,167.68 859.39,145.81 860.23,150.65 861.08,166.25 861.92,140.50 862.77,156.48 863.61,123.57 864.46,144.15 865.30,159.96 866.15,174.58 866.99,172.84 867.84,200.43 868.68,171.52 869.53,181.33 870.37,178.85 871.22,161.02 872.06,176.07 872.91,156.50 873.75,188.09 874.60,200.02 875.44,173.03 876.29,178.53 877.13,208.64 877.98,269.62 878.82,259.14 879.67,247.87 880.51,213.10 881.36,217.50 882.20,176.71 883.05,179.44 883.89,146.98 884.74,153.06 885.58,150.10 886.43,138.82 887.27,143.24 888.12,132.43 888.96,168.98 889.81,178.69 890.65,160.32 891.50,128.13 892.34,154.55 893.19,157.90 894.03,141.23 894.88,154.56 895.72,173.91 896.57,164.63 897.41,188.65 898.26,197.31 899.10,201.97 899.95,215.12 900.79,212.92 901.64,209.60 902.48,239.38 903.33,204.53 904.17,204.13 905.02,204.87 905.86,204.48 906.71,176.72 907.55,163.99 908.40,172.84 909.24,201.06 910.09,200.82 910.93,246.00 911.78,244.79 912.62,265.71 913.47,272.36 914.31,276.00 915.16,276.00 916.00,276.00" fill="none" stroke="#145c9e" stroke-width="2.2"/>
  <text x="44" y="24" font-family="monospace" font-size="15" fill="#222">seatbelt.both.hang.zhangyu.20260205.batch.1 ep 000000</text>
  <text x="656" y="24" font-family="monospace" font-size="13" fill="#145c9e">diffusion_precision_score</text>
  <text x="656" y="44" font-family="monospace" font-size="12" fill="#a23b3b">precision threshold</text>
</svg>
