<svg xmlns="http://www.w3.org/2000/svg" width="960" height="320" viewBox="0 0 960 320">
  <rect width="100%" height="100%" fill="#fffaf0"/>
  <rect x="433.30" y="44" width="65.65" height="232" fill="#f3c565" opacity="0.24"/> <rect x="664.48" y="44" width="53.63" height="232" fill="#f3c565" opacity="0.24"/>
  <line x1="44" y1="276" x2="916" y2="276" stroke="#333" stroke-width="1"/>
  <line x1="44" y1="44" x2="44" y2="276" stroke="#333" stroke-width="1"/>
  <line x1="44" y1="67.81" x2="916" y2="67.81" stroke="#a23b3b" stroke-width="1.5" stroke-dasharray="6 6"/>
  <polyline points="44.00,50.40 44.93,44.82 45.85,45.50 46.78,44.00 47.70,44.20 48.63,44.00 49.55,45.81 50.48,44.00 51.41,44.00 52.33,47.38 53.26,44.00 54.18,53.71 55.11,44.00 56.03,44.00 56.96,52.91 57.89,47.72 58.81,56.41 59.74,57.53 60.66,52.98 61.59,45.20 62.51,44.00 63.44,50.67 64.37,55.80 65.29,83.08 66.22,86.33 67.14,107.78 68.07,133.82 68.99,120.98 69.92,131.55 70.85,114.77 71.77,157.95 72.70,194.33 73.62,158.46 74.55,253.51 75.47,214.75 76.40,191.71 77.32,172.90 78.25,138.09 79.18,143.19 80.10,159.51 81.03,187.47 81.95,212.68 82.88,182.55 83.80,223.33 84.73,276.00 85.66,276.00 86.58,276.00 87.51,276.00 88.43,276.00 89.36,276.00 90.28,276.00 91.21,276.00 92.14,276.00 93.06,199.72 93.99,175.53 94.91,276.00 95.84,209.69 96.76,264.59 97.69,248.85 98.62,173.32 99.54,176.34 100.47,269.44 101.39,266.23 102.32,276.00 103.24,276.00 104.17,249.75 105.10,268.24 106.02,276.00 106.95,276.00 107.87,276.00 108.80,213.60 109.72,182.70 110.65,156.62 111.58,213.48 112.50,221.36 113.43,159.29 114.35,215.62 115.28,208.47 116.20,200.47 117.13,151.19 118.06,182.04 118.98,155.94 119.91,153.70 120.83,121.04 121.76,220.07 122.68,155.10 123.61,182.52 124.54,171.30 125.46,226.36 126.39,167.32 127.31,240.55 128.24,263.16 129.16,276.00 130.09,206.63 131.01,200.58 131.94,132.99 132.87,173.05 133.79,82.94 134.72,112.20 135.64,199.74 136.57,276.00 137.49,122.05 138.42,148.94 139.35,246.92 140.27,172.19 141.20,122.34 142.12,161.51 143.05,115.25 143.97,107.91 144.90,123.63 145.83,119.70 146.75,159.54 147.68,159.06 148.60,163.91 149.53,114.39 150.45,93.79 151.38,117.00 152.31,110.76 153.23,114.72 154.16,120.04 155.08,110.87 156.01,120.38 156.93,124.13 157.86,130.38 158.79,110.41 159.71,117.62 160.64,107.49 161.56,88.51 162.49,95.77 163.41,149.05 164.34,133.65 165.27,167.21 166.19,164.36 167.12,149.77 168.04,143.68 168.97,139.64 169.89,175.34 170.82,220.96 171.75,207.78 172.67,218.05 173.60,214.42 174.52,249.61 175.45,219.96 176.37,229.08 177.30,244.83 178.23,272.73 179.15,160.51 180.08,185.77 181.00,276.00 181.93,199.67 182.85,230.14 183.78,237.78 184.70,221.60 185.63,234.94 186.56,276.00 187.48,266.02 188.41,224.28 189.33,276.00 190.26,276.00 191.18,276.00 192.11,257.58 193.04,276.00 193.96,267.21 194.89,276.00 195.81,245.85 196.74,276.00 197.66,276.00 198.59,276.00 199.52,276.00 200.44,268.87 201.37,276.00 202.29,276.00 203.22,262.42 204.14,262.03 205.07,196.83 206.00,276.00 206.92,276.00 207.85,276.00 208.77,276.00 209.70,276.00 210.62,276.00 211.55,276.00 212.48,205.85 213.40,189.04 214.33,163.60 215.25,91.37 216.18,129.93 217.10,126.82 218.03,88.20 218.96,100.74 219.88,89.73 220.81,119.73 221.73,141.70 222.66,200.30 223.58,175.87 224.51,209.89 225.44,260.42 226.36,203.31 227.29,216.94 228.21,276.00 229.14,276.00 230.06,143.37 230.99,192.95 231.92,258.12 232.84,276.00 233.77,276.00 234.69,276.00 235.62,276.00 236.54,276.00 237.47,240.39 238.39,243.52 239.32,193.91 240.25,197.44 241.17,243.89 242.10,276.00 243.02,276.00 243.95,276.00 244.87,261.56 245.80,140.52 246.73,266.42 247.65,179.60 248.58,202.93 249.50,254.55 250.43,249.05 251.35,192.35 252.28,276.00 253.21,276.00 254.13,272.71 255.06,266.54 255.98,276.00 256.91,188.69 257.83,152.57 258.76,150.75 259.69,163.78 260.61,141.47 261.54,121.45 262.46,165.01 263.39,171.43 264.31,201.90 265.24,235.31 266.17,153.66 267.09,217.15 268.02,207.17 268.94,170.15 269.87,272.49 270.79,163.25 271.72,114.57 272.65,220.50 273.57,184.20 274.50,276.00 275.42,190.00 276.35,134.69 277.27,118.66 278.20,130.87 279.13,119.27 280.05,91.74 280.98,122.33 281.90,106.37 282.83,85.05 283.75,101.74 284.68,104.72 285.61,136.44 286.53,137.90 287.46,182.24 288.38,113.83 289.31,153.76 290.23,142.62 291.16,104.50 292.08,168.69 293.01,186.89 293.94,226.40 294.86,154.68 295.79,193.36 296.71,156.49 297.64,103.64 298.56,105.54 299.49,88.07 300.42,107.16 301.34,103.03 302.27,103.79 303.19,178.62 304.12,140.37 305.04,183.62 305.97,148.14 306.90,153.73 307.82,105.69 308.75,86.84 309.67,121.37 310.60,106.10 311.52,128.23 312.45,190.23 313.38,153.87 314.30,116.90 315.23,143.57 316.15,114.48 317.08,129.06 318.00,119.32 318.93,155.24 319.86,116.48 320.78,178.59 321.71,196.08 322.63,217.69 323.56,124.04 324.48,108.88 325.41,128.38 326.34,209.51 327.26,122.87 328.19,131.21 329.11,69.15 330.04,105.85 330.96,86.43 331.89,83.41 332.82,83.34 333.74,87.05 334.67,89.29 335.59,77.12 336.52,97.16 337.44,112.99 338.37,103.47 339.30,89.70 340.22,113.98 341.15,96.95 342.07,69.00 343.00,116.35 343.92,121.65 344.85,91.07 345.77,112.08 346.70,110.62 347.63,95.06 348.55,122.56 349.48,88.78 350.40,96.81 351.33,91.95 352.25,103.18 353.18,108.49 354.11,87.36 355.03,132.94 355.96,121.72 356.88,148.58 357.81,149.59 358.73,131.26 359.66,143.44 360.59,124.36 361.51,138.19 362.44,138.26 363.36,125.75 364.29,109.64 365.21,82.52 366.14,115.57 367.07,101.82 367.99,82.15 368.92,73.06 369.84,75.51 370.77,78.83 371.69,96.89 372.62,104.26 373.55,95.13 374.47,90.99 375.40,106.58 376.32,118.13 377.25,101.42 378.17,144.53 379.10,122.80 380.03,115.28 380.95,112.09 381.88,96.75 382.80,101.17 383.73,98.67 384.65,115.07 385.58,90.54 386.51,104.32 387.43,145.90 388.36,154.62 389.28,254.42 390.21,161.70 391.13,105.70 392.06,154.66 392.99,175.38 393.91,177.16 394.84,117.24 395.76,126.44 396.69,127.39 397.61,82.47 398.54,111.30 399.46,121.69 400.39,98.19 401.32,130.93 402.24,174.52 403.17,135.62 404.09,113.35 405.02,108.07 405.94,84.61 406.87,108.46 407.80,87.52 408.72,110.65 409.65,106.30 410.57,100.82 411.50,74.66 412.42,102.71 413.35,105.60 414.28,115.15 415.20,70.41 416.13,86.37 417.05,79.23 417.98,94.23 418.90,127.70 419.83,110.07 420.76,78.55 421.68,94.51 422.61,126.55 423.53,207.21 424.46,83.76 425.38,116.46 426.31,82.90 427.24,102.94 428.16,123.20 429.09,111.04 430.01,147.30 430.94,159.16 431.86,116.29 432.79,124.88 433.72,109.56 434.64,103.64 435.57,146.85 436.49,134.95 437.42,225.75 438.34,118.45 439.27,86.34 440.20,82.88 441.12,66.17 442.05,64.87 442.97,69.12 443.90,63.52 444.82,59.65 445.75,64.50 446.68,57.77 447.60,51.14 448.53,65.26 449.45,61.43 450.38,84.02 451.30,64.54 452.23,113.33 453.15,87.59 454.08,96.48 455.01,72.37 455.93,78.48 456.86,68.80 457.78,58.50 458.71,44.00 459.63,44.00 460.56,44.00 461.49,44.00 462.41,44.00 463.34,44.00 464.26,44.00 465.19,44.00 466.11,44.00 467.04,44.00 467.97,44.00 468.89,44.00 469.82,44.00 470.74,44.00 471.67,44.00 472.59,44.00 473.52,44.00 474.45,44.00 475.37,44.00 476.30,44.61 477.22,44.64 478.15,44.00 479.07,44.00 480.00,44.00 480.93,44.00 481.85,53.12 482.78,59.74 483.70,76.39 484.63,172.54 485.55,103.26 486.48,82.76 487.41,62.78 488.33,60.67 489.26,70.34 490.18,77.11 491.11,62.75 492.03,96.65 492.96,82.94 493.89,94.31 494.81,126.16 495.74,94.00 496.66,89.34 497.59,105.37 498.51,101.63 499.44,96.62 500.37,97.22 501.29,140.97 502.22,71.46 503.14,64.47 504.07,58.46 504.99,56.86 505.92,77.68 506.85,84.82 507.77,68.17 508.70,61.81 509.62,77.80 510.55,85.12 511.47,73.38 512.40,88.42 513.32,91.47 514.25,92.49 515.18,73.55 516.10,84.75 517.03,90.13 517.95,86.25 518.88,99.18 519.80,79.23 520.73,80.96 521.66,76.59 522.58,86.28 523.51,97.04 524.43,89.50 525.36,75.41 526.28,86.48 527.21,62.24 528.14,86.18 529.06,108.42 529.99,107.84 530.91,111.15 531.84,122.43 532.76,124.98 533.69,159.78 534.62,142.97 535.54,173.26 536.47,151.05 537.39,162.32 538.32,161.88 539.24,145.64 540.17,215.66 541.10,243.54 542.02,250.28 542.95,176.20 543.87,188.18 544.80,129.33 545.72,166.43 546.65,217.87 547.58,140.37 548.50,139.24 549.43,94.97 550.35,72.08 551.28,100.86 552.20,89.49 553.13,94.21 554.06,81.18 554.98,71.67 555.91,78.50 556.83,91.88 557.76,97.89 558.68,90.45 559.61,105.05 560.54,104.26 561.46,130.93 562.39,131.62 563.31,162.04 564.24,125.71 565.16,103.71 566.09,128.98 567.01,94.57 567.94,90.45 568.87,90.68 569.79,85.54 570.72,92.62 571.64,104.55 572.57,90.60 573.49,118.26 574.42,78.57 575.35,116.89 576.27,101.77 577.20,103.87 578.12,91.19 579.05,66.32 579.97,71.35 580.90,77.87 581.83,82.93 582.75,112.30 583.68,149.73 584.60,223.82 585.53,126.04 586.45,153.11 587.38,109.88 588.31,173.30 589.23,114.74 590.16,105.30 591.08,139.82 592.01,147.40 592.93,242.98 593.86,208.53 594.79,189.89 595.71,170.66 596.64,168.44 597.56,151.67 598.49,190.41 599.41,160.48 600.34,179.46 601.27,169.46 602.19,165.93 603.12,182.91 604.04,145.33 604.97,167.29 605.89,134.58 606.82,129.46 607.75,156.70 608.67,130.33 609.60,110.92 610.52,100.15 611.45,102.41 612.37,120.07 613.30,105.32 614.23,92.20 615.15,105.99 616.08,101.13 617.00,102.94 617.93,97.95 618.85,120.02 619.78,131.54 620.70,109.64 621.63,126.93 622.56,92.09 623.48,103.46 624.41,94.49 625.33,93.93 626.26,79.89 627.18,96.55 628.11,100.43 629.04,115.41 629.96,117.39 630.89,111.43 631.81,91.40 632.74,97.67 633.66,157.85 634.59,169.61 635.52,144.14 636.44,157.29 637.37,212.75 638.29,107.66 639.22,276.00 640.14,187.50 641.07,238.67 642.00,245.71 642.92,114.74 643.85,144.22 644.77,177.43 645.70,218.12 646.62,232.43 647.55,217.51 648.48,235.13 649.40,276.00 650.33,216.92 651.25,203.20 652.18,202.13 653.10,171.27 654.03,198.51 654.96,165.30 655.88,142.38 656.81,105.54 657.73,119.79 658.66,143.65 659.58,91.48 660.51,123.64 661.44,120.09 662.36,108.81 663.29,96.28 664.21,94.82 665.14,156.76 666.06,106.67 666.99,103.76 667.92,95.44 668.84,111.21 669.77,73.24 670.69,85.09 671.62,84.82 672.54,60.83 673.47,81.78 674.39,74.65 675.32,64.04 676.25,96.09 677.17,80.91 678.10,66.48 679.02,65.39 679.95,48.83 680.87,44.00 681.80,44.06 682.73,60.82 683.65,45.47 684.58,58.25 685.50,60.88 686.43,70.12 687.35,67.16 688.28,71.35 689.21,61.53 690.13,59.71 691.06,76.47 691.98,51.19 692.91,56.18 693.83,67.18 694.76,55.75 695.69,89.06 696.61,46.86 697.54,47.30 698.46,45.97 699.39,44.00 700.31,63.20 701.24,51.13 702.17,44.73 703.09,62.85 704.02,64.41 704.94,44.28 705.87,44.59 706.79,50.57 707.72,80.27 708.65,58.04 709.57,69.03 710.50,55.61 711.42,79.34 712.35,162.07 713.27,105.06 714.20,96.64 715.13,150.60 716.05,154.18 716.98,173.59 717.90,276.00 718.83,257.49 719.75,159.90 720.68,276.00 721.61,232.53 722.53,228.69 723.46,222.53 724.38,276.00 725.31,262.81 726.23,272.42 727.16,246.13 728.08,232.33 729.01,211.86 729.94,215.95 730.86,239.49 731.79,172.37 732.71,218.06 733.64,159.05 734.56,135.69 735.49,157.71 736.42,181.94 737.34,130.68 738.27,182.32 739.19,262.55 740.12,208.15 741.04,168.21 741.97,187.83 742.90,240.94 743.82,251.76 744.75,207.31 745.67,179.31 746.60,227.03 747.52,256.43 748.45,276.00 749.38,276.00 750.30,276.00 751.23,276.00 752.15,238.35 753.08,276.00 754.00,194.72 754.93,276.00 755.86,209.27 756.78,144.40 757.71,177.22 758.63,164.11 759.56,178.28 760.48,255.53 761.41,229.19 762.34,276.00 763.26,249.33 764.19,270.57 765.11,269.77 766.04,273.00 766.96,260.35 767.89,251.57 768.82,177.63 769.74,202.30 770.67,192.34 771.59,195.32 772.52,276.00 773.44,257.92 774.37,202.50 775.30,276.00 776.22,217.96 777.15,240.72 778.07,174.63 779.00,187.70 779.92,276.00 780.85,276.00 781.77,276.00 782.70,197.63 783.63,145.57 784.55,194.51 785.48,155.31 786.40,114.19 787.33,145.56 788.25,186.71 789.18,179.23 790.11,180.76 791.03,169.31 791.96,153.80 792.88,136.16 793.81,120.71 794.73,148.84 795.66,102.46 796.59,107.42 797.51,70.27 798.44,61.08 799.36,67.61 800.29,112.95 801.21,85.03 802.14,87.87 803.07,78.40 803.99,93.75 804.92,84.90 805.84,96.04 806.77,98.96 807.69,103.05 808.62,95.24 809.55,84.79 810.47,83.58 811.40,91.58 812.32,119.95 813.25,95.36 814.17,106.88 815.10,99.79 816.03,95.67 816.95,115.32 817.88,136.39 818.80,145.18 819.73,167.96 820.65,135.96 821.58,137.59 822.51,109.61 823.43,105.32 824.36,100.38 825.28,97.25 826.21,120.68 827.13,116.71 828.06,122.16 828.99,126.49 829.91,155.11 830.84,112.89 831.76,121.49 832.69,140.62 833.61,173.58 834.54,143.55 835.46,132.18 836.39,158.20 837.32,135.86 838.24,139.37 839.17,85.54 840.09,75.39 841.02,80.93 841.94,99.12 842.87,87.30 843.80,85.48 844.72,67.50 845.65,67.44 846.57,82.71 847.50,78.62 848.42,111.15 849.35,108.05 850.28,135.57 851.20,110.62 852.13,125.12 853.05,90.69 853.98,99.88 854.90,103.92 855.83,115.46 856.76,93.55 857.68,114.15 858.61,109.81 859.53,68.65 860.46,62.20 861.38,71.53 862.31,71.00 863.24,67.95 864.16,65.98 865.09,56.90 866.01,62.61 866.94,62.04 867.86,73.35 868.79,63.03 869.72,62.00 870.64,60.63 871.57,59.69 872.49,55.54 873.42,51.45 874.34,60.32 875.27,58.95 876.20,55.36 877.12,60.05 878.05,61.87 878.97,62.84 879.90,69.88 880.82,58.33 881.75,62.98 882.68,58.51 883.60,58.76 884.53,61.11 885.45,60.24 886.38,62.87 887.30,51.98 888.23,62.52 889.15,78.44 890.08,60.85 891.01,52.82 891.93,65.11 892.86,62.49 893.78,64.77 894.71,46.89 895.63,97.93 896.56,73.15 897.49,73.61 898.41,65.86 899.34,61.67 900.26,55.88 901.19,59.58 902.11,54.25 903.04,55.34 903.97,68.87 904.89,63.23 905.82,63.55 906.74,57.89 907.67,57.96 908.59,54.12 909.52,60.17 910.45,62.15 911.37,53.45 912.30,57.12 913.22,58.70 914.15,59.45 915.07,67.80 916.00,60.89" fill="none" stroke="#145c9e" stroke-width="2.2"/>
  <text x="44" y="24" font-family="monospace" font-size="15" fill="#222">seatbelt.both.hang.zhangyu.20260205.batch.1 ep 000003</text>
  <text x="696" y="24" font-family="monospace" font-size="13" fill="#145c9e">bc_precision_score</text>
  <text x="696" y="44" font-family="monospace" font-size="12" fill="#a23b3b">precision threshold</text>
</svg>
