<svg xmlns="http://www.w3.org/2000/svg" width="960" height="320" viewBox="0 0 960 320">
  <rect width="100%" height="100%" fill="#fffaf0"/>
  <rect x="427.24" y="44" width="70.06" height="232" fill="#f3c565" opacity="0.24"/> <rect x="542.04" y="44" width="74.28" height="232" fill="#f3c565" opacity="0.24"/> <rect x="666.98" y="44" width="79.35" height="232" fill="#f3c565" opacity="0.24"/>
  <line x1="44" y1="276" x2="916" y2="276" stroke="#333" stroke-width="1"/>
  <line x1="44" y1="44" x2="44" y2="276" stroke="#333" stroke-width="1"/>
  <line x1="44" y1="67.81" x2="916" y2="67.81" stroke="#a23b3b" stroke-width="1.5" stroke-dasharray="6 6"/>
  <polyline points="44.00,45.07 44.84,44.00 45.69,44.00 46.53,44.00 47.38,55.67 48.22,50.49 49.07,45.15 49.91,55.13 50.76,56.57 51.60,48.32 52.45,44.00 53.29,48.96 54.14,44.00 54.98,51.64 55.83,48.66 56.67,44.00 57.52,44.00 58.36,56.06 59.21,52.61 60.05,46.47 60.90,49.17 61.74,44.44 62.59,52.56 63.43,50.86 64.28,44.00 65.12,48.07 65.97,44.00 66.81,47.07 67.66,51.96 68.50,52.66 69.35,53.74 70.19,50.22 71.04,51.33 71.88,44.00 72.73,53.15 73.57,67.85 74.42,80.29 75.26,103.62 76.11,171.51 76.95,141.08 77.80,181.40 78.64,210.45 79.49,276.00 80.33,165.87 81.18,153.04 82.02,190.66 82.87,205.83 83.71,212.39 84.56,276.00 85.40,276.00 86.25,276.00 87.09,276.00 87.94,276.00 88.78,276.00 89.63,276.00 90.47,276.00 91.32,276.00 92.16,276.00 93.01,276.00 93.85,276.00 94.70,276.00 95.54,276.00 96.39,276.00 97.23,276.00 98.08,276.00 98.92,276.00 99.77,276.00 100.61,276.00 101.46,276.00 102.30,274.51 103.15,276.00 103.99,276.00 104.84,203.26 105.68,172.86 106.53,276.00 107.37,276.00 108.22,185.44 109.06,204.68 109.91,142.76 110.75,241.57 111.60,178.44 112.44,182.83 113.29,160.24 114.13,213.02 114.98,224.67 115.82,208.61 116.67,223.87 117.51,273.72 118.36,276.00 119.20,276.00 120.05,262.79 120.89,276.00 121.74,251.03 122.58,196.59 123.43,163.64 124.27,195.68 125.12,184.89 125.96,167.84 126.81,211.36 127.65,209.13 128.50,208.52 129.34,122.52 130.19,241.97 131.03,108.59 131.88,108.80 132.72,129.51 133.57,102.67 134.41,134.53 135.26,101.24 136.10,167.37 136.95,134.15 137.79,126.71 138.64,161.51 139.48,111.59 140.33,103.59 141.17,110.46 142.02,100.53 142.86,107.46 143.71,124.18 144.55,109.26 145.40,90.81 146.24,109.96 147.09,95.80 147.93,110.60 148.78,93.59 149.62,101.02 150.47,95.35 151.31,96.37 152.16,64.03 153.00,91.71 153.84,75.41 154.69,76.13 155.53,82.81 156.38,94.12 157.22,82.98 158.07,74.70 158.91,85.65 159.76,79.80 160.60,79.26 161.45,76.68 162.29,71.70 163.14,74.56 163.98,70.98 164.83,80.38 165.67,109.83 166.52,66.28 167.36,55.72 168.21,54.75 169.05,73.08 169.90,63.19 170.74,80.79 171.59,69.43 172.43,82.11 173.28,89.56 174.12,88.49 174.97,116.59 175.81,104.16 176.66,109.87 177.50,96.65 178.35,114.80 179.19,259.84 180.04,235.18 180.88,267.54 181.73,196.48 182.57,159.81 183.42,191.16 184.26,137.23 185.11,136.91 185.95,149.49 186.80,126.01 187.64,162.00 188.49,153.18 189.33,116.30 190.18,122.69 191.02,109.15 191.87,126.58 192.71,131.17 193.56,138.87 194.40,119.67 195.25,84.11 196.09,174.14 196.94,229.35 197.78,148.03 198.63,105.62 199.47,134.18 200.32,109.58 201.16,176.16 202.01,187.29 202.85,128.32 203.70,164.05 204.54,112.09 205.39,97.51 206.23,102.84 207.08,86.48 207.92,142.41 208.77,142.45 209.61,136.10 210.46,135.63 211.30,134.02 212.15,143.05 212.99,195.14 213.84,106.46 214.68,103.45 215.53,127.07 216.37,96.18 217.22,111.73 218.06,99.13 218.91,106.30 219.75,168.67 220.60,105.15 221.44,172.98 222.29,120.91 223.13,135.58 223.98,147.59 224.82,187.46 225.67,131.57 226.51,276.00 227.36,224.39 228.20,176.61 229.05,125.45 229.89,84.37 230.74,107.60 231.58,130.23 232.43,157.03 233.27,134.82 234.12,208.15 234.96,213.04 235.81,276.00 236.65,146.79 237.50,133.21 238.34,120.55 239.19,114.85 240.03,276.00 240.88,276.00 241.72,275.82 242.57,269.98 243.41,251.07 244.26,276.00 245.10,276.00 245.95,209.32 246.79,270.17 247.64,140.02 248.48,130.56 249.33,122.03 250.17,181.28 251.02,233.14 251.86,216.28 252.71,276.00 253.55,276.00 254.40,276.00 255.24,236.14 256.09,264.76 256.93,276.00 257.78,227.43 258.62,183.49 259.47,203.93 260.31,236.35 261.16,209.60 262.00,163.68 262.84,265.13 263.69,276.00 264.53,178.42 265.38,263.27 266.22,276.00 267.07,268.36 267.91,250.74 268.76,172.86 269.60,175.77 270.45,214.12 271.29,183.46 272.14,184.71 272.98,270.05 273.83,222.36 274.67,191.32 275.52,164.25 276.36,149.07 277.21,166.08 278.05,145.04 278.90,209.92 279.74,194.47 280.59,159.86 281.43,207.59 282.28,217.90 283.12,180.58 283.97,166.81 284.81,142.12 285.66,160.90 286.50,128.71 287.35,163.34 288.19,140.32 289.04,126.25 289.88,138.49 290.73,135.73 291.57,124.58 292.42,147.16 293.26,112.70 294.11,95.03 294.95,122.66 295.80,104.95 296.64,91.86 297.49,102.45 298.33,104.66 299.18,99.70 300.02,100.77 300.87,92.99 301.71,96.47 302.56,93.99 303.40,101.82 304.25,96.30 305.09,86.21 305.94,106.96 306.78,111.64 307.63,135.17 308.47,149.11 309.32,130.97 310.16,158.51 311.01,128.53 311.85,144.09 312.70,140.48 313.54,152.58 314.39,131.30 315.23,127.63 316.08,125.76 316.92,116.70 317.77,125.95 318.61,111.04 319.46,96.73 320.30,101.43 321.15,93.59 321.99,113.37 322.84,111.50 323.68,130.70 324.53,104.29 325.37,133.78 326.22,112.54 327.06,130.75 327.91,149.34 328.75,124.11 329.60,127.17 330.44,111.87 331.29,135.37 332.13,120.21 332.98,107.58 333.82,106.13 334.67,151.07 335.51,113.15 336.36,102.86 337.20,126.14 338.05,126.03 338.89,128.03 339.74,105.24 340.58,111.73 341.43,162.52 342.27,122.87 343.12,126.35 343.96,116.33 344.81,170.00 345.65,157.84 346.50,146.74 347.34,198.32 348.19,175.17 349.03,150.08 349.88,124.20 350.72,122.72 351.57,92.24 352.41,115.39 353.26,123.10 354.10,106.92 354.95,150.29 355.79,158.11 356.64,136.76 357.48,115.57 358.33,154.14 359.17,162.45 360.02,151.09 360.86,153.82 361.71,178.86 362.55,180.40 363.40,138.36 364.24,119.29 365.09,120.70 365.93,109.74 366.78,111.29 367.62,101.75 368.47,152.61 369.31,164.53 370.16,160.54 371.00,134.83 371.84,125.41 372.69,139.47 373.53,179.14 374.38,144.19 375.22,171.68 376.07,122.72 376.91,120.83 377.76,143.52 378.60,161.75 379.45,115.21 380.29,151.29 381.14,113.30 381.98,96.15 382.83,116.84 383.67,153.71 384.52,123.31 385.36,192.25 386.21,167.25 387.05,152.29 387.90,154.76 388.74,115.80 389.59,87.94 390.43,86.31 391.28,83.49 392.12,109.20 392.97,95.02 393.81,111.42 394.66,110.36 395.50,97.65 396.35,105.57 397.19,81.13 398.04,102.84 398.88,140.99 399.73,84.10 400.57,86.90 401.42,90.55 402.26,88.63 403.11,104.79 403.95,83.96 404.80,95.71 405.64,100.59 406.49,92.84 407.33,97.01 408.18,83.98 409.02,101.95 409.87,104.26 410.71,91.17 411.56,91.43 412.40,98.58 413.25,142.65 414.09,134.54 414.94,121.25 415.78,120.59 416.63,177.88 417.47,148.65 418.32,141.77 419.16,217.33 420.01,144.33 420.85,170.54 421.70,139.06 422.54,151.08 423.39,121.25 424.23,105.56 425.08,78.85 425.92,114.71 426.77,85.84 427.61,130.34 428.46,125.40 429.30,137.57 430.15,117.98 430.99,96.06 431.84,113.61 432.68,69.78 433.53,70.60 434.37,58.37 435.22,72.69 436.06,74.09 436.91,74.06 437.75,68.05 438.60,75.60 439.44,80.09 440.29,51.61 441.13,68.60 441.98,56.18 442.82,66.93 443.67,80.85 444.51,62.84 445.36,79.62 446.20,110.77 447.05,71.31 447.89,58.18 448.74,103.97 449.58,83.47 450.43,90.98 451.27,67.78 452.12,65.98 452.96,59.62 453.81,56.28 454.65,59.11 455.50,62.61 456.34,54.87 457.19,44.87 458.03,56.38 458.88,56.20 459.72,51.23 460.57,61.17 461.41,55.65 462.26,56.55 463.10,63.79 463.95,57.14 464.79,55.77 465.64,55.54 466.48,58.47 467.33,58.62 468.17,52.27 469.02,52.22 469.86,57.83 470.71,62.89 471.55,52.63 472.40,62.25 473.24,57.11 474.09,49.23 474.93,62.84 475.78,76.78 476.62,66.83 477.47,55.65 478.31,62.26 479.16,96.41 480.00,60.65 480.84,98.58 481.69,64.89 482.53,64.56 483.38,52.80 484.22,68.08 485.07,74.40 485.91,93.68 486.76,91.22 487.60,88.17 488.45,97.87 489.29,84.30 490.14,64.57 490.98,101.38 491.83,105.11 492.67,113.74 493.52,112.32 494.36,106.61 495.21,110.42 496.05,96.02 496.90,81.90 497.74,96.27 498.59,96.70 499.43,82.26 500.28,87.78 501.12,97.50 501.97,99.05 502.81,123.83 503.66,113.41 504.50,150.80 505.35,104.78 506.19,93.98 507.04,92.37 507.88,83.74 508.73,82.29 509.57,97.78 510.42,96.64 511.26,106.62 512.11,110.88 512.95,98.34 513.80,120.95 514.64,125.91 515.49,118.38 516.33,134.88 517.18,150.57 518.02,164.71 518.87,184.83 519.71,166.22 520.56,206.22 521.40,184.01 522.25,202.74 523.09,159.08 523.94,276.00 524.78,202.91 525.63,227.50 526.47,158.21 527.32,249.66 528.16,194.46 529.01,254.24 529.85,99.69 530.70,127.02 531.54,110.53 532.39,125.10 533.23,83.94 534.08,82.61 534.92,118.53 535.77,177.17 536.61,124.23 537.46,100.09 538.30,83.61 539.15,88.90 539.99,79.09 540.84,81.15 541.68,76.40 542.53,93.55 543.37,111.02 544.22,73.25 545.06,111.84 545.91,180.49 546.75,145.14 547.60,166.13 548.44,71.84 549.29,59.78 550.13,157.51 550.98,160.02 551.82,100.53 552.67,79.72 553.51,65.43 554.36,68.75 555.20,47.73 556.05,52.69 556.89,63.75 557.74,60.63 558.58,44.00 559.43,56.13 560.27,58.26 561.12,57.16 561.96,44.00 562.81,44.11 563.65,65.64 564.50,44.00 565.34,44.00 566.19,73.64 567.03,65.17 567.88,72.60 568.72,267.56 569.57,173.69 570.41,147.56 571.26,129.37 572.10,78.06 572.95,47.72 573.79,98.90 574.64,75.06 575.48,80.02 576.33,133.11 577.17,77.51 578.02,60.73 578.86,66.68 579.71,60.01 580.55,65.93 581.40,62.55 582.24,56.16 583.09,58.17 583.93,62.78 584.78,64.34 585.62,134.95 586.47,169.86 587.31,194.82 588.16,161.21 589.00,102.13 589.84,86.19 590.69,67.53 591.53,73.77 592.38,61.27 593.22,89.25 594.07,65.86 594.91,67.17 595.76,56.51 596.60,97.97 597.45,94.54 598.29,47.09 599.14,76.20 599.98,50.46 600.83,44.00 601.67,105.35 602.52,115.91 603.36,131.61 604.21,104.80 605.05,65.34 605.90,58.82 606.74,59.34 607.59,91.02 608.43,87.86 609.28,61.59 610.12,100.67 610.97,108.33 611.81,112.09 612.66,125.26 613.50,87.99 614.35,87.11 615.19,81.57 616.04,97.70 616.88,75.90 617.73,172.31 618.57,133.38 619.42,166.60 620.26,174.66 621.11,179.92 621.95,121.59 622.80,127.86 623.64,136.98 624.49,130.45 625.33,127.54 626.18,146.75 627.02,192.64 627.87,113.99 628.71,143.17 629.56,141.95 630.40,103.59 631.25,136.10 632.09,143.95 632.94,122.60 633.78,148.70 634.63,122.73 635.47,139.66 636.32,121.41 637.16,143.66 638.01,161.34 638.85,129.89 639.70,135.81 640.54,121.67 641.39,131.17 642.23,159.85 643.08,124.73 643.92,121.20 644.77,142.78 645.61,132.19 646.46,123.94 647.30,167.03 648.15,151.22 648.99,170.62 649.84,218.68 650.68,138.85 651.53,146.47 652.37,145.18 653.22,197.75 654.06,235.18 654.91,276.00 655.75,218.59 656.60,227.11 657.44,196.88 658.29,140.80 659.13,145.17 659.98,99.48 660.82,97.44 661.67,88.38 662.51,68.75 663.36,119.22 664.20,144.39 665.05,116.03 665.89,87.21 666.74,83.22 667.58,115.21 668.43,110.21 669.27,89.12 670.12,106.60 670.96,108.81 671.81,107.63 672.65,136.58 673.50,84.98 674.34,60.59 675.19,121.24 676.03,94.45 676.88,70.47 677.72,84.66 678.57,94.65 679.41,67.29 680.26,110.36 681.10,73.26 681.95,86.74 682.79,100.81 683.64,80.32 684.48,96.86 685.33,105.24 686.17,71.41 687.02,97.53 687.86,64.03 688.71,70.17 689.55,54.83 690.40,54.22 691.24,53.46 692.09,72.30 692.93,48.51 693.78,58.00 694.62,50.00 695.47,45.07 696.31,46.80 697.16,56.01 698.00,44.16 698.84,50.54 699.69,59.52 700.53,75.21 701.38,57.39 702.22,53.90 703.07,68.40 703.91,44.00 704.76,45.01 705.60,50.99 706.45,65.46 707.29,48.37 708.14,59.70 708.98,47.10 709.83,45.38 710.67,50.84 711.52,44.00 712.36,61.11 713.21,97.51 714.05,63.71 714.90,48.71 715.74,87.73 716.59,54.70 717.43,62.10 718.28,48.58 719.12,46.25 719.97,48.21 720.81,52.87 721.66,49.60 722.50,51.59 723.35,45.65 724.19,46.54 725.04,44.00 725.88,47.23 726.73,64.50 727.57,58.55 728.42,54.67 729.26,72.51 730.11,64.74 730.95,74.37 731.80,71.38 732.64,74.73 733.49,93.19 734.33,97.64 735.18,126.06 736.02,90.82 736.87,95.36 737.71,119.88 738.56,115.71 739.40,65.66 740.25,77.08 741.09,110.24 741.94,110.48 742.78,142.92 743.63,89.01 744.47,145.25 745.32,120.20 746.16,142.78 747.01,140.69 747.85,164.99 748.70,179.12 749.54,172.02 750.39,190.40 751.23,193.46 752.08,153.61 752.92,181.23 753.77,163.77 754.61,276.00 755.46,176.35 756.30,198.62 757.15,143.68 757.99,170.30 758.84,276.00 759.68,133.53 760.53,138.68 761.37,170.17 762.22,206.99 763.06,140.71 763.91,151.81 764.75,158.38 765.60,170.08 766.44,203.55 767.29,198.23 768.13,190.69 768.98,187.69 769.82,185.43 770.67,189.64 771.51,171.29 772.36,181.47 773.20,239.65 774.05,177.65 774.89,194.97 775.74,174.59 776.58,201.16 777.43,190.99 778.27,193.27 779.12,216.52 779.96,276.00 780.81,275.40 781.65,245.91 782.50,270.50 783.34,153.89 784.19,229.43 785.03,147.23 785.88,192.16 786.72,237.35 787.57,248.48 788.41,220.27 789.26,225.58 790.10,218.93 790.95,194.87 791.79,221.13 792.64,129.99 793.48,202.64 794.33,191.86 795.17,205.73 796.02,276.00 796.86,266.29 797.71,192.26 798.55,177.12 799.40,201.78 800.24,235.92 801.09,276.00 801.93,276.00 802.78,276.00 803.62,276.00 804.47,193.03 805.31,139.72 806.16,230.43 807.00,208.76 807.84,276.00 808.69,276.00 809.53,182.31 810.38,161.28 811.22,164.65 812.07,211.50 812.91,210.39 813.76,270.31 814.60,194.46 815.45,255.95 816.29,225.57 817.14,197.54 817.98,124.78 818.83,121.83 819.67,173.95 820.52,127.65 821.36,94.98 822.21,108.02 823.05,120.49 823.90,136.99 824.74,143.05 825.59,82.62 826.43,80.58 827.28,99.00 828.12,116.44 828.97,167.36 829.81,109.71 830.66,77.79 831.50,88.09 832.35,91.23 833.19,103.14 834.04,92.97 834.88,107.73 835.73,103.71 836.57,93.23 837.42,123.80 838.26,104.60 839.11,110.83 839.95,166.46 840.80,142.24 841.64,185.91 842.49,168.87 843.33,198.78 844.18,213.22 845.02,176.43 845.87,212.57 846.71,192.19 847.56,189.28 848.40,160.20 849.25,275.81 850.09,198.47 850.94,234.62 851.78,239.76 852.63,174.98 853.47,181.63 854.32,153.18 855.16,183.40 856.01,158.03 856.85,163.37 857.70,196.50 858.54,165.95 859.39,132.81 860.23,120.89 861.08,114.50 861.92,123.64 862.77,143.52 863.61,160.21 864.46,141.26 865.30,142.80 866.15,105.17 866.99,156.16 867.84,135.83 868.68,177.93 869.53,162.41 870.37,157.52 871.22,99.07 872.06,83.89 872.91,105.42 873.75,79.09 874.60,72.17 875.44,69.25 876.29,63.95 877.13,90.80 877.98,76.40 878.82,91.99 879.67,159.67 880.51,204.15 881.36,185.64 882.20,144.22 883.05,92.23 883.89,90.56 884.74,96.14 885.58,104.09 886.43,96.37 887.27,94.54 888.12,103.38 888.96,102.61 889.81,99.01 890.65,102.04 891.50,96.34 892.34,93.57 893.19,93.86 894.03,99.04 894.88,97.88 895.72,101.19 896.57,97.45 897.41,102.11 898.26,100.78 899.10,96.67 899.95,101.72 900.79,100.26 901.64,90.48 902.48,110.97 903.33,95.12 904.17,109.66 905.02,104.94 905.86,93.68 906.71,99.41 907.55,96.49 908.40,102.49 909.24,101.02 910.09,97.41 910.93,97.90 911.78,100.13 912.62,95.28 913.47,97.10 914.31,101.04 915.16,95.44 916.00,101.96" fill="none" stroke="#145c9e" stroke-width="2.2"/>
  <text x="44" y="24" font-family="monospace" font-size="15" fill="#222">seatbelt.both.hang.zhangyu.20260205.batch.1 ep 000000</text>
  <text x="696" y="24" font-family="monospace" font-size="13" fill="#145c9e">bc_precision_score</text>
  <text x="696" y="44" font-family="monospace" font-size="12" fill="#a23b3b">precision threshold</text>
</svg>
