<svg xmlns="http://www.w3.org/2000/svg" width="960" height="360" viewBox="0 0 960 360">
<rect width="100%" height="100%" fill="#fffaf0"/>
<line x1="52" y1="308" x2="908" y2="308" stroke="#333" stroke-width="1"/>
<line x1="52" y1="52" x2="52" y2="308" stroke="#333" stroke-width="1"/>
<text x="52" y="28" font-family="monospace" font-size="15" fill="#222">BC precision score curves</text>
<polyline points="52.00,53.18 52.83,52.00 53.66,52.00 54.49,52.00 55.32,64.88 56.15,59.16 56.98,53.27 57.81,64.28 58.64,65.87 59.47,56.76 60.29,52.00 61.12,57.47 61.95,52.00 62.78,60.43 63.61,57.14 64.44,52.00 65.27,52.00 66.10,65.31 66.93,61.50 67.76,54.72 68.59,57.70 69.42,52.48 70.25,61.44 71.08,59.57 71.91,52.00 72.74,56.49 73.57,52.00 74.40,55.39 75.22,60.79 76.05,61.56 76.88,62.75 77.71,58.86 78.54,60.09 79.37,52.00 80.20,62.10 81.03,78.32 81.86,92.05 82.69,117.79 83.52,192.70 84.35,159.12 85.18,203.61 86.01,235.66 86.84,308.00 87.67,186.47 88.50,172.32 89.33,213.84 90.16,230.57 90.98,237.81 91.81,308.00 92.64,308.00 93.47,308.00 94.30,308.00 95.13,308.00 95.96,308.00 96.79,308.00 97.62,308.00 98.45,308.00 99.28,308.00 100.11,308.00 100.94,308.00 101.77,308.00 102.60,308.00 103.43,308.00 104.26,308.00 105.09,308.00 105.91,308.00 106.74,308.00 107.57,308.00 108.40,308.00 109.23,306.36 110.06,308.00 110.89,308.00 111.72,227.74 112.55,194.19 113.38,308.00 114.21,308.00 115.04,208.07 115.87,229.31 116.70,160.98 117.53,270.01 118.36,200.35 119.19,205.19 120.02,180.26 120.84,238.50 121.67,251.36 122.50,233.64 123.33,250.48 124.16,305.48 124.99,308.00 125.82,308.00 126.65,293.42 127.48,308.00 128.31,280.44 129.14,220.37 129.97,184.02 130.80,219.37 131.63,207.46 132.46,188.65 133.29,236.68 134.12,234.21 134.95,233.54 135.78,138.65 136.60,270.44 137.43,123.28 138.26,123.50 139.09,146.35 139.92,116.74 140.75,151.90 141.58,115.16 142.41,188.13 143.24,151.48 144.07,143.26 144.90,181.67 145.73,126.58 146.56,117.75 147.39,125.34 148.22,114.38 149.05,122.03 149.88,140.48 150.71,124.01 151.53,103.65 152.36,124.78 153.19,109.16 154.02,125.49 154.85,106.72 155.68,114.92 156.51,108.66 157.34,109.79 158.17,74.10 159.00,104.65 159.83,86.66 160.66,87.46 161.49,94.82 162.32,107.30 163.15,95.02 163.98,85.88 164.81,97.96 165.64,91.50 166.47,90.91 167.29,88.06 168.12,82.56 168.95,85.73 169.78,81.77 170.61,92.14 171.44,124.65 172.27,76.58 173.10,64.93 173.93,63.86 174.76,84.09 175.59,73.17 176.42,92.60 177.25,80.06 178.08,94.05 178.91,102.27 179.74,101.10 180.57,132.10 181.40,118.39 182.22,124.68 183.05,110.10 183.88,130.13 184.71,290.17 185.54,262.96 186.37,298.67 187.20,220.26 188.03,179.79 188.86,214.39 189.69,154.87 190.52,154.52 191.35,168.40 192.18,142.49 193.01,182.20 193.84,172.48 194.67,131.78 195.50,138.83 196.33,123.89 197.16,143.12 197.98,148.19 198.81,156.68 199.64,135.49 200.47,96.26 201.30,195.61 202.13,256.52 202.96,166.79 203.79,120.00 204.62,151.51 205.45,124.37 206.28,197.83 207.11,210.11 207.94,145.04 208.77,184.47 209.60,127.13 210.43,111.05 211.26,116.93 212.09,98.87 212.91,160.59 213.74,160.63 214.57,153.63 215.40,153.11 216.23,151.34 217.06,161.29 217.89,218.78 218.72,120.92 219.55,117.60 220.38,143.66 221.21,109.58 222.04,126.74 222.87,112.83 223.70,120.74 224.53,189.57 225.36,119.47 226.19,194.33 227.02,136.87 227.84,153.06 228.67,166.30 229.50,210.30 230.33,148.63 231.16,308.00 231.99,251.05 232.82,198.33 233.65,141.88 234.48,96.54 235.31,122.18 236.14,147.15 236.97,176.72 237.80,152.21 238.63,233.13 239.46,238.53 240.29,308.00 241.12,165.43 241.95,150.44 242.78,136.47 243.60,130.17 244.43,308.00 245.26,308.00 246.09,307.80 246.92,301.35 247.75,280.49 248.58,308.00 249.41,308.00 250.24,234.43 251.07,301.57 251.90,157.95 252.73,147.51 253.56,138.10 254.39,203.48 255.22,260.70 256.05,242.11 256.88,308.00 257.71,308.00 258.53,308.00 259.36,264.02 260.19,295.59 261.02,308.00 261.85,254.40 262.68,205.92 263.51,228.47 264.34,264.25 265.17,234.73 266.00,184.06 266.83,296.01 267.66,308.00 268.49,200.33 269.32,293.95 270.15,308.00 270.98,299.58 271.81,280.12 272.64,194.19 273.47,197.40 274.29,239.72 275.12,205.89 275.95,207.26 276.78,301.44 277.61,248.81 278.44,214.56 279.27,184.69 280.10,167.94 280.93,186.71 281.76,163.49 282.59,235.09 283.42,218.03 284.25,179.85 285.08,232.52 285.91,243.89 286.74,202.71 287.57,187.51 288.40,160.27 289.22,181.00 290.05,145.48 290.88,183.68 291.71,158.28 292.54,142.76 293.37,156.27 294.20,153.22 295.03,140.91 295.86,165.84 296.69,127.81 297.52,108.30 298.35,138.80 299.18,119.25 300.01,104.81 300.84,116.49 301.67,118.94 302.50,113.46 303.33,114.65 304.16,106.06 304.98,109.90 305.81,107.16 306.64,115.80 307.47,109.71 308.30,98.58 309.13,121.47 309.96,126.64 310.79,152.60 311.62,167.99 312.45,147.97 313.28,178.35 314.11,145.28 314.94,162.44 315.77,158.46 316.60,171.81 317.43,148.33 318.26,144.28 319.09,142.21 319.91,132.23 320.74,142.43 321.57,125.97 322.40,110.19 323.23,115.37 324.06,106.72 324.89,128.54 325.72,126.49 326.55,147.67 327.38,118.53 328.21,151.07 329.04,127.63 329.87,147.72 330.70,168.24 331.53,140.40 332.36,143.77 333.19,126.89 334.02,152.83 334.84,136.10 335.67,122.16 336.50,120.56 337.33,170.14 338.16,128.30 338.99,116.95 339.82,142.64 340.65,142.51 341.48,144.72 342.31,119.58 343.14,126.74 343.97,182.78 344.80,139.03 345.63,142.87 346.46,131.81 347.29,191.04 348.12,177.62 348.95,165.36 349.78,222.28 350.60,196.73 351.43,169.06 352.26,140.50 353.09,138.86 353.92,105.23 354.75,130.77 355.58,139.28 356.41,121.43 357.24,169.28 358.07,177.92 358.90,154.35 359.73,130.98 360.56,173.54 361.39,182.70 362.22,170.17 363.05,173.18 363.88,200.81 364.71,202.51 365.53,156.13 366.36,135.07 367.19,136.64 368.02,124.54 368.85,126.26 369.68,115.73 370.51,171.84 371.34,185.00 372.17,180.60 373.00,152.23 373.83,141.83 374.66,157.35 375.49,201.12 376.32,162.56 377.15,192.89 377.98,138.86 378.81,136.78 379.64,161.82 380.47,181.93 381.29,130.58 382.12,170.39 382.95,128.47 383.78,109.54 384.61,132.37 385.44,173.06 386.27,139.51 387.10,215.59 387.93,188.00 388.76,171.49 389.59,174.22 390.42,131.22 391.25,100.49 392.08,98.69 392.91,95.58 393.74,123.94 394.57,108.29 395.40,126.39 396.22,125.22 397.05,111.20 397.88,119.94 398.71,92.97 399.54,116.92 400.37,159.03 401.20,96.25 402.03,99.34 402.86,103.37 403.69,101.25 404.52,119.08 405.35,96.10 406.18,109.05 407.01,114.45 407.84,105.89 408.67,110.50 409.50,96.11 410.33,115.94 411.16,118.50 411.98,104.05 412.81,104.34 413.64,112.23 414.47,160.86 415.30,151.90 416.13,137.24 416.96,136.52 417.79,199.73 418.62,167.47 419.45,159.89 420.28,243.26 421.11,162.71 421.94,191.63 422.77,156.89 423.60,170.16 424.43,137.25 425.26,119.92 426.09,90.45 426.91,130.02 427.74,98.17 428.57,147.27 429.40,141.82 430.23,155.25 431.06,133.64 431.89,109.45 432.72,128.81 433.55,80.45 434.38,81.35 435.21,67.85 436.04,83.66 436.87,85.21 437.70,85.17 438.53,78.54 439.36,86.87 440.19,91.82 441.02,60.40 441.84,79.14 442.67,65.44 443.50,77.30 444.33,92.66 445.16,72.78 445.99,91.31 446.82,125.68 447.65,82.13 448.48,67.65 449.31,118.17 450.14,95.55 450.97,103.84 451.80,78.24 452.63,76.25 453.46,69.23 454.29,65.55 455.12,68.67 455.95,72.54 456.78,63.99 457.60,52.96 458.43,65.66 459.26,65.47 460.09,59.97 460.92,70.95 461.75,64.85 462.58,65.85 463.41,73.83 464.24,66.50 465.07,64.98 465.90,64.73 466.73,67.97 467.56,68.13 468.39,61.13 469.22,61.07 470.05,67.26 470.88,72.84 471.71,61.52 472.53,72.14 473.36,66.47 474.19,57.77 475.02,72.79 475.85,88.17 476.68,77.20 477.51,64.85 478.34,72.15 479.17,109.84 480.00,70.38 480.83,112.23 481.66,75.05 482.49,74.69 483.32,61.71 484.15,78.57 484.98,85.54 485.81,106.82 486.64,104.10 487.47,100.74 488.29,111.45 489.12,96.47 489.95,74.70 490.78,115.32 491.61,119.43 492.44,128.95 493.27,127.39 494.10,121.09 494.93,125.29 495.76,109.40 496.59,93.82 497.42,109.68 498.25,110.15 499.08,94.21 499.91,100.31 500.74,111.03 501.57,112.74 502.40,140.09 503.22,128.59 504.05,169.85 504.88,119.06 505.71,107.15 506.54,105.37 507.37,95.85 508.20,94.25 509.03,111.35 509.86,110.08 510.69,121.10 511.52,125.80 512.35,111.97 513.18,136.91 514.01,142.39 514.84,134.08 515.67,152.28 516.50,169.60 517.33,185.20 518.16,207.40 518.98,186.86 519.81,231.00 520.64,206.49 521.47,227.16 522.30,178.99 523.13,308.00 523.96,227.35 524.79,254.49 525.62,178.02 526.45,278.94 527.28,218.03 528.11,283.99 528.94,113.45 529.77,143.61 530.60,125.42 531.43,141.48 532.26,96.08 533.09,94.60 533.91,134.24 534.74,198.95 535.57,140.53 536.40,113.90 537.23,95.71 538.06,101.54 538.89,90.72 539.72,92.99 540.55,87.75 541.38,106.68 542.21,125.96 543.04,84.27 543.87,126.86 544.70,202.60 545.53,163.60 546.36,186.77 547.19,82.72 548.02,69.41 548.84,177.25 549.67,180.02 550.50,114.37 551.33,91.42 552.16,75.64 552.99,79.31 553.82,56.12 554.65,61.59 555.48,73.79 556.31,70.35 557.14,52.00 557.97,65.38 558.80,67.73 559.63,66.52 560.46,52.00 561.29,52.12 562.12,75.88 562.95,52.00 563.78,52.00 564.60,84.70 565.43,75.36 566.26,83.56 567.09,298.69 567.92,195.11 568.75,166.27 569.58,146.20 570.41,89.58 571.24,56.11 572.07,112.58 572.90,86.28 573.73,91.75 574.56,150.33 575.39,88.97 576.22,70.46 577.05,77.02 577.88,69.67 578.71,76.20 579.53,72.47 580.36,65.42 581.19,67.63 582.02,72.72 582.85,74.45 583.68,152.36 584.51,190.88 585.34,218.42 586.17,181.33 587.00,116.14 587.83,98.56 588.66,77.96 589.49,84.85 590.32,71.06 591.15,101.93 591.98,76.12 592.81,77.56 593.64,65.81 594.47,111.56 595.29,107.77 596.12,55.41 596.95,87.53 597.78,59.12 598.61,52.00 599.44,119.70 600.27,131.35 601.10,148.67 601.93,119.10 602.76,75.55 603.59,68.35 604.42,68.93 605.25,103.89 606.08,100.40 606.91,71.41 607.74,114.54 608.57,122.99 609.40,127.14 610.22,141.67 611.05,100.54 611.88,99.57 612.71,93.46 613.54,111.26 614.37,87.20 615.20,193.58 616.03,150.63 616.86,187.29 617.69,196.17 618.52,201.98 619.35,137.62 620.18,144.53 621.01,154.60 621.84,147.40 622.67,144.19 623.50,165.38 624.33,216.02 625.16,129.23 625.98,161.43 626.81,160.09 627.64,117.76 628.47,153.62 629.30,162.29 630.13,138.73 630.96,167.53 631.79,138.88 632.62,157.56 633.45,137.42 634.28,161.97 635.11,181.48 635.94,146.78 636.77,153.31 637.60,137.70 638.43,148.19 639.26,179.83 640.09,141.08 640.91,137.19 641.74,160.99 642.57,149.31 643.40,140.21 644.23,187.76 645.06,170.31 645.89,191.72 646.72,244.75 647.55,156.66 648.38,165.07 649.21,163.64 650.04,221.66 650.87,262.96 651.70,308.00 652.53,244.65 653.36,254.06 654.19,220.69 655.02,158.82 655.84,163.64 656.67,113.22 657.50,110.97 658.33,100.97 659.16,79.31 659.99,135.01 660.82,162.78 661.65,131.48 662.48,99.68 663.31,95.28 664.14,130.58 664.97,125.05 665.80,101.79 666.63,121.08 667.46,123.52 668.29,122.22 669.12,154.16 669.95,97.22 670.78,70.30 671.60,137.23 672.43,107.66 673.26,81.21 674.09,96.86 674.92,107.89 675.75,77.70 676.58,125.23 677.41,84.29 678.24,99.16 679.07,114.69 679.90,92.08 680.73,110.33 681.56,119.58 682.39,82.25 683.22,111.07 684.05,74.10 684.88,80.88 685.71,63.95 686.53,63.28 687.36,62.44 688.19,83.22 689.02,56.97 689.85,67.45 690.68,58.62 691.51,53.18 692.34,55.09 693.17,65.25 694.00,52.18 694.83,59.22 695.66,69.13 696.49,86.44 697.32,66.77 698.15,62.92 698.98,78.93 699.81,52.00 700.64,53.12 701.47,59.71 702.29,75.68 703.12,56.82 703.95,69.33 704.78,55.42 705.61,53.52 706.44,59.55 707.27,52.00 708.10,70.88 708.93,111.05 709.76,73.75 710.59,57.19 711.42,100.26 712.25,63.81 713.08,71.97 713.91,57.05 714.74,54.49 715.57,56.64 716.40,61.78 717.22,58.17 718.05,60.37 718.88,53.82 719.71,54.80 720.54,52.00 721.37,55.57 722.20,74.63 723.03,68.05 723.86,63.77 724.69,83.46 725.52,74.88 726.35,85.51 727.18,82.22 728.01,85.90 728.84,106.28 729.67,111.19 730.50,142.55 731.33,103.67 732.16,108.67 732.98,135.73 733.81,131.13 734.64,75.90 735.47,88.50 736.30,125.09 737.13,125.36 737.96,161.16 738.79,101.67 739.62,163.72 740.45,136.08 741.28,161.00 742.11,158.69 742.94,185.51 743.77,201.09 744.60,193.27 745.43,213.54 746.26,216.92 747.09,172.94 747.91,203.43 748.74,184.16 749.57,308.00 750.40,198.04 751.23,222.62 752.06,161.99 752.89,191.37 753.72,308.00 754.55,150.79 755.38,156.47 756.21,191.22 757.04,231.85 757.87,158.72 758.70,170.97 759.53,178.21 760.36,191.12 761.19,228.06 762.02,222.19 762.84,213.87 763.67,210.55 764.50,208.06 765.33,212.71 766.16,192.46 766.99,203.69 767.82,267.89 768.65,199.48 769.48,218.59 770.31,196.10 771.14,225.42 771.97,214.20 772.80,216.71 773.63,242.37 774.46,308.00 775.29,307.34 776.12,274.80 776.95,301.93 777.78,173.25 778.60,256.61 779.43,165.91 780.26,215.49 781.09,265.35 781.92,277.64 782.75,246.50 783.58,252.37 784.41,245.03 785.24,218.48 786.07,247.45 786.90,146.89 787.73,227.05 788.56,215.15 789.39,230.46 790.22,308.00 791.05,297.29 791.88,215.59 792.71,198.89 793.53,226.10 794.36,263.77 795.19,308.00 796.02,308.00 796.85,308.00 797.68,308.00 798.51,216.45 799.34,157.62 800.17,257.72 801.00,233.80 801.83,308.00 802.66,308.00 803.49,204.62 804.32,181.41 805.15,185.13 805.98,236.83 806.81,235.60 807.64,301.72 808.47,218.02 809.29,285.88 810.12,252.35 810.95,221.42 811.78,141.14 812.61,137.88 813.44,195.39 814.27,144.31 815.10,108.25 815.93,122.65 816.76,136.40 817.59,154.61 818.42,161.30 819.25,94.61 820.08,92.36 820.91,112.69 821.74,131.94 822.57,188.13 823.40,124.51 824.22,89.29 825.05,100.65 825.88,104.11 826.71,117.25 827.54,106.03 828.37,122.32 829.20,117.89 830.03,106.32 830.86,140.05 831.69,118.87 832.52,125.75 833.35,187.12 834.18,160.40 835.01,208.59 835.84,189.79 836.67,222.80 837.50,238.72 838.33,198.13 839.16,238.01 839.98,215.52 840.81,212.31 841.64,180.22 842.47,307.79 843.30,222.46 844.13,262.34 844.96,268.01 845.79,196.53 846.62,203.87 847.45,172.47 848.28,205.82 849.11,177.83 849.94,183.72 850.77,220.27 851.60,186.56 852.43,150.00 853.26,136.84 854.09,129.80 854.91,139.88 855.74,161.81 856.57,180.23 857.40,159.32 858.23,161.02 859.06,119.50 859.89,175.76 860.72,153.33 861.55,199.78 862.38,182.66 863.21,177.26 864.04,112.77 864.87,96.02 865.70,119.77 866.53,90.72 867.36,83.08 868.19,79.87 869.02,74.01 869.84,103.64 870.67,87.75 871.50,104.96 872.33,179.63 873.16,228.72 873.99,208.29 874.82,162.59 875.65,105.22 876.48,103.37 877.31,109.54 878.14,118.30 878.97,109.79 879.80,107.77 880.63,117.52 881.46,116.67 882.29,112.70 883.12,116.04 883.95,109.75 884.78,106.70 885.60,107.01 886.43,112.74 887.26,111.45 888.09,115.10 888.92,110.98 889.75,116.12 890.58,114.65 891.41,110.12 892.24,115.69 893.07,114.08 893.90,103.28 894.73,125.89 895.56,108.41 896.39,124.45 897.22,119.24 898.05,106.82 898.88,113.14 899.71,109.93 900.53,116.54 901.36,114.92 902.19,110.94 903.02,111.48 903.85,113.93 904.68,108.59 905.51,110.59 906.34,114.94 907.17,108.76 908.00,115.95" fill="none" stroke="#145c9e" stroke-width="1.8" opacity="0.86"/>
<text x="728" y="28" font-family="monospace" font-size="12" fill="#145c9e">ep 000000</text>
<polyline points="52.00,52.00 52.96,52.00 53.93,55.47 54.89,56.21 55.85,61.06 56.81,62.35 57.78,52.29 58.74,52.00 59.70,53.85 60.67,56.12 61.63,52.13 62.59,52.80 63.55,54.34 64.52,54.97 65.48,57.63 66.44,56.08 67.41,55.98 68.37,60.43 69.33,55.57 70.29,55.52 71.26,52.56 72.22,52.00 73.18,52.00 74.15,52.00 75.11,52.00 76.07,55.90 77.03,57.07 78.00,55.28 78.96,52.00 79.92,55.46 80.89,52.00 81.85,52.00 82.81,62.19 83.78,53.04 84.74,54.60 85.70,80.10 86.66,127.31 87.63,159.90 88.59,197.82 89.55,154.09 90.52,154.33 91.48,119.39 92.44,133.29 93.40,152.56 94.37,222.94 95.33,308.00 96.29,308.00 97.26,308.00 98.22,274.86 99.18,199.90 100.14,168.96 101.11,308.00 102.07,308.00 103.03,308.00 104.00,308.00 104.96,308.00 105.92,308.00 106.88,308.00 107.85,308.00 108.81,299.31 109.77,308.00 110.74,308.00 111.70,308.00 112.66,308.00 113.62,308.00 114.59,289.23 115.55,225.64 116.51,308.00 117.48,308.00 118.44,308.00 119.40,308.00 120.36,308.00 121.33,308.00 122.29,282.85 123.25,308.00 124.22,308.00 125.18,308.00 126.14,308.00 127.10,254.89 128.07,298.05 129.03,207.68 129.99,218.64 130.96,216.95 131.92,236.04 132.88,285.44 133.84,235.13 134.81,227.12 135.77,249.18 136.73,209.88 137.70,177.64 138.66,169.97 139.62,185.96 140.58,226.24 141.55,196.08 142.51,149.84 143.47,194.75 144.44,168.80 145.40,176.20 146.36,143.91 147.33,178.91 148.29,169.36 149.25,163.67 150.21,193.00 151.18,182.01 152.14,199.81 153.10,161.77 154.07,127.24 155.03,126.96 155.99,163.50 156.95,156.92 157.92,177.40 158.88,164.93 159.84,159.04 160.81,138.44 161.77,160.32 162.73,141.55 163.69,145.60 164.66,175.44 165.62,123.97 166.58,163.72 167.55,148.72 168.51,142.51 169.47,124.31 170.43,110.35 171.40,143.79 172.36,107.87 173.32,120.32 174.29,108.50 175.25,118.95 176.21,112.82 177.17,167.47 178.14,147.85 179.10,147.25 180.06,145.20 181.03,133.42 181.99,156.12 182.95,128.31 183.91,143.82 184.88,173.34 185.84,164.12 186.80,126.97 187.77,134.07 188.73,115.26 189.69,120.65 190.65,154.77 191.62,133.42 192.58,130.39 193.54,135.25 194.51,129.66 195.47,137.16 196.43,125.52 197.39,127.47 198.36,113.94 199.32,119.31 200.28,91.25 201.25,95.05 202.21,94.07 203.17,92.23 204.13,97.65 205.10,121.83 206.06,102.35 207.02,91.17 207.99,88.72 208.95,98.46 209.91,138.65 210.88,133.72 211.84,153.30 212.80,214.64 213.76,214.93 214.73,186.14 215.69,169.49 216.65,176.51 217.62,274.20 218.58,279.44 219.54,247.92 220.50,242.05 221.47,225.77 222.43,261.87 223.39,228.30 224.36,287.49 225.32,302.39 226.28,292.02 227.24,282.32 228.21,269.09 229.17,183.09 230.13,189.39 231.10,254.28 232.06,219.91 233.02,246.32 233.98,308.00 234.95,239.31 235.91,255.40 236.87,251.04 237.84,238.13 238.80,200.07 239.76,193.79 240.72,199.64 241.69,204.68 242.65,178.35 243.61,218.80 244.58,213.03 245.54,266.92 246.50,151.57 247.46,179.52 248.43,152.32 249.39,187.31 250.35,156.57 251.32,155.96 252.28,121.76 253.24,238.21 254.20,209.61 255.17,252.35 256.13,308.00 257.09,267.93 258.06,308.00 259.02,273.06 259.98,308.00 260.94,308.00 261.91,308.00 262.87,308.00 263.83,308.00 264.80,308.00 265.76,308.00 266.72,308.00 267.69,308.00 268.65,308.00 269.61,308.00 270.57,308.00 271.54,308.00 272.50,249.20 273.46,232.30 274.43,234.55 275.39,171.96 276.35,174.73 277.31,252.54 278.28,274.45 279.24,308.00 280.20,308.00 281.17,308.00 282.13,308.00 283.09,221.61 284.05,261.35 285.02,308.00 285.98,252.49 286.94,296.95 287.91,269.47 288.87,298.77 289.83,221.98 290.79,259.07 291.76,234.90 292.72,297.79 293.68,308.00 294.65,308.00 295.61,243.17 296.57,214.80 297.53,191.10 298.50,231.83 299.46,248.28 300.42,222.76 301.39,224.72 302.35,189.72 303.31,221.59 304.27,229.69 305.24,203.50 306.20,219.35 307.16,237.77 308.13,215.28 309.09,199.77 310.05,195.82 311.01,308.00 311.98,246.23 312.94,307.17 313.90,253.81 314.87,211.18 315.83,153.87 316.79,185.85 317.75,194.59 318.72,210.63 319.68,159.35 320.64,154.11 321.61,161.79 322.57,150.80 323.53,176.45 324.49,136.25 325.46,171.71 326.42,155.02 327.38,122.82 328.35,122.23 329.31,123.74 330.27,151.81 331.24,130.79 332.20,182.71 333.16,123.33 334.12,195.63 335.09,138.70 336.05,210.90 337.01,200.59 337.98,135.19 338.94,128.46 339.90,152.83 340.86,150.58 341.83,126.29 342.79,165.97 343.75,112.76 344.72,119.52 345.68,137.96 346.64,149.04 347.60,276.89 348.57,211.86 349.53,168.29 350.49,150.06 351.46,213.83 352.42,137.23 353.38,160.93 354.34,164.14 355.31,142.21 356.27,231.53 357.23,234.06 358.20,162.89 359.16,213.10 360.12,242.06 361.08,154.98 362.05,143.03 363.01,137.84 363.97,166.57 364.94,151.07 365.90,115.30 366.86,153.19 367.82,118.52 368.79,109.44 369.75,162.00 370.71,106.62 371.68,128.83 372.64,104.61 373.60,126.96 374.56,146.12 375.53,94.10 376.49,157.15 377.45,118.49 378.42,134.36 379.38,141.64 380.34,142.86 381.30,188.33 382.27,149.17 383.23,180.04 384.19,96.08 385.16,81.18 386.12,78.17 387.08,108.18 388.04,77.12 389.01,104.21 389.97,124.68 390.93,115.93 391.90,128.54 392.86,156.41 393.82,138.22 394.79,146.17 395.75,146.50 396.71,103.46 397.67,112.71 398.64,93.10 399.60,91.38 400.56,75.67 401.53,102.38 402.49,86.88 403.45,91.70 404.41,91.11 405.38,62.56 406.34,54.31 407.30,52.00 408.27,67.14 409.23,62.37 410.19,66.06 411.15,67.09 412.12,72.91 413.08,52.00 414.04,70.65 415.01,67.29 415.97,72.49 416.93,74.69 417.89,65.25 418.86,110.49 419.82,52.00 420.78,52.00 421.75,52.00 422.71,52.00 423.67,52.00 424.63,52.00 425.60,52.00 426.56,52.00 427.52,52.11 428.49,52.00 429.45,52.00 430.41,52.00 431.37,52.00 432.34,68.11 433.30,52.00 434.26,63.47 435.23,65.20 436.19,82.21 437.15,118.56 438.11,120.33 439.08,84.67 440.04,121.87 441.00,100.19 441.97,110.21 442.93,80.13 443.89,52.00 444.85,63.22 445.82,52.00 446.78,52.00 447.74,62.61 448.71,52.00 449.67,52.00 450.63,53.32 451.60,52.00 452.56,52.00 453.52,52.00 454.48,77.55 455.45,55.24 456.41,62.01 457.37,58.06 458.34,52.00 459.30,57.32 460.26,56.72 461.22,56.71 462.19,59.45 463.15,97.91 464.11,57.53 465.08,58.81 466.04,52.00 467.00,53.56 467.96,168.15 468.93,108.02 469.89,58.38 470.85,72.32 471.82,52.00 472.78,52.00 473.74,70.27 474.70,134.36 475.67,226.17 476.63,236.60 477.59,183.69 478.56,182.00 479.52,169.68 480.48,135.47 481.44,166.87 482.41,144.85 483.37,178.50 484.33,198.97 485.30,172.90 486.26,159.14 487.22,154.13 488.18,220.85 489.15,308.00 490.11,183.02 491.07,139.78 492.04,145.07 493.00,121.73 493.96,136.55 494.92,128.28 495.89,180.07 496.85,133.66 497.81,148.59 498.78,172.76 499.74,154.56 500.70,149.46 501.66,130.47 502.63,157.46 503.59,163.47 504.55,139.40 505.52,153.26 506.48,118.50 507.44,164.89 508.40,112.16 509.37,226.74 510.33,124.59 511.29,190.51 512.26,164.06 513.22,159.90 514.18,170.24 515.15,158.66 516.11,193.93 517.07,308.00 518.03,217.29 519.00,308.00 519.96,297.30 520.92,213.53 521.89,214.00 522.85,272.47 523.81,202.65 524.77,176.61 525.74,174.23 526.70,129.61 527.66,116.94 528.63,111.16 529.59,129.55 530.55,165.53 531.51,158.48 532.48,142.79 533.44,135.84 534.40,118.89 535.37,164.91 536.33,147.32 537.29,204.80 538.25,132.52 539.22,174.57 540.18,144.71 541.14,112.32 542.11,94.52 543.07,115.60 544.03,136.86 544.99,140.75 545.96,164.09 546.92,98.27 547.88,98.34 548.85,73.10 549.81,214.11 550.77,112.98 551.73,146.28 552.70,129.94 553.66,108.91 554.62,109.59 555.59,116.24 556.55,140.87 557.51,91.00 558.47,98.00 559.44,108.89 560.40,95.67 561.36,116.17 562.33,126.93 563.29,136.01 564.25,115.17 565.21,114.82 566.18,129.77 567.14,139.61 568.10,126.99 569.07,140.10 570.03,121.35 570.99,138.34 571.96,147.99 572.92,121.34 573.88,116.53 574.84,130.07 575.81,117.89 576.77,129.30 577.73,104.08 578.70,97.11 579.66,147.10 580.62,150.09 581.58,131.47 582.55,143.47 583.51,121.27 584.47,120.20 585.44,94.82 586.40,91.03 587.36,111.16 588.32,140.39 589.29,160.31 590.25,180.80 591.21,155.97 592.18,177.36 593.14,270.87 594.10,156.58 595.06,200.91 596.03,198.54 596.99,168.29 597.95,163.11 598.92,141.67 599.88,126.63 600.84,163.22 601.80,202.13 602.77,211.01 603.73,189.39 604.69,259.77 605.66,202.86 606.62,218.34 607.58,146.32 608.54,171.92 609.51,164.19 610.47,123.16 611.43,134.48 612.40,164.74 613.36,201.73 614.32,219.08 615.28,89.01 616.25,175.03 617.21,105.76 618.17,140.64 619.14,132.53 620.10,146.07 621.06,117.02 622.02,191.27 622.99,159.91 623.95,180.48 624.91,97.06 625.88,85.26 626.84,106.74 627.80,69.77 628.76,77.27 629.73,75.78 630.69,110.34 631.65,61.58 632.62,95.26 633.58,73.58 634.54,61.96 635.51,64.60 636.47,58.55 637.43,92.39 638.39,81.24 639.36,70.16 640.32,54.18 641.28,62.10 642.25,68.59 643.21,84.42 644.17,61.95 645.13,83.14 646.10,62.97 647.06,87.46 648.02,89.45 648.99,68.66 649.95,52.74 650.91,102.54 651.87,61.91 652.84,71.51 653.80,56.82 654.76,58.34 655.73,54.64 656.69,71.27 657.65,57.97 658.61,52.38 659.58,52.00 660.54,52.00 661.50,62.43 662.47,72.15 663.43,52.00 664.39,105.55 665.35,64.61 666.32,54.90 667.28,63.11 668.24,57.19 669.21,57.52 670.17,65.11 671.13,55.88 672.09,71.71 673.06,66.25 674.02,53.42 674.98,61.50 675.95,67.85 676.91,70.41 677.87,52.00 678.83,53.56 679.80,56.56 680.76,106.79 681.72,52.49 682.69,57.04 683.65,57.54 684.61,92.03 685.57,73.97 686.54,78.52 687.50,66.29 688.46,71.97 689.43,109.73 690.39,82.45 691.35,87.01 692.31,91.49 693.28,105.41 694.24,99.13 695.20,159.96 696.17,139.08 697.13,121.30 698.09,156.09 699.06,137.31 700.02,135.80 700.98,111.39 701.94,114.72 702.91,148.16 703.87,143.97 704.83,133.15 705.80,122.90 706.76,131.26 707.72,141.87 708.68,168.31 709.65,221.14 710.61,206.04 711.57,217.37 712.54,170.20 713.50,179.36 714.46,125.99 715.42,207.62 716.39,207.30 717.35,211.39 718.31,160.01 719.28,193.97 720.24,218.24 721.20,197.02 722.16,195.21 723.13,153.03 724.09,126.16 725.05,152.64 726.02,189.34 726.98,174.17 727.94,176.18 728.90,228.27 729.87,230.92 730.83,218.63 731.79,239.57 732.76,224.60 733.72,245.59 734.68,299.28 735.64,197.70 736.61,194.12 737.57,188.23 738.53,150.15 739.50,272.78 740.46,222.07 741.42,277.88 742.38,308.00 743.35,308.00 744.31,277.16 745.27,244.60 746.24,212.89 747.20,259.10 748.16,296.40 749.12,282.29 750.09,246.04 751.05,221.05 752.01,308.00 752.98,308.00 753.94,308.00 754.90,305.50 755.87,308.00 756.83,308.00 757.79,251.52 758.75,232.62 759.72,261.38 760.68,226.99 761.64,248.76 762.61,226.32 763.57,293.67 764.53,308.00 765.49,271.33 766.46,262.47 767.42,211.92 768.38,179.04 769.35,196.43 770.31,241.65 771.27,182.88 772.23,137.96 773.20,146.05 774.16,123.96 775.12,155.69 776.09,134.58 777.05,125.18 778.01,163.28 778.97,129.23 779.94,165.81 780.90,115.56 781.86,139.45 782.83,306.77 783.79,182.70 784.75,170.42 785.71,185.18 786.68,165.16 787.64,155.56 788.60,64.54 789.57,84.66 790.53,81.72 791.49,81.14 792.45,142.15 793.42,125.58 794.38,171.76 795.34,82.77 796.31,64.36 797.27,73.46 798.23,92.60 799.19,86.62 800.16,95.66 801.12,95.16 802.08,84.76 803.05,96.00 804.01,135.77 804.97,142.70 805.93,128.19 806.90,216.28 807.86,162.78 808.82,144.50 809.79,149.64 810.75,163.33 811.71,228.72 812.67,187.11 813.64,180.09 814.60,178.09 815.56,143.10 816.53,194.04 817.49,179.19 818.45,224.20 819.42,224.47 820.38,209.83 821.34,173.56 822.30,203.36 823.27,292.16 824.23,155.76 825.19,103.85 826.16,127.94 827.12,132.57 828.08,117.69 829.04,154.87 830.01,190.92 830.97,145.30 831.93,194.11 832.90,193.14 833.86,204.34 834.82,144.98 835.78,214.11 836.75,193.56 837.71,129.22 838.67,172.93 839.64,97.43 840.60,94.27 841.56,70.67 842.52,68.17 843.49,83.97 844.45,67.71 845.41,76.14 846.38,97.27 847.34,261.00 848.30,138.17 849.26,146.47 850.23,100.41 851.19,89.43 852.15,112.27 853.12,100.51 854.08,100.60 855.04,96.68 856.00,125.15 856.97,110.76 857.93,124.68 858.89,91.81 859.86,115.31 860.82,94.51 861.78,100.86 862.74,109.67 863.71,84.92 864.67,104.75 865.63,90.90 866.60,94.95 867.56,94.73 868.52,82.84 869.48,74.29 870.45,82.54 871.41,77.35 872.37,83.53 873.34,97.41 874.30,70.64 875.26,80.39 876.22,75.37 877.19,90.91 878.15,84.90 879.11,90.54 880.08,84.08 881.04,72.07 882.00,84.46 882.97,75.68 883.93,74.49 884.89,76.17 885.85,72.51 886.82,77.48 887.78,84.11 888.74,87.32 889.71,82.74 890.67,79.33 891.63,72.39 892.59,73.32 893.56,79.27 894.52,82.67 895.48,78.52 896.45,74.16 897.41,71.74 898.37,81.34 899.33,73.44 900.30,74.02 901.26,76.60 902.22,78.22 903.19,82.67 904.15,71.85 905.11,75.06 906.07,90.12 907.04,70.60 908.00,74.59" fill="none" stroke="#cc5a43" stroke-width="1.8" opacity="0.86"/>
<text x="728" y="46" font-family="monospace" font-size="12" fill="#cc5a43">ep 000001</text>
<polyline points="52.00,63.04 52.80,52.00 53.60,52.00 54.39,52.00 55.19,52.00 55.99,52.00 56.79,52.00 57.58,52.00 58.38,52.24 59.18,52.00 59.98,52.00 60.78,52.00 61.57,52.00 62.37,52.00 63.17,52.00 63.97,54.58 64.76,52.00 65.56,52.00 66.36,63.29 67.16,52.00 67.96,53.40 68.75,52.00 69.55,52.00 70.35,52.00 71.15,52.00 71.94,52.00 72.74,53.34 73.54,52.00 74.34,52.00 75.14,52.00 75.93,52.00 76.73,52.00 77.53,52.00 78.33,52.00 79.12,52.00 79.92,53.44 80.72,52.00 81.52,52.00 82.32,52.00 83.11,52.00 83.91,57.09 84.71,52.00 85.51,52.00 86.30,52.00 87.10,61.78 87.90,59.73 88.70,84.93 89.49,110.12 90.29,107.67 91.09,96.23 91.89,160.83 92.69,124.66 93.48,110.68 94.28,127.54 95.08,192.58 95.88,269.20 96.67,300.05 97.47,186.50 98.27,140.92 99.07,195.72 99.87,199.41 100.66,226.49 101.46,268.20 102.26,308.00 103.06,276.66 103.85,308.00 104.65,308.00 105.45,260.96 106.25,164.40 107.05,161.36 107.84,184.04 108.64,244.54 109.44,259.84 110.24,308.00 111.03,308.00 111.83,308.00 112.63,308.00 113.43,308.00 114.23,308.00 115.02,308.00 115.82,308.00 116.62,308.00 117.42,308.00 118.21,308.00 119.01,308.00 119.81,308.00 120.61,308.00 121.41,308.00 122.20,308.00 123.00,279.21 123.80,308.00 124.60,229.72 125.39,306.52 126.19,225.91 126.99,229.80 127.79,308.00 128.59,223.15 129.38,255.58 130.18,281.47 130.98,225.14 131.78,250.06 132.57,289.12 133.37,284.23 134.17,271.57 134.97,235.08 135.77,242.67 136.56,289.71 137.36,290.83 138.16,308.00 138.96,308.00 139.75,308.00 140.55,241.97 141.35,301.89 142.15,272.09 142.95,265.50 143.74,243.97 144.54,308.00 145.34,308.00 146.14,216.94 146.93,308.00 147.73,264.25 148.53,278.64 149.33,228.51 150.12,297.71 150.92,237.74 151.72,220.45 152.52,308.00 153.32,301.82 154.11,308.00 154.91,308.00 155.71,308.00 156.51,308.00 157.30,306.70 158.10,308.00 158.90,308.00 159.70,308.00 160.50,290.15 161.29,308.00 162.09,308.00 162.89,275.59 163.69,227.26 164.48,263.80 165.28,192.13 166.08,214.38 166.88,233.01 167.68,227.53 168.47,268.57 169.27,261.22 170.07,242.66 170.87,257.40 171.66,190.82 172.46,268.94 173.26,184.42 174.06,183.12 174.86,186.43 175.65,202.17 176.45,308.00 177.25,279.64 178.05,194.03 178.84,137.85 179.64,96.89 180.44,124.97 181.24,123.72 182.04,124.24 182.83,152.79 183.63,140.43 184.43,160.86 185.23,136.44 186.02,145.24 186.82,308.00 187.62,141.87 188.42,151.87 189.22,218.95 190.01,211.10 190.81,190.29 191.61,155.97 192.41,164.06 193.20,183.07 194.00,130.70 194.80,172.64 195.60,188.37 196.40,188.35 197.19,155.79 197.99,150.70 198.79,167.00 199.59,138.95 200.38,134.30 201.18,128.60 201.98,119.74 202.78,118.64 203.58,114.96 204.37,104.36 205.17,115.57 205.97,129.86 206.77,111.72 207.56,126.85 208.36,126.81 209.16,151.40 209.96,134.35 210.75,146.41 211.55,140.47 212.35,150.84 213.15,142.80 213.95,142.90 214.74,137.00 215.54,156.36 216.34,166.01 217.14,160.55 217.93,216.41 218.73,176.69 219.53,160.46 220.33,147.51 221.13,156.52 221.92,176.89 222.72,170.23 223.52,219.97 224.32,276.13 225.11,270.01 225.91,285.76 226.71,308.00 227.51,308.00 228.31,308.00 229.10,299.22 229.90,277.97 230.70,217.09 231.50,219.71 232.29,165.78 233.09,199.70 233.89,186.10 234.69,151.92 235.49,148.65 236.28,128.25 237.08,165.85 237.88,122.07 238.68,145.31 239.47,251.97 240.27,160.30 241.07,143.95 241.87,123.09 242.67,170.67 243.46,161.54 244.26,175.36 245.06,177.87 245.86,147.79 246.65,143.60 247.45,178.89 248.25,187.09 249.05,157.52 249.85,146.14 250.64,146.23 251.44,105.00 252.24,205.79 253.04,134.45 253.83,137.40 254.63,144.19 255.43,137.91 256.23,163.62 257.03,111.40 257.82,126.73 258.62,127.17 259.42,119.82 260.22,213.49 261.01,308.00 261.81,308.00 262.61,308.00 263.41,277.76 264.21,175.35 265.00,214.01 265.80,176.08 266.60,160.12 267.40,186.55 268.19,231.44 268.99,181.80 269.79,221.55 270.59,172.71 271.38,192.37 272.18,288.20 272.98,231.81 273.78,290.04 274.58,308.00 275.37,204.66 276.17,308.00 276.97,308.00 277.77,308.00 278.56,259.91 279.36,288.64 280.16,308.00 280.96,308.00 281.76,242.69 282.55,145.60 283.35,157.03 284.15,114.80 284.95,118.24 285.74,213.38 286.54,308.00 287.34,308.00 288.14,308.00 288.94,308.00 289.73,230.47 290.53,308.00 291.33,308.00 292.13,308.00 292.92,308.00 293.72,308.00 294.52,308.00 295.32,308.00 296.12,146.81 296.91,152.02 297.71,188.32 298.51,178.98 299.31,141.68 300.10,155.07 300.90,187.75 301.70,190.55 302.50,272.11 303.30,308.00 304.09,308.00 304.89,308.00 305.69,308.00 306.49,308.00 307.28,308.00 308.08,308.00 308.88,252.33 309.68,308.00 310.48,304.24 311.27,191.37 312.07,168.21 312.87,185.94 313.67,164.09 314.46,155.71 315.26,137.40 316.06,141.67 316.86,125.21 317.66,125.36 318.45,204.54 319.25,226.34 320.05,154.91 320.85,177.80 321.64,172.39 322.44,134.80 323.24,113.75 324.04,96.57 324.84,137.28 325.63,156.40 326.43,185.62 327.23,253.63 328.03,201.06 328.82,137.99 329.62,119.54 330.42,155.60 331.22,129.77 332.01,122.37 332.81,115.53 333.61,145.14 334.41,117.42 335.21,113.57 336.00,124.29 336.80,123.63 337.60,143.11 338.40,180.11 339.19,165.46 339.99,157.49 340.79,153.09 341.59,131.88 342.39,125.51 343.18,134.30 343.98,167.21 344.78,175.59 345.58,148.78 346.37,126.96 347.17,135.13 347.97,149.72 348.77,132.92 349.57,129.15 350.36,120.81 351.16,227.44 351.96,233.79 352.76,216.37 353.55,133.59 354.35,152.70 355.15,120.70 355.95,149.74 356.75,216.10 357.54,147.91 358.34,117.26 359.14,133.29 359.94,135.28 360.73,160.49 361.53,193.14 362.33,144.15 363.13,169.58 363.93,145.31 364.72,173.05 365.52,181.49 366.32,119.29 367.12,167.28 367.91,161.85 368.71,138.12 369.51,173.85 370.31,150.99 371.11,172.60 371.90,128.28 372.70,175.12 373.50,132.59 374.30,139.89 375.09,118.48 375.89,186.07 376.69,131.39 377.49,142.94 378.29,161.20 379.08,148.34 379.88,175.26 380.68,144.95 381.48,151.66 382.27,148.20 383.07,198.74 383.87,118.11 384.67,151.52 385.47,110.82 386.26,126.38 387.06,154.16 387.86,122.49 388.66,116.59 389.45,131.67 390.25,115.44 391.05,120.49 391.85,82.30 392.64,173.36 393.44,136.07 394.24,105.65 395.04,167.72 395.84,130.21 396.63,178.68 397.43,181.71 398.23,180.39 399.03,163.98 399.82,232.16 400.62,100.97 401.42,122.39 402.22,159.97 403.02,200.27 403.81,142.12 404.61,124.43 405.41,184.64 406.21,123.78 407.00,136.11 407.80,63.31 408.60,101.49 409.40,89.65 410.20,99.64 410.99,114.55 411.79,70.99 412.59,84.88 413.39,73.66 414.18,53.80 414.98,76.36 415.78,69.28 416.58,101.56 417.38,83.55 418.17,106.11 418.97,78.55 419.77,87.18 420.57,93.70 421.36,57.21 422.16,80.84 422.96,83.69 423.76,94.87 424.56,63.64 425.35,92.35 426.15,118.35 426.95,94.02 427.75,78.94 428.54,93.36 429.34,144.25 430.14,78.40 430.94,92.91 431.74,100.16 432.53,103.05 433.33,143.51 434.13,115.94 434.93,132.82 435.72,77.06 436.52,122.39 437.32,91.22 438.12,90.81 438.92,71.32 439.71,79.64 440.51,96.32 441.31,130.32 442.11,106.73 442.90,87.92 443.70,106.41 444.50,77.28 445.30,84.54 446.10,78.28 446.89,92.39 447.69,75.03 448.49,86.63 449.29,61.70 450.08,63.03 450.88,80.75 451.68,113.68 452.48,104.25 453.27,140.38 454.07,69.37 454.87,85.10 455.67,150.10 456.47,169.78 457.26,111.07 458.06,93.02 458.86,100.86 459.66,95.95 460.45,75.47 461.25,97.21 462.05,118.22 462.85,58.76 463.65,57.32 464.44,71.88 465.24,72.49 466.04,72.01 466.84,67.09 467.63,69.29 468.43,52.00 469.23,57.19 470.03,52.00 470.83,52.00 471.62,52.00 472.42,52.00 473.22,52.00 474.02,66.03 474.81,75.00 475.61,73.57 476.41,67.42 477.21,77.77 478.01,96.78 478.80,67.67 479.60,74.82 480.40,65.56 481.20,54.91 481.99,72.26 482.79,64.35 483.59,71.85 484.39,72.54 485.19,67.63 485.98,58.45 486.78,52.00 487.58,63.51 488.38,65.53 489.17,53.29 489.97,60.75 490.77,52.00 491.57,54.83 492.37,63.56 493.16,59.95 493.96,52.00 494.76,65.82 495.56,57.67 496.35,59.99 497.15,66.39 497.95,60.82 498.75,64.02 499.55,71.88 500.34,62.16 501.14,75.87 501.94,59.43 502.74,69.83 503.53,68.57 504.33,53.19 505.13,97.96 505.93,96.05 506.73,94.15 507.52,90.55 508.32,96.82 509.12,87.78 509.92,118.49 510.71,76.05 511.51,97.72 512.31,82.45 513.11,89.13 513.90,86.15 514.70,92.08 515.50,81.33 516.30,92.24 517.10,80.47 517.89,96.10 518.69,96.82 519.49,71.82 520.29,101.60 521.08,114.73 521.88,99.12 522.68,88.84 523.48,126.97 524.28,120.38 525.07,83.54 525.87,83.41 526.67,97.22 527.47,92.99 528.26,91.22 529.06,81.71 529.86,129.36 530.66,102.60 531.46,110.96 532.25,106.93 533.05,92.02 533.85,121.76 534.65,123.46 535.44,107.28 536.24,101.76 537.04,102.89 537.84,96.45 538.64,97.60 539.43,98.82 540.23,127.60 541.03,111.64 541.83,107.72 542.62,124.52 543.42,106.26 544.22,109.63 545.02,108.36 545.82,93.61 546.61,103.60 547.41,88.42 548.21,86.54 549.01,99.08 549.80,112.75 550.60,81.72 551.40,97.15 552.20,108.20 553.00,134.48 553.79,119.05 554.59,117.94 555.39,119.20 556.19,122.41 556.98,130.75 557.78,114.46 558.58,211.04 559.38,210.44 560.18,308.00 560.97,308.00 561.77,198.21 562.57,193.15 563.37,249.51 564.16,167.43 564.96,157.18 565.76,210.77 566.56,138.23 567.36,148.54 568.15,137.61 568.95,217.60 569.75,190.08 570.55,191.60 571.34,153.17 572.14,194.35 572.94,200.55 573.74,204.44 574.53,147.76 575.33,199.07 576.13,161.51 576.93,152.38 577.73,239.37 578.52,225.04 579.32,288.92 580.12,231.63 580.92,192.23 581.71,162.43 582.51,131.44 583.31,140.62 584.11,153.42 584.91,144.30 585.70,113.34 586.50,127.28 587.30,134.64 588.10,205.22 588.89,187.19 589.69,168.69 590.49,125.82 591.29,90.65 592.09,98.17 592.88,148.68 593.68,121.02 594.48,123.57 595.28,165.54 596.07,185.53 596.87,167.44 597.67,130.45 598.47,126.68 599.27,160.47 600.06,167.80 600.86,141.63 601.66,148.16 602.46,160.93 603.25,194.29 604.05,195.75 604.85,199.34 605.65,260.56 606.45,308.00 607.24,242.06 608.04,190.78 608.84,210.06 609.64,201.69 610.43,292.46 611.23,296.24 612.03,308.00 612.83,289.52 613.63,308.00 614.42,290.65 615.22,308.00 616.02,300.14 616.82,287.08 617.61,308.00 618.41,280.52 619.21,308.00 620.01,304.13 620.81,308.00 621.60,215.14 622.40,222.33 623.20,195.71 624.00,210.65 624.79,153.42 625.59,153.92 626.39,169.21 627.19,175.32 627.99,158.91 628.78,151.11 629.58,165.67 630.38,175.67 631.18,135.14 631.97,150.79 632.77,141.56 633.57,153.70 634.37,118.25 635.16,139.67 635.96,204.62 636.76,203.55 637.56,163.79 638.36,185.34 639.15,131.33 639.95,106.16 640.75,109.28 641.55,132.60 642.34,112.09 643.14,171.09 643.94,169.18 644.74,125.31 645.54,94.66 646.33,189.96 647.13,91.57 647.93,127.00 648.73,176.61 649.52,180.20 650.32,176.02 651.12,140.40 651.92,97.83 652.72,123.38 653.51,61.96 654.31,99.34 655.11,115.09 655.91,106.50 656.70,101.07 657.50,104.97 658.30,86.52 659.10,104.59 659.90,103.90 660.69,92.23 661.49,100.75 662.29,100.09 663.09,94.69 663.88,93.66 664.68,114.49 665.48,81.32 666.28,109.37 667.08,91.13 667.87,105.24 668.67,98.12 669.47,72.83 670.27,103.42 671.06,120.19 671.86,112.26 672.66,123.60 673.46,91.56 674.26,114.31 675.05,81.00 675.85,134.68 676.65,187.21 677.45,123.28 678.24,98.22 679.04,132.22 679.84,163.92 680.64,137.05 681.44,159.72 682.23,159.38 683.03,163.70 683.83,158.41 684.63,144.03 685.42,115.58 686.22,89.17 687.02,115.16 687.82,144.52 688.62,104.07 689.41,132.92 690.21,111.29 691.01,102.75 691.81,88.94 692.60,78.89 693.40,68.76 694.20,90.27 695.00,68.87 695.79,103.27 696.59,82.87 697.39,78.06 698.19,152.12 698.99,108.41 699.78,146.97 700.58,131.57 701.38,158.28 702.18,159.26 702.97,147.50 703.77,121.69 704.57,157.99 705.37,203.16 706.17,152.64 706.96,192.16 707.76,176.55 708.56,203.19 709.36,132.42 710.15,268.89 710.95,164.71 711.75,157.33 712.55,132.42 713.35,179.41 714.14,153.79 714.94,183.45 715.74,118.35 716.54,90.26 717.33,98.70 718.13,122.58 718.93,82.94 719.73,89.25 720.53,155.76 721.32,88.75 722.12,132.86 722.92,78.68 723.72,91.53 724.51,88.80 725.31,78.31 726.11,71.86 726.91,80.05 727.71,83.16 728.50,87.18 729.30,97.64 730.10,76.87 730.90,94.87 731.69,71.62 732.49,70.01 733.29,71.75 734.09,70.17 734.89,68.15 735.68,63.30 736.48,60.98 737.28,60.96 738.08,54.70 738.87,62.01 739.67,74.73 740.47,68.41 741.27,56.16 742.07,66.93 742.86,62.41 743.66,67.63 744.46,146.30 745.26,55.85 746.05,77.97 746.85,66.68 747.65,90.50 748.45,100.73 749.25,81.69 750.04,190.89 750.84,220.95 751.64,90.31 752.44,63.11 753.23,53.67 754.03,52.00 754.83,70.55 755.63,104.68 756.42,52.00 757.22,52.00 758.02,52.00 758.82,70.69 759.62,52.00 760.41,52.00 761.21,52.00 762.01,64.33 762.81,66.37 763.60,63.26 764.40,55.34 765.20,52.43 766.00,60.42 766.80,65.48 767.59,52.00 768.39,62.39 769.19,52.00 769.99,54.96 770.78,78.31 771.58,82.56 772.38,84.75 773.18,65.02 773.98,73.90 774.77,78.86 775.57,62.35 776.37,104.37 777.17,97.44 777.96,104.36 778.76,106.06 779.56,171.82 780.36,126.84 781.16,114.51 781.95,163.65 782.75,215.29 783.55,223.29 784.35,161.84 785.14,242.70 785.94,234.82 786.74,308.00 787.54,279.97 788.34,308.00 789.13,308.00 789.93,308.00 790.73,308.00 791.53,308.00 792.32,308.00 793.12,308.00 793.92,308.00 794.72,224.32 795.52,247.28 796.31,258.97 797.11,176.41 797.91,266.10 798.71,219.35 799.50,201.03 800.30,209.45 801.10,219.61 801.90,250.80 802.70,308.00 803.49,308.00 804.29,308.00 805.09,308.00 805.89,281.49 806.68,286.47 807.48,308.00 808.28,308.00 809.08,308.00 809.88,233.89 810.67,308.00 811.47,236.04 812.27,227.24 813.07,198.29 813.86,206.19 814.66,222.78 815.46,252.67 816.26,215.57 817.05,278.97 817.85,242.35 818.65,308.00 819.45,308.00 820.25,308.00 821.04,308.00 821.84,308.00 822.64,308.00 823.44,308.00 824.23,308.00 825.03,308.00 825.83,308.00 826.63,308.00 827.43,308.00 828.22,308.00 829.02,308.00 829.82,308.00 830.62,308.00 831.41,250.70 832.21,252.65 833.01,249.64 833.81,215.97 834.61,300.34 835.40,204.00 836.20,240.30 837.00,237.12 837.80,187.55 838.59,267.13 839.39,149.31 840.19,149.37 840.99,124.90 841.79,151.78 842.58,123.48 843.38,105.51 844.18,104.42 844.98,122.26 845.77,85.81 846.57,105.61 847.37,85.03 848.17,115.19 848.97,79.97 849.76,87.48 850.56,106.30 851.36,113.39 852.16,113.66 852.95,90.35 853.75,92.32 854.55,104.70 855.35,121.05 856.15,91.11 856.94,131.25 857.74,162.57 858.54,128.49 859.34,138.51 860.13,145.83 860.93,172.84 861.73,202.89 862.53,274.42 863.33,308.00 864.12,135.24 864.92,114.42 865.72,142.94 866.52,120.73 867.31,124.70 868.11,130.85 868.91,129.44 869.71,90.20 870.51,118.63 871.30,107.97 872.10,125.74 872.90,124.60 873.70,116.99 874.49,238.91 875.29,129.97 876.09,102.16 876.89,93.82 877.68,166.36 878.48,150.42 879.28,111.55 880.08,120.53 880.88,113.19 881.67,81.63 882.47,93.84 883.27,75.58 884.07,66.45 884.86,96.84 885.66,77.09 886.46,61.46 887.26,61.12 888.06,78.56 888.85,75.60 889.65,57.35 890.45,72.59 891.25,70.46 892.04,67.15 892.84,58.84 893.64,71.11 894.44,74.44 895.24,77.33 896.03,66.12 896.83,78.16 897.63,78.07 898.43,102.70 899.22,105.36 900.02,79.70 900.82,68.61 901.62,75.63 902.42,78.75 903.21,69.06 904.01,72.15 904.81,68.97 905.61,78.17 906.40,69.86 907.20,66.02 908.00,74.03" fill="none" stroke="#2d7d4f" stroke-width="1.8" opacity="0.86"/>
<text x="728" y="64" font-family="monospace" font-size="12" fill="#2d7d4f">ep 000002</text>
<polyline points="52.00,59.06 52.91,52.90 53.82,53.66 54.73,52.00 55.63,52.22 56.54,52.00 57.45,54.00 58.36,52.00 59.27,52.00 60.18,55.73 61.09,52.00 62.00,62.72 62.90,52.00 63.81,52.00 64.72,61.83 65.63,56.10 66.54,65.69 67.45,66.93 68.36,61.91 69.27,53.33 70.17,52.00 71.08,59.36 71.99,65.02 72.90,95.12 73.81,98.71 74.72,122.38 75.63,151.11 76.54,136.94 77.44,148.61 78.35,130.09 79.26,177.73 80.17,217.88 81.08,178.30 81.99,283.18 82.90,240.41 83.80,214.99 84.71,194.23 85.62,155.82 86.53,161.45 87.44,179.46 88.35,210.31 89.26,238.13 90.17,204.88 91.07,249.88 91.98,308.00 92.89,308.00 93.80,308.00 94.71,308.00 95.62,308.00 96.53,308.00 97.44,308.00 98.34,308.00 99.25,308.00 100.16,223.83 101.07,197.14 101.98,308.00 102.89,234.83 103.80,295.41 104.70,278.04 105.61,194.70 106.52,198.03 107.43,300.76 108.34,297.22 109.25,308.00 110.16,308.00 111.07,279.03 111.97,299.44 112.88,308.00 113.79,308.00 114.70,308.00 115.61,239.15 116.52,205.05 117.43,176.27 118.34,239.01 119.24,247.71 120.15,179.21 121.06,241.38 121.97,233.48 122.88,224.66 123.79,170.28 124.70,204.32 125.61,175.52 126.51,173.05 127.42,137.01 128.33,246.29 129.24,174.60 130.15,204.85 131.06,192.47 131.97,253.23 132.87,188.08 133.78,268.88 134.69,293.83 135.60,308.00 136.51,231.46 137.42,224.77 138.33,150.19 139.24,194.40 140.14,94.96 141.05,127.26 141.96,223.85 142.87,308.00 143.78,138.13 144.69,167.80 145.60,275.91 146.51,193.45 147.41,138.44 148.32,181.66 149.23,130.62 150.14,122.53 151.05,139.87 151.96,135.54 152.87,179.50 153.77,178.96 154.68,184.31 155.59,129.67 156.50,106.94 157.41,132.55 158.32,125.67 159.23,130.04 160.14,135.90 161.04,125.79 161.95,136.28 162.86,140.41 163.77,147.32 164.68,125.28 165.59,133.24 166.50,122.06 167.41,101.11 168.31,109.12 169.22,167.92 170.13,150.92 171.04,187.96 171.95,184.82 172.86,168.72 173.77,161.99 174.68,157.53 175.58,196.93 176.49,247.26 177.40,232.72 178.31,244.05 179.22,240.05 180.13,278.88 181.04,246.16 181.94,256.23 182.85,273.60 183.76,304.39 184.67,180.57 185.58,208.43 186.49,308.00 187.40,223.77 188.31,257.40 189.21,265.83 190.12,247.97 191.03,262.69 191.94,308.00 192.85,296.99 193.76,250.93 194.67,308.00 195.58,308.00 196.48,308.00 197.39,287.68 198.30,308.00 199.21,298.30 200.12,308.00 201.03,274.73 201.94,308.00 202.85,308.00 203.75,308.00 204.66,308.00 205.57,300.13 206.48,308.00 207.39,308.00 208.30,293.02 209.21,292.59 210.11,220.64 211.02,308.00 211.93,308.00 212.84,308.00 213.75,308.00 214.66,308.00 215.57,308.00 216.48,308.00 217.38,230.59 218.29,212.05 219.20,183.97 220.11,104.27 221.02,146.82 221.93,143.39 222.84,100.77 223.75,114.61 224.65,102.46 225.56,135.56 226.47,159.81 227.38,224.46 228.29,197.51 229.20,235.05 230.11,290.80 231.01,227.79 231.92,242.83 232.83,308.00 233.74,308.00 234.65,161.64 235.56,216.36 236.47,288.27 237.38,308.00 238.28,308.00 239.19,308.00 240.10,308.00 241.01,308.00 241.92,268.70 242.83,272.16 243.74,217.42 244.65,221.31 245.55,272.57 246.46,308.00 247.37,308.00 248.28,308.00 249.19,292.07 250.10,158.50 251.01,297.43 251.92,201.63 252.82,227.37 253.73,284.34 254.64,278.26 255.55,215.70 256.46,308.00 257.37,308.00 258.28,304.37 259.18,297.56 260.09,308.00 261.00,211.66 261.91,171.80 262.82,169.79 263.73,184.17 264.64,159.56 265.55,137.46 266.45,185.52 267.36,192.61 268.27,226.24 269.18,263.10 270.09,173.00 271.00,243.06 271.91,232.05 272.82,191.20 273.72,304.12 274.63,183.59 275.54,129.87 276.45,246.76 277.36,206.70 278.27,308.00 279.18,213.10 280.08,152.07 280.99,134.39 281.90,147.86 282.81,135.06 283.72,104.68 284.63,138.43 285.54,120.83 286.45,97.29 287.35,115.71 288.26,119.00 289.17,154.00 290.08,155.61 290.99,204.54 291.90,129.05 292.81,173.12 293.72,160.82 294.62,118.76 295.53,189.58 296.44,209.67 297.35,253.27 298.26,174.13 299.17,216.81 300.08,176.13 300.99,117.81 301.89,119.91 302.80,100.63 303.71,121.69 304.62,117.14 305.53,117.97 306.44,200.54 307.35,158.33 308.25,206.06 309.16,166.92 310.07,173.08 310.98,120.07 311.89,99.28 312.80,137.37 313.71,120.53 314.62,144.95 315.52,213.36 316.43,173.24 317.34,132.44 318.25,161.87 319.16,129.77 320.07,145.86 320.98,135.11 321.89,174.75 322.79,131.98 323.70,200.52 324.61,219.81 325.52,243.65 326.43,140.32 327.34,123.59 328.25,145.11 329.15,234.63 330.06,139.03 330.97,148.23 331.88,79.75 332.79,120.25 333.70,98.82 334.61,95.49 335.52,95.41 336.42,99.50 337.33,101.98 338.24,88.55 339.15,110.66 340.06,128.13 340.97,117.62 341.88,102.43 342.79,129.21 343.69,110.43 344.60,79.59 345.51,131.83 346.42,137.69 347.33,103.93 348.24,127.12 349.15,125.51 350.06,108.34 350.96,138.69 351.87,101.41 352.78,110.28 353.69,104.91 354.60,117.31 355.51,123.16 356.42,99.84 357.32,150.14 358.23,137.76 359.14,167.40 360.05,168.51 360.96,148.28 361.87,161.72 362.78,140.67 363.69,155.93 364.59,156.01 365.50,142.21 366.41,124.43 367.32,94.51 368.23,130.97 369.14,115.80 370.05,94.09 370.96,84.06 371.86,86.76 372.77,90.44 373.68,110.36 374.59,118.50 375.50,108.41 376.41,103.85 377.32,121.06 378.23,133.80 379.13,115.36 380.04,162.92 380.95,138.95 381.86,130.65 382.77,127.13 383.68,110.21 384.59,115.08 385.49,112.32 386.40,130.42 387.31,103.35 388.22,118.56 389.13,164.44 390.04,174.06 390.95,284.19 391.86,181.88 392.76,120.09 393.67,174.11 394.58,196.97 395.49,198.94 396.40,132.81 397.31,142.96 398.22,144.02 399.13,94.45 400.03,126.27 400.94,137.72 401.85,111.80 402.76,147.92 403.67,196.03 404.58,153.09 405.49,128.53 406.39,122.69 407.30,96.81 408.21,123.13 409.12,100.03 410.03,125.54 410.94,120.75 411.85,114.70 412.76,85.83 413.66,116.79 414.57,119.98 415.48,130.51 416.39,81.14 417.30,98.75 418.21,90.88 419.12,107.43 420.03,144.36 420.93,124.90 421.84,90.12 422.75,107.73 423.66,143.09 424.57,232.09 425.48,95.88 426.39,131.96 427.30,94.92 428.20,117.04 429.11,139.39 430.02,125.97 430.93,165.98 431.84,179.07 432.75,131.77 433.66,141.25 434.56,124.34 435.47,117.81 436.38,165.49 437.29,152.35 438.20,252.55 439.11,134.15 440.02,98.72 440.93,94.91 441.83,76.46 442.74,75.03 443.65,79.72 444.56,73.54 445.47,69.27 446.38,74.62 447.29,67.20 448.20,59.88 449.10,75.46 450.01,71.23 450.92,96.15 451.83,74.67 452.74,128.50 453.65,100.09 454.56,109.91 455.46,83.30 456.37,90.05 457.28,79.37 458.19,68.00 459.10,52.00 460.01,52.00 460.92,52.00 461.83,52.00 462.73,52.00 463.64,52.00 464.55,52.00 465.46,52.00 466.37,52.00 467.28,52.00 468.19,52.00 469.10,52.00 470.00,52.00 470.91,52.00 471.82,52.00 472.73,52.00 473.64,52.00 474.55,52.00 475.46,52.00 476.37,52.68 477.27,52.71 478.18,52.00 479.09,52.00 480.00,52.00 480.91,52.00 481.82,62.06 482.73,69.37 483.63,87.74 484.54,193.83 485.45,117.39 486.36,94.76 487.27,72.73 488.18,70.39 489.09,81.07 490.00,88.53 490.90,72.68 491.81,110.09 492.72,94.97 493.63,107.51 494.54,142.66 495.45,107.17 496.36,102.03 497.27,119.72 498.17,115.59 499.08,110.06 499.99,110.73 500.90,159.00 501.81,82.30 502.72,74.58 503.63,67.95 504.54,66.19 505.44,89.16 506.35,97.04 507.26,78.67 508.17,71.65 509.08,89.30 509.99,97.37 510.90,84.42 511.80,101.02 512.71,104.38 513.62,105.50 514.53,84.61 515.44,96.97 516.35,102.90 517.26,98.62 518.17,112.89 519.07,90.88 519.98,92.78 520.89,87.96 521.80,98.66 522.71,110.53 523.62,102.21 524.53,86.66 525.44,98.87 526.34,72.13 527.25,98.54 528.16,123.09 529.07,122.45 529.98,126.10 530.89,138.54 531.80,141.36 532.70,179.76 533.61,161.21 534.52,194.63 535.43,170.12 536.34,182.57 537.25,182.07 538.16,164.15 539.07,241.41 539.97,272.18 540.88,279.62 541.79,197.87 542.70,211.10 543.61,146.15 544.52,187.09 545.43,243.86 546.34,158.33 547.24,157.09 548.15,108.24 549.06,82.98 549.97,114.74 550.88,102.20 551.79,107.41 552.70,93.03 553.61,82.53 554.51,90.06 555.42,104.83 556.33,111.46 557.24,103.25 558.15,119.36 559.06,118.49 559.97,147.92 560.87,148.68 561.78,182.25 562.69,142.16 563.60,117.89 564.51,145.77 565.42,107.81 566.33,103.25 567.24,103.51 568.14,97.84 569.05,105.65 569.96,118.81 570.87,103.42 571.78,133.94 572.69,90.15 573.60,132.43 574.51,115.75 575.41,118.06 576.32,104.07 577.23,76.63 578.14,82.18 579.05,89.38 579.96,94.96 580.87,127.36 581.77,168.67 582.68,250.43 583.59,142.52 584.50,172.40 585.41,124.70 586.32,194.67 587.23,130.06 588.14,119.64 589.04,157.73 589.95,166.10 590.86,271.56 591.77,233.55 592.68,212.99 593.59,191.76 594.50,189.31 595.41,170.81 596.31,213.55 597.22,180.53 598.13,201.47 599.04,190.44 599.95,186.54 600.86,205.28 601.77,163.81 602.68,188.04 603.58,151.95 604.49,146.30 605.40,176.35 606.31,147.26 607.22,125.84 608.13,113.96 609.04,116.45 609.94,135.94 610.85,119.66 611.76,105.18 612.67,120.40 613.58,115.04 614.49,117.03 615.40,111.53 616.31,135.88 617.21,148.60 618.12,124.43 619.03,143.51 619.94,105.07 620.85,117.61 621.76,107.72 622.67,107.10 623.58,91.60 624.48,109.99 625.39,114.26 626.30,130.79 627.21,132.98 628.12,126.41 629.03,104.30 629.94,111.23 630.85,177.63 631.75,190.60 632.66,162.50 633.57,177.02 634.48,238.21 635.39,122.25 636.30,308.00 637.21,210.35 638.11,266.81 639.02,274.57 639.93,130.05 640.84,162.59 641.75,199.24 642.66,244.13 643.57,259.93 644.48,243.46 645.38,262.90 646.29,308.00 647.20,242.81 648.11,227.66 649.02,226.48 649.93,192.43 650.84,222.49 651.75,185.85 652.65,160.56 653.56,119.91 654.47,135.64 655.38,161.96 656.29,104.39 657.20,139.88 658.11,135.96 659.01,123.52 659.92,109.69 660.83,108.08 661.74,176.43 662.65,121.15 663.56,117.94 664.47,108.76 665.38,126.16 666.28,84.27 667.19,97.34 668.10,97.04 669.01,70.57 669.92,93.68 670.83,85.82 671.74,74.11 672.65,109.48 673.55,92.72 674.46,76.81 675.37,75.60 676.28,57.33 677.19,52.00 678.10,52.07 679.01,70.56 679.92,53.62 680.82,67.73 681.73,70.63 682.64,80.82 683.55,77.55 684.46,82.18 685.37,71.34 686.28,69.33 687.18,87.82 688.09,59.93 689.00,65.45 689.91,77.58 690.82,64.96 691.73,101.72 692.64,55.16 693.55,55.65 694.45,54.18 695.36,52.00 696.27,73.19 697.18,59.87 698.09,52.81 699.00,72.80 699.91,74.52 700.82,52.31 701.72,52.65 702.63,59.25 703.54,92.02 704.45,67.49 705.36,79.61 706.27,64.81 707.18,91.00 708.08,182.28 708.99,119.38 709.90,110.09 710.81,169.63 711.72,173.58 712.63,195.00 713.54,308.00 714.45,287.58 715.35,179.89 716.26,308.00 717.17,260.03 718.08,255.79 718.99,249.00 719.90,308.00 720.81,293.45 721.72,304.05 722.62,275.04 723.53,259.81 724.44,237.22 725.35,241.74 726.26,267.71 727.17,193.65 728.08,244.06 728.99,178.95 729.89,153.17 730.80,177.47 731.71,204.21 732.62,147.64 733.53,204.63 734.44,293.16 735.35,233.13 736.25,189.06 737.16,210.71 738.07,269.31 738.98,281.25 739.89,232.20 740.80,201.31 741.71,253.97 742.62,286.40 743.52,308.00 744.43,308.00 745.34,308.00 746.25,308.00 747.16,266.46 748.07,308.00 748.98,218.31 749.89,308.00 750.79,234.37 751.70,162.78 752.61,199.00 753.52,184.54 754.43,200.17 755.34,285.42 756.25,256.35 757.15,308.00 758.06,278.57 758.97,302.00 759.88,301.12 760.79,304.68 761.70,290.73 762.61,281.04 763.52,199.45 764.42,226.68 765.33,215.69 766.24,218.97 767.15,308.00 768.06,288.05 768.97,226.89 769.88,308.00 770.79,243.96 771.69,269.07 772.60,196.14 773.51,210.57 774.42,308.00 775.33,308.00 776.24,308.00 777.15,221.52 778.06,164.07 778.96,218.08 779.87,174.83 780.78,129.45 781.69,164.07 782.60,209.47 783.51,201.22 784.42,202.91 785.32,190.27 786.23,173.16 787.14,153.69 788.05,136.65 788.96,167.69 789.87,116.51 790.78,121.98 791.69,80.98 792.59,70.85 793.50,78.05 794.41,128.08 795.32,97.28 796.23,100.41 797.14,89.96 798.05,106.90 798.96,97.13 799.86,109.43 800.77,112.65 801.68,117.16 802.59,108.54 803.50,97.01 804.41,95.67 805.32,104.51 806.23,135.81 807.13,108.67 808.04,121.39 808.95,113.56 809.86,109.02 810.77,130.70 811.68,153.95 812.59,163.65 813.49,188.78 814.40,153.47 815.31,155.27 816.22,124.39 817.13,119.67 818.04,114.21 818.95,110.76 819.86,136.62 820.76,132.23 821.67,138.25 822.58,143.02 823.49,174.60 824.40,128.02 825.31,137.50 826.22,158.62 827.13,194.99 828.03,161.85 828.94,149.30 829.85,178.01 830.76,153.36 831.67,157.24 832.58,97.84 833.49,86.64 834.39,92.75 835.30,112.82 836.21,99.78 837.12,97.77 838.03,77.93 838.94,77.86 839.85,94.72 840.76,90.20 841.66,126.10 842.57,122.67 843.48,153.05 844.39,125.51 845.30,141.51 846.21,103.52 847.12,113.67 848.03,118.11 848.93,130.85 849.84,106.67 850.75,129.40 851.66,124.62 852.57,79.20 853.48,72.08 854.39,82.38 855.30,81.79 856.20,78.43 857.11,76.26 858.02,66.23 858.93,72.54 859.84,71.91 860.75,84.39 861.66,73.00 862.56,71.86 863.47,70.36 864.38,69.32 865.29,64.73 866.20,60.22 867.11,70.01 868.02,68.50 868.93,64.53 869.83,69.71 870.74,71.72 871.65,72.79 872.56,80.56 873.47,67.81 874.38,72.94 875.29,68.01 876.20,68.29 877.10,70.88 878.01,69.92 878.92,72.82 879.83,60.80 880.74,72.44 881.65,90.00 882.56,70.59 883.46,61.73 884.37,75.29 885.28,72.40 886.19,74.92 887.10,55.19 888.01,111.51 888.92,84.17 889.83,84.68 890.73,76.12 891.64,71.49 892.55,65.11 893.46,69.19 894.37,63.31 895.28,64.51 896.19,79.44 897.10,73.22 898.00,73.57 898.91,67.32 899.82,67.41 900.73,63.16 901.64,69.84 902.55,72.03 903.46,62.43 904.37,66.48 905.27,68.22 906.18,69.05 907.09,78.26 908.00,70.64" fill="none" stroke="#7a4ca0" stroke-width="1.8" opacity="0.86"/>
<text x="728" y="82" font-family="monospace" font-size="12" fill="#7a4ca0">ep 000003</text>
<polyline points="52.00,54.02 52.84,52.00 53.68,52.00 54.51,52.00 55.35,52.00 56.19,53.12 57.03,56.87 57.86,55.14 58.70,57.12 59.54,56.74 60.38,52.00 61.21,52.00 62.05,53.67 62.89,52.14 63.73,58.62 64.56,54.46 65.40,53.28 66.24,52.00 67.08,52.00 67.91,76.46 68.75,104.54 69.59,105.41 70.43,80.08 71.26,96.52 72.10,116.78 72.94,160.24 73.78,146.45 74.61,127.31 75.45,195.63 76.29,228.55 77.13,170.72 77.96,113.43 78.80,116.05 79.64,156.98 80.48,141.33 81.32,134.22 82.15,159.62 82.99,263.81 83.83,234.70 84.67,235.80 85.50,218.57 86.34,308.00 87.18,256.80 88.02,235.83 88.85,308.00 89.69,238.29 90.53,308.00 91.37,228.11 92.20,212.37 93.04,229.71 93.88,308.00 94.72,308.00 95.55,308.00 96.39,222.51 97.23,209.47 98.07,224.51 98.90,216.42 99.74,229.23 100.58,252.82 101.42,211.25 102.25,287.09 103.09,308.00 103.93,276.47 104.77,308.00 105.60,299.60 106.44,291.15 107.28,280.34 108.12,249.97 108.95,285.77 109.79,308.00 110.63,307.57 111.47,304.43 112.31,201.64 113.14,202.13 113.98,187.55 114.82,220.21 115.66,304.60 116.49,247.07 117.33,226.56 118.17,245.99 119.01,218.30 119.84,261.86 120.68,192.37 121.52,183.50 122.36,250.03 123.19,252.10 124.03,171.33 124.87,187.02 125.71,308.00 126.54,308.00 127.38,307.70 128.22,308.00 129.06,280.34 129.89,155.19 130.73,151.02 131.57,102.66 132.41,148.43 133.24,124.90 134.08,111.61 134.92,149.24 135.76,144.44 136.59,187.89 137.43,144.50 138.27,152.29 139.11,156.69 139.95,150.37 140.78,139.47 141.62,141.66 142.46,142.84 143.30,102.07 144.13,137.04 144.97,148.94 145.81,239.36 146.65,299.89 147.48,241.82 148.32,232.49 149.16,160.24 150.00,159.39 150.83,147.16 151.67,201.18 152.51,134.79 153.35,147.90 154.18,144.50 155.02,201.94 155.86,151.73 156.70,135.39 157.53,161.75 158.37,182.17 159.21,172.89 160.05,183.58 160.88,138.76 161.72,173.51 162.56,146.77 163.40,153.11 164.23,169.38 165.07,150.23 165.91,148.18 166.75,150.95 167.59,125.67 168.42,129.31 169.26,152.07 170.10,132.75 170.94,207.80 171.77,167.40 172.61,142.08 173.45,113.27 174.29,111.54 175.12,137.24 175.96,151.73 176.80,147.14 177.64,237.68 178.47,166.54 179.31,145.99 180.15,142.46 180.99,113.13 181.82,121.29 182.66,156.01 183.50,143.91 184.34,133.31 185.17,131.66 186.01,170.58 186.85,139.16 187.69,154.41 188.52,159.14 189.36,158.08 190.20,181.54 191.04,191.45 191.87,175.19 192.71,153.54 193.55,170.17 194.39,179.97 195.23,182.53 196.06,223.23 196.90,238.50 197.74,224.19 198.58,204.60 199.41,216.98 200.25,277.65 201.09,255.75 201.93,280.10 202.76,256.83 203.60,224.37 204.44,254.59 205.28,214.85 206.11,211.62 206.95,165.31 207.79,308.00 208.63,308.00 209.46,203.51 210.30,184.45 211.14,188.01 211.98,247.61 212.81,302.40 213.65,258.77 214.49,211.16 215.33,193.73 216.16,220.07 217.00,255.84 217.84,196.07 218.68,233.78 219.51,179.77 220.35,212.58 221.19,168.57 222.03,192.29 222.86,180.10 223.70,223.63 224.54,208.24 225.38,187.76 226.22,274.70 227.05,292.17 227.89,207.46 228.73,157.66 229.57,223.85 230.40,234.57 231.24,230.63 232.08,303.66 232.92,308.00 233.75,308.00 234.59,308.00 235.43,295.73 236.27,238.45 237.10,308.00 237.94,286.31 238.78,308.00 239.62,294.88 240.45,308.00 241.29,245.52 242.13,262.39 242.97,227.05 243.80,308.00 244.64,223.54 245.48,308.00 246.32,262.37 247.15,285.72 247.99,308.00 248.83,308.00 249.67,255.76 250.50,297.16 251.34,220.16 252.18,308.00 253.02,266.06 253.86,308.00 254.69,308.00 255.53,308.00 256.37,308.00 257.21,308.00 258.04,308.00 258.88,308.00 259.72,308.00 260.56,308.00 261.39,308.00 262.23,308.00 263.07,266.31 263.91,308.00 264.74,207.86 265.58,298.35 266.42,192.93 267.26,263.45 268.09,228.97 268.93,254.37 269.77,222.35 270.61,308.00 271.44,308.00 272.28,308.00 273.12,243.73 273.96,226.03 274.79,209.67 275.63,133.91 276.47,174.84 277.31,308.00 278.14,308.00 278.98,308.00 279.82,189.30 280.66,214.26 281.50,167.12 282.33,187.50 283.17,168.40 284.01,214.20 284.85,167.33 285.68,235.69 286.52,308.00 287.36,308.00 288.20,308.00 289.03,308.00 289.87,308.00 290.71,303.87 291.55,308.00 292.38,271.28 293.22,240.41 294.06,298.34 294.90,218.12 295.73,308.00 296.57,303.93 297.41,308.00 298.25,308.00 299.08,269.88 299.92,308.00 300.76,308.00 301.60,291.42 302.43,284.61 303.27,308.00 304.11,305.71 304.95,308.00 305.78,308.00 306.62,285.72 307.46,308.00 308.30,294.27 309.14,308.00 309.97,308.00 310.81,308.00 311.65,238.81 312.49,219.91 313.32,304.54 314.16,258.45 315.00,242.18 315.84,238.64 316.67,179.29 317.51,162.02 318.35,167.12 319.19,165.66 320.02,126.62 320.86,138.31 321.70,133.15 322.54,134.73 323.37,150.87 324.21,144.61 325.05,155.06 325.89,153.87 326.72,140.81 327.56,131.67 328.40,124.75 329.24,133.19 330.07,142.08 330.91,155.86 331.75,166.89 332.59,231.79 333.42,171.36 334.26,165.60 335.10,175.18 335.94,143.80 336.77,145.12 337.61,153.33 338.45,134.24 339.29,155.10 340.13,170.88 340.96,145.18 341.80,240.72 342.64,196.92 343.48,169.10 344.31,198.73 345.15,175.28 345.99,196.83 346.83,179.66 347.66,167.33 348.50,166.77 349.34,151.45 350.18,138.82 351.01,169.16 351.85,158.22 352.69,151.26 353.53,170.10 354.36,211.82 355.20,184.08 356.04,151.70 356.88,167.52 357.71,150.67 358.55,134.39 359.39,191.22 360.23,224.27 361.06,300.25 361.90,258.05 362.74,308.00 363.58,308.00 364.41,305.66 365.25,308.00 366.09,273.00 366.93,308.00 367.77,270.27 368.60,223.22 369.44,234.39 370.28,185.11 371.12,216.66 371.95,224.47 372.79,231.80 373.63,253.61 374.47,271.14 375.30,307.73 376.14,207.23 376.98,255.98 377.82,245.01 378.65,154.76 379.49,106.14 380.33,148.46 381.17,139.64 382.00,118.42 382.84,109.28 383.68,157.59 384.52,150.86 385.35,138.84 386.19,203.47 387.03,177.74 387.87,166.80 388.70,241.00 389.54,231.06 390.38,145.85 391.22,119.64 392.05,179.71 392.89,148.57 393.73,136.67 394.57,162.54 395.41,256.42 396.24,156.20 397.08,163.13 397.92,186.33 398.76,134.02 399.59,208.59 400.43,172.97 401.27,133.60 402.11,143.02 402.94,168.61 403.78,253.64 404.62,178.37 405.46,247.22 406.29,196.96 407.13,184.48 407.97,196.43 408.81,249.78 409.64,210.00 410.48,308.00 411.32,231.42 412.16,144.94 412.99,232.99 413.83,157.15 414.67,217.26 415.51,222.48 416.34,162.32 417.18,206.81 418.02,185.62 418.86,189.50 419.69,157.90 420.53,308.00 421.37,182.02 422.21,182.19 423.05,158.87 423.88,97.39 424.72,92.37 425.56,139.56 426.40,95.92 427.23,107.08 428.07,104.51 428.91,147.61 429.75,193.98 430.58,199.13 431.42,150.99 432.26,110.89 433.10,109.57 433.93,88.53 434.77,104.04 435.61,117.82 436.45,121.13 437.28,88.39 438.12,94.62 438.96,89.67 439.80,92.28 440.63,83.23 441.47,89.53 442.31,100.51 443.15,94.01 443.98,76.73 444.82,105.97 445.66,102.02 446.50,111.53 447.33,112.39 448.17,99.74 449.01,90.64 449.85,95.27 450.68,106.02 451.52,119.41 452.36,116.45 453.20,120.31 454.04,100.81 454.87,96.41 455.71,119.04 456.55,112.94 457.39,106.21 458.22,95.08 459.06,104.58 459.90,102.66 460.74,107.52 461.57,93.11 462.41,136.11 463.25,108.95 464.09,136.40 464.92,140.81 465.76,188.94 466.60,137.00 467.44,170.01 468.27,138.66 469.11,138.91 469.95,119.09 470.79,136.88 471.62,243.40 472.46,127.59 473.30,137.53 474.14,126.67 474.97,146.62 475.81,152.61 476.65,162.54 477.49,175.74 478.32,225.26 479.16,120.04 480.00,172.08 480.84,151.23 481.68,145.00 482.51,116.45 483.35,146.56 484.19,126.85 485.03,121.87 485.86,141.65 486.70,139.93 487.54,151.72 488.38,139.91 489.21,166.22 490.05,203.09 490.89,182.15 491.73,209.10 492.56,239.84 493.40,282.60 494.24,255.73 495.08,306.82 495.91,308.00 496.75,282.33 497.59,265.78 498.43,308.00 499.26,156.32 500.10,168.10 500.94,171.69 501.78,137.49 502.61,184.70 503.45,155.26 504.29,197.09 505.13,308.00 505.96,304.45 506.80,285.61 507.64,236.27 508.48,244.23 509.32,167.01 510.15,123.66 510.99,106.99 511.83,116.93 512.67,145.89 513.50,161.71 514.34,142.10 515.18,196.00 516.02,178.13 516.85,196.81 517.69,205.44 518.53,144.49 519.37,149.55 520.20,178.74 521.04,140.08 521.88,159.95 522.72,182.40 523.55,176.96 524.39,138.21 525.23,171.33 526.07,196.44 526.90,134.98 527.74,107.81 528.58,160.47 529.42,170.38 530.25,174.54 531.09,189.90 531.93,140.30 532.77,154.32 533.60,135.69 534.44,136.87 535.28,216.67 536.12,296.30 536.95,220.36 537.79,243.26 538.63,197.45 539.47,212.34 540.31,199.45 541.14,153.99 541.98,175.14 542.82,177.40 543.66,155.41 544.49,210.05 545.33,223.35 546.17,212.49 547.01,190.55 547.84,297.98 548.68,232.79 549.52,308.00 550.36,288.73 551.19,233.78 552.03,245.27 552.87,165.05 553.71,194.64 554.54,264.54 555.38,278.13 556.22,308.00 557.06,266.03 557.89,308.00 558.73,276.91 559.57,308.00 560.41,229.21 561.24,279.78 562.08,173.55 562.92,219.59 563.76,204.84 564.59,229.85 565.43,249.60 566.27,223.41 567.11,242.65 567.95,257.47 568.78,179.41 569.62,189.22 570.46,187.56 571.30,171.56 572.13,172.56 572.97,148.53 573.81,137.38 574.65,185.62 575.48,180.50 576.32,151.04 577.16,139.27 578.00,130.15 578.83,197.21 579.67,182.53 580.51,231.49 581.35,291.75 582.18,204.86 583.02,214.01 583.86,184.78 584.70,175.00 585.53,174.78 586.37,167.01 587.21,256.24 588.05,180.27 588.88,154.37 589.72,139.05 590.56,132.52 591.40,129.57 592.23,138.85 593.07,127.71 593.91,166.73 594.75,149.55 595.59,141.40 596.42,123.45 597.26,110.28 598.10,122.07 598.94,116.11 599.77,132.16 600.61,134.45 601.45,94.80 602.29,104.63 603.12,108.49 603.96,144.24 604.80,121.82 605.64,189.18 606.47,151.12 607.31,101.55 608.15,125.48 608.99,110.01 609.82,111.53 610.66,117.83 611.50,135.34 612.34,131.28 613.17,104.56 614.01,104.53 614.85,153.37 615.69,132.94 616.52,136.27 617.36,128.36 618.20,129.89 619.04,128.06 619.87,130.28 620.71,135.65 621.55,150.44 622.39,148.56 623.23,147.77 624.06,165.65 624.90,185.08 625.74,167.10 626.58,233.47 627.41,308.00 628.25,239.59 629.09,173.08 629.93,173.31 630.76,175.47 631.60,262.34 632.44,263.29 633.28,209.85 634.11,201.28 634.95,139.01 635.79,234.14 636.63,281.91 637.46,246.96 638.30,276.10 639.14,308.00 639.98,172.15 640.81,151.82 641.65,181.97 642.49,149.48 643.33,174.36 644.16,173.38 645.00,155.34 645.84,157.81 646.68,192.19 647.51,125.88 648.35,160.23 649.19,159.25 650.03,146.16 650.86,161.85 651.70,141.97 652.54,126.51 653.38,118.41 654.22,152.27 655.05,120.95 655.89,104.12 656.73,111.07 657.57,133.77 658.40,119.47 659.24,107.53 660.08,141.19 660.92,129.98 661.75,104.64 662.59,107.22 663.43,116.47 664.27,104.15 665.10,147.42 665.94,131.39 666.78,114.06 667.62,125.80 668.45,120.87 669.29,128.13 670.13,119.29 670.97,90.30 671.80,110.51 672.64,84.23 673.48,101.42 674.32,82.60 675.15,81.14 675.99,75.48 676.83,83.52 677.67,84.56 678.50,73.30 679.34,85.55 680.18,75.03 681.02,80.68 681.86,73.01 682.69,75.13 683.53,81.74 684.37,70.22 685.21,102.05 686.04,113.69 686.88,81.18 687.72,83.78 688.56,93.48 689.39,84.08 690.23,71.64 691.07,76.73 691.91,72.49 692.74,83.46 693.58,85.89 694.42,111.34 695.26,111.07 696.09,113.51 696.93,90.39 697.77,119.61 698.61,143.91 699.44,108.05 700.28,91.59 701.12,93.18 701.96,133.98 702.79,98.12 703.63,114.53 704.47,112.12 705.31,90.42 706.14,116.04 706.98,151.08 707.82,120.26 708.66,166.47 709.50,172.21 710.33,120.50 711.17,155.07 712.01,206.83 712.85,221.56 713.68,151.85 714.52,295.69 715.36,308.00 716.20,275.15 717.03,308.00 717.87,308.00 718.71,308.00 719.55,202.72 720.38,257.31 721.22,231.98 722.06,302.31 722.90,263.60 723.73,261.31 724.57,287.15 725.41,233.72 726.25,265.40 727.08,226.83 727.92,270.94 728.76,250.81 729.60,262.36 730.43,281.38 731.27,295.31 732.11,308.00 732.95,308.00 733.78,226.89 734.62,214.45 735.46,253.63 736.30,209.95 737.14,228.99 737.97,180.88 738.81,220.17 739.65,265.33 740.49,224.51 741.32,272.62 742.16,230.85 743.00,190.97 743.84,256.95 744.67,180.86 745.51,263.16 746.35,189.27 747.19,229.59 748.02,275.93 748.86,237.89 749.70,198.82 750.54,244.18 751.37,272.38 752.21,308.00 753.05,233.70 753.89,252.58 754.72,308.00 755.56,192.18 756.40,267.06 757.24,234.00 758.07,243.14 758.91,308.00 759.75,232.95 760.59,278.92 761.42,308.00 762.26,302.16 763.10,308.00 763.94,308.00 764.77,308.00 765.61,308.00 766.45,301.53 767.29,308.00 768.13,308.00 768.96,308.00 769.80,308.00 770.64,308.00 771.48,308.00 772.31,308.00 773.15,308.00 773.99,308.00 774.83,308.00 775.66,308.00 776.50,308.00 777.34,308.00 778.18,308.00 779.01,308.00 779.85,308.00 780.69,298.04 781.53,272.28 782.36,274.87 783.20,284.78 784.04,283.81 784.88,290.56 785.71,266.41 786.55,274.45 787.39,206.42 788.23,292.89 789.06,265.20 789.90,269.97 790.74,256.68 791.58,196.32 792.41,156.10 793.25,175.33 794.09,181.88 794.93,167.96 795.77,113.87 796.60,118.07 797.44,130.58 798.28,121.56 799.12,114.12 799.95,116.84 800.79,141.88 801.63,140.77 802.47,187.17 803.30,170.09 804.14,134.94 804.98,137.67 805.82,161.97 806.65,190.35 807.49,131.59 808.33,165.50 809.17,142.36 810.00,129.73 810.84,163.41 811.68,250.11 812.52,195.90 813.35,160.48 814.19,240.44 815.03,172.52 815.87,160.24 816.70,191.64 817.54,193.83 818.38,227.94 819.22,216.53 820.05,175.93 820.89,177.68 821.73,204.46 822.57,176.81 823.41,190.11 824.24,186.72 825.08,180.99 825.92,185.02 826.76,147.62 827.59,188.95 828.43,163.71 829.27,168.97 830.11,191.25 830.94,216.91 831.78,283.64 832.62,240.53 833.46,250.54 834.29,286.91 835.13,269.29 835.97,230.80 836.81,265.82 837.64,252.05 838.48,261.46 839.32,263.11 840.16,240.49 840.99,254.15 841.83,308.00 842.67,284.46 843.51,308.00 844.34,307.89 845.18,308.00 846.02,254.48 846.86,255.53 847.69,186.86 848.53,198.42 849.37,137.22 850.21,160.73 851.05,113.10 851.88,90.13 852.72,150.60 853.56,239.23 854.40,106.91 855.23,111.43 856.07,97.01 856.91,111.86 857.75,114.84 858.58,98.33 859.42,122.61 860.26,158.00 861.10,83.62 861.93,90.82 862.77,103.35 863.61,116.43 864.45,88.79 865.28,172.89 866.12,171.51 866.96,238.97 867.80,211.94 868.63,137.91 869.47,83.39 870.31,73.70 871.15,71.76 871.98,68.47 872.82,79.44 873.66,67.79 874.50,73.44 875.33,79.28 876.17,78.17 877.01,76.80 877.85,63.68 878.68,87.59 879.52,79.52 880.36,97.11 881.20,66.76 882.04,73.45 882.87,89.15 883.71,65.28 884.55,85.63 885.39,77.04 886.22,82.37 887.06,71.94 887.90,82.99 888.74,69.57 889.57,80.39 890.41,72.39 891.25,75.40 892.09,77.12 892.92,79.67 893.76,75.04 894.60,70.69 895.44,82.36 896.27,83.31 897.11,68.02 897.95,70.42 898.79,70.16 899.62,73.92 900.46,72.56 901.30,70.70 902.14,79.20 902.97,82.94 903.81,75.31 904.65,76.61 905.49,68.43 906.32,78.35 907.16,70.41 908.00,70.14" fill="none" stroke="#8a6d18" stroke-width="1.8" opacity="0.86"/>
<text x="728" y="100" font-family="monospace" font-size="12" fill="#8a6d18">ep 000004</text>
</svg>
