<svg xmlns="http://www.w3.org/2000/svg" width="960" height="320" viewBox="0 0 960 320">
  <rect width="100%" height="100%" fill="#fffaf0"/>
  <rect x="390.84" y="44" width="91.12" height="232" fill="#f3c565" opacity="0.24"/> <rect x="622.07" y="44" width="78.38" height="232" fill="#f3c565" opacity="0.24"/>
  <line x1="44" y1="276" x2="916" y2="276" stroke="#333" stroke-width="1"/>
  <line x1="44" y1="44" x2="44" y2="276" stroke="#333" stroke-width="1"/>
  <line x1="44" y1="67.81" x2="916" y2="67.81" stroke="#a23b3b" stroke-width="1.5" stroke-dasharray="6 6"/>
  <polyline points="44.00,44.00 44.98,44.00 45.96,47.15 46.94,47.81 47.92,52.21 48.90,53.38 49.89,44.26 50.87,44.00 51.85,45.67 52.83,47.73 53.81,44.12 54.79,44.73 55.77,46.12 56.75,46.69 57.73,49.10 58.71,47.69 59.69,47.61 60.67,51.64 61.66,47.24 62.64,47.19 63.62,44.51 64.60,44.00 65.58,44.00 66.56,44.00 67.54,44.00 68.52,47.54 69.50,48.60 70.48,46.97 71.46,44.00 72.45,47.14 73.43,44.00 74.41,44.00 75.39,53.23 76.37,44.94 77.35,46.35 78.33,69.47 79.31,112.25 80.29,141.79 81.27,176.15 82.25,136.52 83.24,136.74 84.22,105.07 85.20,117.67 86.18,135.13 87.16,198.91 88.14,276.00 89.12,276.00 90.10,276.00 91.08,245.97 92.06,178.04 93.04,149.99 94.02,276.00 95.01,276.00 95.99,276.00 96.97,276.00 97.95,276.00 98.93,276.00 99.91,276.00 100.89,276.00 101.87,268.13 102.85,276.00 103.83,276.00 104.81,276.00 105.80,276.00 106.78,276.00 107.76,258.99 108.74,201.36 109.72,276.00 110.70,276.00 111.68,276.00 112.66,276.00 113.64,276.00 114.62,276.00 115.60,253.21 116.58,276.00 117.57,276.00 118.55,276.00 119.53,276.00 120.51,227.87 121.49,266.98 122.47,185.08 123.45,195.02 124.43,193.49 125.41,210.79 126.39,255.55 127.37,209.96 128.36,202.70 129.34,222.69 130.32,187.08 131.30,157.86 132.28,150.91 133.26,165.40 134.24,201.90 135.22,174.57 136.20,132.67 137.18,173.37 138.16,149.85 139.15,156.55 140.13,127.30 141.11,159.01 142.09,150.36 143.07,145.20 144.05,171.78 145.03,161.82 146.01,177.96 146.99,143.48 147.97,112.18 148.95,111.93 149.93,145.05 150.92,139.09 151.90,157.65 152.88,146.35 153.86,141.00 154.84,122.34 155.82,142.16 156.80,125.15 157.78,128.82 158.76,155.87 159.74,109.22 160.72,145.25 161.71,131.65 162.69,126.02 163.67,109.53 164.65,96.88 165.63,127.18 166.61,94.63 167.59,105.91 168.57,95.21 169.55,104.67 170.53,99.12 171.51,148.64 172.49,130.87 173.48,130.32 174.46,128.47 175.44,117.78 176.42,138.36 177.40,113.16 178.38,127.22 179.36,153.96 180.34,145.61 181.32,111.94 182.30,118.37 183.28,101.33 184.27,106.21 185.25,137.13 186.23,117.79 187.21,115.04 188.19,119.45 189.17,114.38 190.15,121.18 191.13,110.62 192.11,112.40 193.09,100.13 194.07,105.00 195.06,79.57 196.04,83.02 197.02,82.13 198.00,80.46 198.98,85.37 199.96,107.29 200.94,89.63 201.92,79.50 202.90,77.28 203.88,86.10 204.86,122.52 205.84,118.06 206.83,135.81 207.81,191.40 208.79,191.65 209.77,165.56 210.75,150.47 211.73,156.83 212.71,245.37 213.69,250.12 214.67,221.55 215.65,216.24 216.63,201.48 217.62,234.19 218.60,203.77 219.58,257.41 220.56,270.91 221.54,261.52 222.52,252.73 223.50,240.74 224.48,162.80 225.46,168.51 226.44,227.32 227.42,196.17 228.40,220.10 229.39,276.00 230.37,213.75 231.35,228.33 232.33,224.38 233.31,212.68 234.29,178.19 235.27,172.50 236.25,177.80 237.23,182.37 238.21,158.50 239.19,195.16 240.18,189.93 241.16,238.77 242.14,134.23 243.12,159.57 244.10,134.92 245.08,166.62 246.06,138.77 247.04,138.22 248.02,107.22 249.00,212.75 249.98,186.84 250.97,225.57 251.95,276.00 252.93,239.69 253.91,276.00 254.89,244.34 255.87,276.00 256.85,276.00 257.83,276.00 258.81,276.00 259.79,276.00 260.77,276.00 261.75,276.00 262.74,276.00 263.72,276.00 264.70,276.00 265.68,276.00 266.66,276.00 267.64,276.00 268.62,222.71 269.60,207.39 270.58,209.44 271.56,152.71 272.54,155.23 273.53,225.74 274.51,245.60 275.49,276.00 276.47,276.00 277.45,276.00 278.43,276.00 279.41,197.71 280.39,233.73 281.37,276.00 282.35,225.69 283.33,265.99 284.31,241.08 285.30,267.64 286.28,198.04 287.26,231.66 288.24,209.76 289.22,266.75 290.20,276.00 291.18,276.00 292.16,217.25 293.14,191.54 294.12,170.06 295.10,206.97 296.09,221.87 297.07,198.75 298.05,200.53 299.03,168.81 300.01,197.69 300.99,205.04 301.97,181.30 302.95,195.66 303.93,212.35 304.91,191.97 305.89,177.91 306.88,174.33 307.86,276.00 308.84,220.02 309.82,275.25 310.80,226.89 311.78,188.26 312.76,136.32 313.74,165.30 314.72,173.23 315.70,187.76 316.68,141.28 317.66,136.54 318.65,143.50 319.63,133.54 320.61,156.79 321.59,120.35 322.57,152.49 323.55,137.36 324.53,108.18 325.51,107.65 326.49,109.02 327.47,134.45 328.45,115.40 329.44,162.46 330.42,108.64 331.40,174.16 332.38,122.58 333.36,188.00 334.34,178.66 335.32,119.39 336.30,113.30 337.28,135.38 338.26,133.34 339.24,111.33 340.22,147.28 341.21,99.06 342.19,105.19 343.17,121.90 344.15,131.95 345.13,247.81 346.11,188.88 347.09,149.39 348.07,132.87 349.05,190.66 350.03,121.24 351.01,142.72 352.00,145.63 352.98,125.75 353.96,206.70 354.94,208.99 355.92,144.49 356.90,190.00 357.88,216.24 358.86,137.32 359.84,126.50 360.82,121.80 361.80,147.82 362.79,133.78 363.77,101.37 364.75,135.71 365.73,104.28 366.71,96.06 367.69,143.69 368.67,93.50 369.65,113.63 370.63,91.68 371.61,111.94 372.59,129.29 373.57,82.15 374.56,139.29 375.54,104.26 376.52,118.64 377.50,125.23 378.48,126.34 379.46,167.55 380.44,132.06 381.42,160.04 382.40,83.95 383.38,70.44 384.36,67.72 385.35,94.91 386.33,66.77 387.31,91.31 388.29,109.87 389.27,101.94 390.25,113.36 391.23,138.63 392.21,122.14 393.19,129.34 394.17,129.64 395.15,90.64 396.13,99.02 397.12,81.25 398.10,79.69 399.08,65.45 400.06,89.65 401.04,75.61 402.02,79.98 403.00,79.44 403.98,53.57 404.96,46.09 405.94,44.00 406.92,57.72 407.91,53.40 408.89,56.74 409.87,57.67 410.85,62.95 411.83,44.00 412.81,60.90 413.79,57.85 414.77,62.57 415.75,64.56 416.73,56.01 417.71,97.01 418.70,44.00 419.68,44.00 420.66,44.00 421.64,44.00 422.62,44.00 423.60,44.00 424.58,44.00 425.56,44.00 426.54,44.10 427.52,44.00 428.50,44.00 429.48,44.00 430.47,44.00 431.45,58.60 432.43,44.00 433.41,54.39 434.39,55.97 435.37,71.38 436.35,104.32 437.33,105.92 438.31,73.60 439.29,107.32 440.27,87.67 441.26,96.75 442.24,69.49 443.22,44.00 444.20,54.17 445.18,44.00 446.16,44.00 447.14,53.62 448.12,44.00 449.10,44.00 450.08,45.20 451.06,44.00 452.04,44.00 453.03,44.00 454.01,67.15 454.99,46.94 455.97,53.07 456.95,49.49 457.93,44.00 458.91,48.83 459.89,48.28 460.87,48.26 461.85,50.75 462.83,85.61 463.82,49.02 464.80,50.17 465.78,44.00 466.76,45.41 467.74,149.26 468.72,94.77 469.70,49.78 470.68,62.41 471.66,44.00 472.64,44.00 473.62,60.56 474.61,118.64 475.59,201.84 476.57,211.29 477.55,163.34 478.53,161.82 479.51,150.65 480.49,119.65 481.47,148.10 482.45,128.14 483.43,158.64 484.41,177.19 485.39,153.56 486.38,141.10 487.36,136.55 488.34,197.02 489.32,276.00 490.30,162.74 491.28,123.55 492.26,128.34 493.24,107.20 494.22,120.62 495.20,113.13 496.18,160.06 497.17,118.00 498.15,131.54 499.13,153.44 500.11,136.94 501.09,132.32 502.07,115.11 503.05,139.57 504.03,145.02 505.01,123.21 505.99,135.77 506.97,104.26 507.96,146.31 508.94,98.52 509.92,202.36 510.90,109.78 511.88,169.52 512.86,145.56 513.84,141.78 514.82,151.15 515.80,140.66 516.78,172.62 517.76,276.00 518.74,193.79 519.73,276.00 520.71,266.30 521.69,190.39 522.67,190.81 523.65,243.80 524.63,180.53 525.61,156.93 526.59,154.77 527.57,114.34 528.55,102.85 529.53,97.61 530.52,114.28 531.50,146.89 532.48,140.50 533.46,126.28 534.44,119.98 535.42,104.62 536.40,146.33 537.38,130.38 538.36,182.48 539.34,116.97 540.32,155.08 541.30,128.02 542.29,98.66 543.27,82.53 544.25,101.63 545.23,120.90 546.21,124.43 547.19,145.58 548.17,85.93 549.15,86.00 550.13,63.12 551.11,190.92 552.09,99.27 553.08,129.44 554.06,114.63 555.04,95.58 556.02,96.19 557.00,102.22 557.98,124.54 558.96,79.34 559.94,85.68 560.92,95.55 561.90,83.58 562.88,102.15 563.87,111.91 564.85,120.13 565.83,101.25 566.81,100.93 567.79,114.48 568.77,123.40 569.75,111.96 570.73,123.84 571.71,106.85 572.69,122.24 573.67,130.99 574.65,106.84 575.64,102.48 576.62,114.75 577.60,103.72 578.58,114.05 579.56,91.20 580.54,84.88 581.52,130.19 582.50,132.89 583.48,116.02 584.46,126.89 585.44,106.78 586.43,105.81 587.41,82.81 588.39,79.37 589.37,97.61 590.35,124.11 591.33,142.15 592.31,160.72 593.29,138.22 594.27,157.61 595.25,242.35 596.23,138.78 597.21,178.95 598.20,176.80 599.18,149.38 600.16,144.69 601.14,125.26 602.12,111.63 603.10,144.79 604.08,180.05 605.06,188.10 606.04,168.51 607.02,232.29 608.00,180.72 608.99,194.75 609.97,129.48 610.95,152.68 611.93,145.67 612.91,108.49 613.89,118.75 614.87,146.18 615.85,179.69 616.83,195.42 617.81,77.54 618.79,155.50 619.78,92.72 620.76,124.33 621.74,116.98 622.72,129.25 623.70,102.92 624.68,170.22 625.66,141.80 626.64,160.43 627.62,84.84 628.60,74.14 629.58,93.61 630.56,60.10 631.55,66.90 632.53,65.55 633.51,96.87 634.49,52.69 635.47,83.20 636.45,63.56 637.43,53.02 638.41,55.42 639.39,49.94 640.37,80.60 641.35,70.50 642.34,60.46 643.32,45.98 644.30,53.15 645.28,59.03 646.26,73.38 647.24,53.02 648.22,72.22 649.20,53.94 650.18,76.13 651.16,77.94 652.14,59.10 653.12,44.67 654.11,89.80 655.09,52.98 656.07,61.68 657.05,48.37 658.03,49.75 659.01,46.39 659.99,61.47 660.97,49.41 661.95,44.34 662.93,44.00 663.91,44.00 664.90,53.45 665.88,62.26 666.86,44.00 667.84,92.53 668.82,55.43 669.80,46.63 670.78,54.07 671.76,48.70 672.74,49.00 673.72,55.88 674.70,47.52 675.69,61.86 676.67,56.91 677.65,45.29 678.63,52.61 679.61,58.37 680.59,60.69 681.57,44.00 682.55,45.41 683.53,48.13 684.51,93.66 685.49,44.45 686.47,48.57 687.46,49.02 688.44,80.28 689.42,63.91 690.40,68.04 691.38,56.95 692.36,62.09 693.34,96.32 694.32,71.60 695.30,75.73 696.28,79.79 697.26,92.41 698.25,86.71 699.23,141.84 700.21,122.92 701.19,106.80 702.17,138.33 703.15,121.31 704.13,119.95 705.11,97.82 706.09,100.84 707.07,131.14 708.05,127.34 709.03,117.55 710.02,108.25 711.00,115.83 711.98,125.44 712.96,149.41 713.94,197.28 714.92,183.60 715.90,193.87 716.88,151.12 717.86,159.42 718.84,111.06 719.82,185.03 720.81,184.74 721.79,188.45 722.77,141.89 723.75,172.66 724.73,194.65 725.71,175.43 726.69,173.78 727.67,135.56 728.65,111.21 729.63,135.21 730.61,168.46 731.60,154.71 732.58,156.53 733.56,203.74 734.54,206.15 735.52,195.00 736.50,213.99 737.48,200.42 738.46,219.44 739.44,268.10 740.42,176.04 741.40,172.80 742.38,167.46 743.37,132.95 744.35,244.09 745.33,198.13 746.31,248.70 747.29,276.00 748.27,276.00 749.25,248.05 750.23,218.55 751.21,189.80 752.19,231.69 753.17,265.48 754.16,252.70 755.14,219.85 756.12,197.20 757.10,276.00 758.08,276.00 759.06,276.00 760.04,273.74 761.02,276.00 762.00,276.00 762.98,224.82 763.96,207.69 764.94,233.75 765.93,202.59 766.91,222.31 767.89,201.97 768.87,263.01 769.85,276.00 770.83,242.77 771.81,234.74 772.79,188.93 773.77,159.13 774.75,174.89 775.73,215.87 776.72,162.61 777.70,121.90 778.68,129.23 779.66,109.21 780.64,137.97 781.62,118.84 782.60,110.32 783.58,144.85 784.56,113.99 785.54,147.14 786.52,101.60 787.51,123.25 788.49,274.88 789.47,162.45 790.45,151.32 791.43,164.69 792.41,146.55 793.39,137.85 794.37,55.37 795.35,73.60 796.33,70.93 797.31,70.41 798.29,125.70 799.28,110.68 800.26,152.53 801.24,71.89 802.22,55.20 803.20,63.45 804.18,80.80 805.16,75.37 806.14,83.57 807.12,83.11 808.10,73.69 809.08,83.87 810.07,119.92 811.05,126.19 812.03,113.05 813.01,192.87 813.99,144.40 814.97,127.83 815.95,132.49 816.93,144.89 817.91,204.15 818.89,166.45 819.87,160.08 820.85,158.27 821.84,126.56 822.82,172.72 823.80,159.27 824.78,200.06 825.76,200.30 826.74,187.03 827.72,154.17 828.70,181.17 829.68,261.64 830.66,138.03 831.64,90.99 832.63,112.82 833.61,117.02 834.59,103.53 835.57,137.22 836.55,169.90 837.53,128.55 838.51,172.78 839.49,171.91 840.47,182.06 841.45,128.26 842.43,190.91 843.42,172.29 844.40,113.98 845.38,153.59 846.36,85.17 847.34,82.30 848.32,60.92 849.30,58.65 850.28,72.97 851.26,58.24 852.24,65.88 853.22,85.02 854.20,233.40 855.19,122.09 856.17,129.61 857.15,87.87 858.13,77.92 859.11,98.62 860.09,87.96 861.07,88.04 862.05,84.49 863.03,110.29 864.01,97.25 864.99,109.87 865.98,80.08 866.96,101.37 867.94,82.53 868.92,88.28 869.90,96.27 870.88,73.84 871.86,91.80 872.84,79.25 873.82,82.92 874.80,82.72 875.78,71.94 876.76,64.20 877.75,71.67 878.73,66.97 879.71,72.57 880.69,85.16 881.67,60.89 882.65,69.72 883.63,65.18 884.61,79.26 885.59,73.82 886.57,78.93 887.55,73.08 888.54,62.19 889.52,73.42 890.50,65.46 891.48,64.38 892.46,65.90 893.44,62.59 894.42,67.09 895.40,73.10 896.38,76.01 897.36,71.86 898.34,68.77 899.33,62.48 900.31,63.33 901.29,68.71 902.27,71.79 903.25,68.04 904.23,64.08 905.21,61.89 906.19,70.59 907.17,63.43 908.15,63.96 909.13,66.30 910.11,67.77 911.10,71.79 912.08,61.99 913.06,64.89 914.04,78.55 915.02,60.86 916.00,64.47" fill="none" stroke="#145c9e" stroke-width="2.2"/>
  <text x="44" y="24" font-family="monospace" font-size="15" fill="#222">seatbelt.both.hang.zhangyu.20260205.batch.1 ep 000001</text>
  <text x="696" y="24" font-family="monospace" font-size="13" fill="#145c9e">bc_precision_score</text>
  <text x="696" y="44" font-family="monospace" font-size="12" fill="#a23b3b">precision threshold</text>
</svg>
