<svg xmlns="http://www.w3.org/2000/svg" width="960" height="320" viewBox="0 0 960 320">
  <rect width="100%" height="100%" fill="#fffaf0"/>
  <rect x="399.62" y="44" width="30.85" height="232" fill="#f3c565" opacity="0.24"/> <rect x="428.04" y="44" width="99.05" height="232" fill="#f3c565" opacity="0.24"/> <rect x="723.58" y="44" width="64.14" height="232" fill="#f3c565" opacity="0.24"/>
  <line x1="44" y1="276" x2="916" y2="276" stroke="#333" stroke-width="1"/>
  <line x1="44" y1="44" x2="44" y2="276" stroke="#333" stroke-width="1"/>
  <line x1="44" y1="67.81" x2="916" y2="67.81" stroke="#a23b3b" stroke-width="1.5" stroke-dasharray="6 6"/>
  <polyline points="44.00,54.01 44.81,44.00 45.63,44.00 46.44,44.00 47.25,44.00 48.06,44.00 48.88,44.00 49.69,44.00 50.50,44.22 51.31,44.00 52.13,44.00 52.94,44.00 53.75,44.00 54.56,44.00 55.38,44.00 56.19,46.34 57.00,44.00 57.82,44.00 58.63,54.23 59.44,44.00 60.25,45.27 61.07,44.00 61.88,44.00 62.69,44.00 63.50,44.00 64.32,44.00 65.13,45.21 65.94,44.00 66.75,44.00 67.57,44.00 68.38,44.00 69.19,44.00 70.01,44.00 70.82,44.00 71.63,44.00 72.44,45.31 73.26,44.00 74.07,44.00 74.88,44.00 75.69,44.00 76.51,48.62 77.32,44.00 78.13,44.00 78.95,44.00 79.76,52.87 80.57,51.01 81.38,73.84 82.20,96.67 83.01,94.45 83.82,84.09 84.63,142.63 85.45,109.85 86.26,97.18 87.07,112.46 87.88,171.40 88.70,240.83 89.51,268.80 90.32,165.89 91.14,124.59 91.95,174.24 92.76,177.59 93.57,202.13 94.39,239.93 95.20,276.00 96.01,247.59 96.82,276.00 97.64,276.00 98.45,233.37 99.26,145.86 100.07,143.10 100.89,163.66 101.70,218.49 102.51,232.35 103.33,276.00 104.14,276.00 104.95,276.00 105.76,276.00 106.58,276.00 107.39,276.00 108.20,276.00 109.01,276.00 109.83,276.00 110.64,276.00 111.45,276.00 112.26,276.00 113.08,276.00 113.89,276.00 114.70,276.00 115.52,276.00 116.33,249.91 117.14,276.00 117.95,205.06 118.77,274.66 119.58,201.60 120.39,205.13 121.20,276.00 122.02,199.11 122.83,228.49 123.64,251.96 124.45,200.91 125.27,223.49 126.08,258.89 126.89,254.46 127.71,242.99 128.52,209.92 129.33,216.79 130.14,259.43 130.96,260.44 131.77,276.00 132.58,276.00 133.39,276.00 134.21,216.16 135.02,270.47 135.83,243.45 136.64,237.49 137.46,217.97 138.27,276.00 139.08,276.00 139.90,193.47 140.71,276.00 141.52,236.35 142.33,249.40 143.15,203.96 143.96,266.67 144.77,212.33 145.58,196.66 146.40,276.00 147.21,270.40 148.02,276.00 148.84,276.00 149.65,276.00 150.46,276.00 151.27,274.82 152.09,276.00 152.90,276.00 153.71,276.00 154.52,259.82 155.34,276.00 156.15,276.00 156.96,246.63 157.77,202.83 158.59,235.94 159.40,170.99 160.21,191.16 161.03,208.04 161.84,203.07 162.65,240.27 163.46,233.61 164.28,216.79 165.09,230.14 165.90,169.80 166.71,240.60 167.53,164.01 168.34,162.83 169.15,165.83 169.96,180.09 170.78,276.00 171.59,250.30 172.40,172.71 173.22,121.80 174.03,84.68 174.84,110.13 175.65,108.99 176.47,109.46 177.28,135.34 178.09,124.14 178.90,142.65 179.72,120.52 180.53,128.50 181.34,276.00 182.15,125.45 182.97,134.50 183.78,195.30 184.59,188.18 185.41,169.33 186.22,138.22 187.03,145.55 187.84,162.78 188.66,115.32 189.47,153.33 190.28,167.59 191.09,167.56 191.91,138.06 192.72,133.44 193.53,148.22 194.34,122.80 195.16,118.58 195.97,113.42 196.78,105.39 197.60,104.40 198.41,101.05 199.22,91.45 200.03,101.61 200.85,114.56 201.66,98.12 202.47,111.83 203.28,111.80 204.10,134.08 204.91,118.63 205.72,129.56 206.53,124.17 207.35,133.58 208.16,126.29 208.97,126.37 209.79,121.03 210.60,138.58 211.41,147.32 212.22,142.37 213.04,193.00 213.85,157.00 214.66,142.29 215.47,130.55 216.29,138.72 217.10,157.18 217.91,151.14 218.73,196.23 219.54,247.12 220.35,241.57 221.16,255.85 221.98,276.00 222.79,276.00 223.60,276.00 224.41,268.04 225.23,248.78 226.04,193.61 226.85,195.99 227.66,147.11 228.48,177.85 229.29,165.53 230.10,134.56 230.92,131.59 231.73,113.10 232.54,147.18 233.35,107.50 234.17,128.56 234.98,225.22 235.79,142.15 236.60,127.33 237.42,108.43 238.23,151.55 239.04,143.27 239.85,155.80 240.67,158.07 241.48,130.81 242.29,127.01 243.11,159.00 243.92,166.43 244.73,139.62 245.54,129.31 246.36,129.40 247.17,92.03 247.98,183.38 248.79,118.72 249.61,121.40 250.42,127.54 251.23,121.86 252.04,145.16 252.86,97.84 253.67,111.72 254.48,112.12 255.30,105.46 256.11,190.35 256.92,276.00 257.73,276.00 258.55,276.00 259.36,248.60 260.17,155.79 260.98,190.82 261.80,156.45 262.61,141.99 263.42,165.94 264.23,206.62 265.05,161.63 265.86,197.66 266.67,153.39 267.49,171.21 268.30,258.05 269.11,206.96 269.92,259.73 270.74,276.00 271.55,182.34 272.36,276.00 273.17,276.00 273.99,276.00 274.80,232.42 275.61,258.45 276.42,276.00 277.24,276.00 278.05,216.81 278.86,128.83 279.68,139.18 280.49,100.91 281.30,104.03 282.11,190.25 282.93,276.00 283.74,276.00 284.55,276.00 285.36,276.00 286.18,205.74 286.99,276.00 287.80,276.00 288.62,276.00 289.43,276.00 290.24,276.00 291.05,276.00 291.87,276.00 292.68,129.92 293.49,134.64 294.30,167.54 295.12,159.08 295.93,125.27 296.74,137.41 297.55,167.02 298.37,169.56 299.18,243.47 299.99,276.00 300.81,276.00 301.62,276.00 302.43,276.00 303.24,276.00 304.06,276.00 304.87,276.00 305.68,225.55 306.49,276.00 307.31,272.60 308.12,170.31 308.93,149.32 309.74,165.38 310.56,145.58 311.37,137.99 312.18,121.40 313.00,125.26 313.81,110.34 314.62,110.48 315.43,182.24 316.25,202.00 317.06,137.26 317.87,158.00 318.68,153.10 319.50,119.04 320.31,99.96 321.12,84.39 321.93,121.28 322.75,138.61 323.56,165.09 324.37,226.73 325.19,179.08 326.00,121.93 326.81,105.21 327.62,137.88 328.44,114.48 329.25,107.77 330.06,101.58 330.87,128.41 331.69,103.28 332.50,99.80 333.31,109.51 334.12,108.92 334.94,126.57 335.75,160.10 336.56,146.83 337.38,139.60 338.19,135.62 339.00,116.40 339.81,110.62 340.63,118.58 341.44,148.41 342.25,156.00 343.06,131.70 343.88,111.93 344.69,119.34 345.50,132.56 346.32,117.33 347.13,113.92 347.94,106.36 348.75,202.99 349.57,208.75 350.38,192.96 351.19,117.94 352.00,135.26 352.82,106.26 353.63,132.57 354.44,192.71 355.25,130.92 356.07,103.14 356.88,117.67 357.69,119.47 358.51,142.32 359.32,171.90 360.13,127.51 360.94,150.56 361.76,128.56 362.57,153.70 363.38,161.35 364.19,104.98 365.01,148.47 365.82,143.55 366.63,122.05 367.44,154.43 368.26,133.71 369.07,153.29 369.88,113.13 370.70,155.57 371.51,117.04 372.32,123.65 373.13,104.24 373.95,165.50 374.76,115.95 375.57,126.41 376.38,142.97 377.20,131.31 378.01,155.71 378.82,128.24 379.63,134.32 380.45,131.18 381.26,176.98 382.07,103.91 382.89,134.19 383.70,97.30 384.51,111.41 385.32,136.59 386.14,107.88 386.95,102.53 387.76,116.20 388.57,101.49 389.39,106.07 390.20,71.46 391.01,153.98 391.82,120.19 392.64,92.62 393.45,148.87 394.26,114.88 395.08,158.81 395.89,161.55 396.70,160.35 397.51,145.48 398.33,207.27 399.14,88.38 399.95,107.79 400.76,141.85 401.58,178.37 402.39,125.67 403.20,109.64 404.01,164.20 404.83,109.06 405.64,120.23 406.45,54.25 407.27,88.85 408.08,78.12 408.89,87.17 409.70,100.69 410.52,61.21 411.33,73.80 412.14,63.63 412.95,45.63 413.77,66.08 414.58,59.66 415.39,88.91 416.21,72.59 417.02,93.04 417.83,68.06 418.64,75.88 419.46,81.79 420.27,48.72 421.08,70.14 421.89,72.72 422.71,82.85 423.52,54.55 424.33,80.57 425.14,104.13 425.96,82.08 426.77,68.42 427.58,81.48 428.40,127.60 429.21,67.93 430.02,81.08 430.83,87.64 431.65,90.26 432.46,126.93 433.27,101.95 434.08,117.25 434.90,66.71 435.71,107.79 436.52,79.54 437.33,79.17 438.15,61.51 438.96,69.05 439.77,84.17 440.59,114.98 441.40,93.60 442.21,76.55 443.02,93.31 443.84,66.91 444.65,73.49 445.46,67.81 446.27,80.60 447.09,64.87 447.90,75.38 448.71,52.80 449.52,54.00 450.34,70.05 451.15,99.90 451.96,91.35 452.78,124.09 453.59,59.74 454.40,73.99 455.21,132.91 456.03,150.74 456.84,97.53 457.65,81.17 458.46,88.28 459.28,83.83 460.09,65.27 460.90,84.97 461.71,104.01 462.53,50.13 463.34,48.82 464.15,62.01 464.97,62.57 465.78,62.13 466.59,57.67 467.40,59.67 468.22,44.00 469.03,48.71 469.84,44.00 470.65,44.00 471.47,44.00 472.28,44.00 473.09,44.00 473.90,56.71 474.72,64.85 475.53,63.55 476.34,57.98 477.16,67.35 477.97,84.58 478.78,58.20 479.59,64.68 480.41,56.29 481.22,46.63 482.03,62.36 482.84,55.19 483.66,61.99 484.47,62.62 485.28,58.17 486.10,49.85 486.91,44.00 487.72,54.43 488.53,56.26 489.35,45.17 490.16,51.93 490.97,44.00 491.78,46.56 492.60,54.48 493.41,51.20 494.22,44.00 495.03,56.52 495.85,49.14 496.66,51.24 497.47,57.04 498.29,51.99 499.10,54.89 499.91,62.02 500.72,53.21 501.54,65.63 502.35,50.74 503.16,60.15 503.97,59.02 504.79,45.08 505.60,85.65 506.41,83.92 507.22,82.20 508.04,78.94 508.85,84.62 509.66,76.42 510.48,104.26 511.29,65.79 512.10,85.43 512.91,71.60 513.73,77.65 514.54,74.95 515.35,80.32 516.16,70.58 516.98,80.46 517.79,69.80 518.60,83.97 519.41,84.61 520.23,61.97 521.04,88.95 521.85,100.85 522.67,86.70 523.48,77.39 524.29,111.94 525.10,105.97 525.92,72.59 526.73,72.47 527.54,84.98 528.35,81.15 529.17,79.54 529.98,70.93 530.79,114.11 531.60,89.86 532.42,97.44 533.23,93.78 534.04,80.27 534.86,107.22 535.67,108.76 536.48,94.09 537.29,89.09 538.11,90.11 538.92,84.28 539.73,85.33 540.54,86.43 541.36,112.51 542.17,98.05 542.98,94.50 543.79,109.72 544.61,93.17 545.42,96.23 546.23,95.08 547.05,81.71 547.86,90.76 548.67,77.01 549.48,75.30 550.30,86.67 551.11,99.06 551.92,70.93 552.73,84.92 553.55,94.93 554.36,118.75 555.17,104.76 555.99,103.76 556.80,104.90 557.61,107.81 558.42,115.37 559.24,100.60 560.05,188.13 560.86,187.59 561.67,276.00 562.49,276.00 563.30,176.51 564.11,171.92 564.92,222.99 565.74,148.61 566.55,139.32 567.36,187.88 568.18,122.14 568.99,131.49 569.80,121.58 570.61,194.08 571.43,169.14 572.24,170.51 573.05,135.69 573.86,173.01 574.68,178.62 575.49,182.15 576.30,130.78 577.11,177.29 577.93,143.25 578.74,134.97 579.55,213.80 580.37,200.82 581.18,258.71 581.99,206.79 582.80,171.08 583.62,144.08 584.43,116.00 585.24,124.31 586.05,135.91 586.87,127.65 587.68,99.59 588.49,112.23 589.30,118.89 590.12,182.86 590.93,166.52 591.74,149.75 592.56,110.90 593.37,79.03 594.18,85.85 594.99,131.61 595.81,106.55 596.62,108.86 597.43,146.90 598.24,165.01 599.06,148.62 599.87,115.09 600.68,111.68 601.49,142.30 602.31,148.94 603.12,125.23 603.93,131.14 604.75,142.72 605.56,172.95 606.37,174.28 607.18,177.53 608.00,233.01 608.81,276.00 609.62,216.24 610.43,169.77 611.25,187.24 612.06,179.66 612.87,261.91 613.68,265.34 614.50,276.00 615.31,259.25 616.12,276.00 616.94,260.28 617.75,276.00 618.56,268.88 619.37,257.04 620.19,276.00 621.00,251.09 621.81,276.00 622.62,272.49 623.44,276.00 624.25,191.85 625.06,198.36 625.88,174.24 626.69,187.77 627.50,135.92 628.31,136.37 629.13,150.22 629.94,155.76 630.75,140.88 631.56,133.82 632.38,147.02 633.19,156.08 634.00,119.34 634.81,133.52 635.63,125.16 636.44,136.17 637.25,104.04 638.07,123.45 638.88,182.32 639.69,181.34 640.50,145.31 641.32,164.84 642.13,115.89 642.94,93.08 643.75,95.91 644.57,117.05 645.38,98.46 646.19,151.93 647.00,150.19 647.82,110.44 648.63,82.66 649.44,169.03 650.26,79.86 651.07,111.97 651.88,156.92 652.69,160.18 653.51,156.40 654.32,124.11 655.13,85.53 655.94,108.69 656.76,53.02 657.57,86.90 658.38,101.17 659.19,93.39 660.01,88.47 660.82,92.01 661.63,75.28 662.45,91.66 663.26,91.03 664.07,80.46 664.88,88.18 665.70,87.58 666.51,82.68 667.32,81.75 668.13,100.63 668.95,70.57 669.76,95.99 670.57,79.46 671.38,92.25 672.20,85.79 673.01,62.88 673.82,90.60 674.64,105.80 675.45,98.61 676.26,108.89 677.07,79.85 677.89,100.47 678.70,70.28 679.51,118.93 680.32,166.54 681.14,108.60 681.95,85.89 682.76,116.70 683.58,145.43 684.39,121.08 685.20,141.63 686.01,141.32 686.83,145.23 687.64,140.43 688.45,127.41 689.26,101.62 690.08,77.69 690.89,101.24 691.70,127.85 692.51,91.18 693.33,117.33 694.14,97.73 694.95,89.99 695.77,77.48 696.58,68.37 697.39,59.19 698.20,78.68 699.02,59.29 699.83,90.46 700.64,71.98 701.45,67.62 702.27,134.73 703.08,95.12 703.89,130.07 704.70,116.11 705.52,140.32 706.33,141.20 707.14,130.54 707.96,107.15 708.77,140.05 709.58,180.99 710.39,135.21 711.21,171.02 712.02,156.87 712.83,181.02 713.64,116.88 714.46,240.56 715.27,146.14 716.08,139.46 716.89,116.88 717.71,159.46 718.52,136.24 719.33,163.13 720.15,104.13 720.96,78.68 721.77,86.32 722.58,107.96 723.40,72.04 724.21,77.76 725.02,138.03 725.83,77.30 726.65,117.28 727.46,68.18 728.27,79.82 729.08,77.35 729.90,67.85 730.71,62.00 731.52,69.42 732.34,72.24 733.15,75.88 733.96,85.37 734.77,66.54 735.59,82.85 736.40,61.78 737.21,60.32 738.02,61.90 738.84,60.47 739.65,58.64 740.46,54.24 741.27,52.14 742.09,52.12 742.90,46.44 743.71,53.08 744.53,64.60 745.34,58.87 746.15,47.77 746.96,57.53 747.78,53.43 748.59,58.17 749.40,129.46 750.21,47.49 751.03,67.53 751.84,57.30 752.65,78.89 753.47,88.17 754.28,70.91 755.09,169.87 755.90,197.11 756.72,78.71 757.53,54.07 758.34,45.52 759.15,44.00 759.97,60.81 760.78,91.74 761.59,44.00 762.40,44.00 763.22,44.00 764.03,60.94 764.84,44.00 765.66,44.00 766.47,44.00 767.28,55.17 768.09,57.02 768.91,54.20 769.72,47.03 770.53,44.39 771.34,51.63 772.16,56.22 772.97,44.00 773.78,53.42 774.59,44.00 775.41,46.68 776.22,67.84 777.03,71.70 777.85,73.68 778.66,55.80 779.47,63.85 780.28,68.34 781.10,53.38 781.91,91.46 782.72,85.18 783.53,91.45 784.35,93.00 785.16,152.59 785.97,111.83 786.78,100.65 787.60,145.19 788.41,191.98 789.22,199.23 790.04,143.54 790.85,216.82 791.66,209.68 792.47,276.00 793.29,250.60 794.10,276.00 794.91,276.00 795.72,276.00 796.54,276.00 797.35,276.00 798.16,276.00 798.97,276.00 799.79,276.00 800.60,200.16 801.41,220.98 802.23,231.56 803.04,156.75 803.85,238.02 804.66,195.66 805.48,179.05 806.29,186.69 807.10,195.89 807.91,224.17 808.73,276.00 809.54,276.00 810.35,276.00 811.16,276.00 811.98,251.97 812.79,256.49 813.60,276.00 814.42,276.00 815.23,276.00 816.04,208.84 816.85,276.00 817.67,210.79 818.48,202.81 819.29,176.58 820.10,183.73 820.92,198.77 821.73,225.85 822.54,192.24 823.36,249.69 824.17,216.51 824.98,276.00 825.79,276.00 826.61,276.00 827.42,276.00 828.23,276.00 829.04,276.00 829.86,276.00 830.67,276.00 831.48,276.00 832.29,276.00 833.11,276.00 833.92,276.00 834.73,276.00 835.55,276.00 836.36,276.00 837.17,276.00 837.98,224.07 838.80,225.84 839.61,223.11 840.42,192.60 841.23,269.06 842.05,181.75 842.86,214.65 843.67,211.77 844.48,166.84 845.30,238.97 846.11,132.18 846.92,132.24 847.74,110.07 848.55,134.42 849.36,108.78 850.17,92.49 850.99,91.51 851.80,107.67 852.61,74.64 853.42,92.58 854.24,73.93 855.05,101.27 855.86,69.35 856.67,76.15 857.49,93.21 858.30,99.63 859.11,99.88 859.93,78.75 860.74,80.54 861.55,91.76 862.36,106.58 863.18,79.44 863.99,115.82 864.80,144.20 865.61,113.32 866.43,122.40 867.24,129.03 868.05,153.51 868.86,180.75 869.68,245.57 870.49,276.00 871.30,119.44 872.12,100.57 872.93,126.41 873.74,106.29 874.55,109.88 875.37,115.46 876.18,114.18 876.99,78.62 877.80,104.38 878.62,94.73 879.43,110.83 880.24,109.80 881.05,102.89 881.87,213.39 882.68,114.66 883.49,89.45 884.31,81.90 885.12,147.64 885.93,133.19 886.74,97.96 887.56,106.11 888.37,99.45 889.18,70.85 889.99,81.92 890.81,65.37 891.62,57.09 892.43,84.63 893.25,66.74 894.06,52.57 894.87,52.27 895.68,68.07 896.50,65.39 897.31,48.85 898.12,62.66 898.93,60.73 899.75,57.73 900.56,50.20 901.37,61.31 902.18,64.34 903.00,66.95 903.81,56.80 904.62,67.70 905.44,67.63 906.25,89.95 907.06,92.36 907.87,69.10 908.69,59.05 909.50,65.42 910.31,68.25 911.12,59.46 911.94,62.26 912.75,59.38 913.56,67.71 914.37,60.19 915.19,56.71 916.00,63.97" fill="none" stroke="#145c9e" stroke-width="2.2"/>
  <text x="44" y="24" font-family="monospace" font-size="15" fill="#222">seatbelt.both.hang.zhangyu.20260205.batch.1 ep 000002</text>
  <text x="696" y="24" font-family="monospace" font-size="13" fill="#145c9e">bc_precision_score</text>
  <text x="696" y="44" font-family="monospace" font-size="12" fill="#a23b3b">precision threshold</text>
</svg>
