<svg xmlns="http://www.w3.org/2000/svg" width="960" height="320" viewBox="0 0 960 320">
  <rect width="100%" height="100%" fill="#fffaf0"/>
  
  <line x1="44" y1="276" x2="916" y2="276" stroke="#333" stroke-width="1"/>
  <line x1="44" y1="44" x2="44" y2="276" stroke="#333" stroke-width="1"/>
  <line x1="44" y1="67.81" x2="916" y2="67.81" stroke="#a23b3b" stroke-width="1.5" stroke-dasharray="6 6"/>
  <polyline points="44.00,45.83 44.85,44.00 45.71,44.00 46.56,44.00 47.41,44.00 48.27,45.01 49.12,48.41 49.97,46.85 50.83,48.64 51.68,48.30 52.53,44.00 53.39,44.00 54.24,45.51 55.09,44.13 55.95,50.00 56.80,46.23 57.65,45.16 58.50,44.00 59.36,44.00 60.21,66.17 61.06,91.62 61.92,92.41 62.77,69.45 63.62,84.35 64.48,102.71 65.33,142.09 66.18,129.59 67.04,112.25 67.89,174.17 68.74,204.00 69.60,151.59 70.45,99.67 71.30,102.04 72.16,139.13 73.01,124.95 73.86,118.51 74.72,141.54 75.57,235.95 76.42,209.57 77.28,210.57 78.13,194.95 78.98,276.00 79.84,229.60 80.69,210.59 81.54,276.00 82.40,212.82 83.25,276.00 84.10,203.60 84.95,189.33 85.81,205.05 86.66,276.00 87.51,276.00 88.37,276.00 89.22,198.52 90.07,186.71 90.93,200.34 91.78,193.01 92.63,204.61 93.49,226.00 94.34,188.32 95.19,257.05 96.05,276.00 96.90,247.43 97.75,276.00 98.61,268.38 99.46,260.73 100.31,250.93 101.17,223.41 102.02,255.85 102.87,276.00 103.73,275.61 104.58,272.77 105.43,179.61 106.29,180.06 107.14,166.84 107.99,196.44 108.85,272.92 109.70,220.79 110.55,202.20 111.41,219.80 112.26,194.71 113.11,234.19 113.96,171.21 114.82,163.17 115.67,223.46 116.52,225.34 117.38,152.14 118.23,166.37 119.08,276.00 119.94,276.00 120.79,275.73 121.64,276.00 122.50,250.93 123.35,137.52 124.20,133.74 125.06,89.91 125.91,131.39 126.76,110.06 127.62,98.02 128.47,132.13 129.32,127.78 130.18,167.15 131.03,127.83 131.88,134.89 132.74,138.87 133.59,133.15 134.44,123.27 135.30,125.26 136.15,126.32 137.00,89.38 137.86,121.07 138.71,131.85 139.56,213.79 140.41,268.65 141.27,216.03 142.12,207.57 142.97,142.09 143.83,141.33 144.68,130.24 145.53,179.20 146.39,119.03 147.24,130.91 148.09,127.83 148.95,179.88 149.80,134.38 150.65,119.57 151.51,143.46 152.36,161.97 153.21,153.56 154.07,163.25 154.92,122.62 155.77,154.12 156.63,129.89 157.48,135.63 158.33,150.37 159.19,133.02 160.04,131.17 160.89,133.68 161.75,110.77 162.60,114.06 163.45,134.68 164.31,117.18 165.16,185.20 166.01,148.58 166.86,125.63 167.72,99.52 168.57,97.95 169.42,121.25 170.28,134.38 171.13,130.22 171.98,212.28 172.84,147.80 173.69,129.18 174.54,125.98 175.40,99.40 176.25,106.79 177.10,138.26 177.96,127.29 178.81,117.68 179.66,116.19 180.52,151.46 181.37,122.99 182.22,136.81 183.08,141.10 183.93,140.13 184.78,161.40 185.64,170.38 186.49,155.64 187.34,136.02 188.20,151.09 189.05,159.97 189.90,162.30 190.76,199.18 191.61,213.02 192.46,200.05 193.32,182.29 194.17,193.52 195.02,248.50 195.87,228.65 196.73,250.72 197.58,229.62 198.43,200.21 199.29,227.60 200.14,191.59 200.99,188.66 201.85,146.68 202.70,276.00 203.55,276.00 204.41,181.31 205.26,164.04 206.11,167.26 206.97,221.27 207.82,270.93 208.67,231.39 209.53,188.24 210.38,172.44 211.23,196.32 212.09,228.73 212.94,174.57 213.79,208.74 214.65,159.79 215.50,189.53 216.35,149.64 217.21,171.14 218.06,160.09 218.91,199.54 219.77,185.59 220.62,167.03 221.47,245.82 222.32,261.66 223.18,184.89 224.03,139.75 224.88,199.74 225.74,209.46 226.59,205.89 227.44,272.07 228.30,276.00 229.15,276.00 230.00,276.00 230.86,264.88 231.71,212.97 232.56,276.00 233.42,256.35 234.27,276.00 235.12,264.11 235.98,276.00 236.83,219.38 237.68,234.67 238.54,202.63 239.39,276.00 240.24,199.45 241.10,276.00 241.95,234.65 242.80,255.81 243.66,276.00 244.51,276.00 245.36,228.66 246.22,266.17 247.07,196.40 247.92,276.00 248.77,237.99 249.63,276.00 250.48,276.00 251.33,276.00 252.19,276.00 253.04,276.00 253.89,276.00 254.75,276.00 255.60,276.00 256.45,276.00 257.31,276.00 258.16,276.00 259.01,238.22 259.87,276.00 260.72,185.24 261.57,267.26 262.43,171.71 263.28,235.62 264.13,204.38 264.99,227.40 265.84,198.38 266.69,276.00 267.55,276.00 268.40,276.00 269.25,217.76 270.11,201.71 270.96,186.89 271.81,118.23 272.67,155.32 273.52,276.00 274.37,276.00 275.23,276.00 276.08,168.43 276.93,191.05 277.78,148.33 278.64,166.80 279.49,149.48 280.34,191.00 281.20,148.52 282.05,210.47 282.90,276.00 283.76,276.00 284.61,276.00 285.46,276.00 286.32,276.00 287.17,272.25 288.02,276.00 288.88,242.72 289.73,214.75 290.58,267.24 291.44,194.55 292.29,276.00 293.14,272.31 294.00,276.00 294.85,276.00 295.70,241.46 296.56,276.00 297.41,276.00 298.26,260.98 299.12,254.80 299.97,276.00 300.82,273.92 301.68,276.00 302.53,276.00 303.38,255.81 304.23,276.00 305.09,263.55 305.94,276.00 306.79,276.00 307.65,276.00 308.50,213.30 309.35,196.17 310.21,272.87 311.06,231.10 311.91,216.35 312.77,213.14 313.62,159.36 314.47,143.71 315.33,148.32 316.18,147.00 317.03,111.63 317.89,122.22 318.74,117.54 319.59,118.97 320.45,133.60 321.30,127.92 322.15,137.40 323.01,136.32 323.86,124.49 324.71,116.20 325.57,109.93 326.42,117.58 327.27,125.64 328.13,138.13 328.98,148.12 329.83,206.94 330.68,152.17 331.54,146.95 332.39,155.63 333.24,127.19 334.10,128.39 334.95,135.83 335.80,118.53 336.66,137.43 337.51,151.73 338.36,128.45 339.22,215.03 340.07,175.33 340.92,150.12 341.78,176.97 342.63,155.72 343.48,175.25 344.34,159.70 345.19,148.52 346.04,148.01 346.90,134.13 347.75,122.68 348.60,150.18 349.46,140.26 350.31,133.96 351.16,151.03 352.02,188.84 352.87,163.70 353.72,134.36 354.58,148.69 355.43,133.42 356.28,118.67 357.14,170.17 357.99,200.12 358.84,268.97 359.69,230.73 360.55,276.00 361.40,276.00 362.25,273.88 363.11,276.00 363.96,244.28 364.81,276.00 365.67,241.81 366.52,199.17 367.37,209.29 368.23,164.63 369.08,193.23 369.93,200.30 370.79,206.95 371.64,226.71 372.49,242.59 373.35,275.76 374.20,184.67 375.05,228.86 375.91,218.91 376.76,137.12 377.61,93.06 378.47,131.41 379.32,123.42 380.17,104.19 381.03,95.91 381.88,139.69 382.73,133.59 383.59,122.70 384.44,181.27 385.29,157.95 386.14,148.03 387.00,215.28 387.85,206.27 388.70,129.05 389.56,105.30 390.41,159.73 391.26,131.52 392.12,120.73 392.97,144.18 393.82,229.25 394.68,138.43 395.53,144.71 396.38,165.73 397.24,118.33 398.09,185.91 398.94,153.63 399.80,117.95 400.65,126.49 401.50,149.68 402.36,226.74 403.21,158.52 404.06,220.92 404.92,175.37 405.77,164.06 406.62,174.89 407.48,223.24 408.33,187.18 409.18,276.00 410.04,206.60 410.89,128.23 411.74,208.02 412.59,139.29 413.45,193.77 414.30,198.50 415.15,143.98 416.01,184.30 416.86,165.09 417.71,168.61 418.57,139.97 419.42,276.00 420.27,161.83 421.13,161.98 421.98,140.85 422.83,85.14 423.69,80.59 424.54,123.36 425.39,83.80 426.25,93.92 427.10,91.58 427.95,130.65 428.81,172.67 429.66,177.34 430.51,133.71 431.37,97.37 432.22,96.17 433.07,77.11 433.93,91.16 434.78,103.65 435.63,106.65 436.49,76.98 437.34,82.62 438.19,78.14 439.05,80.50 439.90,72.31 440.75,78.01 441.60,87.96 442.46,82.07 443.31,66.41 444.16,92.91 445.02,89.33 445.87,97.95 446.72,98.73 447.58,87.26 448.43,79.02 449.28,83.21 450.14,92.96 450.99,105.09 451.84,102.41 452.70,105.91 453.55,88.24 454.40,84.24 455.26,104.76 456.11,99.22 456.96,93.12 457.82,83.04 458.67,91.65 459.52,89.91 460.38,94.31 461.23,81.26 462.08,120.22 462.94,95.61 463.79,120.49 464.64,124.48 465.50,168.10 466.35,121.03 467.20,150.95 468.05,122.53 468.91,122.76 469.76,104.80 470.61,120.92 471.47,217.45 472.32,112.51 473.17,121.51 474.03,111.67 474.88,129.75 475.73,135.17 476.59,144.18 477.44,156.14 478.29,201.02 479.15,105.66 480.00,152.82 480.85,133.92 481.71,128.28 482.56,102.41 483.41,129.69 484.27,111.83 485.12,107.32 485.97,125.24 486.83,123.68 487.68,134.37 488.53,123.67 489.39,147.52 490.24,180.93 491.09,161.95 491.95,186.37 492.80,214.23 493.65,252.98 494.50,228.63 495.36,274.93 496.21,276.00 497.06,252.74 497.92,237.74 498.77,276.00 499.62,138.54 500.48,149.21 501.33,152.47 502.18,121.48 503.04,164.26 503.89,137.58 504.74,175.49 505.60,276.00 506.45,272.79 507.30,255.71 508.16,211.00 509.01,218.21 509.86,148.23 510.72,108.94 511.57,93.84 512.42,102.84 513.28,129.08 514.13,143.43 514.98,125.65 515.84,174.50 516.69,158.30 517.54,175.23 518.40,183.06 519.25,127.82 520.10,132.40 520.95,158.85 521.81,123.83 522.66,141.83 523.51,162.17 524.37,157.24 525.22,122.13 526.07,152.14 526.93,174.90 527.78,119.20 528.63,94.58 529.49,142.30 530.34,151.28 531.19,155.05 532.05,168.97 532.90,124.02 533.75,136.73 534.61,119.85 535.46,120.91 536.31,193.23 537.17,265.39 538.02,196.57 538.87,217.33 539.73,175.82 540.58,189.31 541.43,177.62 542.29,136.43 543.14,155.60 543.99,157.65 544.85,137.71 545.70,187.23 546.55,199.29 547.41,189.44 548.26,169.56 549.11,266.91 549.96,207.84 550.82,276.00 551.67,258.54 552.52,208.74 553.38,219.15 554.23,146.45 555.08,173.26 555.94,236.62 556.79,248.93 557.64,276.00 558.50,237.97 559.35,276.00 560.20,247.82 561.06,276.00 561.91,204.60 562.76,250.43 563.62,154.15 564.47,195.88 565.32,182.51 566.18,205.17 567.03,223.07 567.88,199.34 568.74,216.78 569.59,230.21 570.44,159.47 571.30,168.36 572.15,166.85 573.00,152.35 573.86,153.26 574.71,131.48 575.56,121.38 576.41,165.09 577.27,160.45 578.12,133.76 578.97,123.08 579.83,114.82 580.68,175.60 581.53,162.29 582.39,206.67 583.24,261.27 584.09,182.53 584.95,190.82 585.80,164.33 586.65,155.46 587.51,155.27 588.36,148.23 589.21,229.09 590.07,160.25 590.92,136.77 591.77,122.89 592.63,116.97 593.48,114.30 594.33,122.71 595.19,112.61 596.04,147.97 596.89,132.40 597.75,125.02 598.60,108.76 599.45,96.81 600.31,107.50 601.16,102.10 602.01,116.64 602.86,118.72 603.72,82.79 604.57,91.70 605.42,95.19 606.28,127.59 607.13,107.28 607.98,168.32 608.84,133.83 609.69,88.91 610.54,110.59 611.40,96.58 612.25,97.95 613.10,103.65 613.96,119.53 614.81,115.85 615.66,91.63 616.52,91.60 617.37,135.86 618.22,117.35 619.08,120.37 619.93,113.20 620.78,114.59 621.64,112.93 622.49,114.95 623.34,119.81 624.20,133.21 625.05,131.50 625.90,130.79 626.76,147.00 627.61,164.60 628.46,148.31 629.32,208.46 630.17,276.00 631.02,214.00 631.87,153.73 632.73,153.94 633.58,155.89 634.43,234.62 635.29,235.49 636.14,187.05 636.99,179.29 637.85,122.85 638.70,209.06 639.55,252.36 640.41,220.68 641.26,247.09 642.11,276.00 642.97,152.88 643.82,134.46 644.67,161.79 645.53,132.34 646.38,154.88 647.23,154.00 648.09,137.65 648.94,139.89 649.79,171.05 650.65,110.96 651.50,142.09 652.35,141.19 653.21,129.33 654.06,143.55 654.91,125.54 655.77,111.53 656.62,104.18 657.47,134.87 658.32,106.49 659.18,91.23 660.03,97.53 660.88,118.11 661.74,105.15 662.59,94.32 663.44,124.83 664.30,114.67 665.15,91.70 666.00,94.05 666.86,102.43 667.71,91.26 668.56,130.48 669.42,115.95 670.27,100.24 671.12,110.88 671.98,106.41 672.83,112.99 673.68,104.98 674.54,78.71 675.39,97.02 676.24,73.21 677.10,88.79 677.95,71.73 678.80,70.41 679.66,65.28 680.51,72.56 681.36,73.51 682.22,63.30 683.07,74.40 683.92,64.87 684.77,69.99 685.63,63.04 686.48,64.96 687.33,70.95 688.19,60.51 689.04,89.36 689.89,99.90 690.75,70.44 691.60,72.80 692.45,81.60 693.31,73.07 694.16,61.80 695.01,66.41 695.87,62.57 696.72,72.51 697.57,74.71 698.43,97.78 699.28,97.53 700.13,99.74 700.99,78.79 701.84,105.27 702.69,127.29 703.55,94.79 704.40,79.88 705.25,81.32 706.11,118.30 706.96,85.79 707.81,100.67 708.67,98.48 709.52,78.82 710.37,102.04 711.23,133.79 712.08,105.86 712.93,147.74 713.78,152.94 714.64,106.08 715.49,137.40 716.34,184.31 717.20,197.66 718.05,134.49 718.90,264.85 719.76,276.00 720.61,246.23 721.46,276.00 722.32,276.00 723.17,276.00 724.02,180.59 724.88,230.06 725.73,207.11 726.58,270.84 727.44,235.76 728.29,233.69 729.14,257.11 730.00,208.69 730.85,237.39 731.70,202.44 732.56,242.42 733.41,224.17 734.26,234.64 735.12,251.87 735.97,264.50 736.82,276.00 737.68,276.00 738.53,202.49 739.38,191.22 740.23,226.73 741.09,187.15 741.94,204.40 742.79,160.80 743.65,196.41 744.50,237.33 745.35,200.34 746.21,243.94 747.06,206.09 747.91,169.95 748.77,229.73 749.62,160.78 750.47,235.36 751.33,168.40 752.18,204.94 753.03,246.94 753.89,212.46 754.74,177.06 755.59,218.17 756.45,243.72 757.30,276.00 758.15,208.66 759.01,225.78 759.86,276.00 760.71,171.04 761.57,238.90 762.42,208.94 763.27,217.22 764.13,276.00 764.98,207.99 765.83,249.65 766.68,276.00 767.54,270.71 768.39,276.00 769.24,276.00 770.10,276.00 770.95,276.00 771.80,270.14 772.66,276.00 773.51,276.00 774.36,276.00 775.22,276.00 776.07,276.00 776.92,276.00 777.78,276.00 778.63,276.00 779.48,276.00 780.34,276.00 781.19,276.00 782.04,276.00 782.90,276.00 783.75,276.00 784.60,276.00 785.46,276.00 786.31,266.97 787.16,243.63 788.02,245.98 788.87,254.96 789.72,254.08 790.58,260.19 791.43,238.31 792.28,245.59 793.14,183.94 793.99,262.30 794.84,237.22 795.69,241.54 796.55,229.49 797.40,174.79 798.25,138.34 799.11,155.77 799.96,161.70 800.81,149.09 801.67,100.07 802.52,103.88 803.37,115.21 804.23,107.04 805.08,100.29 805.93,102.76 806.79,125.45 807.64,124.45 808.49,166.49 809.35,151.02 810.20,119.17 811.05,121.64 811.91,143.66 812.76,169.38 813.61,116.12 814.47,146.86 815.32,125.88 816.17,114.44 817.03,144.97 817.88,223.53 818.73,174.41 819.59,142.31 820.44,214.77 821.29,153.22 822.14,142.10 823.00,170.55 823.85,172.53 824.70,203.45 825.56,193.10 826.41,156.32 827.26,157.90 828.12,182.17 828.97,157.11 829.82,169.16 830.68,166.09 831.53,160.89 832.38,164.55 833.24,130.65 834.09,168.11 834.94,145.23 835.80,150.00 836.65,170.20 837.50,193.45 838.36,253.92 839.21,214.86 840.06,223.93 840.92,256.88 841.77,240.92 842.62,206.03 843.48,237.78 844.33,225.29 845.18,233.82 846.04,235.32 846.89,214.82 847.74,227.20 848.59,276.00 849.45,254.66 850.30,276.00 851.15,275.90 852.01,276.00 852.86,227.50 853.71,228.45 854.57,166.21 855.42,176.69 856.27,121.23 857.13,142.54 857.98,99.38 858.83,78.55 859.69,133.35 860.54,213.68 861.39,93.76 862.25,97.86 863.10,84.79 863.95,98.25 864.81,100.95 865.66,85.99 866.51,107.99 867.37,140.06 868.22,72.65 869.07,79.18 869.93,90.54 870.78,102.39 871.63,77.34 872.49,153.56 873.34,152.30 874.19,213.44 875.05,188.94 875.90,121.85 876.75,72.45 877.60,63.66 878.46,61.91 879.31,58.93 880.16,68.87 881.02,58.31 881.87,63.43 882.72,68.73 883.58,67.72 884.43,66.47 885.28,54.58 886.14,76.25 886.99,68.94 887.84,84.89 888.70,57.37 889.55,63.44 890.40,77.67 891.26,56.04 892.11,74.47 892.96,66.69 893.82,71.52 894.67,62.07 895.52,72.08 896.38,59.92 897.23,69.73 898.08,62.48 898.94,65.20 899.79,66.77 900.64,69.07 901.50,64.88 902.35,60.94 903.20,71.51 904.05,72.37 904.91,58.52 905.76,60.70 906.61,60.46 907.47,63.86 908.32,62.63 909.17,60.95 910.03,68.65 910.88,72.04 911.73,65.13 912.59,66.30 913.44,58.89 914.29,67.88 915.15,60.68 916.00,60.44" fill="none" stroke="#145c9e" stroke-width="2.2"/>
  <text x="44" y="24" font-family="monospace" font-size="15" fill="#222">seatbelt.both.hang.zhangyu.20260205.batch.1 ep 000004</text>
  <text x="696" y="24" font-family="monospace" font-size="13" fill="#145c9e">bc_precision_score</text>
  <text x="696" y="44" font-family="monospace" font-size="12" fill="#a23b3b">precision threshold</text>
</svg>
