<svg xmlns="http://www.w3.org/2000/svg" width="960" height="320" viewBox="0 0 960 320">
  <rect width="100%" height="100%" fill="#fffaf0"/>
  <rect x="395.19" y="44" width="73.31" height="232" fill="#f3c565" opacity="0.24"/> <rect x="646.64" y="44" width="87.80" height="232" fill="#f3c565" opacity="0.24"/>
  <line x1="44" y1="276" x2="916" y2="276" stroke="#333" stroke-width="1"/>
  <line x1="44" y1="44" x2="44" y2="276" stroke="#333" stroke-width="1"/>
  <line x1="44" y1="83.41" x2="916" y2="83.41" stroke="#a23b3b" stroke-width="1.5" stroke-dasharray="6 6"/>
  <polyline points="44.00,242.12 44.85,241.05 45.71,238.75 46.56,235.84 47.41,232.99 48.27,234.20 49.12,236.11 49.97,232.98 50.83,232.09 51.68,231.75 52.53,227.45 53.39,226.90 54.24,227.00 55.09,224.56 55.95,223.85 56.80,222.95 57.65,221.45 58.50,220.91 59.36,214.24 60.21,209.53 61.06,206.76 61.92,202.37 62.77,192.12 63.62,187.06 64.48,181.77 65.33,176.73 66.18,168.07 67.04,167.89 67.89,157.35 68.74,152.34 69.60,148.57 70.45,144.64 71.30,136.58 72.16,133.46 73.01,126.47 73.86,123.41 74.72,122.86 75.57,119.21 76.42,115.09 77.28,115.47 78.13,107.84 78.98,105.13 79.84,100.39 80.69,97.34 81.54,95.75 82.40,94.22 83.25,92.41 84.10,90.65 84.95,87.72 85.81,88.73 86.66,88.40 87.51,85.40 88.37,84.02 89.22,80.76 90.07,78.76 90.93,79.63 91.78,78.55 92.63,80.42 93.49,80.06 94.34,83.16 95.19,85.73 96.05,85.44 96.90,89.73 97.75,88.59 98.61,87.13 99.46,87.85 100.31,89.57 101.17,88.89 102.02,90.96 102.87,92.54 103.73,92.65 104.58,93.85 105.43,94.07 106.29,95.57 107.14,95.04 107.99,95.85 108.85,94.88 109.70,97.43 110.55,98.37 111.41,99.43 112.26,102.63 113.11,105.73 113.96,106.12 114.82,105.76 115.67,111.63 116.52,110.76 117.38,111.18 118.23,111.95 119.08,113.16 119.94,112.68 120.79,115.56 121.64,116.12 122.50,118.18 123.35,117.11 124.20,116.40 125.06,116.28 125.91,116.84 126.76,117.07 127.62,118.01 128.47,120.07 129.32,121.12 130.18,115.14 131.03,117.09 131.88,119.53 132.74,123.49 133.59,129.37 134.44,135.00 135.30,134.79 136.15,135.21 137.00,136.78 137.86,139.97 138.71,140.70 139.56,142.36 140.41,139.50 141.27,144.39 142.12,144.21 142.97,143.81 143.83,144.61 144.68,144.51 145.53,150.28 146.39,154.88 147.24,155.14 148.09,149.43 148.95,150.28 149.80,151.16 150.65,152.00 151.51,152.37 152.36,152.13 153.21,150.81 154.07,151.27 154.92,152.30 155.77,148.34 156.63,151.97 157.48,155.31 158.33,155.91 159.19,162.56 160.04,157.98 160.89,153.81 161.75,154.47 162.60,156.01 163.45,155.50 164.31,155.58 165.16,156.74 166.01,156.71 166.86,156.73 167.72,160.17 168.57,162.53 169.42,162.47 170.28,167.00 171.13,166.04 171.98,164.89 172.84,164.70 173.69,169.34 174.54,173.46 175.40,174.00 176.25,173.36 177.10,178.15 177.96,177.36 178.81,176.78 179.66,177.31 180.52,177.56 181.37,179.52 182.22,178.93 183.08,177.06 183.93,180.00 184.78,179.79 185.64,179.43 186.49,181.67 187.34,181.82 188.20,179.14 189.05,181.02 189.90,183.32 190.76,183.81 191.61,183.38 192.46,183.17 193.32,181.75 194.17,183.80 195.02,188.43 195.87,187.73 196.73,188.61 197.58,189.37 198.43,191.99 199.29,191.53 200.14,191.41 200.99,191.89 201.85,192.00 202.70,187.59 203.55,184.61 204.41,183.65 205.26,182.03 206.11,179.27 206.97,179.17 207.82,183.35 208.67,181.38 209.53,179.31 210.38,181.74 211.23,180.05 212.09,177.84 212.94,175.82 213.79,172.37 214.65,174.25 215.50,169.26 216.35,170.57 217.21,172.94 218.06,172.93 218.91,176.78 219.77,179.58 220.62,180.37 221.47,179.27 222.32,177.98 223.18,178.85 224.03,178.05 224.88,176.33 225.74,181.09 226.59,181.26 227.44,179.43 228.30,180.34 229.15,178.58 230.00,180.46 230.86,182.18 231.71,180.54 232.56,177.47 233.42,175.75 234.27,176.95 235.12,176.25 235.98,178.23 236.83,177.42 237.68,179.53 238.54,182.83 239.39,181.71 240.24,178.31 241.10,179.27 241.95,183.05 242.80,185.80 243.66,186.02 244.51,191.12 245.36,189.27 246.22,189.08 247.07,194.69 247.92,194.48 248.77,197.66 249.63,197.68 250.48,196.51 251.33,192.61 252.19,186.83 253.04,177.68 253.89,177.29 254.75,175.34 255.60,177.40 256.45,172.13 257.31,165.41 258.16,164.73 259.01,159.19 259.87,162.67 260.72,161.31 261.57,153.09 262.43,150.29 263.28,141.52 264.13,139.34 264.99,139.36 265.84,140.01 266.69,142.12 267.55,148.51 268.40,150.44 269.25,151.90 270.11,148.09 270.96,147.59 271.81,151.02 272.67,149.42 273.52,149.76 274.37,145.16 275.23,145.80 276.08,153.81 276.93,153.12 277.78,156.27 278.64,162.92 279.49,166.57 280.34,171.22 281.20,175.04 282.05,174.28 282.90,175.58 283.76,180.20 284.61,187.79 285.46,197.61 286.32,204.34 287.17,215.25 288.02,221.90 288.88,229.72 289.73,242.25 290.58,244.62 291.44,257.90 292.29,265.97 293.14,276.00 294.00,276.00 294.85,276.00 295.70,276.00 296.56,276.00 297.41,276.00 298.26,276.00 299.12,276.00 299.97,276.00 300.82,276.00 301.68,276.00 302.53,276.00 303.38,276.00 304.23,276.00 305.09,276.00 305.94,276.00 306.79,276.00 307.65,276.00 308.50,276.00 309.35,276.00 310.21,276.00 311.06,276.00 311.91,276.00 312.77,276.00 313.62,276.00 314.47,276.00 315.33,276.00 316.18,276.00 317.03,276.00 317.89,276.00 318.74,276.00 319.59,276.00 320.45,276.00 321.30,276.00 322.15,276.00 323.01,276.00 323.86,276.00 324.71,276.00 325.57,276.00 326.42,276.00 327.27,276.00 328.13,276.00 328.98,276.00 329.83,276.00 330.68,276.00 331.54,276.00 332.39,276.00 333.24,276.00 334.10,276.00 334.95,276.00 335.80,276.00 336.66,276.00 337.51,276.00 338.36,276.00 339.22,276.00 340.07,276.00 340.92,276.00 341.78,276.00 342.63,276.00 343.48,276.00 344.34,276.00 345.19,276.00 346.04,276.00 346.90,276.00 347.75,276.00 348.60,276.00 349.46,276.00 350.31,276.00 351.16,276.00 352.02,276.00 352.87,276.00 353.72,276.00 354.58,276.00 355.43,276.00 356.28,276.00 357.14,276.00 357.99,276.00 358.84,276.00 359.69,276.00 360.55,276.00 361.40,276.00 362.25,276.00 363.11,276.00 363.96,276.00 364.81,272.74 365.67,257.65 366.52,248.08 367.37,236.84 368.23,222.36 369.08,216.50 369.93,201.57 370.79,196.83 371.64,186.52 372.49,182.66 373.35,176.14 374.20,170.83 375.05,163.88 375.91,152.14 376.76,140.22 377.61,134.50 378.47,121.40 379.32,116.83 380.17,112.79 381.03,109.93 381.88,105.67 382.73,109.99 383.59,111.17 384.44,109.75 385.29,106.50 386.14,105.06 387.00,99.07 387.85,98.38 388.70,93.65 389.56,94.80 390.41,96.79 391.26,96.65 392.12,97.37 392.97,101.75 393.82,100.09 394.68,101.30 395.53,99.69 396.38,100.36 397.24,94.68 398.09,92.26 398.94,90.47 399.80,89.75 400.65,89.79 401.50,88.52 402.36,82.16 403.21,82.74 404.06,77.44 404.92,72.30 405.77,73.26 406.62,69.57 407.48,67.35 408.33,64.67 409.18,63.37 410.04,63.48 410.89,59.39 411.74,60.40 412.59,60.22 413.45,60.00 414.30,59.85 415.15,61.96 416.01,60.41 416.86,62.95 417.71,63.13 418.57,63.95 419.42,67.30 420.27,65.94 421.13,67.42 421.98,66.76 422.83,65.87 423.69,64.78 424.54,65.13 425.39,67.44 426.25,64.78 427.10,65.14 427.95,67.31 428.81,66.87 429.66,67.23 430.51,68.19 431.37,69.37 432.22,71.64 433.07,72.61 433.93,71.99 434.78,74.91 435.63,75.63 436.49,74.24 437.34,74.01 438.19,74.96 439.05,76.60 439.90,78.19 440.75,79.20 441.60,77.33 442.46,74.26 443.31,72.76 444.16,71.30 445.02,73.59 445.87,72.50 446.72,72.85 447.58,71.93 448.43,71.32 449.28,70.81 450.14,71.03 450.99,69.92 451.84,69.55 452.70,70.27 453.55,68.42 454.40,69.12 455.26,71.52 456.11,73.04 456.96,75.55 457.82,80.27 458.67,80.64 459.52,79.70 460.38,82.25 461.23,81.09 462.08,85.17 462.94,85.19 463.79,87.56 464.64,87.24 465.50,95.44 466.35,95.87 467.20,97.44 468.05,97.26 468.91,98.03 469.76,97.69 470.61,98.71 471.47,102.67 472.32,100.24 473.17,102.79 474.03,101.59 474.88,99.24 475.73,100.93 476.59,97.71 477.44,102.38 478.29,102.58 479.15,105.57 480.00,103.71 480.85,105.05 481.71,107.99 482.56,109.02 483.41,108.24 484.27,110.51 485.12,113.85 485.97,111.55 486.83,111.91 487.68,110.77 488.53,113.57 489.39,114.85 490.24,113.77 491.09,116.03 491.95,113.52 492.80,113.52 493.65,110.95 494.50,108.23 495.36,109.20 496.21,106.36 497.06,106.81 497.92,108.86 498.77,106.32 499.62,107.01 500.48,105.59 501.33,108.48 502.18,107.66 503.04,107.90 503.89,109.08 504.74,110.45 505.60,110.43 506.45,110.17 507.30,107.32 508.16,106.17 509.01,107.87 509.86,106.32 510.72,107.10 511.57,108.07 512.42,106.02 513.28,107.53 514.13,103.76 514.98,105.32 515.84,103.19 516.69,103.42 517.54,103.86 518.40,101.08 519.25,98.60 520.10,97.11 520.95,98.39 521.81,100.30 522.66,102.54 523.51,100.21 524.37,103.67 525.22,106.33 526.07,104.74 526.93,102.91 527.78,103.87 528.63,104.22 529.49,102.73 530.34,100.64 531.19,100.17 532.05,99.60 532.90,100.02 533.75,100.33 534.61,101.61 535.46,99.77 536.31,98.48 537.17,96.46 538.02,96.08 538.87,95.15 539.73,89.06 540.58,88.22 541.43,89.33 542.29,86.82 543.14,86.84 543.99,87.01 544.85,87.97 545.70,87.43 546.55,87.33 547.41,87.91 548.26,88.76 549.11,90.23 549.96,90.96 550.82,91.56 551.67,93.73 552.52,94.59 553.38,95.29 554.23,97.63 555.08,97.74 555.94,98.78 556.79,98.03 557.64,100.00 558.50,101.23 559.35,102.05 560.20,101.70 561.06,101.21 561.91,106.04 562.76,108.29 563.62,109.23 564.47,114.22 565.32,119.54 566.18,119.98 567.03,126.63 567.88,129.79 568.74,135.08 569.59,141.54 570.44,143.43 571.30,153.31 572.15,155.66 573.00,160.28 573.86,161.29 574.71,166.50 575.56,171.81 576.41,169.59 577.27,170.34 578.12,171.71 578.97,169.93 579.83,167.25 580.68,169.87 581.53,167.01 582.39,166.56 583.24,163.25 584.09,161.11 584.95,160.41 585.80,152.80 586.65,154.05 587.51,149.17 588.36,149.20 589.21,149.01 590.07,146.60 590.92,146.35 591.77,143.49 592.63,142.33 593.48,137.93 594.33,135.70 595.19,132.64 596.04,132.01 596.89,129.72 597.75,126.84 598.60,127.68 599.45,128.71 600.31,128.51 601.16,123.35 602.01,122.34 602.86,124.17 603.72,120.09 604.57,118.10 605.42,118.54 606.28,121.32 607.13,120.41 607.98,126.42 608.84,128.25 609.69,130.39 610.54,128.95 611.40,129.28 612.25,131.68 613.10,129.66 613.96,128.99 614.81,132.54 615.66,133.78 616.52,133.88 617.37,129.78 618.22,131.70 619.08,135.84 619.93,139.02 620.78,138.79 621.64,138.71 622.49,135.58 623.34,135.43 624.20,135.39 625.05,136.41 625.90,134.68 626.76,134.92 627.61,132.11 628.46,130.42 629.32,126.82 630.17,125.86 631.02,129.60 631.87,131.74 632.73,133.59 633.58,128.93 634.43,126.96 635.29,126.29 636.14,123.12 636.99,122.54 637.85,120.22 638.70,118.03 639.55,116.32 640.41,118.61 641.26,117.39 642.11,116.34 642.97,113.50 643.82,113.70 644.67,112.99 645.53,110.05 646.38,106.73 647.23,102.92 648.09,102.79 648.94,101.54 649.79,96.13 650.65,94.22 651.50,91.35 652.35,88.14 653.21,85.39 654.06,81.74 654.91,78.69 655.77,75.66 656.62,75.49 657.47,74.41 658.32,69.71 659.18,66.32 660.03,63.66 660.88,63.42 661.74,59.63 662.59,56.19 663.44,54.57 664.30,55.37 665.15,54.66 666.00,52.68 666.86,54.36 667.71,55.54 668.56,57.00 669.42,54.56 670.27,55.36 671.12,54.68 671.98,57.14 672.83,58.18 673.68,60.74 674.54,61.83 675.39,59.02 676.24,60.99 677.10,61.31 677.95,58.78 678.80,60.75 679.66,61.76 680.51,60.44 681.36,59.28 682.22,55.60 683.07,54.54 683.92,54.84 684.77,52.80 685.63,52.63 686.48,47.31 687.33,46.57 688.19,44.00 689.04,44.00 689.89,44.00 690.75,44.00 691.60,44.00 692.45,44.00 693.31,44.00 694.16,44.00 695.01,44.00 695.87,44.00 696.72,44.00 697.57,44.00 698.43,44.00 699.28,44.00 700.13,46.59 700.99,50.46 701.84,51.82 702.69,52.49 703.55,55.15 704.40,57.33 705.25,56.94 706.11,55.83 706.96,58.71 707.81,59.66 708.67,59.28 709.52,64.53 710.37,68.43 711.23,70.98 712.08,75.60 712.93,75.40 713.78,73.55 714.64,73.49 715.49,74.53 716.34,75.12 717.20,77.12 718.05,75.74 718.90,76.50 719.76,78.93 720.61,81.42 721.46,82.66 722.32,81.01 723.17,82.91 724.02,83.23 724.88,79.63 725.73,80.31 726.58,78.99 727.44,80.96 728.29,84.20 729.14,87.28 730.00,88.69 730.85,91.90 731.70,95.47 732.56,99.45 733.41,103.67 734.26,104.34 735.12,106.60 735.97,107.82 736.82,112.84 737.68,111.75 738.53,111.88 739.38,115.55 740.23,117.00 741.09,118.31 741.94,120.96 742.79,125.12 743.65,126.67 744.50,131.27 745.35,134.58 746.21,136.69 747.06,139.00 747.91,141.02 748.77,143.37 749.62,149.96 750.47,154.11 751.33,156.58 752.18,165.76 753.03,171.05 753.89,175.87 754.74,179.39 755.59,185.26 756.45,187.94 757.30,187.90 758.15,188.92 759.01,190.20 759.86,193.11 760.71,194.07 761.57,198.39 762.42,198.10 763.27,202.33 764.13,201.99 764.98,199.95 765.83,197.58 766.68,197.86 767.54,203.76 768.39,203.55 769.24,205.27 770.10,197.92 770.95,198.13 771.80,201.79 772.66,199.96 773.51,194.91 774.36,190.79 775.22,192.08 776.07,188.53 776.92,186.12 777.78,179.98 778.63,175.35 779.48,170.09 780.34,169.30 781.19,161.63 782.04,152.10 782.90,147.54 783.75,140.09 784.60,140.70 785.46,132.89 786.31,122.80 787.16,117.72 788.02,114.51 788.87,108.66 789.72,100.74 790.58,95.10 791.43,91.93 792.28,91.05 793.14,90.07 793.99,90.83 794.84,88.82 795.69,89.48 796.55,93.84 797.40,93.31 798.25,95.34 799.11,95.63 799.96,100.77 800.81,105.27 801.67,109.48 802.52,116.32 803.37,120.97 804.23,125.55 805.08,133.19 805.93,132.72 806.79,135.15 807.64,137.15 808.49,138.54 809.35,141.32 810.20,143.80 811.05,141.21 811.91,139.44 812.76,138.19 813.61,141.69 814.47,143.21 815.32,143.07 816.17,145.39 817.03,144.71 817.88,147.26 818.73,154.03 819.59,153.51 820.44,159.43 821.29,161.71 822.14,161.73 823.00,165.37 823.85,166.48 824.70,168.22 825.56,171.74 826.41,176.28 827.26,179.96 828.12,177.53 828.97,179.58 829.82,181.98 830.68,182.91 831.53,186.36 832.38,181.57 833.24,175.31 834.09,175.47 834.94,176.21 835.80,177.39 836.65,177.72 837.50,179.17 838.36,182.45 839.21,181.53 840.06,179.42 840.92,182.96 841.77,186.67 842.62,188.40 843.48,187.17 844.33,187.86 845.18,187.44 846.04,185.87 846.89,190.49 847.74,192.53 848.59,189.96 849.45,193.27 850.30,194.18 851.15,197.55 852.01,199.23 852.86,197.52 853.71,200.25 854.57,203.18 855.42,202.77 856.27,200.00 857.13,199.79 857.98,202.27 858.83,204.24 859.69,207.94 860.54,206.76 861.39,210.34 862.25,214.28 863.10,215.64 863.95,215.16 864.81,214.94 865.66,215.21 866.51,215.15 867.37,218.01 868.22,220.28 869.07,217.56 869.93,218.23 870.78,219.29 871.63,224.12 872.49,223.71 873.34,227.11 874.19,226.44 875.05,229.39 875.90,229.77 876.75,230.68 877.60,232.79 878.46,233.39 879.31,234.36 880.16,229.75 881.02,227.95 881.87,225.56 882.72,228.96 883.58,234.05 884.43,234.54 885.28,233.81 886.14,234.65 886.99,234.57 887.84,231.08 888.70,230.47 889.55,233.01 890.40,230.39 891.26,232.58 892.11,234.76 892.96,232.05 893.82,236.41 894.67,242.04 895.52,246.91 896.38,250.53 897.23,249.55 898.08,249.48 898.94,252.60 899.79,257.06 900.64,257.80 901.50,256.82 902.35,257.63 903.20,265.91 904.05,266.37 904.91,268.59 905.76,265.78 906.61,265.51 907.47,268.20 908.32,263.36 909.17,262.32 910.03,258.46 910.88,255.56 911.73,251.29 912.59,249.41 913.44,245.14 914.29,242.26 915.15,239.52 916.00,240.13" fill="none" stroke="#145c9e" stroke-width="2.2"/>
  <text x="44" y="24" font-family="monospace" font-size="15" fill="#222">seatbelt.both.hang.zhangyu.20260205.batch.1 ep 000004</text>
  <text x="656" y="24" font-family="monospace" font-size="13" fill="#145c9e">diffusion_precision_score</text>
  <text x="656" y="44" font-family="monospace" font-size="12" fill="#a23b3b">precision threshold</text>
</svg>
