<svg xmlns="http://www.w3.org/2000/svg" width="960" height="320" viewBox="0 0 960 320">
  <rect width="100%" height="100%" fill="#fffaf0"/>
  <rect x="530.23" y="44" width="89.48" height="232" fill="#f3c565" opacity="0.24"/> <rect x="661.91" y="44" width="90.32" height="232" fill="#f3c565" opacity="0.24"/>
  <line x1="44" y1="276" x2="916" y2="276" stroke="#333" stroke-width="1"/>
  <line x1="44" y1="44" x2="44" y2="276" stroke="#333" stroke-width="1"/>
  <line x1="44" y1="83.41" x2="916" y2="83.41" stroke="#a23b3b" stroke-width="1.5" stroke-dasharray="6 6"/>
  <polyline points="44.00,276.00 44.84,276.00 45.69,276.00 46.53,276.00 47.38,276.00 48.22,276.00 49.07,276.00 49.91,276.00 50.76,271.54 51.60,268.45 52.45,268.15 53.29,268.14 54.14,272.78 54.98,273.10 55.83,270.33 56.67,268.57 57.52,268.45 58.36,268.40 59.21,267.67 60.05,264.59 60.90,264.93 61.74,263.12 62.59,261.33 63.43,256.89 64.28,258.33 65.12,260.79 65.97,259.18 66.81,263.04 67.66,261.20 68.50,256.42 69.35,253.41 70.19,253.15 71.04,249.04 71.88,243.84 72.73,242.49 73.57,236.92 74.42,231.65 75.26,228.47 76.11,223.80 76.95,222.00 77.80,217.80 78.64,211.29 79.49,206.71 80.33,203.10 81.18,194.83 82.02,190.32 82.87,187.80 83.71,186.55 84.56,180.31 85.40,176.20 86.25,174.57 87.09,171.60 87.94,171.61 88.78,168.44 89.63,163.85 90.47,163.50 91.32,159.52 92.16,163.65 93.01,162.57 93.85,157.96 94.70,159.65 95.54,156.76 96.39,153.78 97.23,150.41 98.08,148.99 98.92,148.37 99.77,146.17 100.61,144.02 101.46,139.19 102.30,136.84 103.15,138.29 103.99,137.25 104.84,133.94 105.68,133.48 106.53,126.63 107.37,125.45 108.22,126.32 109.06,125.99 109.91,127.82 110.75,128.89 111.60,128.29 112.44,129.39 113.29,130.79 114.13,135.92 114.98,141.47 115.82,146.86 116.67,149.15 117.51,150.29 118.36,151.14 119.20,152.07 120.05,154.40 120.89,157.39 121.74,160.47 122.58,163.15 123.43,166.81 124.27,171.23 125.12,173.84 125.96,181.00 126.81,182.52 127.65,187.92 128.50,187.13 129.34,184.70 130.19,186.27 131.03,187.62 131.88,186.63 132.72,185.19 133.57,186.80 134.41,187.77 135.26,186.75 136.10,185.26 136.95,186.48 137.79,182.48 138.64,181.19 139.48,180.55 140.33,177.75 141.17,177.74 142.02,173.57 142.86,173.19 143.71,172.97 144.55,167.45 145.40,166.74 146.24,164.70 147.09,167.78 147.93,167.12 148.78,164.99 149.62,168.08 150.47,170.17 151.31,171.86 152.16,172.76 153.00,170.11 153.84,166.29 154.69,166.02 155.53,165.89 156.38,162.50 157.22,163.61 158.07,161.30 158.91,164.85 159.76,166.97 160.60,166.32 161.45,166.69 162.29,166.00 163.14,170.46 163.98,169.89 164.83,168.59 165.67,164.19 166.52,161.87 167.36,162.40 168.21,165.56 169.05,165.61 169.90,163.68 170.74,168.77 171.59,168.23 172.43,168.31 173.28,165.43 174.12,163.58 174.97,165.01 175.81,164.43 176.66,164.72 177.50,164.45 178.35,163.73 179.19,163.03 180.04,163.30 180.88,162.47 181.73,160.41 182.57,161.02 183.42,158.48 184.26,157.83 185.11,154.38 185.95,152.24 186.80,157.99 187.64,159.69 188.49,159.55 189.33,159.54 190.18,158.86 191.02,163.40 191.87,160.92 192.71,160.11 193.56,163.10 194.40,168.99 195.25,172.61 196.09,173.99 196.94,177.74 197.78,180.98 198.63,181.20 199.47,180.79 200.32,182.79 201.16,176.15 202.01,174.32 202.85,172.64 203.70,172.40 204.54,171.37 205.39,170.04 206.23,169.28 207.08,172.32 207.92,172.17 208.77,172.44 209.61,171.30 210.46,173.99 211.30,172.10 212.15,173.07 212.99,173.51 213.84,177.70 214.68,181.42 215.53,183.99 216.37,187.47 217.22,193.16 218.06,195.25 218.91,199.11 219.75,197.64 220.60,200.63 221.44,198.16 222.29,196.08 223.13,192.00 223.98,193.70 224.82,193.21 225.67,193.49 226.51,191.65 227.36,196.33 228.20,197.09 229.05,193.63 229.89,192.28 230.74,188.10 231.58,183.89 232.43,180.97 233.27,179.74 234.12,177.36 234.96,173.16 235.81,173.22 236.65,176.69 237.50,175.68 238.34,176.26 239.19,176.08 240.03,176.61 240.88,174.58 241.72,169.10 242.57,166.64 243.41,165.78 244.26,167.12 245.10,169.75 245.95,171.12 246.79,175.59 247.64,178.17 248.48,184.13 249.33,187.59 250.17,188.29 251.02,185.74 251.86,186.42 252.71,184.03 253.55,189.50 254.40,187.78 255.24,189.03 256.09,193.71 256.93,195.35 257.78,198.45 258.62,203.65 259.47,206.31 260.31,208.19 261.16,208.23 262.00,208.24 262.84,208.33 263.69,213.81 264.53,220.16 265.38,221.23 266.22,225.94 267.07,236.15 267.91,237.46 268.76,242.45 269.60,248.21 270.45,254.11 271.29,256.42 272.14,259.29 272.98,257.55 273.83,260.45 274.67,261.95 275.52,266.56 276.36,270.91 277.21,273.02 278.05,265.80 278.90,261.98 279.74,265.12 280.59,262.21 281.43,259.17 282.28,259.31 283.12,257.84 283.97,256.33 284.81,253.67 285.66,254.39 286.50,257.19 287.35,260.62 288.19,256.20 289.04,257.81 289.88,253.40 290.73,250.19 291.57,245.17 292.42,250.17 293.26,256.45 294.11,258.70 294.95,261.69 295.80,262.32 296.64,259.94 297.49,259.69 298.33,261.94 299.18,256.61 300.02,258.62 300.87,260.77 301.71,261.30 302.56,265.69 303.40,266.86 304.25,270.90 305.09,273.51 305.94,276.00 306.78,276.00 307.63,276.00 308.47,274.22 309.32,275.20 310.16,273.21 311.01,276.00 311.85,276.00 312.70,276.00 313.54,276.00 314.39,276.00 315.23,274.22 316.08,276.00 316.92,276.00 317.77,274.63 318.61,272.67 319.46,274.73 320.30,273.58 321.15,264.49 321.99,261.19 322.84,264.60 323.68,260.51 324.53,260.30 325.37,261.40 326.22,256.03 327.06,250.35 327.91,255.44 328.75,257.84 329.60,258.19 330.44,253.86 331.29,255.14 332.13,256.55 332.98,257.46 333.82,256.06 334.67,259.86 335.51,265.47 336.36,264.14 337.20,258.99 338.05,258.29 338.89,257.46 339.74,251.97 340.58,251.63 341.43,251.79 342.27,254.94 343.12,252.86 343.96,251.35 344.81,252.02 345.65,247.25 346.50,246.23 347.34,247.04 348.19,241.49 349.03,237.15 349.88,232.78 350.72,236.34 351.57,238.10 352.41,247.35 353.26,243.86 354.10,240.65 354.95,234.24 355.79,234.57 356.64,225.21 357.48,221.93 358.33,219.17 359.17,211.87 360.02,207.47 360.86,203.24 361.71,200.08 362.55,196.95 363.40,198.08 364.24,199.18 365.09,193.44 365.93,190.51 366.78,181.80 367.62,181.37 368.47,176.68 369.31,176.58 370.16,170.49 371.00,170.59 371.84,164.12 372.69,164.34 373.53,162.85 374.38,165.04 375.22,165.24 376.07,160.73 376.91,161.35 377.76,158.26 378.60,155.28 379.45,156.51 380.29,154.18 381.14,151.87 381.98,150.44 382.83,151.33 383.67,152.34 384.52,155.32 385.36,155.82 386.21,159.79 387.05,155.50 387.90,156.89 388.74,156.17 389.59,153.19 390.43,156.06 391.28,156.84 392.12,152.68 392.97,152.96 393.81,153.03 394.66,150.34 395.50,147.79 396.35,144.38 397.19,145.68 398.04,144.96 398.88,143.28 399.73,141.89 400.57,139.29 401.42,142.55 402.26,144.25 403.11,143.15 403.95,142.98 404.80,136.54 405.64,134.03 406.49,135.20 407.33,133.83 408.18,130.76 409.02,133.28 409.87,132.59 410.71,129.87 411.56,125.19 412.40,124.01 413.25,120.23 414.09,122.56 414.94,123.69 415.78,118.85 416.63,113.76 417.47,108.73 418.32,107.70 419.16,106.25 420.01,104.38 420.85,101.36 421.70,97.92 422.54,97.37 423.39,94.94 424.23,93.55 425.08,97.15 425.92,100.94 426.77,98.88 427.61,98.02 428.46,96.03 429.30,95.39 430.15,96.79 430.99,96.03 431.84,99.24 432.68,99.72 433.53,100.76 434.37,100.61 435.22,100.05 436.06,101.71 436.91,101.20 437.75,101.40 438.60,102.68 439.44,100.92 440.29,98.96 441.13,99.05 441.98,101.38 442.82,102.83 443.67,103.81 444.51,104.63 445.36,108.12 446.20,110.26 447.05,107.99 447.89,108.90 448.74,109.60 449.58,111.36 450.43,109.41 451.27,111.22 452.12,111.75 452.96,112.63 453.81,114.74 454.65,116.13 455.50,118.67 456.34,118.88 457.19,114.60 458.03,112.70 458.88,110.17 459.72,109.70 460.57,108.19 461.41,110.24 462.26,112.75 463.10,115.58 463.95,117.04 464.79,121.63 465.64,122.59 466.48,121.67 467.33,123.56 468.17,122.06 469.02,121.66 469.86,119.21 470.71,118.55 471.55,122.42 472.40,122.67 473.24,125.92 474.09,123.39 474.93,120.76 475.78,123.01 476.62,121.72 477.47,121.21 478.31,121.89 479.16,121.64 480.00,121.85 480.84,121.30 481.69,120.60 482.53,122.50 483.38,122.11 484.22,121.59 485.07,123.41 485.91,123.82 486.76,123.85 487.60,125.15 488.45,128.01 489.29,130.46 490.14,130.36 490.98,130.24 491.83,127.86 492.67,126.25 493.52,121.69 494.36,124.21 495.21,125.22 496.05,123.31 496.90,121.78 497.74,121.80 498.59,122.97 499.43,123.21 500.28,119.11 501.12,120.18 501.97,120.04 502.81,119.99 503.66,121.81 504.50,116.87 505.35,117.27 506.19,119.80 507.04,119.89 507.88,122.20 508.73,114.34 509.57,114.08 510.42,112.12 511.26,111.84 512.11,113.07 512.95,114.16 513.80,111.21 514.64,113.68 515.49,113.38 516.33,108.16 517.18,108.44 518.02,102.07 518.87,103.32 519.71,101.80 520.56,98.95 521.40,99.17 522.25,99.05 523.09,101.51 523.94,100.15 524.78,103.69 525.63,101.39 526.47,101.20 527.32,98.03 528.16,96.35 529.01,92.93 529.85,90.95 530.70,92.14 531.54,88.98 532.39,88.67 533.23,89.33 534.08,89.69 534.92,88.07 535.77,85.78 536.61,85.27 537.46,83.07 538.30,80.09 539.15,74.67 539.99,75.06 540.84,71.53 541.68,71.17 542.53,72.14 543.37,73.38 544.22,74.01 545.06,73.18 545.91,71.22 546.75,71.90 547.60,70.02 548.44,69.08 549.29,68.67 550.13,69.79 550.98,65.09 551.82,66.29 552.67,67.49 553.51,69.08 554.36,67.81 555.20,69.70 556.05,68.55 556.89,70.20 557.74,68.80 558.58,69.03 559.43,68.48 560.27,70.25 561.12,70.33 561.96,69.14 562.81,68.01 563.65,67.69 564.50,66.96 565.34,69.40 566.19,68.46 567.03,69.12 567.88,69.51 568.72,70.18 569.57,70.39 570.41,70.27 571.26,67.24 572.10,67.13 572.95,66.16 573.79,66.56 574.64,66.94 575.48,65.59 576.33,66.61 577.17,67.61 578.02,68.14 578.86,66.85 579.71,66.33 580.55,67.73 581.40,67.01 582.24,66.62 583.09,68.31 583.93,66.45 584.78,67.90 585.62,67.10 586.47,67.57 587.31,69.62 588.16,70.26 589.00,71.06 589.84,72.23 590.69,73.75 591.53,74.31 592.38,73.02 593.22,72.72 594.07,72.25 594.91,69.68 595.76,69.45 596.60,70.38 597.45,70.14 598.29,69.21 599.14,71.13 599.98,72.76 600.83,74.00 601.67,70.86 602.52,68.88 603.36,68.10 604.21,69.87 605.05,67.36 605.90,65.76 606.74,68.45 607.59,68.12 608.43,69.91 609.28,73.18 610.12,77.29 610.97,79.59 611.81,79.83 612.66,83.30 613.50,84.72 614.35,89.27 615.19,92.00 616.04,95.17 616.88,101.27 617.73,102.19 618.57,102.92 619.42,106.74 620.26,113.20 621.11,114.43 621.95,118.81 622.80,121.61 623.64,122.90 624.49,121.75 625.33,120.98 626.18,124.51 627.02,126.69 627.87,125.50 628.71,122.06 629.56,126.05 630.40,128.02 631.25,129.23 632.09,129.28 632.94,132.74 633.78,134.07 634.63,131.56 635.47,134.08 636.32,136.01 637.16,136.98 638.01,138.13 638.85,143.49 639.70,142.93 640.54,140.86 641.39,138.58 642.23,142.28 643.08,142.27 643.92,138.05 644.77,135.60 645.61,129.98 646.46,130.33 647.30,127.48 648.15,129.59 648.99,127.18 649.84,123.38 650.68,121.78 651.53,120.57 652.37,118.45 653.22,112.72 654.06,110.71 654.91,110.58 655.75,110.32 656.60,105.06 657.44,106.07 658.29,105.28 659.13,105.10 659.98,103.97 660.82,101.93 661.67,100.67 662.51,95.74 663.36,94.70 664.20,95.83 665.05,92.63 665.89,89.51 666.74,88.93 667.58,85.07 668.43,84.71 669.27,81.12 670.12,80.62 670.96,80.13 671.81,79.92 672.65,77.53 673.50,73.70 674.34,74.61 675.19,73.15 676.03,71.86 676.88,70.98 677.72,71.27 678.57,67.69 679.41,66.40 680.26,65.39 681.10,62.21 681.95,64.65 682.79,62.36 683.64,65.24 684.48,63.22 685.33,63.44 686.17,63.10 687.02,62.50 687.86,61.67 688.71,60.25 689.55,59.05 690.40,58.41 691.24,57.93 692.09,55.95 692.93,54.71 693.78,54.33 694.62,54.39 695.47,55.61 696.31,54.02 697.16,56.07 698.00,54.05 698.84,53.19 699.69,53.74 700.53,52.28 701.38,49.06 702.22,53.36 703.07,53.22 703.91,54.17 704.76,55.45 705.60,53.86 706.45,52.76 707.29,54.33 708.14,54.50 708.98,54.14 709.83,53.08 710.67,54.19 711.52,54.47 712.36,52.44 713.21,52.38 714.05,51.09 714.90,51.29 715.74,52.98 716.59,48.69 717.43,48.73 718.28,48.74 719.12,46.74 719.97,48.59 720.81,50.74 721.66,49.64 722.50,49.63 723.35,50.11 724.19,50.23 725.04,49.13 725.88,48.99 726.73,51.34 727.57,51.16 728.42,49.72 729.26,47.35 730.11,47.16 730.95,49.60 731.80,50.58 732.64,50.93 733.49,51.71 734.33,53.17 735.18,54.65 736.02,60.48 736.87,61.47 737.71,63.16 738.56,65.82 739.40,65.48 740.25,65.74 741.09,66.89 741.94,70.89 742.78,74.07 743.63,76.34 744.47,81.54 745.32,81.67 746.16,85.40 747.01,87.37 747.85,89.80 748.70,89.01 749.54,92.83 750.39,89.99 751.23,93.50 752.08,95.42 752.92,95.94 753.77,103.68 754.61,106.92 755.46,108.22 756.30,107.33 757.15,107.32 757.99,111.30 758.84,112.24 759.68,116.17 760.53,116.90 761.37,119.39 762.22,120.58 763.06,122.01 763.91,119.48 764.75,122.53 765.60,121.24 766.44,121.20 767.29,119.55 768.13,117.16 768.98,117.50 769.82,117.30 770.67,121.20 771.51,121.90 772.36,120.01 773.20,120.60 774.05,121.71 774.89,121.35 775.74,122.72 776.58,126.98 777.43,130.70 778.27,134.64 779.12,137.17 779.96,138.62 780.81,138.72 781.65,142.24 782.50,143.39 783.34,146.09 784.19,148.94 785.03,144.80 785.88,143.34 786.72,144.68 787.57,144.65 788.41,140.93 789.26,141.33 790.10,142.46 790.95,136.50 791.79,134.74 792.64,134.45 793.48,130.68 794.33,128.55 795.17,127.66 796.02,125.99 796.86,124.76 797.71,123.88 798.55,119.14 799.40,119.18 800.24,119.69 801.09,119.68 801.93,115.36 802.78,115.89 803.62,112.75 804.47,107.72 805.31,107.60 806.16,104.51 807.00,98.75 807.84,95.22 808.69,94.66 809.53,93.82 810.38,90.26 811.22,85.81 812.07,82.15 812.91,81.99 813.76,81.62 814.60,81.83 815.45,78.12 816.29,81.75 817.14,82.81 817.98,83.05 818.83,85.43 819.67,87.33 820.52,88.03 821.36,91.19 822.21,100.42 823.05,103.71 823.90,103.87 824.74,109.57 825.59,115.36 826.43,118.85 827.28,124.01 828.12,127.44 828.97,127.52 829.81,131.21 830.66,133.64 831.50,136.50 832.35,143.73 833.19,146.63 834.04,148.67 834.88,151.30 835.73,155.53 836.57,152.37 837.42,156.66 838.26,162.83 839.11,166.14 839.95,166.97 840.80,172.16 841.64,174.39 842.49,179.64 843.33,185.00 844.18,189.52 845.02,191.71 845.87,194.73 846.71,194.48 847.56,197.73 848.40,200.97 849.25,203.16 850.09,203.09 850.94,204.93 851.78,205.37 852.63,209.51 853.47,205.47 854.32,207.68 855.16,208.32 856.01,209.31 856.85,209.21 857.70,213.94 858.54,216.75 859.39,222.11 860.23,223.23 861.08,225.33 861.92,227.75 862.77,229.68 863.61,233.86 864.46,237.99 865.30,239.84 866.15,242.67 866.99,238.00 867.84,249.10 868.68,252.92 869.53,251.12 870.37,251.56 871.22,250.11 872.06,249.42 872.91,248.62 873.75,247.76 874.60,249.45 875.44,249.14 876.29,249.61 877.13,251.00 877.98,253.93 878.82,258.41 879.67,260.39 880.51,262.69 881.36,269.74 882.20,268.26 883.05,269.94 883.89,272.61 884.74,271.59 885.58,271.16 886.43,269.84 887.27,271.62 888.12,270.19 888.96,270.82 889.81,271.06 890.65,269.55 891.50,271.41 892.34,269.22 893.19,265.16 894.03,268.72 894.88,268.75 895.72,265.59 896.57,263.15 897.41,259.65 898.26,262.26 899.10,267.07 899.95,270.55 900.79,270.16 901.64,266.67 902.48,265.09 903.33,267.13 904.17,265.40 905.02,266.38 905.86,263.34 906.71,264.74 907.55,264.68 908.40,260.35 909.24,259.85 910.09,262.00 910.93,264.99 911.78,268.50 912.62,267.99 913.47,268.62 914.31,270.51 915.16,274.51 916.00,276.00" fill="none" stroke="#145c9e" stroke-width="2.2"/>
  <text x="44" y="24" font-family="monospace" font-size="15" fill="#222">seatbelt.both.hang.zhangyu.20260205.batch.1 ep 000000</text>
  <text x="656" y="24" font-family="monospace" font-size="13" fill="#145c9e">diffusion_precision_score</text>
  <text x="656" y="44" font-family="monospace" font-size="12" fill="#a23b3b">precision threshold</text>
</svg>
