<svg xmlns="http://www.w3.org/2000/svg" width="960" height="320" viewBox="0 0 960 320">
  <rect width="100%" height="100%" fill="#fffaf0"/>
  <rect x="419.92" y="44" width="237.08" height="232" fill="#f3c565" opacity="0.24"/> <rect x="700.84" y="44" width="93.37" height="232" fill="#f3c565" opacity="0.24"/>
  <line x1="44" y1="276" x2="916" y2="276" stroke="#333" stroke-width="1"/>
  <line x1="44" y1="44" x2="44" y2="276" stroke="#333" stroke-width="1"/>
  <line x1="44" y1="83.41" x2="916" y2="83.41" stroke="#a23b3b" stroke-width="1.5" stroke-dasharray="6 6"/>
  <polyline points="44.00,276.00 44.81,276.00 45.63,276.00 46.44,276.00 47.25,276.00 48.06,276.00 48.88,276.00 49.69,276.00 50.50,276.00 51.31,276.00 52.13,276.00 52.94,276.00 53.75,276.00 54.56,276.00 55.38,276.00 56.19,276.00 57.00,276.00 57.82,276.00 58.63,276.00 59.44,276.00 60.25,276.00 61.07,276.00 61.88,276.00 62.69,276.00 63.50,275.85 64.32,273.56 65.13,268.39 65.94,268.72 66.75,268.98 67.57,266.83 68.38,266.02 69.19,260.83 70.01,259.25 70.82,255.62 71.63,255.73 72.44,254.27 73.26,251.52 74.07,249.30 74.88,252.71 75.69,255.70 76.51,256.91 77.32,256.36 78.13,255.98 78.95,254.05 79.76,250.73 80.57,249.71 81.38,242.03 82.20,240.61 83.01,242.04 83.82,237.37 84.63,235.59 85.45,230.67 86.26,230.56 87.07,230.21 87.88,228.35 88.70,223.63 89.51,221.00 90.32,216.65 91.14,213.49 91.95,207.25 92.76,204.03 93.57,204.27 94.39,197.03 95.20,193.38 96.01,186.58 96.82,182.18 97.64,179.41 98.45,180.17 99.26,178.96 100.07,177.20 100.89,176.02 101.70,171.07 102.51,165.69 103.33,164.11 104.14,166.50 104.95,169.55 105.76,171.85 106.58,172.93 107.39,167.78 108.20,166.70 109.01,168.20 109.83,166.65 110.64,167.80 111.45,166.29 112.26,162.08 113.08,164.92 113.89,161.25 114.70,155.96 115.52,160.25 116.33,160.09 117.14,156.65 117.95,153.21 118.77,150.77 119.58,152.66 120.39,152.76 121.20,156.68 122.02,158.65 122.83,158.65 123.64,157.62 124.45,153.99 125.27,155.20 126.08,157.32 126.89,153.66 127.71,151.94 128.52,153.01 129.33,147.18 130.14,149.17 130.96,148.48 131.77,147.40 132.58,146.84 133.39,144.30 134.21,144.32 135.02,137.67 135.83,139.61 136.64,135.48 137.46,135.96 138.27,138.10 139.08,136.08 139.90,133.22 140.71,136.28 141.52,138.40 142.33,136.22 143.15,140.11 143.96,137.62 144.77,142.53 145.58,144.93 146.40,146.22 147.21,150.38 148.02,150.74 148.84,153.73 149.65,151.64 150.46,153.96 151.27,159.18 152.09,161.45 152.90,166.54 153.71,171.62 154.52,176.55 155.34,180.06 156.15,184.97 156.96,186.27 157.77,194.35 158.59,197.93 159.40,200.66 160.21,205.92 161.03,205.88 161.84,204.26 162.65,204.71 163.46,207.24 164.28,211.34 165.09,212.13 165.90,210.35 166.71,207.87 167.53,206.09 168.34,204.20 169.15,202.14 169.96,204.62 170.78,206.31 171.59,206.95 172.40,203.60 173.22,200.84 174.03,200.06 174.84,198.39 175.65,199.41 176.47,203.07 177.28,206.41 178.09,206.05 178.90,202.15 179.72,203.67 180.53,206.51 181.34,205.22 182.15,202.00 182.97,203.41 183.78,202.05 184.59,201.91 185.41,198.68 186.22,200.72 187.03,203.09 187.84,196.47 188.66,198.00 189.47,198.88 190.28,197.53 191.09,193.97 191.91,192.40 192.72,193.64 193.53,193.08 194.34,193.41 195.16,198.83 195.97,199.61 196.78,198.41 197.60,200.27 198.41,200.01 199.22,199.00 200.03,198.77 200.85,198.91 201.66,204.26 202.47,207.48 203.28,209.23 204.10,211.33 204.91,211.53 205.72,213.20 206.53,217.40 207.35,220.29 208.16,221.95 208.97,221.46 209.79,223.46 210.60,224.87 211.41,220.48 212.22,220.45 213.04,226.35 213.85,223.47 214.66,223.46 215.47,226.11 216.29,219.24 217.10,224.01 217.91,224.26 218.73,225.33 219.54,228.11 220.35,227.61 221.16,226.30 221.98,222.52 222.79,220.84 223.60,220.45 224.41,222.89 225.23,226.61 226.04,229.00 226.85,222.15 227.66,221.22 228.48,219.92 229.29,215.79 230.10,216.11 230.92,216.85 231.73,215.59 232.54,217.35 233.35,211.14 234.17,206.10 234.98,200.90 235.79,198.04 236.60,198.42 237.42,195.89 238.23,192.02 239.04,190.25 239.85,184.92 240.67,184.89 241.48,186.55 242.29,183.17 243.11,187.29 243.92,189.25 244.73,185.90 245.54,184.17 246.36,180.78 247.17,184.16 247.98,189.54 248.79,195.05 249.61,198.12 250.42,198.14 251.23,205.09 252.04,205.21 252.86,207.35 253.67,213.60 254.48,216.48 255.30,217.82 256.11,227.06 256.92,228.04 257.73,231.59 258.55,235.60 259.36,238.46 260.17,241.81 260.98,245.17 261.80,248.00 262.61,252.52 263.42,256.26 264.23,262.52 265.05,264.21 265.86,265.31 266.67,266.44 267.49,267.49 268.30,270.70 269.11,276.00 269.92,275.31 270.74,270.60 271.55,268.18 272.36,263.01 273.17,264.33 273.99,264.15 274.80,261.81 275.61,257.89 276.42,252.99 277.24,249.29 278.05,245.57 278.86,241.93 279.68,243.79 280.49,238.68 281.30,231.60 282.11,228.99 282.93,218.28 283.74,214.24 284.55,215.61 285.36,210.80 286.18,209.87 286.99,202.83 287.80,197.82 288.62,197.11 289.43,195.36 290.24,194.28 291.05,193.00 291.87,195.51 292.68,191.02 293.49,187.28 294.30,191.12 295.12,192.61 295.93,191.76 296.74,192.17 297.55,195.79 298.37,195.56 299.18,201.33 299.99,208.31 300.81,211.84 301.62,215.27 302.43,213.82 303.24,214.97 304.06,213.26 304.87,216.20 305.68,208.83 306.49,207.48 307.31,208.97 308.12,210.16 308.93,212.37 309.74,209.91 310.56,210.98 311.37,208.80 312.18,208.37 313.00,206.62 313.81,198.88 314.62,199.00 315.43,198.56 316.25,200.01 317.06,200.39 317.87,205.01 318.68,204.00 319.50,205.97 320.31,213.21 321.12,214.15 321.93,216.31 322.75,212.91 323.56,215.32 324.37,214.08 325.19,216.84 326.00,216.19 326.81,217.12 327.62,220.29 328.44,222.52 329.25,224.05 330.06,222.68 330.87,222.47 331.69,224.27 332.50,226.96 333.31,226.97 334.12,223.67 334.94,221.94 335.75,214.07 336.56,219.72 337.38,223.91 338.19,230.63 339.00,232.09 339.81,235.59 340.63,234.31 341.44,231.73 342.25,234.27 343.06,231.13 343.88,237.44 344.69,240.22 345.50,236.27 346.32,240.66 347.13,245.38 347.94,249.56 348.75,252.55 349.57,261.19 350.38,260.52 351.19,257.82 352.00,255.34 352.82,254.49 353.63,255.51 354.44,262.79 355.25,266.41 356.07,264.50 356.88,267.90 357.69,265.41 358.51,263.91 359.32,267.36 360.13,267.38 360.94,269.17 361.76,269.75 362.57,270.64 363.38,272.87 364.19,273.78 365.01,276.00 365.82,276.00 366.63,276.00 367.44,276.00 368.26,276.00 369.07,276.00 369.88,276.00 370.70,276.00 371.51,276.00 372.32,276.00 373.13,276.00 373.95,276.00 374.76,276.00 375.57,276.00 376.38,276.00 377.20,276.00 378.01,276.00 378.82,276.00 379.63,276.00 380.45,276.00 381.26,276.00 382.07,276.00 382.89,276.00 383.70,276.00 384.51,274.80 385.32,271.99 386.14,275.94 386.95,269.06 387.76,263.67 388.57,265.12 389.39,260.65 390.20,257.27 391.01,254.24 391.82,246.19 392.64,239.91 393.45,234.08 394.26,228.62 395.08,224.98 395.89,220.72 396.70,214.17 397.51,209.49 398.33,205.99 399.14,199.34 399.95,187.73 400.76,185.91 401.58,182.90 402.39,177.23 403.20,168.00 404.01,160.39 404.83,156.61 405.64,151.10 406.45,145.78 407.27,142.57 408.08,139.39 408.89,131.12 409.70,131.33 410.52,128.07 411.33,123.49 412.14,117.71 412.95,118.03 413.77,114.31 414.58,108.94 415.39,106.91 416.21,100.77 417.02,102.54 417.83,99.25 418.64,98.60 419.46,95.37 420.27,96.80 421.08,92.58 421.89,91.75 422.71,94.66 423.52,92.37 424.33,88.07 425.14,85.77 425.96,84.54 426.77,81.52 427.58,81.77 428.40,83.88 429.21,82.00 430.02,78.67 430.83,74.95 431.65,74.01 432.46,72.11 433.27,73.56 434.08,73.14 434.90,72.81 435.71,69.71 436.52,65.18 437.33,65.03 438.15,66.37 438.96,66.38 439.77,66.06 440.59,66.14 441.40,64.64 442.21,61.74 443.02,62.19 443.84,65.00 444.65,67.02 445.46,70.82 446.27,69.54 447.09,71.19 447.90,69.92 448.71,73.55 449.52,76.19 450.34,78.46 451.15,78.54 451.96,77.20 452.78,75.62 453.59,74.72 454.40,75.18 455.21,75.40 456.03,73.01 456.84,71.06 457.65,70.50 458.46,66.43 459.28,65.15 460.09,65.54 460.90,61.95 461.71,60.41 462.53,56.10 463.34,52.33 464.15,53.09 464.97,51.07 465.78,52.50 466.59,54.48 467.40,58.15 468.22,57.91 469.03,56.71 469.84,56.36 470.65,56.48 471.47,54.83 472.28,54.62 473.09,52.16 473.90,52.26 474.72,52.45 475.53,54.66 476.34,56.22 477.16,56.50 477.97,54.52 478.78,56.48 479.59,53.99 480.41,51.91 481.22,50.84 482.03,50.27 482.84,51.05 483.66,52.57 484.47,50.74 485.28,51.20 486.10,52.75 486.91,55.31 487.72,55.56 488.53,56.38 489.35,54.36 490.16,52.05 490.97,54.61 491.78,54.94 492.60,52.66 493.41,56.08 494.22,56.62 495.03,54.05 495.85,52.86 496.66,55.00 497.47,55.95 498.29,56.99 499.10,56.23 499.91,57.86 500.72,58.59 501.54,58.92 502.35,59.80 503.16,59.11 503.97,62.14 504.79,60.34 505.60,63.89 506.41,65.41 507.22,63.45 508.04,63.88 508.85,66.58 509.66,70.08 510.48,68.02 511.29,67.44 512.10,68.04 512.91,71.68 513.73,72.38 514.54,70.46 515.35,70.46 516.16,70.86 516.98,72.34 517.79,71.45 518.60,71.97 519.41,70.22 520.23,70.25 521.04,71.81 521.85,72.95 522.67,70.67 523.48,67.52 524.29,69.32 525.10,69.29 525.92,70.46 526.73,68.77 527.54,70.23 528.35,70.56 529.17,71.82 529.98,73.50 530.79,75.81 531.60,77.29 532.42,77.11 533.23,75.66 534.04,74.15 534.86,72.73 535.67,73.87 536.48,76.47 537.29,79.77 538.11,80.84 538.92,81.21 539.73,82.61 540.54,82.56 541.36,80.27 542.17,80.89 542.98,80.21 543.79,79.67 544.61,81.15 545.42,80.64 546.23,83.84 547.05,84.19 547.86,85.08 548.67,87.08 549.48,86.08 550.30,84.76 551.11,82.40 551.92,85.70 552.73,86.95 553.55,86.29 554.36,85.93 555.17,87.35 555.99,87.67 556.80,86.23 557.61,84.55 558.42,80.55 559.24,79.75 560.05,75.37 560.86,74.43 561.67,76.55 562.49,72.36 563.30,71.95 564.11,72.99 564.92,74.07 565.74,67.98 566.55,65.94 567.36,63.70 568.18,64.32 568.99,62.18 569.80,61.73 570.61,60.72 571.43,59.42 572.24,60.29 573.05,61.26 573.86,62.18 574.68,63.76 575.49,61.84 576.30,64.39 577.11,63.82 577.93,64.56 578.74,61.84 579.55,61.81 580.37,63.25 581.18,63.83 581.99,63.24 582.80,65.06 583.62,62.85 584.43,64.55 585.24,68.28 586.05,67.30 586.87,67.32 587.68,69.22 588.49,68.20 589.30,70.59 590.12,69.73 590.93,72.49 591.74,75.00 592.56,75.99 593.37,76.03 594.18,75.66 594.99,76.68 595.81,77.43 596.62,77.19 597.43,79.47 598.24,76.79 599.06,75.42 599.87,79.27 600.68,80.12 601.49,81.02 602.31,83.58 603.12,82.36 603.93,84.16 604.75,81.79 605.56,79.83 606.37,79.64 607.18,81.09 608.00,79.78 608.81,79.39 609.62,78.59 610.43,78.09 611.25,78.12 612.06,79.54 612.87,78.99 613.68,77.43 614.50,75.71 615.31,72.45 616.12,68.39 616.94,68.11 617.75,66.70 618.56,65.86 619.37,65.84 620.19,68.38 621.00,65.97 621.81,65.58 622.62,66.19 623.44,63.85 624.25,62.84 625.06,61.35 625.88,60.57 626.69,58.54 627.50,57.22 628.31,56.09 629.13,56.99 629.94,58.77 630.75,56.43 631.56,57.49 632.38,57.00 633.19,54.17 634.00,51.92 634.81,53.50 635.63,55.72 636.44,53.63 637.25,56.18 638.07,57.98 638.88,58.43 639.69,61.26 640.50,61.60 641.32,64.15 642.13,65.06 642.94,66.56 643.75,67.70 644.57,69.38 645.38,70.95 646.19,72.74 647.00,74.35 647.82,76.68 648.63,78.84 649.44,78.75 650.26,79.95 651.07,84.17 651.88,86.52 652.69,88.12 653.51,88.45 654.32,94.42 655.13,93.37 655.94,98.45 656.76,98.37 657.57,100.11 658.38,105.48 659.19,106.73 660.01,108.12 660.82,109.77 661.63,109.68 662.45,113.14 663.26,116.26 664.07,118.94 664.88,118.14 665.70,117.37 666.51,119.73 667.32,120.90 668.13,116.57 668.95,117.44 669.76,114.92 670.57,117.75 671.38,117.99 672.20,114.52 673.01,114.11 673.82,115.37 674.64,115.87 675.45,117.55 676.26,115.07 677.07,111.77 677.89,112.74 678.70,110.49 679.51,108.42 680.32,108.50 681.14,105.43 681.95,106.02 682.76,107.17 683.58,110.93 684.39,108.39 685.20,105.59 686.01,104.75 686.83,102.03 687.64,100.51 688.45,103.20 689.26,103.08 690.08,101.31 690.89,103.72 691.70,101.98 692.51,103.55 693.33,105.34 694.14,103.34 694.95,107.02 695.77,107.63 696.58,107.78 697.39,104.42 698.20,103.28 699.02,103.92 699.83,103.86 700.64,103.29 701.45,103.00 702.27,97.26 703.08,93.65 703.89,93.00 704.70,91.02 705.52,88.41 706.33,88.78 707.14,86.22 707.96,83.38 708.77,81.60 709.58,78.02 710.39,74.67 711.21,72.83 712.02,73.26 712.83,71.72 713.64,69.12 714.46,67.27 715.27,64.84 716.08,64.71 716.89,64.17 717.71,62.91 718.52,60.86 719.33,61.49 720.15,59.33 720.96,58.83 721.77,57.78 722.58,53.99 723.40,54.87 724.21,52.98 725.02,51.63 725.83,49.14 726.65,49.82 727.46,48.83 728.27,51.08 729.08,50.86 729.90,50.21 730.71,51.43 731.52,50.81 732.34,50.19 733.15,47.22 733.96,46.67 734.77,45.93 735.59,46.92 736.40,47.35 737.21,46.17 738.02,46.01 738.84,44.10 739.65,44.17 740.46,44.00 741.27,44.91 742.09,44.00 742.90,44.37 743.71,44.00 744.53,44.00 745.34,44.00 746.15,44.00 746.96,44.00 747.78,44.00 748.59,44.00 749.40,44.00 750.21,44.00 751.03,44.00 751.84,44.00 752.65,44.00 753.47,44.00 754.28,44.00 755.09,44.00 755.90,44.00 756.72,44.00 757.53,44.00 758.34,44.00 759.15,44.00 759.97,44.00 760.78,44.00 761.59,44.00 762.40,44.00 763.22,44.00 764.03,44.00 764.84,44.00 765.66,44.00 766.47,44.00 767.28,44.00 768.09,44.00 768.91,44.00 769.72,44.00 770.53,44.00 771.34,44.00 772.16,44.00 772.97,44.00 773.78,44.00 774.59,45.93 775.41,48.96 776.22,48.40 777.03,50.43 777.85,50.70 778.66,52.95 779.47,53.91 780.28,54.66 781.10,56.39 781.91,62.06 782.72,63.82 783.53,66.42 784.35,69.43 785.16,74.50 785.97,77.82 786.78,80.55 787.60,82.93 788.41,84.44 789.22,87.85 790.04,90.90 790.85,90.79 791.66,95.63 792.47,94.79 793.29,94.90 794.10,92.75 794.91,95.67 795.72,91.13 796.54,89.69 797.35,91.11 798.16,89.61 798.97,86.04 799.79,84.18 800.60,83.36 801.41,85.02 802.23,89.26 803.04,89.55 803.85,89.44 804.66,91.46 805.48,93.36 806.29,95.45 807.10,99.20 807.91,103.36 808.73,104.33 809.54,107.78 810.35,112.14 811.16,113.14 811.98,116.60 812.79,122.07 813.60,123.82 814.42,127.01 815.23,126.11 816.04,125.06 816.85,125.33 817.67,126.36 818.48,128.71 819.29,126.85 820.10,128.40 820.92,127.18 821.73,125.61 822.54,125.41 823.36,122.88 824.17,125.44 824.98,126.11 825.79,125.92 826.61,126.30 827.42,129.47 828.23,131.95 829.04,135.40 829.86,131.54 830.67,130.48 831.48,131.31 832.29,126.45 833.11,127.82 833.92,126.49 834.73,127.54 835.55,129.06 836.36,130.03 837.17,135.23 837.98,133.77 838.80,136.42 839.61,137.05 840.42,137.37 841.23,136.50 842.05,134.66 842.86,134.98 843.67,135.94 844.48,139.45 845.30,139.95 846.11,142.53 846.92,142.77 847.74,146.80 848.55,152.52 849.36,158.67 850.17,164.22 850.99,167.52 851.80,170.11 852.61,172.12 853.42,176.94 854.24,179.89 855.05,182.10 855.86,186.05 856.67,190.69 857.49,198.70 858.30,204.66 859.11,210.39 859.93,219.75 860.74,226.52 861.55,232.90 862.36,235.51 863.18,239.90 863.99,240.07 864.80,239.55 865.61,247.09 866.43,250.65 867.24,251.33 868.05,252.73 868.86,259.86 869.68,262.08 870.49,261.09 871.30,262.95 872.12,261.16 872.93,265.83 873.74,266.31 874.55,261.96 875.37,260.48 876.18,261.32 876.99,255.26 877.80,254.96 878.62,253.27 879.43,244.81 880.24,240.87 881.05,241.25 881.87,237.87 882.68,237.60 883.49,236.53 884.31,239.80 885.12,237.90 885.93,240.33 886.74,237.35 887.56,236.09 888.37,240.86 889.18,242.92 889.99,237.99 890.81,244.11 891.62,242.27 892.43,248.00 893.25,252.62 894.06,255.08 894.87,251.95 895.68,254.87 896.50,252.02 897.31,250.11 898.12,245.45 898.93,244.23 899.75,238.23 900.56,239.87 901.37,238.14 902.18,238.45 903.00,237.25 903.81,239.20 904.62,237.65 905.44,242.86 906.25,238.89 907.06,238.66 907.87,238.11 908.69,244.17 909.50,245.51 910.31,246.07 911.12,249.04 911.94,250.67 912.75,253.45 913.56,257.43 914.37,254.53 915.19,255.21 916.00,254.11" fill="none" stroke="#145c9e" stroke-width="2.2"/>
  <text x="44" y="24" font-family="monospace" font-size="15" fill="#222">seatbelt.both.hang.zhangyu.20260205.batch.1 ep 000002</text>
  <text x="656" y="24" font-family="monospace" font-size="13" fill="#145c9e">diffusion_precision_score</text>
  <text x="656" y="44" font-family="monospace" font-size="12" fill="#a23b3b">precision threshold</text>
</svg>
