<svg xmlns="http://www.w3.org/2000/svg" width="960" height="320" viewBox="0 0 960 320">
  <rect width="100%" height="100%" fill="#fffaf0"/>
  <rect x="412.03" y="44" width="116.51" height="232" fill="#f3c565" opacity="0.24"/> <rect x="534.10" y="44" width="53.63" height="232" fill="#f3c565" opacity="0.24"/> <rect x="642.29" y="44" width="106.34" height="232" fill="#f3c565" opacity="0.24"/>
  <line x1="44" y1="276" x2="916" y2="276" stroke="#333" stroke-width="1"/>
  <line x1="44" y1="44" x2="44" y2="276" stroke="#333" stroke-width="1"/>
  <line x1="44" y1="83.41" x2="916" y2="83.41" stroke="#a23b3b" stroke-width="1.5" stroke-dasharray="6 6"/>
  <polyline points="44.00,276.00 44.93,276.00 45.85,276.00 46.78,276.00 47.70,276.00 48.63,276.00 49.55,276.00 50.48,276.00 51.41,276.00 52.33,276.00 53.26,276.00 54.18,276.00 55.11,276.00 56.03,276.00 56.96,276.00 57.89,276.00 58.81,276.00 59.74,276.00 60.66,276.00 61.59,276.00 62.51,276.00 63.44,276.00 64.37,276.00 65.29,276.00 66.22,276.00 67.14,276.00 68.07,276.00 68.99,276.00 69.92,276.00 70.85,276.00 71.77,271.76 72.70,268.37 73.62,259.38 74.55,254.24 75.47,245.97 76.40,236.05 77.32,231.76 78.25,222.98 79.18,213.31 80.10,208.93 81.03,197.28 81.95,189.83 82.88,183.51 83.80,175.67 84.73,166.90 85.66,162.02 86.58,154.81 87.51,147.54 88.43,140.75 89.36,138.34 90.28,131.24 91.21,127.87 92.14,121.23 93.06,117.24 93.99,115.55 94.91,111.76 95.84,107.85 96.76,105.47 97.69,101.66 98.62,101.63 99.54,100.98 100.47,103.86 101.39,105.68 102.32,100.78 103.24,100.68 104.17,96.65 105.10,94.70 106.02,93.55 106.95,94.65 107.87,94.86 108.80,96.94 109.72,93.95 110.65,94.41 111.58,94.17 112.50,91.85 113.43,92.02 114.35,90.00 115.28,90.22 116.20,91.30 117.13,89.97 118.06,93.26 118.98,95.86 119.91,101.01 120.83,103.05 121.76,106.13 122.68,111.81 123.61,112.01 124.54,112.66 125.46,114.40 126.39,114.62 127.31,117.50 128.24,124.43 129.16,126.33 130.09,127.51 131.01,130.54 131.94,130.53 132.87,131.53 133.79,130.48 134.72,132.51 135.64,130.20 136.57,129.79 137.49,129.89 138.42,129.87 139.35,132.85 140.27,135.02 141.20,137.04 142.12,136.30 143.05,136.79 143.97,134.99 144.90,135.29 145.83,137.64 146.75,140.76 147.68,143.59 148.60,146.42 149.53,151.85 150.45,147.82 151.38,151.21 152.31,154.29 153.23,156.70 154.16,152.85 155.08,154.74 156.01,157.27 156.93,161.87 157.86,167.64 158.79,170.21 159.71,171.64 160.64,173.92 161.56,178.04 162.49,177.49 163.41,179.23 164.34,182.11 165.27,183.59 166.19,188.53 167.12,187.73 168.04,185.58 168.97,188.77 169.89,191.34 170.82,193.39 171.75,191.85 172.67,196.36 173.60,194.62 174.52,196.72 175.45,199.74 176.37,199.84 177.30,199.05 178.23,197.79 179.15,196.52 180.08,196.56 181.00,196.66 181.93,195.66 182.85,198.82 183.78,202.87 184.70,201.85 185.63,201.43 186.56,200.26 187.48,199.08 188.41,192.13 189.33,193.58 190.26,194.01 191.18,192.57 192.11,191.27 193.04,186.06 193.96,188.21 194.89,187.16 195.81,183.67 196.74,181.86 197.66,181.59 198.59,175.93 199.52,173.68 200.44,169.99 201.37,171.10 202.29,172.34 203.22,169.05 204.14,168.64 205.07,166.00 206.00,162.37 206.92,158.30 207.85,157.74 208.77,160.31 209.70,154.75 210.62,154.73 211.55,153.80 212.48,154.10 213.40,156.05 214.33,158.56 215.25,157.64 216.18,159.17 217.10,158.57 218.03,157.76 218.96,160.96 219.88,161.59 220.81,161.17 221.73,160.26 222.66,164.63 223.58,168.47 224.51,165.73 225.44,167.57 226.36,169.39 227.29,171.96 228.21,174.46 229.14,175.50 230.06,176.24 230.99,175.27 231.92,178.01 232.84,177.71 233.77,176.19 234.69,178.28 235.62,178.13 236.54,178.82 237.47,179.59 238.39,176.43 239.32,177.54 240.25,179.85 241.17,182.04 242.10,183.05 243.02,183.29 243.95,183.85 244.87,185.36 245.80,184.46 246.73,187.22 247.65,186.78 248.58,189.42 249.50,194.93 250.43,191.93 251.35,195.15 252.28,196.98 253.21,199.64 254.13,201.81 255.06,198.27 255.98,198.59 256.91,199.15 257.83,195.21 258.76,198.56 259.69,195.37 260.61,192.69 261.54,194.49 262.46,193.24 263.39,192.76 264.31,189.24 265.24,185.49 266.17,185.99 267.09,183.30 268.02,185.93 268.94,184.23 269.87,184.82 270.79,184.32 271.72,184.02 272.65,183.37 273.57,182.53 274.50,181.91 275.42,182.26 276.35,182.25 277.27,186.49 278.20,186.53 279.13,187.24 280.05,187.47 280.98,188.82 281.90,189.92 282.83,193.71 283.75,193.41 284.68,192.07 285.61,194.44 286.53,197.98 287.46,202.16 288.38,211.90 289.31,220.94 290.23,219.92 291.16,219.20 292.08,224.48 293.01,219.34 293.94,225.07 294.86,227.27 295.79,232.63 296.71,234.49 297.64,239.68 298.56,237.34 299.49,238.90 300.42,243.35 301.34,243.33 302.27,245.76 303.19,247.15 304.12,241.44 305.04,235.93 305.97,245.32 306.90,250.51 307.82,249.63 308.75,252.67 309.67,254.01 310.60,255.63 311.52,259.66 312.45,265.04 313.38,262.54 314.30,262.80 315.23,262.55 316.15,259.88 317.08,261.77 318.00,255.82 318.93,254.45 319.86,252.15 320.78,251.48 321.71,244.67 322.63,242.88 323.56,237.01 324.48,237.56 325.41,232.11 326.34,229.52 327.26,224.30 328.19,218.43 329.11,218.43 330.04,220.04 330.96,214.75 331.89,218.03 332.82,213.53 333.74,214.38 334.67,212.83 335.59,212.79 336.52,211.76 337.44,210.73 338.37,210.09 339.30,209.73 340.22,210.06 341.15,212.53 342.07,213.28 343.00,216.13 343.92,214.01 344.85,210.81 345.77,210.63 346.70,215.43 347.63,212.32 348.55,211.72 349.48,213.96 350.40,214.66 351.33,214.29 352.25,215.79 353.18,209.15 354.11,207.52 355.03,211.71 355.96,208.20 356.88,202.26 357.81,199.58 358.73,195.18 359.66,193.59 360.59,194.96 361.51,192.35 362.44,187.12 363.36,189.25 364.29,186.00 365.21,184.31 366.14,182.21 367.07,181.80 367.99,179.85 368.92,186.34 369.84,185.98 370.77,188.10 371.69,187.93 372.62,192.01 373.55,194.83 374.47,196.76 375.40,199.23 376.32,199.50 377.25,202.27 378.17,207.63 379.10,205.40 380.03,213.51 380.95,211.63 381.88,215.28 382.80,215.83 383.73,216.10 384.65,212.15 385.58,210.00 386.51,208.81 387.43,209.12 388.36,201.33 389.28,193.89 390.21,192.26 391.13,185.62 392.06,180.34 392.99,175.44 393.91,165.45 394.84,162.02 395.76,153.58 396.69,149.33 397.61,142.80 398.54,137.15 399.46,135.12 400.39,131.14 401.32,130.57 402.24,125.47 403.17,120.21 404.09,126.41 405.02,126.00 405.94,116.85 406.87,116.71 407.80,115.82 408.72,112.50 409.65,113.71 410.57,112.24 411.50,108.93 412.42,107.79 413.35,106.32 414.28,104.90 415.20,99.32 416.13,97.07 417.05,91.90 417.98,87.77 418.90,86.50 419.83,79.80 420.76,74.94 421.68,73.77 422.61,70.04 423.53,65.82 424.46,63.99 425.38,62.37 426.31,59.10 427.24,57.91 428.16,55.87 429.09,52.83 430.01,50.01 430.94,51.38 431.86,49.95 432.79,49.42 433.72,47.09 434.64,46.90 435.57,44.48 436.49,44.24 437.42,48.29 438.34,49.84 439.27,50.81 440.20,49.54 441.12,48.82 442.05,48.23 442.97,47.86 443.90,47.00 444.82,45.72 445.75,45.43 446.68,46.12 447.60,45.18 448.53,47.06 449.45,46.27 450.38,44.00 451.30,47.72 452.23,46.79 453.15,44.00 454.08,44.00 455.01,44.00 455.93,44.00 456.86,44.00 457.78,44.71 458.71,46.27 459.63,46.23 460.56,45.22 461.49,45.91 462.41,44.45 463.34,47.38 464.26,46.41 465.19,46.10 466.11,46.38 467.04,47.92 467.97,50.14 468.89,51.18 469.82,53.97 470.74,53.63 471.67,53.56 472.59,57.40 473.52,56.30 474.45,55.82 475.37,56.41 476.30,58.13 477.22,57.49 478.15,55.86 479.07,54.54 480.00,56.24 480.93,58.60 481.85,61.75 482.78,59.00 483.70,62.79 484.63,64.42 485.55,62.67 486.48,62.39 487.41,65.27 488.33,63.69 489.26,66.80 490.18,66.74 491.11,70.95 492.03,72.71 492.96,76.53 493.89,82.72 494.81,83.04 495.74,83.54 496.66,83.87 497.59,86.40 498.51,84.39 499.44,82.64 500.37,82.49 501.29,84.27 502.22,87.01 503.14,84.73 504.07,85.82 504.99,84.44 505.92,85.59 506.85,82.93 507.77,82.39 508.70,80.23 509.62,76.67 510.55,78.69 511.47,76.92 512.40,80.29 513.32,77.58 514.25,79.30 515.18,78.82 516.10,82.35 517.03,85.02 517.95,84.00 518.88,82.77 519.80,82.78 520.73,82.67 521.66,83.76 522.58,83.73 523.51,84.98 524.43,85.54 525.36,88.38 526.28,89.39 527.21,93.03 528.14,90.33 529.06,91.17 529.99,94.75 530.91,96.04 531.84,92.34 532.76,89.10 533.69,90.34 534.62,91.13 535.54,91.30 536.47,93.04 537.39,91.77 538.32,90.03 539.24,88.69 540.17,87.78 541.10,83.96 542.02,79.35 542.95,73.48 543.87,72.98 544.80,69.14 545.72,63.59 546.65,60.84 547.58,59.18 548.50,58.47 549.43,56.05 550.35,53.68 551.28,51.64 552.20,46.14 553.13,44.00 554.06,44.00 554.98,44.28 555.91,44.33 556.83,44.00 557.76,44.00 558.68,44.00 559.61,44.00 560.54,44.00 561.46,44.00 562.39,44.00 563.31,46.97 564.24,47.63 565.16,47.93 566.09,50.33 567.01,51.68 567.94,53.96 568.87,55.85 569.79,57.17 570.72,55.41 571.64,57.14 572.57,58.52 573.49,58.15 574.42,60.24 575.35,66.16 576.27,69.90 577.20,75.32 578.12,78.05 579.05,78.62 579.97,82.61 580.90,87.29 581.83,90.43 582.75,93.96 583.68,97.75 584.60,101.15 585.53,102.13 586.45,104.49 587.38,105.43 588.31,110.06 589.23,113.80 590.16,117.04 591.08,118.75 592.01,121.18 592.93,119.69 593.86,120.70 594.79,122.02 595.71,120.81 596.64,117.87 597.56,119.03 598.49,116.05 599.41,115.88 600.34,118.45 601.27,119.59 602.19,120.28 603.12,122.43 604.04,119.53 604.97,118.23 605.89,114.87 606.82,111.03 607.75,108.89 608.67,107.94 609.60,109.20 610.52,108.44 611.45,106.95 612.37,107.71 613.30,107.55 614.23,107.94 615.15,107.03 616.08,106.41 617.00,104.71 617.93,106.07 618.85,104.37 619.78,107.27 620.70,108.60 621.63,110.35 622.56,110.41 623.48,112.49 624.41,113.11 625.33,113.28 626.26,110.36 627.18,110.55 628.11,111.11 629.04,112.04 629.96,114.77 630.89,117.18 631.81,117.79 632.74,120.34 633.66,119.40 634.59,119.55 635.52,118.68 636.44,116.91 637.37,116.72 638.29,116.88 639.22,115.60 640.14,115.56 641.07,110.07 642.00,110.09 642.92,107.16 643.85,106.25 644.77,102.31 645.70,99.90 646.62,97.50 647.55,91.40 648.48,87.18 649.40,84.12 650.33,81.51 651.25,78.44 652.18,76.05 653.10,72.29 654.03,66.00 654.96,60.44 655.88,56.87 656.81,54.32 657.73,50.43 658.66,51.38 659.58,47.33 660.51,44.15 661.44,44.00 662.36,44.00 663.29,44.00 664.21,44.00 665.14,44.00 666.06,44.00 666.99,44.00 667.92,44.00 668.84,44.00 669.77,44.00 670.69,44.00 671.62,44.00 672.54,44.00 673.47,44.00 674.39,44.00 675.32,44.00 676.25,44.00 677.17,44.00 678.10,44.00 679.02,44.00 679.95,44.00 680.87,44.00 681.80,44.00 682.73,44.00 683.65,44.00 684.58,44.00 685.50,44.00 686.43,44.00 687.35,44.00 688.28,44.00 689.21,44.00 690.13,44.00 691.06,44.00 691.98,44.00 692.91,44.00 693.83,44.00 694.76,44.00 695.69,44.00 696.61,44.00 697.54,44.00 698.46,44.00 699.39,44.00 700.31,44.00 701.24,44.00 702.17,44.00 703.09,44.00 704.02,44.00 704.94,44.00 705.87,44.00 706.79,44.00 707.72,44.00 708.65,44.00 709.57,44.00 710.50,44.00 711.42,44.00 712.35,44.00 713.27,44.00 714.20,44.00 715.13,44.00 716.05,44.00 716.98,44.00 717.90,44.00 718.83,44.00 719.75,44.00 720.68,44.00 721.61,44.00 722.53,44.00 723.46,45.07 724.38,46.95 725.31,47.21 726.23,49.43 727.16,52.50 728.08,54.50 729.01,52.32 729.94,53.38 730.86,55.68 731.79,57.44 732.71,58.07 733.64,63.92 734.56,66.59 735.49,70.97 736.42,73.68 737.34,76.28 738.27,77.99 739.19,77.84 740.12,77.99 741.04,81.01 741.97,86.37 742.90,87.05 743.82,87.77 744.75,90.88 745.67,89.96 746.60,90.27 747.52,94.70 748.45,97.18 749.38,95.42 750.30,95.09 751.23,94.65 752.15,93.02 753.08,96.91 754.00,99.88 754.93,103.71 755.86,108.23 756.78,110.97 757.71,112.45 758.63,114.05 759.56,114.09 760.48,114.70 761.41,118.11 762.34,122.70 763.26,120.18 764.19,124.90 765.11,126.30 766.04,127.92 766.96,133.83 767.89,135.77 768.82,134.61 769.74,132.04 770.67,131.85 771.59,129.73 772.52,128.34 773.44,126.78 774.37,128.44 775.30,130.00 776.22,128.16 777.15,130.40 778.07,129.73 779.00,127.72 779.92,126.19 780.85,127.32 781.77,127.17 782.70,122.50 783.63,123.79 784.55,122.78 785.48,122.02 786.40,123.70 787.33,129.14 788.25,128.82 789.18,131.69 790.11,130.28 791.03,129.17 791.96,132.25 792.88,132.98 793.81,132.99 794.73,139.27 795.66,140.97 796.59,144.83 797.51,149.49 798.44,152.36 799.36,154.50 800.29,158.43 801.21,166.29 802.14,170.12 803.07,171.28 803.99,178.05 804.92,179.96 805.84,186.90 806.77,191.70 807.69,194.25 808.62,195.77 809.55,205.35 810.47,209.86 811.40,211.06 812.32,212.08 813.25,216.60 814.17,221.02 815.10,225.49 816.03,230.86 816.95,229.54 817.88,234.68 818.80,237.63 819.73,240.58 820.65,243.64 821.58,246.45 822.51,250.40 823.43,255.68 824.36,257.51 825.28,256.77 826.21,257.26 827.13,264.66 828.06,269.70 828.99,271.66 829.91,276.00 830.84,276.00 831.76,276.00 832.69,276.00 833.61,276.00 834.54,276.00 835.46,276.00 836.39,276.00 837.32,276.00 838.24,276.00 839.17,276.00 840.09,276.00 841.02,276.00 841.94,276.00 842.87,276.00 843.80,276.00 844.72,276.00 845.65,276.00 846.57,276.00 847.50,276.00 848.42,276.00 849.35,276.00 850.28,276.00 851.20,276.00 852.13,276.00 853.05,276.00 853.98,276.00 854.90,276.00 855.83,276.00 856.76,276.00 857.68,276.00 858.61,276.00 859.53,276.00 860.46,276.00 861.38,276.00 862.31,276.00 863.24,276.00 864.16,276.00 865.09,276.00 866.01,276.00 866.94,276.00 867.86,276.00 868.79,276.00 869.72,276.00 870.64,276.00 871.57,276.00 872.49,276.00 873.42,276.00 874.34,276.00 875.27,276.00 876.20,276.00 877.12,276.00 878.05,276.00 878.97,276.00 879.90,276.00 880.82,276.00 881.75,276.00 882.68,276.00 883.60,276.00 884.53,276.00 885.45,276.00 886.38,276.00 887.30,276.00 888.23,276.00 889.15,276.00 890.08,276.00 891.01,276.00 891.93,276.00 892.86,276.00 893.78,276.00 894.71,276.00 895.63,276.00 896.56,276.00 897.49,276.00 898.41,276.00 899.34,276.00 900.26,276.00 901.19,276.00 902.11,276.00 903.04,276.00 903.97,276.00 904.89,276.00 905.82,276.00 906.74,276.00 907.67,276.00 908.59,276.00 909.52,276.00 910.45,276.00 911.37,276.00 912.30,276.00 913.22,276.00 914.15,276.00 915.07,276.00 916.00,276.00" fill="none" stroke="#145c9e" stroke-width="2.2"/>
  <text x="44" y="24" font-family="monospace" font-size="15" fill="#222">seatbelt.both.hang.zhangyu.20260205.batch.1 ep 000003</text>
  <text x="656" y="24" font-family="monospace" font-size="13" fill="#145c9e">diffusion_precision_score</text>
  <text x="656" y="44" font-family="monospace" font-size="12" fill="#a23b3b">precision threshold</text>
</svg>
