<svg xmlns="http://www.w3.org/2000/svg" width="960" height="320" viewBox="0 0 960 320">
  <rect width="100%" height="100%" fill="#fffaf0"/>
  <rect x="344.79" y="44" width="239.07" height="232" fill="#f3c565" opacity="0.24"/> <rect x="613.25" y="44" width="125.41" height="232" fill="#f3c565" opacity="0.24"/>
  <line x1="44" y1="276" x2="916" y2="276" stroke="#333" stroke-width="1"/>
  <line x1="44" y1="44" x2="44" y2="276" stroke="#333" stroke-width="1"/>
  <line x1="44" y1="83.41" x2="916" y2="83.41" stroke="#a23b3b" stroke-width="1.5" stroke-dasharray="6 6"/>
  <polyline points="44.00,254.75 44.98,252.98 45.96,253.11 46.94,254.35 47.92,255.45 48.90,258.76 49.89,258.34 50.87,259.14 51.85,262.16 52.83,265.33 53.81,271.40 54.79,263.32 55.77,263.14 56.75,266.54 57.73,270.66 58.71,266.94 59.69,261.55 60.67,259.49 61.66,264.27 62.64,269.05 63.62,267.39 64.60,267.88 65.58,265.75 66.56,269.22 67.54,266.82 68.52,263.16 69.50,260.55 70.48,257.32 71.46,259.95 72.45,255.50 73.43,250.66 74.41,244.87 75.39,245.68 76.37,241.90 77.35,239.12 78.33,231.43 79.31,223.32 80.29,219.40 81.27,215.12 82.25,209.36 83.24,201.99 84.22,198.90 85.20,194.75 86.18,187.93 87.16,178.65 88.14,172.06 89.12,171.89 90.10,168.52 91.08,165.30 92.06,159.17 93.04,157.76 94.02,155.65 95.01,153.49 95.99,150.52 96.97,148.32 97.95,146.23 98.93,145.92 99.91,142.45 100.89,137.43 101.87,135.66 102.85,132.45 103.83,133.14 104.81,131.39 105.80,126.29 106.78,125.89 107.76,127.68 108.74,125.49 109.72,122.82 110.70,120.97 111.68,118.12 112.66,117.52 113.64,112.53 114.62,109.16 115.60,103.49 116.58,101.76 117.57,104.51 118.55,102.29 119.53,101.47 120.51,98.80 121.49,97.64 122.47,98.15 123.45,96.90 124.43,90.93 125.41,88.66 126.39,92.62 127.37,92.27 128.36,96.74 129.34,96.82 130.32,101.91 131.30,105.52 132.28,109.28 133.26,109.95 134.24,109.31 135.22,110.01 136.20,116.77 137.18,118.63 138.16,119.60 139.15,123.97 140.13,130.27 141.11,133.94 142.09,138.88 143.07,137.34 144.05,139.68 145.03,138.47 146.01,142.72 146.99,147.57 147.97,149.60 148.95,147.85 149.93,151.64 150.92,156.46 151.90,162.03 152.88,157.20 153.86,156.49 154.84,159.77 155.82,160.00 156.80,157.42 157.78,161.46 158.76,162.10 159.74,163.11 160.72,166.25 161.71,167.71 162.69,166.49 163.67,164.99 164.65,162.99 165.63,167.38 166.61,170.51 167.59,168.91 168.57,168.72 169.55,172.38 170.53,175.56 171.51,175.69 172.49,175.57 173.48,173.52 174.46,169.77 175.44,170.14 176.42,168.89 177.40,166.25 178.38,164.71 179.36,164.47 180.34,163.69 181.32,163.36 182.30,165.03 183.28,161.21 184.27,159.55 185.25,157.10 186.23,158.16 187.21,156.35 188.19,155.22 189.17,155.48 190.15,157.70 191.13,159.12 192.11,159.08 193.09,163.49 194.07,164.99 195.06,168.72 196.04,170.61 197.02,170.10 198.00,171.87 198.98,169.98 199.96,171.10 200.94,172.28 201.92,178.40 202.90,176.71 203.88,179.00 204.86,183.35 205.84,182.77 206.83,184.44 207.81,185.33 208.79,187.06 209.77,182.65 210.75,185.62 211.73,185.01 212.71,183.90 213.69,183.20 214.67,180.59 215.65,184.17 216.63,186.92 217.62,188.70 218.60,179.99 219.58,178.10 220.56,174.38 221.54,167.44 222.52,164.04 223.50,160.76 224.48,159.14 225.46,158.70 226.44,159.06 227.42,156.35 228.40,153.27 229.39,150.87 230.37,148.85 231.35,148.27 232.33,144.94 233.31,142.56 234.29,139.41 235.27,141.99 236.25,145.45 237.23,148.08 238.21,148.72 239.19,149.69 240.18,150.49 241.16,149.03 242.14,142.96 243.12,145.74 244.10,143.89 245.08,143.35 246.06,144.01 247.04,147.33 248.02,150.04 249.00,147.46 249.98,146.45 250.97,147.18 251.95,148.06 252.93,148.65 253.91,147.16 254.89,149.87 255.87,152.26 256.85,149.94 257.83,153.69 258.81,157.51 259.79,158.18 260.77,159.44 261.75,160.63 262.74,161.32 263.72,160.89 264.70,161.56 265.68,161.65 266.66,162.24 267.64,163.12 268.62,164.66 269.60,162.82 270.58,163.84 271.56,162.76 272.54,160.81 273.53,160.89 274.51,158.99 275.49,161.46 276.47,160.53 277.45,159.18 278.43,163.08 279.41,162.77 280.39,164.03 281.37,161.54 282.35,164.93 283.33,169.66 284.31,172.30 285.30,173.91 286.28,177.45 287.26,179.41 288.24,186.72 289.22,190.56 290.20,196.06 291.18,198.88 292.16,200.81 293.14,202.80 294.12,209.30 295.10,207.73 296.09,214.64 297.07,216.74 298.05,220.12 299.03,221.82 300.01,217.56 300.99,220.90 301.97,220.97 302.95,222.58 303.93,222.34 304.91,214.38 305.89,213.44 306.88,214.25 307.86,213.96 308.84,213.80 309.82,213.46 310.80,210.29 311.78,211.88 312.76,210.71 313.74,214.12 314.72,215.71 315.70,214.36 316.68,218.12 317.66,215.53 318.65,215.34 319.63,214.93 320.61,221.65 321.59,223.52 322.57,220.88 323.55,220.36 324.53,216.57 325.51,211.86 326.49,209.42 327.47,203.73 328.45,203.07 329.44,193.73 330.42,185.52 331.40,179.37 332.38,175.12 333.36,169.73 334.34,162.77 335.32,157.49 336.30,151.93 337.28,142.23 338.26,135.54 339.24,133.94 340.22,130.48 341.21,125.33 342.19,123.64 343.17,121.09 344.15,120.04 345.13,112.91 346.11,110.07 347.09,106.29 348.07,100.18 349.05,96.33 350.03,90.81 351.01,87.89 352.00,83.90 352.98,81.01 353.96,76.28 354.94,75.67 355.92,71.25 356.90,65.01 357.88,67.30 358.86,64.10 359.84,58.84 360.82,54.55 361.80,55.07 362.79,54.26 363.77,51.14 364.75,52.71 365.73,52.09 366.71,50.80 367.69,49.21 368.67,47.44 369.65,45.00 370.63,44.00 371.61,44.00 372.59,44.00 373.57,44.00 374.56,44.00 375.54,44.00 376.52,44.00 377.50,44.00 378.48,44.00 379.46,44.00 380.44,44.00 381.42,44.00 382.40,44.00 383.38,44.00 384.36,44.00 385.35,44.00 386.33,44.00 387.31,44.00 388.29,44.00 389.27,44.00 390.25,44.00 391.23,44.00 392.21,44.00 393.19,44.00 394.17,44.00 395.15,44.00 396.13,44.00 397.12,44.00 398.10,44.00 399.08,44.00 400.06,44.00 401.04,44.00 402.02,44.00 403.00,44.00 403.98,44.00 404.96,44.00 405.94,44.00 406.92,44.00 407.91,44.00 408.89,44.00 409.87,44.00 410.85,44.00 411.83,44.00 412.81,44.00 413.79,44.00 414.77,44.00 415.75,44.00 416.73,44.00 417.71,44.00 418.70,44.00 419.68,44.00 420.66,44.00 421.64,44.00 422.62,44.00 423.60,44.00 424.58,44.00 425.56,44.00 426.54,44.00 427.52,44.00 428.50,44.00 429.48,44.00 430.47,44.00 431.45,44.00 432.43,44.00 433.41,44.00 434.39,44.00 435.37,44.00 436.35,44.00 437.33,44.00 438.31,44.00 439.29,44.00 440.27,44.00 441.26,44.00 442.24,44.00 443.22,44.00 444.20,44.00 445.18,44.00 446.16,44.00 447.14,44.00 448.12,44.00 449.10,44.00 450.08,44.00 451.06,44.00 452.04,44.00 453.03,44.00 454.01,44.00 454.99,44.00 455.97,44.00 456.95,44.00 457.93,44.00 458.91,44.00 459.89,44.00 460.87,44.00 461.85,44.00 462.83,44.00 463.82,44.00 464.80,44.00 465.78,44.00 466.76,44.00 467.74,44.00 468.72,44.00 469.70,44.00 470.68,44.00 471.66,44.00 472.64,44.00 473.62,44.00 474.61,44.00 475.59,44.00 476.57,44.00 477.55,44.00 478.53,44.00 479.51,44.00 480.49,44.00 481.47,44.00 482.45,44.00 483.43,44.00 484.41,44.00 485.39,44.00 486.38,44.00 487.36,44.00 488.34,44.00 489.32,44.00 490.30,44.00 491.28,44.00 492.26,44.00 493.24,44.00 494.22,44.00 495.20,44.00 496.18,44.00 497.17,44.00 498.15,44.00 499.13,44.00 500.11,44.00 501.09,44.00 502.07,44.00 503.05,44.00 504.03,44.00 505.01,44.00 505.99,44.00 506.97,44.00 507.96,44.00 508.94,44.00 509.92,44.00 510.90,44.00 511.88,44.00 512.86,44.00 513.84,44.00 514.82,44.00 515.80,44.00 516.78,44.00 517.76,44.00 518.74,44.00 519.73,44.00 520.71,44.00 521.69,44.00 522.67,44.00 523.65,44.00 524.63,44.00 525.61,44.00 526.59,44.00 527.57,44.00 528.55,44.00 529.53,44.00 530.52,44.00 531.50,44.00 532.48,44.00 533.46,44.00 534.44,44.00 535.42,44.00 536.40,44.00 537.38,44.00 538.36,44.89 539.34,46.51 540.32,51.82 541.30,52.96 542.29,53.88 543.27,56.34 544.25,58.62 545.23,58.99 546.21,58.89 547.19,60.85 548.17,63.11 549.15,63.62 550.13,61.86 551.11,64.66 552.09,67.20 553.08,72.01 554.06,71.42 555.04,71.30 556.02,74.46 557.00,72.72 557.98,74.01 558.96,74.00 559.94,72.95 560.92,75.67 561.90,78.51 562.88,82.76 563.87,81.15 564.85,82.27 565.83,82.91 566.81,84.11 567.79,83.10 568.77,85.39 569.75,81.75 570.73,83.22 571.71,84.65 572.69,81.61 573.67,82.17 574.65,82.85 575.64,83.30 576.62,86.68 577.60,87.81 578.58,86.75 579.56,86.76 580.54,88.37 581.52,86.98 582.50,87.46 583.48,91.88 584.46,91.71 585.44,88.36 586.43,88.10 587.41,86.65 588.39,89.05 589.37,90.31 590.35,91.65 591.33,94.54 592.31,96.05 593.29,95.18 594.27,96.38 595.25,96.56 596.23,97.06 597.21,98.32 598.20,100.05 599.18,101.80 600.16,100.70 601.14,103.39 602.12,103.69 603.10,105.70 604.08,109.15 605.06,110.58 606.04,111.13 607.02,114.14 608.00,111.69 608.99,111.88 609.97,113.48 610.95,111.05 611.93,112.57 612.91,108.40 613.89,103.32 614.87,99.17 615.85,97.62 616.83,96.18 617.81,92.63 618.79,91.13 619.78,86.61 620.76,84.15 621.74,81.65 622.72,79.85 623.70,73.65 624.68,73.03 625.66,70.13 626.64,64.10 627.62,63.10 628.60,59.65 629.58,61.22 630.56,61.99 631.55,61.15 632.53,61.30 633.51,60.90 634.49,61.28 635.47,62.23 636.45,62.62 637.43,62.17 638.41,59.76 639.39,59.58 640.37,61.04 641.35,60.67 642.34,61.04 643.32,62.46 644.30,61.48 645.28,62.58 646.26,61.41 647.24,59.42 648.22,58.66 649.20,53.11 650.18,50.24 651.16,49.07 652.14,46.87 653.12,46.79 654.11,46.24 655.09,47.16 656.07,46.95 657.05,45.86 658.03,44.00 659.01,44.00 659.99,44.00 660.97,44.00 661.95,44.00 662.93,44.00 663.91,44.00 664.90,44.00 665.88,44.19 666.86,44.00 667.84,44.00 668.82,44.74 669.80,45.27 670.78,44.00 671.76,44.00 672.74,44.00 673.72,44.00 674.70,44.00 675.69,44.00 676.67,44.00 677.65,44.00 678.63,44.00 679.61,44.00 680.59,44.00 681.57,44.00 682.55,44.00 683.53,44.00 684.51,44.00 685.49,44.00 686.47,45.14 687.46,49.67 688.44,53.05 689.42,56.25 690.40,56.82 691.38,55.26 692.36,57.51 693.34,60.82 694.32,60.27 695.30,64.33 696.28,66.95 697.26,68.20 698.25,71.41 699.23,71.28 700.21,72.37 701.19,74.71 702.17,75.51 703.15,74.40 704.13,73.61 705.11,73.38 706.09,72.00 707.07,70.13 708.05,71.66 709.03,70.06 710.02,68.43 711.00,66.67 711.98,65.64 712.96,66.19 713.94,66.89 714.92,64.66 715.90,66.55 716.88,69.28 717.86,68.41 718.84,69.17 719.82,70.57 720.81,68.48 721.79,68.25 722.77,68.54 723.75,72.18 724.73,72.27 725.71,72.99 726.69,74.85 727.67,78.80 728.65,80.53 729.63,82.54 730.61,82.95 731.60,85.48 732.58,87.51 733.56,88.41 734.54,92.42 735.52,94.68 736.50,95.53 737.48,99.51 738.46,104.49 739.44,107.09 740.42,106.78 741.40,108.39 742.38,112.25 743.37,112.80 744.35,117.13 745.33,120.24 746.31,118.89 747.29,121.75 748.27,125.48 749.25,125.25 750.23,125.70 751.21,123.88 752.19,124.87 753.17,127.19 754.16,124.97 755.14,121.90 756.12,121.95 757.10,124.34 758.08,127.06 759.06,126.83 760.04,126.00 761.02,122.08 762.00,121.05 762.98,124.32 763.96,121.84 764.94,117.54 765.93,116.50 766.91,112.95 767.89,113.84 768.87,112.90 769.85,110.83 770.83,110.55 771.81,107.70 772.79,108.43 773.77,105.70 774.75,103.95 775.73,99.64 776.72,98.65 777.70,100.48 778.68,96.10 779.66,88.74 780.64,89.35 781.62,88.56 782.60,88.83 783.58,92.22 784.56,91.85 785.54,89.33 786.52,86.72 787.51,85.42 788.49,85.87 789.47,81.20 790.45,84.09 791.43,82.81 792.41,83.35 793.39,87.77 794.37,88.61 795.35,90.07 796.33,96.92 797.31,96.17 798.29,99.90 799.28,101.85 800.26,101.98 801.24,105.95 802.22,109.01 803.20,117.57 804.18,124.96 805.16,132.05 806.14,138.83 807.12,142.53 808.10,148.18 809.08,153.73 810.07,154.15 811.05,157.04 812.03,161.53 813.01,160.05 813.99,170.12 814.97,172.50 815.95,177.24 816.93,179.07 817.91,178.41 818.89,187.43 819.87,186.23 820.85,183.61 821.84,182.98 822.82,184.39 823.80,182.64 824.78,181.03 825.76,179.94 826.74,181.97 827.72,181.48 828.70,181.58 829.68,184.69 830.66,180.99 831.64,179.66 832.63,176.12 833.61,180.60 834.59,180.67 835.57,175.10 836.55,176.24 837.53,181.35 838.51,181.80 839.49,182.36 840.47,186.11 841.45,186.35 842.43,189.73 843.42,189.56 844.40,189.72 845.38,194.48 846.36,194.56 847.34,195.97 848.32,200.32 849.30,203.28 850.28,200.29 851.26,204.97 852.24,204.71 853.22,205.45 854.20,202.66 855.19,205.26 856.17,205.51 857.15,203.25 858.13,207.58 859.11,209.66 860.09,210.60 861.07,211.71 862.05,207.51 863.03,212.73 864.01,212.01 864.99,209.87 865.98,209.40 866.96,209.74 867.94,206.88 868.92,206.79 869.90,207.16 870.88,209.31 871.86,211.30 872.84,208.89 873.82,209.54 874.80,209.77 875.78,206.77 876.76,205.59 877.75,209.14 878.73,211.16 879.71,210.62 880.69,212.22 881.67,212.12 882.65,212.91 883.63,215.05 884.61,213.54 885.59,218.73 886.57,220.50 887.55,221.64 888.54,221.07 889.52,224.93 890.50,226.07 891.48,222.52 892.46,226.55 893.44,232.28 894.42,231.64 895.40,233.57 896.38,231.04 897.36,230.90 898.34,231.49 899.33,227.61 900.31,227.10 901.29,230.08 902.27,226.46 903.25,223.26 904.23,223.93 905.21,222.45 906.19,221.58 907.17,218.09 908.15,223.85 909.13,225.26 910.11,224.28 911.10,225.12 912.08,226.76 913.06,229.85 914.04,232.33 915.02,235.56 916.00,243.58" fill="none" stroke="#145c9e" stroke-width="2.2"/>
  <text x="44" y="24" font-family="monospace" font-size="15" fill="#222">seatbelt.both.hang.zhangyu.20260205.batch.1 ep 000001</text>
  <text x="656" y="24" font-family="monospace" font-size="13" fill="#145c9e">diffusion_precision_score</text>
  <text x="656" y="44" font-family="monospace" font-size="12" fill="#a23b3b">precision threshold</text>
</svg>
