<svg xmlns="http://www.w3.org/2000/svg" width="960" height="360" viewBox="0 0 960 360">
<rect width="100%" height="100%" fill="#fffaf0"/>
<line x1="52" y1="308" x2="908" y2="308" stroke="#333" stroke-width="1"/>
<line x1="52" y1="52" x2="52" y2="308" stroke="#333" stroke-width="1"/>
<text x="52" y="28" font-family="monospace" font-size="15" fill="#222">BC precision score curves</text>
<polyline points="52.00,52.00 52.83,52.00 53.66,52.00 54.49,56.37 55.32,52.53 56.15,52.00 56.98,52.00 57.81,52.00 58.64,52.37 59.47,52.00 60.29,52.00 61.12,58.86 61.95,52.44 62.78,54.97 63.61,52.00 64.44,52.00 65.27,52.00 66.10,52.00 66.93,52.98 67.76,52.00 68.59,52.00 69.42,52.00 70.25,52.69 71.08,52.00 71.91,52.00 72.74,53.50 73.57,52.00 74.40,52.00 75.22,53.85 76.05,52.00 76.88,68.56 77.71,52.00 78.54,52.00 79.37,52.88 80.20,52.05 81.03,52.05 81.86,58.32 82.69,78.13 83.52,95.77 84.35,105.95 85.18,74.16 86.01,96.31 86.84,99.38 87.67,86.12 88.50,91.09 89.33,113.28 90.16,172.42 90.98,141.51 91.81,134.19 92.64,136.80 93.47,142.10 94.30,143.14 95.13,197.27 95.96,207.46 96.79,188.99 97.62,186.56 98.45,261.38 99.28,150.69 100.11,186.79 100.94,179.81 101.77,189.36 102.60,203.23 103.43,203.07 104.26,209.12 105.09,206.36 105.91,197.38 106.74,266.05 107.57,238.18 108.40,210.39 109.23,204.73 110.06,212.39 110.89,199.56 111.72,174.55 112.55,207.65 113.38,308.00 114.21,229.94 115.04,179.34 115.87,174.52 116.70,206.18 117.53,194.65 118.36,180.54 119.19,186.42 120.02,166.80 120.84,171.05 121.67,197.02 122.50,226.57 123.33,208.88 124.16,238.44 124.99,255.01 125.82,223.55 126.65,230.50 127.48,166.60 128.31,189.72 129.14,214.28 129.97,210.19 130.80,161.06 131.63,167.61 132.46,164.02 133.29,138.66 134.12,134.60 134.95,128.52 135.78,117.56 136.60,123.49 137.43,103.05 138.26,114.99 139.09,101.59 139.92,137.36 140.75,109.22 141.58,106.72 142.41,140.44 143.24,137.91 144.07,139.91 144.90,153.59 145.73,131.85 146.56,147.38 147.39,167.79 148.22,140.15 149.05,151.33 149.88,87.82 150.71,86.18 151.53,80.81 152.36,91.96 153.19,101.91 154.02,101.92 154.85,103.89 155.68,99.69 156.51,112.43 157.34,118.09 158.17,94.19 159.00,89.44 159.83,99.71 160.66,124.56 161.49,114.28 162.32,118.11 163.15,91.92 163.98,99.21 164.81,96.71 165.64,99.19 166.47,96.84 167.29,96.51 168.12,94.95 168.95,119.53 169.78,119.34 170.61,150.60 171.44,169.36 172.27,161.90 173.10,109.01 173.93,104.24 174.76,113.86 175.59,110.43 176.42,124.27 177.25,111.00 178.08,105.59 178.91,155.11 179.74,167.94 180.57,124.69 181.40,105.00 182.22,104.76 183.05,126.50 183.88,122.85 184.71,155.45 185.54,118.96 186.37,113.66 187.20,125.92 188.03,217.71 188.86,296.20 189.69,222.65 190.52,209.43 191.35,248.58 192.18,164.61 193.01,189.58 193.84,178.11 194.67,147.92 195.50,153.04 196.33,134.01 197.16,140.19 197.98,149.51 198.81,178.00 199.64,205.86 200.47,140.88 201.30,308.00 202.13,182.81 202.96,216.48 203.79,169.01 204.62,167.33 205.45,167.96 206.28,167.94 207.11,199.84 207.94,184.04 208.77,235.56 209.60,250.12 210.43,237.68 211.26,255.66 212.09,234.12 212.91,256.89 213.74,240.53 214.57,222.30 215.40,243.00 216.23,252.00 217.06,228.45 217.89,245.45 218.72,259.21 219.55,286.99 220.38,267.61 221.21,272.75 222.04,271.30 222.87,290.61 223.70,263.44 224.53,283.54 225.36,273.26 226.19,294.27 227.02,269.10 227.84,274.24 228.67,294.12 229.50,276.26 230.33,286.81 231.16,275.91 231.99,308.00 232.82,308.00 233.65,308.00 234.48,241.26 235.31,230.72 236.14,256.22 236.97,241.32 237.80,270.45 238.63,288.64 239.46,308.00 240.29,281.37 241.12,213.28 241.95,212.06 242.78,174.29 243.60,177.19 244.43,217.53 245.26,275.06 246.09,215.25 246.92,271.13 247.75,308.00 248.58,308.00 249.41,268.14 250.24,284.65 251.07,281.72 251.90,257.16 252.73,232.53 253.56,229.46 254.39,214.72 255.22,182.67 256.05,191.09 256.88,185.14 257.71,166.25 258.53,175.27 259.36,143.51 260.19,151.28 261.02,184.02 261.85,161.42 262.68,147.49 263.51,160.07 264.34,142.91 265.17,120.02 266.00,114.87 266.83,154.12 267.66,165.09 268.49,135.67 269.32,192.97 270.15,195.78 270.98,173.91 271.81,127.44 272.64,120.75 273.47,175.72 274.29,135.82 275.12,138.97 275.95,174.59 276.78,145.23 277.61,163.58 278.44,191.94 279.27,155.80 280.10,116.24 280.93,123.51 281.76,122.00 282.59,123.84 283.42,136.60 284.25,143.29 285.08,130.08 285.91,160.19 286.74,119.75 287.57,126.25 288.40,134.67 289.22,137.39 290.05,122.51 290.88,121.65 291.71,134.11 292.54,131.60 293.37,140.46 294.20,137.42 295.03,133.28 295.86,134.31 296.69,135.11 297.52,124.33 298.35,129.29 299.18,137.74 300.01,127.10 300.84,127.33 301.67,113.31 302.50,125.27 303.33,124.48 304.16,119.74 304.98,117.59 305.81,118.86 306.64,110.62 307.47,120.45 308.30,121.30 309.13,113.75 309.96,127.10 310.79,130.52 311.62,125.85 312.45,141.77 313.28,148.58 314.11,144.80 314.94,158.10 315.77,121.86 316.60,120.21 317.43,130.15 318.26,141.78 319.09,121.94 319.91,138.08 320.74,130.18 321.57,116.79 322.40,121.77 323.23,119.92 324.06,120.19 324.89,130.71 325.72,122.10 326.55,122.37 327.38,118.02 328.21,118.75 329.04,124.30 329.87,125.02 330.70,165.94 331.53,120.37 332.36,130.90 333.19,125.82 334.02,111.14 334.84,126.04 335.67,123.23 336.50,129.69 337.33,129.68 338.16,119.00 338.99,124.21 339.82,116.84 340.65,139.35 341.48,135.02 342.31,124.67 343.14,151.22 343.97,191.23 344.80,156.49 345.63,147.46 346.46,124.12 347.29,120.51 348.12,114.31 348.95,126.58 349.78,138.14 350.60,152.75 351.43,128.03 352.26,124.43 353.09,119.25 353.92,113.02 354.75,113.49 355.58,126.51 356.41,130.34 357.24,130.89 358.07,136.04 358.90,95.41 359.73,134.42 360.56,124.34 361.39,123.79 362.22,133.40 363.05,137.22 363.88,130.37 364.71,154.44 365.53,102.45 366.36,120.64 367.19,100.07 368.02,129.57 368.85,108.08 369.68,124.49 370.51,110.08 371.34,100.17 372.17,131.56 373.00,114.44 373.83,119.24 374.66,127.37 375.49,112.54 376.32,120.41 377.15,122.42 377.98,128.51 378.81,97.21 379.64,77.77 380.47,103.55 381.29,92.67 382.12,100.14 382.95,79.78 383.78,103.05 384.61,92.91 385.44,116.89 386.27,117.82 387.10,208.55 387.93,188.31 388.76,172.78 389.59,210.25 390.42,89.17 391.25,105.46 392.08,82.55 392.91,100.75 393.74,91.10 394.57,101.69 395.40,91.34 396.22,99.53 397.05,102.07 397.88,104.73 398.71,85.84 399.54,126.79 400.37,172.41 401.20,140.83 402.03,100.53 402.86,132.96 403.69,101.94 404.52,107.49 405.35,125.52 406.18,152.84 407.01,140.57 407.84,118.14 408.67,120.38 409.50,138.53 410.33,134.01 411.16,124.19 411.98,119.25 412.81,175.14 413.64,129.30 414.47,146.94 415.30,143.22 416.13,153.14 416.96,170.62 417.79,135.22 418.62,116.01 419.45,103.70 420.28,160.75 421.11,147.39 421.94,232.80 422.77,106.51 423.60,110.82 424.43,98.61 425.26,88.17 426.09,79.65 426.91,230.96 427.74,95.90 428.57,104.04 429.40,111.80 430.23,161.74 431.06,111.58 431.89,92.48 432.72,150.08 433.55,77.47 434.38,76.92 435.21,62.84 436.04,75.71 436.87,95.54 437.70,75.88 438.53,69.29 439.36,72.61 440.19,81.44 441.02,66.79 441.84,63.36 442.67,53.49 443.50,66.40 444.33,73.67 445.16,85.62 445.99,67.96 446.82,64.12 447.65,111.10 448.48,91.03 449.31,114.75 450.14,69.45 450.97,68.94 451.80,70.00 452.63,65.77 453.46,67.27 454.29,52.00 455.12,52.00 455.95,104.87 456.78,52.57 457.60,74.26 458.43,62.66 459.26,61.10 460.09,56.25 460.92,62.78 461.75,56.83 462.58,70.88 463.41,82.88 464.24,59.71 465.07,52.00 465.90,66.97 466.73,91.18 467.56,52.00 468.39,57.53 469.22,62.76 470.05,56.56 470.88,71.35 471.71,69.52 472.53,62.39 473.36,79.93 474.19,92.10 475.02,61.18 475.85,119.62 476.68,71.68 477.51,74.38 478.34,89.04 479.17,135.21 480.00,86.39 480.83,135.60 481.66,84.07 482.49,98.84 483.32,102.74 484.15,105.34 484.98,74.72 485.81,90.49 486.64,98.35 487.47,87.23 488.29,72.35 489.12,89.14 489.95,94.93 490.78,75.57 491.61,87.28 492.44,87.49 493.27,105.35 494.10,79.72 494.93,87.86 495.76,91.29 496.59,90.04 497.42,97.82 498.25,104.48 499.08,127.89 499.91,66.34 500.74,59.83 501.57,69.06 502.40,166.24 503.22,64.95 504.05,89.29 504.88,90.38 505.71,90.24 506.54,93.79 507.37,95.78 508.20,104.22 509.03,111.98 509.86,110.13 510.69,83.82 511.52,192.47 512.35,129.43 513.18,181.25 514.01,179.20 514.84,159.96 515.67,240.15 516.50,224.18 517.33,211.65 518.16,209.66 518.98,215.16 519.81,187.85 520.64,201.41 521.47,224.04 522.30,214.01 523.13,295.08 523.96,308.00 524.79,243.91 525.62,232.06 526.45,245.96 527.28,253.21 528.11,203.92 528.94,308.00 529.77,308.00 530.60,293.63 531.43,286.62 532.26,308.00 533.09,288.26 533.91,308.00 534.74,293.58 535.57,244.28 536.40,237.09 537.23,207.36 538.06,294.96 538.89,263.30 539.72,277.81 540.55,308.00 541.38,308.00 542.21,308.00 543.04,308.00 543.87,292.17 544.70,301.48 545.53,308.00 546.36,308.00 547.19,293.30 548.02,308.00 548.84,308.00 549.67,280.82 550.50,281.30 551.33,229.16 552.16,196.17 552.99,231.73 553.82,196.34 554.65,234.78 555.48,286.18 556.31,217.36 557.14,240.10 557.97,213.80 558.80,232.24 559.63,219.68 560.46,235.75 561.29,200.76 562.12,165.93 562.95,182.15 563.78,254.93 564.60,194.09 565.43,161.79 566.26,308.00 567.09,178.14 567.92,224.50 568.75,239.13 569.58,171.58 570.41,165.12 571.24,194.71 572.07,190.31 572.90,184.93 573.73,130.95 574.56,227.93 575.39,158.39 576.22,154.28 577.05,239.79 577.88,237.51 578.71,159.10 579.53,190.41 580.36,191.72 581.19,187.04 582.02,153.50 582.85,137.35 583.68,162.95 584.51,219.65 585.34,199.47 586.17,226.73 587.00,244.91 587.83,236.64 588.66,244.59 589.49,232.93 590.32,252.27 591.15,277.01 591.98,260.49 592.81,213.29 593.64,272.24 594.47,298.99 595.29,274.86 596.12,200.71 596.95,174.69 597.78,202.14 598.61,204.64 599.44,253.50 600.27,254.31 601.10,258.59 601.93,308.00 602.76,132.72 603.59,150.51 604.42,119.88 605.25,144.94 606.08,149.84 606.91,159.40 607.74,163.88 608.57,176.67 609.40,174.55 610.22,184.60 611.05,243.56 611.88,196.44 612.71,187.43 613.54,209.83 614.37,200.48 615.20,267.16 616.03,286.29 616.86,247.53 617.69,258.75 618.52,251.39 619.35,209.68 620.18,225.36 621.01,183.89 621.84,196.80 622.67,179.78 623.50,187.60 624.33,193.99 625.16,166.68 625.98,160.24 626.81,196.49 627.64,186.75 628.47,213.55 629.30,213.71 630.13,182.70 630.96,203.12 631.79,150.77 632.62,200.38 633.45,165.90 634.28,201.77 635.11,185.88 635.94,184.52 636.77,188.68 637.60,184.46 638.43,192.97 639.26,179.93 640.09,205.72 640.91,164.31 641.74,196.07 642.57,186.75 643.40,170.21 644.23,169.96 645.06,222.02 645.89,195.52 646.72,165.45 647.55,169.42 648.38,180.32 649.21,186.17 650.04,204.92 650.87,227.01 651.70,238.02 652.53,231.28 653.36,258.94 654.19,242.07 655.02,280.74 655.84,199.82 656.67,215.32 657.50,213.88 658.33,190.29 659.16,199.82 659.99,212.98 660.82,308.00 661.65,237.41 662.48,201.64 663.31,228.02 664.14,219.32 664.97,204.44 665.80,195.41 666.63,174.80 667.46,308.00 668.29,307.89 669.12,279.27 669.95,236.97 670.78,245.45 671.60,275.98 672.43,271.14 673.26,211.50 674.09,242.89 674.92,221.43 675.75,255.67 676.58,308.00 677.41,270.23 678.24,243.64 679.07,308.00 679.90,308.00 680.73,247.92 681.56,216.77 682.39,199.40 683.22,182.24 684.05,207.65 684.88,192.49 685.71,158.51 686.53,204.75 687.36,166.46 688.19,178.74 689.02,158.18 689.85,149.95 690.68,149.12 691.51,154.68 692.34,174.04 693.17,162.06 694.00,155.40 694.83,136.97 695.66,146.90 696.49,168.92 697.32,128.53 698.15,165.09 698.98,158.66 699.81,111.91 700.64,116.37 701.47,166.71 702.29,180.06 703.12,121.24 703.95,131.93 704.78,142.47 705.61,128.38 706.44,138.94 707.27,123.50 708.10,157.51 708.93,152.97 709.76,138.10 710.59,122.62 711.42,146.60 712.25,170.59 713.08,162.61 713.91,177.93 714.74,144.38 715.57,130.58 716.40,118.34 717.22,136.35 718.05,152.42 718.88,131.31 719.71,154.49 720.54,121.90 721.37,120.07 722.20,120.14 723.03,139.46 723.86,122.16 724.69,122.48 725.52,164.92 726.35,156.93 727.18,120.65 728.01,144.41 728.84,177.51 729.67,185.29 730.50,181.83 731.33,165.10 732.16,156.38 732.98,167.44 733.81,166.81 734.64,137.70 735.47,194.54 736.30,198.87 737.13,244.31 737.96,167.27 738.79,154.12 739.62,155.53 740.45,202.90 741.28,166.21 742.11,132.70 742.94,217.65 743.77,115.49 744.60,147.42 745.43,115.59 746.26,144.48 747.09,220.91 747.91,142.20 748.74,120.72 749.57,108.65 750.40,122.76 751.23,223.97 752.06,189.15 752.89,130.32 753.72,191.41 754.55,115.16 755.38,109.98 756.21,117.49 757.04,126.66 757.87,104.96 758.70,90.03 759.53,97.50 760.36,107.04 761.19,88.58 762.02,87.42 762.84,113.97 763.67,85.21 764.50,114.28 765.33,166.23 766.16,202.47 766.99,196.01 767.82,173.83 768.65,198.67 769.48,214.40 770.31,214.67 771.14,185.48 771.97,198.78 772.80,176.79 773.63,194.49 774.46,308.00 775.29,185.82 776.12,151.87 776.95,149.66 777.78,136.07 778.60,139.68 779.43,131.49 780.26,124.41 781.09,140.40 781.92,117.60 782.75,123.06 783.58,124.50 784.41,117.81 785.24,149.45 786.07,171.87 786.90,151.18 787.73,139.42 788.56,169.54 789.39,144.29 790.22,157.26 791.05,206.58 791.88,139.41 792.71,139.16 793.53,162.48 794.36,166.04 795.19,148.01 796.02,165.19 796.85,210.63 797.68,180.66 798.51,166.97 799.34,179.84 800.17,211.33 801.00,203.13 801.83,174.69 802.66,238.06 803.49,232.57 804.32,187.33 805.15,232.69 805.98,235.91 806.81,308.00 807.64,308.00 808.47,267.23 809.29,205.44 810.12,213.96 810.95,195.34 811.78,247.54 812.61,250.19 813.44,256.50 814.27,200.66 815.10,181.36 815.93,186.12 816.76,195.64 817.59,190.39 818.42,171.90 819.25,176.02 820.08,222.20 820.91,203.66 821.74,187.94 822.57,180.31 823.40,177.88 824.22,164.14 825.05,170.12 825.88,147.86 826.71,143.00 827.54,154.23 828.37,141.08 829.20,154.63 830.03,132.62 830.86,124.96 831.69,126.30 832.52,108.01 833.35,96.70 834.18,107.49 835.01,90.34 835.84,98.00 836.67,97.09 837.50,104.85 838.33,112.84 839.16,110.79 839.98,127.99 840.81,130.71 841.64,95.47 842.47,104.10 843.30,97.19 844.13,100.64 844.96,102.02 845.79,73.20 846.62,65.30 847.45,65.12 848.28,73.01 849.11,72.23 849.94,87.77 850.77,122.67 851.60,133.09 852.43,99.50 853.26,82.11 854.09,110.02 854.91,103.36 855.74,96.03 856.57,110.98 857.40,108.19 858.23,87.59 859.06,94.80 859.89,86.17 860.72,98.76 861.55,106.85 862.38,112.07 863.21,73.61 864.04,73.45 864.87,66.39 865.70,65.11 866.53,88.82 867.36,74.24 868.19,61.06 869.02,65.61 869.84,88.98 870.67,63.06 871.50,61.78 872.33,82.11 873.16,80.45 873.99,77.09 874.82,72.72 875.65,70.49 876.48,58.01 877.31,57.25 878.14,57.30 878.97,53.34 879.80,52.00 880.63,52.32 881.46,52.00 882.29,52.46 883.12,57.83 883.95,52.00 884.78,52.00 885.60,59.64 886.43,56.54 887.26,52.00 888.09,56.48 888.92,56.08 889.75,52.00 890.58,53.34 891.41,52.65 892.24,54.85 893.07,54.15 893.90,58.28 894.73,70.34 895.56,52.19 896.39,53.88 897.22,52.00 898.05,52.00 898.88,52.69 899.71,52.00 900.53,55.28 901.36,52.22 902.19,52.00 903.02,52.00 903.85,56.11 904.68,52.00 905.51,57.36 906.34,52.00 907.17,52.41 908.00,54.00" fill="none" stroke="#145c9e" stroke-width="1.8" opacity="0.86"/>
<text x="728" y="28" font-family="monospace" font-size="12" fill="#145c9e">ep 000000</text>
<polyline points="52.00,52.00 52.96,52.00 53.93,56.89 54.89,52.00 55.85,52.47 56.81,52.32 57.78,52.00 58.74,62.38 59.70,52.00 60.67,53.62 61.63,60.44 62.59,58.52 63.55,52.00 64.52,52.00 65.48,52.00 66.44,52.00 67.41,52.00 68.37,52.00 69.33,65.43 70.29,53.25 71.26,53.01 72.22,52.73 73.18,52.00 74.15,52.00 75.11,52.00 76.07,52.00 77.03,52.00 78.00,52.00 78.96,52.00 79.92,52.00 80.89,52.92 81.85,52.00 82.81,52.00 83.78,52.00 84.74,52.00 85.70,52.00 86.66,97.58 87.63,93.83 88.59,105.04 89.55,81.60 90.52,94.00 91.48,72.90 92.44,76.86 93.40,73.69 94.37,68.27 95.33,96.33 96.29,85.85 97.26,133.53 98.22,159.32 99.18,100.96 100.14,108.58 101.11,130.70 102.07,150.99 103.03,129.16 104.00,148.38 104.96,153.65 105.92,183.00 106.88,150.51 107.85,149.29 108.81,186.47 109.77,262.83 110.74,246.17 111.70,269.16 112.66,308.00 113.62,245.95 114.59,231.38 115.55,222.28 116.51,192.23 117.48,201.50 118.44,262.84 119.40,241.30 120.36,308.00 121.33,224.07 122.29,207.84 123.25,263.39 124.22,249.22 125.18,253.01 126.14,308.00 127.10,217.09 128.07,210.40 129.03,190.90 129.99,263.96 130.96,198.39 131.92,253.03 132.88,304.31 133.84,241.24 134.81,253.16 135.77,303.86 136.73,308.00 137.70,159.91 138.66,219.10 139.62,155.55 140.58,223.76 141.55,179.54 142.51,200.23 143.47,200.37 144.44,204.07 145.40,190.49 146.36,176.05 147.33,181.49 148.29,148.81 149.25,150.75 150.21,141.02 151.18,155.01 152.14,130.27 153.10,120.16 154.07,119.28 155.03,126.12 155.99,116.73 156.95,119.00 157.92,144.58 158.88,133.59 159.84,123.30 160.81,130.58 161.77,118.44 162.73,111.05 163.69,110.40 164.66,126.15 165.62,116.89 166.58,104.04 167.55,119.31 168.51,94.88 169.47,106.20 170.43,104.33 171.40,117.48 172.36,100.99 173.32,131.32 174.29,109.51 175.25,98.52 176.21,107.07 177.17,108.79 178.14,108.75 179.10,133.31 180.06,137.17 181.03,112.20 181.99,123.17 182.95,129.55 183.91,142.63 184.88,126.69 185.84,134.49 186.80,129.78 187.77,133.43 188.73,126.17 189.69,122.60 190.65,98.48 191.62,128.62 192.58,117.20 193.54,134.22 194.51,119.69 195.47,108.45 196.43,103.80 197.39,105.16 198.36,104.13 199.32,111.63 200.28,114.03 201.25,144.58 202.21,143.80 203.17,152.29 204.13,154.52 205.10,139.60 206.06,122.01 207.02,115.10 207.99,119.04 208.95,111.39 209.91,130.03 210.88,175.75 211.84,183.87 212.80,181.09 213.76,180.61 214.73,208.73 215.69,157.62 216.65,153.06 217.62,170.36 218.58,151.61 219.54,132.05 220.50,122.97 221.47,119.44 222.43,129.01 223.39,148.66 224.36,191.03 225.32,308.00 226.28,308.00 227.24,286.32 228.21,243.48 229.17,150.26 230.13,182.67 231.10,186.15 232.06,192.36 233.02,185.43 233.98,209.84 234.95,187.93 235.91,204.96 236.87,225.46 237.84,236.09 238.80,236.37 239.76,266.87 240.72,286.16 241.69,227.67 242.65,247.52 243.61,226.60 244.58,231.75 245.54,248.28 246.50,247.43 247.46,252.81 248.43,258.40 249.39,297.50 250.35,302.01 251.32,308.00 252.28,308.00 253.24,308.00 254.20,308.00 255.17,308.00 256.13,295.13 257.09,295.44 258.06,308.00 259.02,275.59 259.98,308.00 260.94,308.00 261.91,308.00 262.87,308.00 263.83,308.00 264.80,308.00 265.76,308.00 266.72,308.00 267.69,308.00 268.65,308.00 269.61,308.00 270.57,308.00 271.54,308.00 272.50,290.90 273.46,267.45 274.43,266.84 275.39,258.05 276.35,271.71 277.31,251.51 278.28,225.82 279.24,252.11 280.20,205.25 281.17,199.35 282.13,239.02 283.09,180.16 284.05,153.27 285.02,147.96 285.98,163.91 286.94,162.97 287.91,143.09 288.87,190.83 289.83,173.08 290.79,180.50 291.76,156.77 292.72,151.43 293.68,187.90 294.65,181.01 295.61,158.37 296.57,130.63 297.53,124.93 298.50,149.22 299.46,136.48 300.42,138.89 301.39,148.76 302.35,155.42 303.31,153.71 304.27,143.97 305.24,142.76 306.20,127.04 307.16,143.62 308.13,144.88 309.09,148.96 310.05,161.22 311.01,199.02 311.98,185.89 312.94,219.94 313.90,245.64 314.87,176.72 315.83,218.03 316.79,200.38 317.75,149.40 318.72,194.94 319.68,135.51 320.64,180.57 321.61,189.04 322.57,174.49 323.53,173.71 324.49,159.09 325.46,205.00 326.42,160.95 327.38,142.71 328.35,156.83 329.31,145.00 330.27,139.92 331.24,147.58 332.20,156.28 333.16,137.06 334.12,142.03 335.09,135.96 336.05,156.96 337.01,140.33 337.98,133.66 338.94,182.91 339.90,153.47 340.86,170.34 341.83,151.56 342.79,156.14 343.75,163.84 344.72,190.07 345.68,149.37 346.64,206.51 347.60,195.96 348.57,171.93 349.53,171.31 350.49,203.12 351.46,191.00 352.42,197.90 353.38,210.12 354.34,180.92 355.31,144.58 356.27,225.33 357.23,308.00 358.20,222.49 359.16,280.20 360.12,215.41 361.08,165.31 362.05,202.59 363.01,279.63 363.97,283.83 364.94,284.13 365.90,182.89 366.86,299.86 367.82,270.08 368.79,250.20 369.75,245.75 370.71,288.41 371.68,215.81 372.64,207.87 373.60,258.12 374.56,261.50 375.53,230.40 376.49,255.73 377.45,194.07 378.42,255.81 379.38,214.02 380.34,186.29 381.30,274.39 382.27,232.64 383.23,198.65 384.19,161.73 385.16,207.64 386.12,251.41 387.08,308.00 388.04,240.04 389.01,238.98 389.97,296.13 390.93,308.00 391.90,255.09 392.86,308.00 393.82,308.00 394.79,308.00 395.75,308.00 396.71,308.00 397.67,308.00 398.64,307.26 399.60,291.37 400.56,182.83 401.53,308.00 402.49,169.31 403.45,108.05 404.41,196.41 405.38,308.00 406.34,133.42 407.30,126.40 408.27,180.46 409.23,168.96 410.19,191.95 411.15,161.53 412.12,202.72 413.08,112.04 414.04,157.41 415.01,134.15 415.97,132.83 416.93,191.42 417.89,199.16 418.86,286.49 419.82,149.98 420.78,151.01 421.75,118.85 422.71,206.51 423.67,181.42 424.63,252.65 425.60,164.63 426.56,129.02 427.52,308.00 428.49,142.97 429.45,308.00 430.41,208.25 431.37,131.07 432.34,308.00 433.30,235.76 434.26,279.20 435.23,191.55 436.19,194.25 437.15,308.00 438.11,308.00 439.08,235.14 440.04,306.31 441.00,308.00 441.97,178.04 442.93,235.52 443.89,148.01 444.85,153.74 445.82,122.36 446.78,133.41 447.74,166.62 448.71,139.03 449.67,122.60 450.63,107.03 451.60,110.59 452.56,122.22 453.52,129.68 454.48,162.20 455.45,127.06 456.41,126.53 457.37,148.03 458.34,115.50 459.30,108.62 460.26,161.02 461.22,231.42 462.19,137.63 463.15,164.27 464.11,140.25 465.08,149.02 466.04,135.35 467.00,140.25 467.96,283.59 468.93,259.80 469.89,260.21 470.85,146.10 471.82,134.28 472.78,157.52 473.74,155.84 474.70,212.78 475.67,281.70 476.63,273.19 477.59,299.49 478.56,299.51 479.52,268.46 480.48,292.45 481.44,305.83 482.41,294.77 483.37,306.06 484.33,308.00 485.30,293.18 486.26,294.64 487.22,298.39 488.18,308.00 489.15,308.00 490.11,308.00 491.07,279.19 492.04,211.15 493.00,234.47 493.96,203.90 494.92,224.06 495.89,274.73 496.85,292.62 497.81,275.15 498.78,256.33 499.74,230.01 500.70,308.00 501.66,220.23 502.63,308.00 503.59,308.00 504.55,308.00 505.52,258.95 506.48,308.00 507.44,308.00 508.40,308.00 509.37,246.42 510.33,308.00 511.29,308.00 512.26,308.00 513.22,308.00 514.18,308.00 515.15,308.00 516.11,308.00 517.07,280.21 518.03,304.93 519.00,275.90 519.96,304.37 520.92,275.78 521.89,268.74 522.85,308.00 523.81,308.00 524.77,308.00 525.74,308.00 526.70,308.00 527.66,308.00 528.63,306.93 529.59,255.33 530.55,308.00 531.51,265.59 532.48,308.00 533.44,246.10 534.40,283.93 535.37,308.00 536.33,308.00 537.29,308.00 538.25,250.26 539.22,257.27 540.18,222.08 541.14,245.75 542.11,290.51 543.07,199.31 544.03,194.06 544.99,209.38 545.96,211.20 546.92,182.49 547.88,226.31 548.85,183.40 549.81,223.96 550.77,197.84 551.73,235.82 552.70,196.52 553.66,164.02 554.62,191.62 555.59,158.69 556.55,229.07 557.51,138.09 558.47,195.97 559.44,174.99 560.40,146.05 561.36,144.68 562.33,152.45 563.29,139.05 564.25,133.41 565.21,130.60 566.18,137.28 567.14,145.63 568.10,167.23 569.07,142.02 570.03,117.32 570.99,155.38 571.96,140.18 572.92,205.60 573.88,152.96 574.84,201.69 575.81,161.43 576.77,226.01 577.73,208.66 578.70,216.95 579.66,308.00 580.62,225.63 581.58,179.55 582.55,193.67 583.51,195.03 584.47,231.95 585.44,147.94 586.40,127.07 587.36,136.68 588.32,238.91 589.29,236.92 590.25,262.01 591.21,226.18 592.18,291.54 593.14,235.14 594.10,166.97 595.06,184.85 596.03,204.60 596.99,129.41 597.95,150.75 598.92,124.92 599.88,172.25 600.84,104.81 601.80,131.91 602.77,111.14 603.73,106.69 604.69,137.29 605.66,109.33 606.62,240.39 607.58,212.57 608.54,211.77 609.51,233.91 610.47,189.69 611.43,176.85 612.40,186.41 613.36,248.18 614.32,143.85 615.28,134.80 616.25,168.94 617.21,151.79 618.17,154.08 619.14,151.58 620.10,150.78 621.06,137.84 622.02,176.81 622.99,215.46 623.95,171.52 624.91,128.06 625.88,127.60 626.84,147.13 627.80,112.35 628.76,124.40 629.73,118.85 630.69,142.68 631.65,134.82 632.62,122.07 633.58,113.75 634.54,130.90 635.51,110.83 636.47,114.51 637.43,131.74 638.39,120.93 639.36,115.84 640.32,120.87 641.28,107.58 642.25,107.62 643.21,129.71 644.17,120.91 645.13,142.54 646.10,122.82 647.06,122.69 648.02,157.06 648.99,126.59 649.95,104.61 650.91,239.29 651.87,148.30 652.84,145.37 653.80,126.31 654.76,152.08 655.73,116.27 656.69,140.29 657.65,142.09 658.61,133.70 659.58,131.36 660.54,125.40 661.50,112.95 662.47,110.72 663.43,128.33 664.39,141.29 665.35,129.72 666.32,122.48 667.28,133.82 668.24,131.49 669.21,117.92 670.17,137.24 671.13,127.37 672.09,135.04 673.06,146.27 674.02,115.61 674.98,124.72 675.95,121.32 676.91,123.00 677.87,129.52 678.83,108.96 679.80,121.32 680.76,111.73 681.72,126.55 682.69,140.65 683.65,111.09 684.61,120.45 685.57,136.69 686.54,129.48 687.50,116.39 688.46,154.13 689.43,125.23 690.39,121.89 691.35,123.36 692.31,115.01 693.28,140.76 694.24,111.73 695.20,221.54 696.17,303.19 697.13,230.00 698.09,242.48 699.06,247.45 700.02,245.60 700.98,235.80 701.94,206.43 702.91,150.31 703.87,134.95 704.83,165.84 705.80,156.63 706.76,112.62 707.72,212.34 708.68,223.98 709.65,177.17 710.61,155.07 711.57,140.26 712.54,120.20 713.50,116.46 714.46,119.31 715.42,122.75 716.39,116.10 717.35,147.47 718.31,156.41 719.28,156.83 720.24,169.76 721.20,157.20 722.16,170.20 723.13,174.54 724.09,184.40 725.05,201.11 726.02,186.69 726.98,183.82 727.94,205.65 728.90,256.08 729.87,253.97 730.83,239.24 731.79,194.40 732.76,187.63 733.72,163.29 734.68,308.00 735.64,154.45 736.61,142.67 737.57,129.62 738.53,135.98 739.50,163.47 740.46,151.89 741.42,136.74 742.38,140.55 743.35,136.86 744.31,138.21 745.27,154.92 746.24,132.20 747.20,152.56 748.16,151.86 749.12,143.01 750.09,152.88 751.05,169.46 752.01,174.07 752.98,140.07 753.94,163.41 754.90,178.54 755.87,153.50 756.83,145.25 757.79,163.56 758.75,155.29 759.72,155.33 760.68,148.83 761.64,156.61 762.61,144.71 763.57,150.15 764.53,161.17 765.49,161.11 766.46,164.06 767.42,154.37 768.38,154.25 769.35,140.27 770.31,133.40 771.27,136.61 772.23,134.38 773.20,142.05 774.16,143.49 775.12,144.03 776.09,163.94 777.05,133.44 778.01,135.17 778.97,152.89 779.94,141.70 780.90,143.29 781.86,145.57 782.83,147.57 783.79,138.95 784.75,143.74 785.71,164.56 786.68,159.15 787.64,170.34 788.60,150.52 789.57,170.42 790.53,160.27 791.49,165.44 792.45,170.80 793.42,169.00 794.38,189.28 795.34,162.74 796.31,169.87 797.27,152.28 798.23,139.44 799.19,139.68 800.16,136.50 801.12,137.08 802.08,126.26 803.05,122.30 804.01,127.43 804.97,107.26 805.93,113.04 806.90,144.36 807.86,125.34 808.82,112.66 809.79,113.32 810.75,114.45 811.71,92.48 812.67,154.22 813.64,94.70 814.60,86.58 815.56,86.95 816.53,90.47 817.49,100.10 818.45,92.89 819.42,91.54 820.38,132.08 821.34,107.86 822.30,105.22 823.27,94.31 824.23,79.19 825.19,73.60 826.16,72.01 827.12,70.23 828.08,76.64 829.04,81.79 830.01,100.81 830.97,91.11 831.93,97.87 832.90,130.87 833.86,115.92 834.82,105.97 835.78,135.33 836.75,109.46 837.71,119.89 838.67,120.81 839.64,111.66 840.60,122.77 841.56,88.43 842.52,81.83 843.49,86.65 844.45,70.63 845.41,79.02 846.38,103.49 847.34,135.89 848.30,91.40 849.26,100.92 850.23,63.78 851.19,59.33 852.15,60.70 853.12,67.40 854.08,58.74 855.04,61.20 856.00,64.86 856.97,56.63 857.93,104.57 858.89,55.36 859.86,70.66 860.82,56.87 861.78,56.60 862.74,59.67 863.71,78.24 864.67,53.70 865.63,56.64 866.60,52.00 867.56,57.47 868.52,56.78 869.48,57.07 870.45,59.07 871.41,52.00 872.37,52.00 873.34,66.27 874.30,52.00 875.26,52.15 876.22,53.31 877.19,58.28 878.15,53.51 879.11,53.10 880.08,52.00 881.04,54.55 882.00,52.04 882.97,52.00 883.93,53.20 884.89,57.63 885.85,53.94 886.82,54.02 887.78,64.56 888.74,52.00 889.71,53.24 890.67,52.00 891.63,53.47 892.59,56.47 893.56,55.21 894.52,55.64 895.48,54.93 896.45,54.82 897.41,52.00 898.37,52.71 899.33,52.00 900.30,56.09 901.26,57.01 902.22,52.00 903.19,60.52 904.15,52.00 905.11,52.00 906.07,61.53 907.04,52.00 908.00,52.00" fill="none" stroke="#cc5a43" stroke-width="1.8" opacity="0.86"/>
<text x="728" y="46" font-family="monospace" font-size="12" fill="#cc5a43">ep 000001</text>
</svg>
