<svg xmlns="http://www.w3.org/2000/svg" width="960" height="320" viewBox="0 0 960 320">
  <rect width="100%" height="100%" fill="#fffaf0"/>
  <rect x="65.56" y="44" width="36.25" height="232" fill="#f3c565" opacity="0.24"/> <rect x="148.84" y="44" width="63.69" height="232" fill="#f3c565" opacity="0.24"/> <rect x="622.07" y="44" width="39.19" height="232" fill="#f3c565" opacity="0.24"/> <rect x="674.00" y="44" width="32.33" height="232" fill="#f3c565" opacity="0.24"/> <rect x="802.35" y="44" width="81.32" height="232" fill="#f3c565" opacity="0.24"/>
  <line x1="44" y1="276" x2="916" y2="276" stroke="#333" stroke-width="1"/>
  <line x1="44" y1="44" x2="44" y2="276" stroke="#333" stroke-width="1"/>
  <line x1="44" y1="99.30" x2="916" y2="99.30" stroke="#a23b3b" stroke-width="1.5" stroke-dasharray="6 6"/>
  <polyline points="44.00,44.00 44.98,44.00 45.96,48.43 46.94,44.00 47.92,44.43 48.90,44.29 49.89,44.00 50.87,53.41 51.85,44.00 52.83,45.47 53.81,51.64 54.79,49.91 55.77,44.00 56.75,44.00 57.73,44.00 58.71,44.00 59.69,44.00 60.67,44.00 61.66,56.17 62.64,45.14 63.62,44.91 64.60,44.66 65.58,44.00 66.56,44.00 67.54,44.00 68.52,44.00 69.50,44.00 70.48,44.00 71.46,44.00 72.45,44.00 73.43,44.84 74.41,44.00 75.39,44.00 76.37,44.00 77.35,44.00 78.33,44.00 79.31,85.30 80.29,81.91 81.27,92.07 82.25,70.82 83.24,82.06 84.22,62.94 85.20,66.53 86.18,63.66 87.16,58.75 88.14,84.17 89.12,74.67 90.10,117.89 91.08,141.26 92.06,88.37 93.04,95.28 94.02,115.32 95.01,133.71 95.99,113.93 96.97,131.34 97.95,136.12 98.93,162.72 99.91,133.27 100.89,132.17 101.87,165.86 102.85,235.06 103.83,219.96 104.81,240.80 105.80,276.00 106.78,219.76 107.76,206.56 108.74,198.32 109.72,171.09 110.70,179.48 111.68,235.08 112.66,215.55 113.64,276.00 114.62,199.93 115.60,185.23 116.58,235.57 117.57,222.73 118.55,226.17 119.53,276.00 120.51,193.61 121.49,187.55 122.47,169.88 123.45,236.09 124.43,176.66 125.41,226.18 126.39,272.65 127.37,215.50 128.36,226.30 129.34,272.25 130.32,276.00 131.30,141.79 132.28,195.43 133.26,137.84 134.24,199.66 135.22,159.58 136.20,178.34 137.18,178.46 138.16,181.81 139.15,169.50 140.13,156.42 141.11,161.35 142.09,131.73 143.07,133.50 144.05,124.68 145.03,137.35 146.01,114.93 146.99,105.77 147.97,104.97 148.95,111.17 149.93,102.66 150.92,104.72 151.90,127.90 152.88,117.94 153.86,108.62 154.84,115.22 155.82,104.21 156.80,97.52 157.78,96.92 158.76,111.20 159.74,102.80 160.72,91.16 161.71,105.00 162.69,82.86 163.67,93.12 164.65,91.43 165.63,103.34 166.61,88.40 167.59,115.88 168.57,96.12 169.55,86.16 170.53,93.90 171.51,95.46 172.49,95.43 173.48,117.69 174.46,121.18 175.44,98.56 176.42,108.50 177.40,114.28 178.38,126.13 179.36,111.69 180.34,118.76 181.32,114.49 182.30,117.80 183.28,111.22 184.27,107.98 185.25,86.12 186.23,113.44 187.21,103.09 188.19,118.51 189.17,105.34 190.15,95.16 191.13,90.95 192.11,92.18 193.09,91.24 194.07,98.04 195.06,100.21 196.04,127.90 197.02,127.19 198.00,134.89 198.98,136.90 199.96,123.39 200.94,107.45 201.92,101.19 202.90,104.76 203.88,97.83 204.86,114.71 205.84,156.15 206.83,163.51 207.81,160.99 208.79,160.55 209.77,186.04 210.75,139.72 211.73,135.59 212.71,151.26 213.69,134.27 214.67,116.55 215.65,108.32 216.63,105.12 217.62,113.79 218.60,131.60 219.58,170.00 220.56,276.00 221.54,276.00 222.52,256.35 223.50,217.53 224.48,133.05 225.46,162.42 226.44,165.57 227.42,171.20 228.40,164.92 229.39,187.04 230.37,167.19 231.35,182.62 232.33,201.19 233.31,210.84 234.29,211.08 235.27,238.73 236.25,256.21 237.23,203.20 238.21,221.19 239.19,202.23 240.18,206.90 241.16,221.88 242.14,221.11 243.12,225.99 244.10,231.05 245.08,266.48 246.06,270.57 247.04,276.00 248.02,276.00 249.00,276.00 249.98,276.00 250.97,276.00 251.95,264.34 252.93,264.62 253.91,276.00 254.89,246.63 255.87,276.00 256.85,276.00 257.83,276.00 258.81,276.00 259.79,276.00 260.77,276.00 261.75,276.00 262.74,276.00 263.72,276.00 264.70,276.00 265.68,276.00 266.66,276.00 267.64,276.00 268.62,260.50 269.60,239.26 270.58,238.70 271.56,230.73 272.54,243.11 273.53,224.81 274.51,201.52 275.49,225.35 276.47,182.89 277.45,177.53 278.43,213.48 279.41,160.15 280.39,135.78 281.37,130.97 282.35,145.42 283.33,144.57 284.31,126.55 285.30,169.81 286.28,153.73 287.26,160.46 288.24,138.95 289.22,134.11 290.20,167.16 291.18,160.92 292.16,140.40 293.14,115.26 294.12,110.09 295.10,132.10 296.09,120.56 297.07,122.74 298.05,131.69 299.03,137.73 300.01,136.18 300.99,127.35 301.97,126.25 302.95,112.01 303.93,127.03 304.91,128.18 305.89,131.87 306.88,142.98 307.86,177.23 308.84,165.33 309.82,196.20 310.80,219.49 311.78,157.03 312.76,194.46 313.74,178.47 314.72,132.27 315.70,173.54 316.68,119.68 317.66,160.52 318.65,168.19 319.63,155.00 320.61,154.30 321.59,141.05 322.57,182.66 323.55,142.74 324.53,126.21 325.51,139.00 326.49,128.28 327.47,123.67 328.45,130.62 329.44,138.51 330.42,121.08 331.40,125.59 332.38,120.09 333.36,139.12 334.34,124.05 335.32,118.01 336.30,162.64 337.28,135.95 338.26,151.25 339.24,134.23 340.22,138.37 341.21,145.35 342.19,169.13 343.17,132.24 344.15,184.03 345.13,174.46 346.11,152.69 347.09,152.12 348.07,180.95 349.05,169.97 350.03,176.22 351.01,187.29 352.00,160.83 352.98,127.90 353.96,201.08 354.94,276.00 355.92,198.51 356.90,250.81 357.88,192.09 358.86,146.69 359.84,180.47 360.82,250.29 361.80,254.10 362.79,254.37 363.77,162.62 364.75,268.63 365.73,241.63 366.71,223.62 367.69,219.59 368.67,258.24 369.65,192.46 370.63,185.26 371.61,230.80 372.59,233.86 373.57,205.67 374.56,228.63 375.54,172.75 376.52,228.70 377.50,190.83 378.48,165.70 379.46,245.54 380.44,207.71 381.42,176.91 382.40,143.45 383.38,185.04 384.36,224.72 385.35,276.00 386.33,214.41 387.31,213.45 388.29,265.24 389.27,276.00 390.25,228.05 391.23,276.00 392.21,276.00 393.19,276.00 394.17,276.00 395.15,276.00 396.13,276.00 397.12,275.33 398.10,260.93 399.08,162.56 400.06,276.00 401.04,150.31 402.02,94.79 403.00,174.87 403.98,276.00 404.96,117.79 405.94,111.43 406.92,160.42 407.91,150.00 408.89,170.83 409.87,143.26 410.85,180.59 411.83,98.41 412.81,139.53 413.79,118.45 414.77,117.26 415.75,170.35 416.73,177.36 417.71,256.51 418.70,132.79 419.68,133.72 420.66,104.58 421.64,184.03 422.62,161.29 423.60,225.84 424.58,146.07 425.56,113.80 426.54,276.00 427.52,126.45 428.50,276.00 429.48,185.61 430.47,115.66 431.45,276.00 432.43,210.54 433.41,249.90 434.39,170.47 435.37,172.91 436.35,276.00 437.33,276.00 438.31,209.97 439.29,274.46 440.27,276.00 441.26,158.22 442.24,210.31 443.22,131.01 444.20,136.20 445.18,107.76 446.16,117.78 447.14,147.87 448.12,122.87 449.10,107.98 450.08,93.87 451.06,97.10 452.04,107.64 453.03,114.39 454.01,143.87 454.99,112.03 455.97,111.54 456.95,131.02 457.93,101.55 458.91,95.31 459.89,142.79 460.87,206.60 461.85,121.60 462.83,145.75 463.82,123.98 464.80,131.93 465.78,119.53 466.76,123.98 467.74,253.88 468.72,232.32 469.70,232.69 470.68,129.28 471.66,118.57 472.64,139.62 473.62,138.11 474.61,189.70 475.59,252.17 476.57,244.45 477.55,268.29 478.53,268.31 479.51,240.16 480.49,261.91 481.47,274.03 482.45,264.01 483.43,274.24 484.41,276.00 485.39,262.57 486.38,263.90 487.36,267.29 488.34,276.00 489.32,276.00 490.30,276.00 491.28,249.89 492.26,188.23 493.24,209.36 494.22,181.66 495.20,199.93 496.18,245.85 497.17,262.06 498.15,246.23 499.13,229.17 500.11,205.33 501.09,276.00 502.07,196.46 503.05,276.00 504.03,276.00 505.01,276.00 505.99,231.55 506.97,276.00 507.96,276.00 508.94,276.00 509.92,220.19 510.90,276.00 511.88,276.00 512.86,276.00 513.84,276.00 514.82,276.00 515.80,276.00 516.78,276.00 517.76,250.82 518.74,273.21 519.73,246.91 520.71,272.71 521.69,246.80 522.67,240.42 523.65,276.00 524.63,276.00 525.61,276.00 526.59,276.00 527.57,276.00 528.55,276.00 529.53,275.03 530.52,228.26 531.50,276.00 532.48,237.57 533.46,276.00 534.44,219.90 535.42,254.19 536.40,276.00 537.38,276.00 538.36,276.00 539.34,223.68 540.32,230.03 541.30,198.14 542.29,219.58 543.27,260.15 544.25,177.50 545.23,172.75 546.21,186.62 547.19,188.27 548.17,162.25 549.15,201.96 550.13,163.09 551.11,199.84 552.09,176.16 553.08,210.58 554.06,174.97 555.04,145.52 556.02,170.53 557.00,140.68 557.98,204.47 558.96,122.02 559.94,174.47 560.92,155.46 561.90,129.24 562.88,127.99 563.87,135.03 564.85,122.89 565.83,117.77 566.81,115.23 567.79,121.28 568.77,128.85 569.75,148.43 570.73,125.58 571.71,103.20 572.69,137.69 573.67,123.91 574.65,183.20 575.64,135.50 576.62,179.65 577.60,143.17 578.58,201.70 579.56,185.97 580.54,193.48 581.52,276.00 582.50,201.36 583.48,159.59 584.46,172.39 585.44,173.62 586.43,207.08 587.41,130.95 588.39,112.03 589.37,120.74 590.35,213.39 591.33,211.59 592.31,234.32 593.29,201.85 594.27,261.08 595.25,209.97 596.23,148.19 597.21,164.39 598.20,182.29 599.18,114.16 600.16,133.49 601.14,110.08 602.12,152.98 603.10,91.86 604.08,116.42 605.06,97.59 606.04,93.56 607.02,121.29 608.00,95.96 608.99,214.73 609.97,189.52 610.95,188.79 611.93,208.85 612.91,168.78 613.89,157.14 614.87,165.81 615.85,221.79 616.83,127.24 617.81,119.04 618.79,149.98 619.78,134.43 620.76,136.51 621.74,134.24 622.72,133.52 623.70,121.80 624.68,157.11 625.66,192.14 626.64,152.32 627.62,112.93 628.60,112.51 629.58,130.21 630.56,98.69 631.55,109.61 632.53,104.58 633.51,126.18 634.49,119.05 635.47,107.50 636.45,99.96 637.43,115.50 638.41,97.32 639.39,100.65 640.37,116.26 641.35,106.46 642.34,101.86 643.32,106.42 644.30,94.37 645.28,94.40 646.26,114.42 647.24,106.45 648.22,126.05 649.20,108.18 650.18,108.07 651.16,139.21 652.14,111.59 653.12,91.67 654.11,213.73 655.09,131.27 656.07,128.62 657.05,111.34 658.03,134.70 659.01,102.24 659.99,124.01 660.97,125.64 661.95,118.04 662.93,115.92 663.91,110.52 664.90,99.24 665.88,97.22 666.86,113.18 667.84,124.92 668.82,114.43 669.80,107.87 670.78,118.15 671.76,116.03 672.74,103.74 673.72,121.25 674.70,112.30 675.69,119.25 676.67,129.43 677.65,101.65 678.63,109.91 679.61,106.82 680.59,108.34 681.57,114.26 682.55,95.62 683.53,106.82 684.51,98.13 685.49,111.56 686.47,124.34 687.46,97.55 688.44,106.03 689.42,120.75 690.40,114.21 691.38,102.35 692.36,136.56 693.34,110.37 694.32,107.34 695.30,108.67 696.28,101.10 697.26,124.44 698.25,98.13 699.23,197.64 700.21,271.64 701.19,205.31 702.17,216.63 703.15,221.13 704.13,219.45 705.11,210.57 706.09,183.95 707.07,133.09 708.05,119.17 709.03,147.17 710.02,138.82 711.00,98.93 711.98,189.31 712.96,199.86 713.94,157.43 714.92,137.41 715.90,123.98 716.88,105.81 717.86,102.41 718.84,105.00 719.82,108.11 720.81,102.09 721.79,130.52 722.77,138.62 723.75,139.01 724.73,150.72 725.71,139.34 726.69,151.12 727.67,155.06 728.65,163.99 729.63,179.13 730.61,166.06 731.60,163.46 732.58,183.25 733.56,228.95 734.54,227.04 735.52,213.69 736.50,173.05 737.48,166.92 738.46,144.85 739.44,276.00 740.42,136.85 741.40,126.17 742.38,114.35 743.37,120.11 744.35,145.02 745.33,134.52 746.31,120.80 747.29,124.25 748.27,120.91 749.25,122.13 750.23,137.27 751.21,116.69 752.19,135.14 753.17,134.50 754.16,126.48 755.14,135.42 756.12,150.44 757.10,154.63 758.08,123.81 759.06,144.96 760.04,158.68 761.02,135.98 762.00,128.51 762.98,145.10 763.96,137.60 764.94,137.64 765.93,131.75 766.91,138.80 767.89,128.02 768.87,132.95 769.85,142.93 770.83,142.88 771.81,145.55 772.79,136.77 773.77,136.66 774.75,124.00 775.73,117.77 776.72,120.68 777.70,118.66 778.68,125.61 779.66,126.92 780.64,127.40 781.62,145.45 782.60,117.81 783.58,119.37 784.56,135.43 785.54,125.29 786.52,126.73 787.51,128.80 788.49,130.61 789.47,122.80 790.45,127.14 791.43,146.01 792.41,141.11 793.39,151.24 794.37,133.28 795.35,151.32 796.33,142.12 797.31,146.81 798.29,151.66 799.28,150.04 800.26,168.41 801.24,144.36 802.22,150.82 803.20,134.88 804.18,123.24 805.16,123.46 806.14,120.58 807.12,121.10 808.10,111.30 809.08,107.71 810.07,112.36 811.05,94.08 812.03,99.32 813.01,127.70 813.99,110.46 814.97,98.97 815.95,99.57 816.93,100.59 817.91,80.68 818.89,136.64 819.87,82.70 820.85,75.34 821.84,75.67 822.82,78.86 823.80,87.59 824.78,81.06 825.76,79.83 826.74,116.57 827.72,94.62 828.70,92.23 829.68,82.34 830.66,68.64 831.64,63.58 832.63,62.13 833.61,60.52 834.59,66.33 835.57,71.00 836.55,88.24 837.53,79.44 838.51,85.57 839.49,115.48 840.47,101.93 841.45,92.91 842.43,119.52 843.42,96.07 844.40,105.52 845.38,106.36 846.36,98.07 847.34,108.14 848.32,77.02 849.30,71.03 850.28,75.40 851.26,60.88 852.24,68.49 853.22,90.67 854.20,120.03 855.19,79.70 856.17,88.33 857.15,54.67 858.13,50.65 859.11,51.89 860.09,57.95 861.07,50.11 862.05,52.34 863.03,55.65 864.01,48.20 864.99,91.64 865.98,47.05 866.96,60.91 867.94,48.42 868.92,48.17 869.90,50.95 870.88,67.78 871.86,45.54 872.84,48.20 873.82,44.00 874.80,48.96 875.78,48.33 876.76,48.59 877.75,50.41 878.73,44.00 879.71,44.00 880.69,56.94 881.67,44.00 882.65,44.14 883.63,45.19 884.61,49.69 885.59,45.37 886.57,45.00 887.55,44.00 888.54,46.31 889.52,44.03 890.50,44.00 891.48,45.09 892.46,49.10 893.44,45.76 894.42,45.83 895.40,55.38 896.38,44.00 897.36,45.12 898.34,44.00 899.33,45.33 900.31,48.05 901.29,46.91 902.27,47.30 903.25,46.66 904.23,46.55 905.21,44.00 906.19,44.64 907.17,44.00 908.15,47.71 909.13,48.54 910.11,44.00 911.10,51.72 912.08,44.00 913.06,44.00 914.04,52.63 915.02,44.00 916.00,44.00" fill="none" stroke="#145c9e" stroke-width="2.2"/>
  <text x="44" y="24" font-family="monospace" font-size="15" fill="#222">seatbelt.both.hang.zhangyu.20260205.batch.1 ep 000001</text>
  <text x="696" y="24" font-family="monospace" font-size="13" fill="#145c9e">bc_precision_score</text>
  <text x="696" y="44" font-family="monospace" font-size="12" fill="#a23b3b">precision threshold</text>
</svg>
