<svg xmlns="http://www.w3.org/2000/svg" width="960" height="320" viewBox="0 0 960 320">
  <rect width="100%" height="100%" fill="#fffaf0"/>
  <rect x="124.19" y="44" width="55.71" height="232" fill="#f3c565" opacity="0.24"/> <rect x="344.52" y="44" width="65.84" height="232" fill="#f3c565" opacity="0.24"/> <rect x="411.20" y="44" width="48.96" height="232" fill="#f3c565" opacity="0.24"/> <rect x="455.94" y="44" width="62.47" height="232" fill="#f3c565" opacity="0.24"/> <rect x="747.17" y="44" width="28.70" height="232" fill="#f3c565" opacity="0.24"/> <rect x="831.59" y="44" width="59.09" height="232" fill="#f3c565" opacity="0.24"/>
  <line x1="44" y1="276" x2="916" y2="276" stroke="#333" stroke-width="1"/>
  <line x1="44" y1="44" x2="44" y2="276" stroke="#333" stroke-width="1"/>
  <line x1="44" y1="99.30" x2="916" y2="99.30" stroke="#a23b3b" stroke-width="1.5" stroke-dasharray="6 6"/>
  <polyline points="44.00,44.00 44.84,44.00 45.69,44.00 46.53,47.96 47.38,44.48 48.22,44.00 49.07,44.00 49.91,44.00 50.76,44.34 51.60,44.00 52.45,44.00 53.29,50.22 54.14,44.40 54.98,46.69 55.83,44.00 56.67,44.00 57.52,44.00 58.36,44.00 59.21,44.89 60.05,44.00 60.90,44.00 61.74,44.00 62.59,44.63 63.43,44.00 64.28,44.00 65.12,45.36 65.97,44.00 66.81,44.00 67.66,45.68 68.50,44.00 69.35,59.00 70.19,44.00 71.04,44.00 71.88,44.79 72.73,44.05 73.57,44.04 74.42,49.73 75.26,67.68 76.11,83.67 76.95,92.90 77.80,64.08 78.64,84.16 79.49,86.93 80.33,74.92 81.18,79.43 82.02,99.54 82.87,153.13 83.71,125.11 84.56,118.48 85.40,120.85 86.25,125.65 87.09,126.60 87.94,175.65 88.78,184.89 89.63,168.15 90.47,165.95 91.32,233.75 92.16,133.44 93.01,166.15 93.85,159.83 94.70,168.48 95.54,181.05 96.39,180.91 97.23,186.39 98.08,183.89 98.92,175.75 99.77,237.99 100.61,212.73 101.46,187.54 102.30,182.41 103.15,189.35 103.99,177.73 104.84,155.07 105.68,185.06 106.53,276.00 107.37,205.26 108.22,159.40 109.06,155.04 109.91,183.72 110.75,173.28 111.60,160.49 112.44,165.82 113.29,148.03 114.13,151.89 114.98,175.43 115.82,202.21 116.67,186.17 117.51,212.96 118.36,227.98 119.20,199.47 120.05,205.76 120.89,147.86 121.74,168.81 122.58,191.07 123.43,187.36 124.27,142.84 125.12,148.77 125.96,145.52 126.81,122.54 127.65,118.86 128.50,113.35 129.34,103.42 130.19,108.78 131.03,90.27 131.88,101.08 132.72,88.94 133.57,121.36 134.41,95.85 135.26,93.59 136.10,124.15 136.95,121.85 137.79,123.67 138.64,136.07 139.48,116.37 140.33,130.44 141.17,148.93 142.02,123.88 142.86,134.02 143.71,76.46 144.55,74.97 145.40,70.11 146.24,80.21 147.09,89.23 147.93,89.24 148.78,91.02 149.62,87.22 150.47,98.77 151.31,103.89 152.16,82.24 153.00,77.93 153.84,87.23 154.69,109.75 155.53,100.44 156.38,103.92 157.22,80.18 158.07,86.78 158.91,84.52 159.76,86.76 160.60,84.64 161.45,84.34 162.29,82.92 163.14,105.20 163.98,105.03 164.83,133.35 165.67,150.36 166.52,143.60 167.36,95.67 168.21,91.34 169.05,100.06 169.90,96.95 170.74,109.50 171.59,97.47 172.43,92.56 173.28,137.45 174.12,149.07 174.97,109.88 175.81,92.03 176.66,91.82 177.50,111.52 178.35,108.21 179.19,137.76 180.04,104.68 180.88,99.88 181.73,110.99 182.57,194.18 183.42,265.30 184.26,198.65 185.11,186.67 185.95,222.15 186.80,146.05 187.64,168.68 188.49,158.29 189.33,130.93 190.18,135.56 191.02,118.32 191.87,123.93 192.71,132.36 193.56,158.19 194.40,183.43 195.25,124.55 196.09,276.00 196.94,162.54 197.78,193.06 198.63,150.04 199.47,148.52 200.32,149.09 201.16,149.07 202.01,177.98 202.85,163.66 203.70,210.35 204.54,223.54 205.39,212.28 206.23,228.56 207.08,209.04 207.92,229.68 208.77,214.85 209.61,198.34 210.46,217.09 211.30,225.25 212.15,203.91 212.99,219.31 213.84,231.78 214.68,256.96 215.53,239.39 216.37,244.06 217.22,242.74 218.06,260.24 218.91,235.62 219.75,253.83 220.60,244.51 221.44,263.55 222.29,240.75 223.13,245.41 223.98,263.42 224.82,247.24 225.67,256.80 226.51,246.92 227.36,276.00 228.20,276.00 229.05,276.00 229.89,215.51 230.74,205.96 231.58,229.07 232.43,215.57 233.27,241.97 234.12,258.45 234.96,276.00 235.81,251.87 236.65,190.16 237.50,189.05 238.34,154.83 239.19,157.45 240.03,194.01 240.88,246.15 241.72,191.95 242.57,242.59 243.41,276.00 244.26,276.00 245.10,239.87 245.95,254.84 246.79,252.18 247.64,229.93 248.48,207.61 249.33,204.82 250.17,191.47 251.02,162.42 251.86,170.05 252.71,164.65 253.55,147.54 254.40,155.71 255.24,126.93 256.09,133.97 256.93,163.64 257.78,143.16 258.62,130.54 259.47,141.94 260.31,126.38 261.16,105.64 262.00,100.98 262.84,136.54 263.69,146.49 264.53,119.83 265.38,171.75 266.22,174.30 267.07,154.48 267.91,112.37 268.76,106.30 269.60,156.12 270.45,119.96 271.29,122.81 272.14,155.10 272.98,128.49 273.83,145.12 274.67,170.82 275.52,138.07 276.36,102.21 277.21,108.81 278.05,107.44 278.90,109.11 279.74,120.67 280.59,126.73 281.43,114.76 282.28,142.05 283.12,105.40 283.97,111.29 284.81,118.92 285.66,121.39 286.50,107.90 287.35,107.12 288.19,118.41 289.04,116.14 289.88,124.17 290.73,121.41 291.57,117.66 292.42,118.59 293.26,119.32 294.11,109.55 294.95,114.05 295.80,121.70 296.64,112.06 297.49,112.27 298.33,99.56 299.18,110.40 300.02,109.69 300.87,105.39 301.71,103.44 302.56,104.59 303.40,97.13 304.25,106.04 305.09,106.80 305.94,99.96 306.78,112.05 307.63,115.16 308.47,110.93 309.32,125.35 310.16,131.52 311.01,128.10 311.85,140.15 312.70,107.31 313.54,105.82 314.39,114.82 315.23,125.36 316.08,107.38 316.92,122.01 317.77,114.85 318.61,102.71 319.46,107.23 320.30,105.55 321.15,105.80 321.99,115.33 322.84,107.53 323.68,107.77 324.53,103.83 325.37,104.49 326.22,109.52 327.06,110.17 327.91,147.25 328.75,105.96 329.60,115.50 330.44,110.90 331.29,97.59 332.13,111.10 332.98,108.56 333.82,114.41 334.67,114.40 335.51,104.72 336.36,109.44 337.20,102.76 338.05,123.16 338.89,119.24 339.74,109.86 340.58,133.92 341.43,170.18 342.27,138.69 343.12,130.51 343.96,109.36 344.81,106.08 345.65,100.47 346.50,111.59 347.34,122.06 348.19,135.30 349.03,112.90 349.88,109.64 350.72,104.95 351.57,99.30 352.41,99.72 353.26,111.52 354.10,114.99 354.95,115.50 355.79,120.16 356.64,83.34 357.48,118.69 358.33,109.56 359.17,109.06 360.02,117.77 360.86,121.23 361.71,115.03 362.55,136.84 363.40,89.72 364.24,106.20 365.09,87.56 365.93,114.30 366.78,94.82 367.62,109.69 368.47,96.63 369.31,87.66 370.16,116.10 371.00,100.59 371.84,104.94 372.69,112.31 373.53,98.86 374.38,106.00 375.22,107.82 376.07,113.34 376.91,84.97 377.76,67.35 378.60,90.72 379.45,80.86 380.29,87.62 381.14,69.18 381.98,90.27 382.83,81.07 383.67,102.81 384.52,103.65 385.36,185.87 386.21,167.53 387.05,153.46 387.90,187.42 388.74,77.69 389.59,92.45 390.43,71.68 391.28,88.18 392.12,79.44 392.97,89.03 393.81,79.65 394.66,87.07 395.50,89.38 396.35,91.79 397.19,74.66 398.04,111.78 398.88,153.12 399.73,124.50 400.57,87.98 401.42,117.37 402.26,89.25 403.11,94.29 403.95,110.63 404.80,135.39 405.64,124.27 406.49,103.94 407.33,105.97 408.18,122.42 409.02,118.32 409.87,109.42 410.71,104.95 411.56,155.60 412.40,114.06 413.25,130.04 414.09,126.67 414.94,135.66 415.78,151.50 416.63,119.41 417.47,102.01 418.32,90.85 419.16,142.56 420.01,130.45 420.85,207.85 421.70,93.40 422.54,97.30 423.39,86.24 424.23,76.77 425.08,69.06 425.92,206.18 426.77,83.78 427.61,91.16 428.46,98.19 429.30,143.45 430.15,97.99 430.99,80.69 431.84,132.89 432.68,67.09 433.53,66.58 434.37,53.82 435.22,65.49 436.06,83.46 436.91,65.64 437.75,59.67 438.60,62.68 439.44,70.68 440.29,57.40 441.13,54.30 441.98,45.35 442.82,57.05 443.67,63.63 444.51,74.47 445.36,58.47 446.20,54.98 447.05,97.56 447.89,79.37 448.74,100.87 449.58,59.81 450.43,59.35 451.27,60.31 452.12,56.48 452.96,57.84 453.81,44.00 454.65,44.00 455.50,91.92 456.34,44.51 457.19,64.18 458.03,53.66 458.88,52.25 459.72,47.86 460.57,53.77 461.41,48.38 462.26,61.11 463.10,71.98 463.95,50.99 464.79,44.00 465.64,57.57 466.48,79.51 467.33,44.00 468.17,49.01 469.02,53.75 469.86,48.13 470.71,61.54 471.55,59.88 472.40,53.42 473.24,69.31 474.09,80.34 474.93,52.32 475.78,105.28 476.62,61.83 477.47,64.28 478.31,77.56 479.16,119.41 480.00,75.16 480.84,119.76 481.69,73.06 482.53,86.45 483.38,89.98 484.22,92.34 485.07,64.59 485.91,78.88 486.76,86.01 487.60,75.93 488.45,62.44 489.29,77.65 490.14,82.91 490.98,65.36 491.83,75.97 492.67,76.16 493.52,92.35 494.36,69.13 495.21,76.50 496.05,79.61 496.90,78.47 497.74,85.53 498.59,91.56 499.43,112.78 500.28,56.99 501.12,51.09 501.97,59.46 502.81,147.53 503.66,55.74 504.50,77.79 505.35,78.78 506.19,78.66 507.04,81.87 507.88,83.68 508.73,91.32 509.57,98.36 510.42,96.68 511.26,72.84 512.11,171.30 512.95,114.17 513.80,161.13 514.64,159.27 515.49,141.84 516.33,214.51 517.18,200.04 518.02,188.68 518.87,186.88 519.71,191.86 520.56,167.12 521.40,179.40 522.25,199.91 523.09,190.82 523.94,264.29 524.78,276.00 525.63,217.92 526.47,207.18 527.32,219.78 528.16,226.35 529.01,181.68 529.85,276.00 530.70,276.00 531.54,262.98 532.39,256.62 533.23,276.00 534.08,258.11 534.92,276.00 535.77,262.93 536.61,218.26 537.46,211.74 538.30,184.80 539.15,264.18 539.99,235.49 540.84,248.64 541.68,276.00 542.53,276.00 543.37,276.00 544.22,276.00 545.06,261.66 545.91,270.09 546.75,276.00 547.60,276.00 548.44,262.68 549.29,276.00 550.13,276.00 550.98,251.37 551.82,251.80 552.67,204.55 553.51,174.66 554.36,206.88 555.20,174.80 556.05,209.65 556.89,256.23 557.74,193.86 558.58,214.46 559.43,190.64 560.27,207.34 561.12,195.96 561.96,210.53 562.81,178.82 563.65,147.25 564.50,161.94 565.34,227.90 566.19,172.77 567.03,143.49 567.88,276.00 568.72,158.31 569.57,200.33 570.41,213.59 571.26,152.37 572.10,146.52 572.95,173.33 573.79,169.34 574.64,164.47 575.48,115.55 576.33,203.44 577.17,140.42 578.02,136.70 578.86,214.18 579.71,212.12 580.55,141.06 581.40,169.44 582.24,170.62 583.09,166.38 583.93,135.99 584.78,121.34 585.62,144.55 586.47,195.93 587.31,177.65 588.16,202.35 589.00,218.82 589.84,211.33 590.69,218.54 591.53,207.97 592.38,225.49 593.22,247.92 594.07,232.94 594.91,190.17 595.76,243.59 596.60,267.83 597.45,245.97 598.29,178.76 599.14,155.19 599.98,180.07 600.83,182.33 601.67,226.61 602.52,227.35 603.36,231.22 604.21,276.00 605.05,117.15 605.90,133.27 606.74,105.52 607.59,128.23 608.43,132.67 609.28,141.33 610.12,145.39 610.97,156.98 611.81,155.06 612.66,164.17 613.50,217.60 614.35,174.90 615.19,166.74 616.04,187.03 616.88,178.56 617.73,238.99 618.57,256.32 619.42,221.20 620.26,231.36 621.11,224.70 621.95,186.90 622.80,201.11 623.64,163.53 624.49,175.22 625.33,159.80 626.18,166.89 627.02,172.68 627.87,147.93 628.71,142.09 629.56,174.94 630.40,166.12 631.25,190.40 632.09,190.55 632.94,162.45 633.78,180.95 634.63,133.51 635.47,178.47 636.32,147.22 637.16,179.73 638.01,165.33 638.85,164.09 639.70,167.86 640.54,164.04 641.39,171.76 642.23,159.94 643.08,183.31 643.92,145.78 644.77,174.57 645.61,166.11 646.46,151.13 647.30,150.91 648.15,198.08 648.99,174.07 649.84,146.82 650.68,150.41 651.53,160.29 652.37,165.59 653.22,182.59 654.06,202.61 654.91,212.58 655.75,206.47 656.60,231.54 657.44,216.25 658.29,251.30 659.13,177.96 659.98,192.00 660.82,190.70 661.67,169.32 662.51,177.96 663.36,189.89 664.20,276.00 665.05,212.03 665.89,179.62 666.74,203.52 667.58,195.64 668.43,182.15 669.27,173.96 670.12,155.28 670.96,276.00 671.81,275.90 672.65,249.96 673.50,211.63 674.34,219.32 675.19,246.98 676.03,242.60 676.88,188.55 677.72,216.99 678.57,197.54 679.41,228.57 680.26,276.00 681.10,241.77 681.95,217.68 682.79,276.00 683.64,276.00 684.48,221.55 685.33,193.32 686.17,177.58 687.02,162.03 687.86,185.06 688.71,171.32 689.55,140.52 690.40,182.43 691.24,147.73 692.09,158.86 692.93,140.22 693.78,132.77 694.62,132.02 695.47,137.05 696.31,154.60 697.16,143.74 698.00,137.71 698.84,121.01 699.69,130.01 700.53,149.96 701.38,113.36 702.22,146.49 703.07,140.66 703.91,98.30 704.76,102.33 705.60,147.95 706.45,160.05 707.29,106.75 708.14,116.43 708.98,125.99 709.83,113.22 710.67,122.79 711.52,108.79 712.36,139.62 713.21,135.50 714.05,122.03 714.90,108.00 715.74,129.73 716.59,151.48 717.43,144.24 718.28,158.13 719.12,127.72 719.97,115.21 720.81,104.12 721.66,120.44 722.50,135.01 723.35,115.87 724.19,136.88 725.04,107.35 725.88,105.69 726.73,105.75 727.57,123.26 728.42,107.59 729.26,107.87 730.11,146.34 730.95,139.10 731.80,106.21 732.64,127.75 733.49,157.75 734.33,164.80 735.18,161.66 736.02,146.50 736.87,138.60 737.71,148.62 738.56,148.04 739.40,121.67 740.25,173.18 741.09,177.10 741.94,218.28 742.78,148.46 743.63,136.55 744.47,137.82 745.32,180.75 746.16,147.50 747.01,117.13 747.85,194.12 748.70,101.54 749.54,130.48 750.39,101.63 751.23,127.81 752.08,197.07 752.92,125.74 753.77,106.28 754.61,95.34 755.46,108.13 756.30,199.85 757.15,168.30 757.99,114.98 758.84,170.34 759.68,101.24 760.53,96.54 761.37,103.35 762.22,111.66 763.06,92.00 763.91,78.47 764.75,85.23 765.60,93.88 766.44,77.15 767.29,76.10 768.13,100.16 768.98,74.10 769.82,100.44 770.67,147.52 771.51,180.36 772.36,174.51 773.20,154.41 774.05,176.92 774.89,191.18 775.74,191.42 776.58,164.96 777.43,177.02 778.27,157.09 779.12,173.13 779.96,276.00 780.81,165.27 781.65,134.51 782.50,132.51 783.34,120.19 784.19,123.46 785.03,116.04 785.88,109.62 786.72,124.11 787.57,103.45 788.41,108.40 789.26,109.70 790.10,103.64 790.95,132.31 791.79,152.63 792.64,133.88 793.48,123.23 794.33,150.52 795.17,127.64 796.02,139.39 796.86,184.09 797.71,123.22 798.55,122.98 799.40,144.12 800.24,147.35 801.09,131.01 801.93,146.58 802.78,187.76 803.62,160.60 804.47,148.19 805.31,159.85 806.16,188.39 807.00,180.96 807.84,155.19 808.69,212.62 809.53,207.64 810.38,166.64 811.22,207.75 812.07,210.67 812.91,276.00 813.76,276.00 814.60,239.06 815.45,183.05 816.29,190.78 817.14,173.90 817.98,221.20 818.83,223.61 819.67,229.33 820.52,178.72 821.36,161.24 822.21,165.55 823.05,174.18 823.90,169.42 824.74,152.65 825.59,156.39 826.43,198.25 827.28,181.44 828.12,167.20 828.97,160.28 829.81,158.08 830.66,145.63 831.50,151.05 832.35,130.87 833.19,126.47 834.04,136.65 834.88,124.73 835.73,137.01 836.57,117.06 837.42,110.12 838.26,111.33 839.11,94.76 839.95,84.51 840.80,94.29 841.64,78.75 842.49,85.69 843.33,84.86 844.18,91.90 845.02,99.14 845.87,97.28 846.71,112.87 847.56,115.33 848.40,83.39 849.25,91.22 850.09,84.95 850.94,88.08 851.78,89.33 852.63,63.21 853.47,56.05 854.32,55.89 855.16,63.04 856.01,62.33 856.85,76.42 857.70,108.05 858.54,117.49 859.39,87.05 860.23,71.29 861.08,96.58 861.92,90.54 862.77,83.90 863.61,97.45 864.46,94.92 865.30,76.25 866.15,82.79 866.99,74.97 867.84,86.37 868.68,93.70 869.53,98.44 870.37,63.58 871.22,63.44 872.06,57.04 872.91,55.88 873.75,77.37 874.60,64.15 875.44,52.21 876.29,56.33 877.13,77.51 877.98,54.02 878.82,52.86 879.67,71.29 880.51,69.79 881.36,66.74 882.20,62.78 883.05,60.75 883.89,49.44 884.74,48.75 885.58,48.80 886.43,45.21 887.27,44.00 888.12,44.29 888.96,44.00 889.81,44.41 890.65,49.28 891.50,44.00 892.34,44.00 893.19,50.92 894.03,48.11 894.88,44.00 895.72,48.06 896.57,47.70 897.41,44.00 898.26,45.22 899.10,44.59 899.95,46.58 900.79,45.95 901.64,49.70 902.48,60.62 903.33,44.17 904.17,45.70 905.02,44.00 905.86,44.00 906.71,44.62 907.55,44.00 908.40,46.97 909.24,44.20 910.09,44.00 910.93,44.00 911.78,47.73 912.62,44.00 913.47,48.86 914.31,44.00 915.16,44.37 916.00,45.81" fill="none" stroke="#145c9e" stroke-width="2.2"/>
  <text x="44" y="24" font-family="monospace" font-size="15" fill="#222">seatbelt.both.hang.zhangyu.20260205.batch.1 ep 000000</text>
  <text x="696" y="24" font-family="monospace" font-size="13" fill="#145c9e">bc_precision_score</text>
  <text x="696" y="44" font-family="monospace" font-size="12" fill="#a23b3b">precision threshold</text>
</svg>
