<svg xmlns="http://www.w3.org/2000/svg" width="960" height="320" viewBox="0 0 960 320">
  <rect width="100%" height="100%" fill="#fffaf0"/>
  <rect x="71.86" y="44" width="128.31" height="232" fill="#f3c565" opacity="0.24"/> <rect x="196.79" y="44" width="92.01" height="232" fill="#f3c565" opacity="0.24"/> <rect x="298.93" y="44" width="159.54" height="232" fill="#f3c565" opacity="0.24"/> <rect x="477.05" y="44" width="40.52" height="232" fill="#f3c565" opacity="0.24"/> <rect x="515.03" y="44" width="111.43" height="232" fill="#f3c565" opacity="0.24"/> <rect x="626.46" y="44" width="59.93" height="232" fill="#f3c565" opacity="0.24"/> <rect x="683.02" y="44" width="59.09" height="232" fill="#f3c565" opacity="0.24"/> <rect x="738.73" y="44" width="48.12" height="232" fill="#f3c565" opacity="0.24"/> <rect x="794.44" y="44" width="45.58" height="232" fill="#f3c565" opacity="0.24"/> <rect x="836.65" y="44" width="50.65" height="232" fill="#f3c565" opacity="0.24"/>
  <line x1="44" y1="276" x2="916" y2="276" stroke="#333" stroke-width="1"/>
  <line x1="44" y1="44" x2="44" y2="276" stroke="#333" stroke-width="1"/>
  <line x1="44" y1="108.39" x2="916" y2="108.39" stroke="#a23b3b" stroke-width="1.5" stroke-dasharray="6 6"/>
  <polyline points="44.00,158.60 44.84,158.21 45.69,77.21 46.53,195.05 47.38,93.42 48.22,256.49 49.07,123.19 49.91,130.72 50.76,89.10 51.60,153.46 52.45,112.58 53.29,252.11 54.14,174.27 54.98,236.01 55.83,157.35 56.67,196.26 57.52,276.00 58.36,110.80 59.21,190.53 60.05,116.93 60.90,270.47 61.74,203.14 62.59,46.09 63.43,113.71 64.28,276.00 65.12,84.01 65.97,148.58 66.81,160.11 67.66,109.81 68.50,93.92 69.35,115.22 70.19,98.13 71.04,237.57 71.88,138.86 72.73,159.66 73.57,123.85 74.42,252.22 75.26,265.47 76.11,194.78 76.95,191.13 77.80,110.87 78.64,61.11 79.49,241.75 80.33,248.72 81.18,50.99 82.02,83.25 82.87,173.89 83.71,247.58 84.56,83.68 85.40,248.14 86.25,97.53 87.09,105.66 87.94,222.56 88.78,138.89 89.63,82.92 90.47,127.51 91.32,131.97 92.16,70.03 93.01,266.28 93.85,250.59 94.70,232.01 95.54,269.97 96.39,44.00 97.23,64.72 98.08,196.92 98.92,133.94 99.77,193.65 100.61,147.47 101.46,70.59 102.30,212.73 103.15,204.96 103.99,99.88 104.84,232.03 105.68,223.11 106.53,98.37 107.37,70.55 108.22,120.45 109.06,44.00 109.91,77.63 110.75,90.10 111.60,177.00 112.44,141.31 113.29,61.25 114.13,212.83 114.98,109.75 115.82,220.20 116.67,153.25 117.51,100.26 118.36,99.08 119.20,168.59 120.05,143.23 120.89,131.28 121.74,217.02 122.58,276.00 123.43,89.64 124.27,121.08 125.12,44.00 125.96,185.91 126.81,126.06 127.65,133.16 128.50,242.49 129.34,44.00 130.19,229.43 131.03,61.47 131.88,47.24 132.72,143.15 133.57,201.82 134.41,141.15 135.26,53.19 136.10,67.76 136.95,152.89 137.79,120.11 138.64,48.32 139.48,71.72 140.33,160.95 141.17,167.25 142.02,232.27 142.86,275.75 143.71,120.00 144.55,117.10 145.40,151.30 146.24,183.22 147.09,95.00 147.93,44.00 148.78,128.79 149.62,161.90 150.47,135.72 151.31,159.07 152.16,200.54 153.00,124.31 153.84,106.97 154.69,172.01 155.53,255.79 156.38,95.13 157.22,82.24 158.07,100.17 158.91,210.40 159.76,67.75 160.60,194.94 161.45,97.03 162.29,201.03 163.14,164.60 163.98,139.55 164.83,276.00 165.67,146.50 166.52,250.12 167.36,116.62 168.21,175.91 169.05,44.00 169.90,136.69 170.74,150.11 171.59,58.89 172.43,136.00 173.28,44.00 174.12,44.00 174.97,226.92 175.81,208.78 176.66,124.09 177.50,139.44 178.35,176.77 179.19,148.38 180.04,209.63 180.88,122.03 181.73,44.00 182.57,188.64 183.42,273.00 184.26,72.14 185.11,86.78 185.95,107.59 186.80,98.54 187.64,44.00 188.49,184.16 189.33,139.96 190.18,255.20 191.02,143.32 191.87,147.76 192.71,100.69 193.56,276.00 194.40,161.65 195.25,133.88 196.09,151.30 196.94,131.94 197.78,216.09 198.63,144.45 199.47,258.32 200.32,133.79 201.16,276.00 202.01,134.55 202.85,160.19 203.70,83.67 204.54,141.23 205.39,276.00 206.23,207.13 207.08,234.00 207.92,256.03 208.77,160.26 209.61,72.57 210.46,132.95 211.30,79.94 212.15,180.62 212.99,71.89 213.84,201.99 214.68,111.24 215.53,122.93 216.37,183.47 217.22,252.40 218.06,57.65 218.91,166.60 219.75,256.43 220.60,276.00 221.44,192.05 222.29,198.17 223.13,110.63 223.98,155.16 224.82,276.00 225.67,58.47 226.51,191.85 227.36,252.76 228.20,125.41 229.05,92.35 229.89,44.00 230.74,207.06 231.58,175.99 232.43,94.65 233.27,80.80 234.12,57.66 234.96,115.60 235.81,44.00 236.65,65.58 237.50,100.03 238.34,117.87 239.19,184.11 240.03,101.77 240.88,149.00 241.72,260.41 242.57,44.00 243.41,114.78 244.26,44.00 245.10,74.24 245.95,109.54 246.79,167.55 247.64,148.32 248.48,276.00 249.33,145.14 250.17,240.71 251.02,198.10 251.86,232.64 252.71,87.21 253.55,213.77 254.40,206.34 255.24,218.78 256.09,144.81 256.93,44.00 257.78,276.00 258.62,73.38 259.47,238.06 260.31,102.76 261.16,237.04 262.00,206.89 262.84,174.68 263.69,141.93 264.53,135.79 265.38,198.77 266.22,62.56 267.07,113.24 267.91,191.16 268.76,115.74 269.60,77.83 270.45,276.00 271.29,117.79 272.14,169.64 272.98,188.09 273.83,260.58 274.67,244.26 275.52,109.66 276.36,44.00 277.21,276.00 278.05,132.25 278.90,198.69 279.74,72.07 280.59,144.56 281.43,63.34 282.28,186.43 283.12,139.59 283.97,264.63 284.81,150.98 285.66,177.35 286.50,242.30 287.35,276.00 288.19,176.12 289.04,112.62 289.88,115.25 290.73,204.27 291.57,224.29 292.42,208.03 293.26,162.56 294.11,150.68 294.95,276.00 295.80,276.00 296.64,259.81 297.49,168.76 298.33,185.74 299.18,220.27 300.02,194.48 300.87,92.69 301.71,118.11 302.56,180.99 303.40,54.85 304.25,97.70 305.09,134.92 305.94,108.17 306.78,141.37 307.63,246.11 308.47,276.00 309.32,117.63 310.16,106.51 311.01,147.28 311.85,201.80 312.70,98.85 313.54,233.08 314.39,44.00 315.23,224.63 316.08,228.85 316.92,137.87 317.77,264.97 318.61,44.00 319.46,207.90 320.30,155.41 321.15,202.65 321.99,239.41 322.84,95.28 323.68,44.00 324.53,167.99 325.37,195.55 326.22,44.00 327.06,122.15 327.91,59.74 328.75,233.30 329.60,55.60 330.44,154.45 331.29,224.48 332.13,152.36 332.98,276.00 333.82,225.50 334.67,176.03 335.51,121.44 336.36,124.87 337.20,207.60 338.05,276.00 338.89,86.62 339.74,276.00 340.58,276.00 341.43,163.66 342.27,114.21 343.12,44.00 343.96,150.26 344.81,98.96 345.65,44.00 346.50,186.47 347.34,147.11 348.19,122.85 349.03,179.60 349.88,231.09 350.72,199.06 351.57,94.94 352.41,157.47 353.26,113.08 354.10,173.09 354.95,161.43 355.79,44.00 356.64,221.38 357.48,161.99 358.33,70.88 359.17,169.42 360.02,104.90 360.86,181.65 361.71,125.32 362.55,209.45 363.40,276.00 364.24,139.08 365.09,189.24 365.93,100.49 366.78,220.56 367.62,44.00 368.47,276.00 369.31,251.71 370.16,182.27 371.00,169.69 371.84,157.07 372.69,108.03 373.53,126.57 374.38,268.29 375.22,222.69 376.07,159.72 376.91,46.90 377.76,44.00 378.60,44.00 379.45,82.51 380.29,44.00 381.14,197.34 381.98,247.84 382.83,276.00 383.67,67.03 384.52,88.70 385.36,70.37 386.21,65.36 387.05,226.91 387.90,124.80 388.74,183.55 389.59,131.07 390.43,73.57 391.28,44.00 392.12,78.66 392.97,44.00 393.81,203.57 394.66,127.28 395.50,102.66 396.35,124.76 397.19,276.00 398.04,118.90 398.88,151.51 399.73,52.25 400.57,124.54 401.42,56.85 402.26,159.54 403.11,127.93 403.95,211.62 404.80,87.00 405.64,156.35 406.49,118.68 407.33,77.98 408.18,233.90 409.02,219.20 409.87,180.06 410.71,276.00 411.56,124.62 412.40,106.94 413.25,78.04 414.09,276.00 414.94,116.20 415.78,139.63 416.63,163.32 417.47,225.61 418.32,123.80 419.16,85.31 420.01,260.58 420.85,97.15 421.70,229.68 422.54,149.50 423.39,126.02 424.23,131.27 425.08,152.97 425.92,65.92 426.77,219.98 427.61,149.78 428.46,60.62 429.30,110.74 430.15,113.37 430.99,103.62 431.84,135.57 432.68,138.72 433.53,108.90 434.37,177.45 435.22,190.41 436.06,140.70 436.91,110.83 437.75,163.62 438.60,221.75 439.44,49.84 440.29,124.52 441.13,276.00 441.98,112.44 442.82,260.60 443.67,207.74 444.51,90.08 445.36,100.11 446.20,183.53 447.05,44.00 447.89,237.49 448.74,113.25 449.58,273.76 450.43,203.72 451.27,44.00 452.12,221.63 452.96,162.20 453.81,162.68 454.65,78.14 455.50,99.07 456.34,178.25 457.19,218.98 458.03,169.42 458.88,252.30 459.72,200.01 460.57,179.47 461.41,44.00 462.26,223.51 463.10,210.94 463.95,245.13 464.79,93.46 465.64,115.54 466.48,100.20 467.33,54.66 468.17,100.96 469.02,154.57 469.86,194.87 470.71,264.12 471.55,110.31 472.40,149.11 473.24,75.00 474.09,276.00 474.93,238.03 475.78,199.95 476.62,194.65 477.47,125.93 478.31,121.69 479.16,168.11 480.00,236.64 480.84,276.00 481.69,140.14 482.53,270.61 483.38,125.30 484.22,91.36 485.07,237.25 485.91,238.93 486.76,199.07 487.60,206.66 488.45,161.23 489.29,157.66 490.14,127.96 490.98,178.75 491.83,44.00 492.67,186.36 493.52,128.96 494.36,77.67 495.21,229.70 496.05,170.78 496.90,134.82 497.74,176.81 498.59,219.93 499.43,231.56 500.28,212.57 501.12,87.46 501.97,135.46 502.81,235.66 503.66,236.03 504.50,216.54 505.35,44.00 506.19,140.74 507.04,276.00 507.88,176.09 508.73,87.02 509.57,73.89 510.42,101.39 511.26,190.60 512.11,179.34 512.95,191.16 513.80,194.08 514.64,182.33 515.49,140.59 516.33,208.14 517.18,125.30 518.02,162.57 518.87,204.07 519.71,114.95 520.56,174.74 521.40,236.07 522.25,44.00 523.09,88.07 523.94,236.90 524.78,215.42 525.63,44.51 526.47,241.79 527.32,150.39 528.16,276.00 529.01,91.86 529.85,128.42 530.70,164.30 531.54,126.38 532.39,182.46 533.23,58.45 534.08,134.55 534.92,99.66 535.77,44.00 536.61,73.89 537.46,133.54 538.30,144.49 539.15,242.41 539.99,276.00 540.84,148.19 541.68,201.59 542.53,153.38 543.37,64.69 544.22,44.00 545.06,204.23 545.91,91.41 546.75,181.45 547.60,144.68 548.44,220.22 549.29,125.42 550.13,131.71 550.98,219.12 551.82,72.33 552.67,110.53 553.51,64.38 554.36,107.37 555.20,197.74 556.05,141.46 556.89,44.00 557.74,225.02 558.58,125.86 559.43,96.91 560.27,246.78 561.12,71.77 561.96,176.37 562.81,161.60 563.65,239.87 564.50,154.15 565.34,276.00 566.19,179.96 567.03,211.52 567.88,124.57 568.72,66.22 569.57,248.81 570.41,169.90 571.26,160.95 572.10,199.06 572.95,260.73 573.79,218.75 574.64,56.61 575.48,148.25 576.33,265.65 577.17,78.25 578.02,91.19 578.86,269.94 579.71,131.82 580.55,213.77 581.40,173.27 582.24,84.91 583.09,177.67 583.93,46.15 584.78,70.43 585.62,186.18 586.47,183.10 587.31,95.55 588.16,117.35 589.00,276.00 589.84,153.04 590.69,94.02 591.53,105.36 592.38,122.57 593.22,138.64 594.07,126.93 594.91,90.20 595.76,111.53 596.60,270.36 597.45,161.47 598.29,214.43 599.14,136.70 599.98,205.94 600.83,116.04 601.67,141.58 602.52,249.55 603.36,83.39 604.21,100.85 605.05,246.05 605.90,276.00 606.74,188.12 607.59,175.50 608.43,108.49 609.28,193.29 610.12,248.41 610.97,98.57 611.81,108.54 612.66,110.63 613.50,100.54 614.35,276.00 615.19,276.00 616.04,159.85 616.88,108.22 617.73,105.31 618.57,87.41 619.42,86.86 620.26,252.14 621.11,132.17 621.95,140.06 622.80,140.12 623.64,131.16 624.49,169.70 625.33,196.40 626.18,200.10 627.02,139.43 627.87,276.00 628.71,176.29 629.56,162.75 630.40,267.62 631.25,234.13 632.09,146.88 632.94,129.71 633.78,90.23 634.63,198.71 635.47,222.94 636.32,228.24 637.16,234.51 638.01,122.98 638.85,274.54 639.70,152.01 640.54,166.48 641.39,65.69 642.23,233.68 643.08,106.88 643.92,132.34 644.77,228.91 645.61,233.28 646.46,175.64 647.30,155.42 648.15,184.47 648.99,127.18 649.84,152.57 650.68,149.52 651.53,217.69 652.37,100.69 653.22,44.00 654.06,252.43 654.91,123.64 655.75,116.39 656.60,200.97 657.44,246.88 658.29,61.56 659.13,101.94 659.98,120.53 660.82,95.93 661.67,239.86 662.51,233.44 663.36,86.17 664.20,82.90 665.05,108.11 665.89,187.50 666.74,184.78 667.58,95.77 668.43,149.30 669.27,207.70 670.12,152.22 670.96,84.70 671.81,71.24 672.65,234.47 673.50,276.00 674.34,221.61 675.19,224.14 676.03,156.22 676.88,67.16 677.72,214.21 678.57,122.71 679.41,57.89 680.26,276.00 681.10,125.55 681.95,197.61 682.79,276.00 683.64,177.80 684.48,190.65 685.33,207.01 686.17,193.71 687.02,202.76 687.86,276.00 688.71,178.26 689.55,229.54 690.40,44.00 691.24,214.16 692.09,112.73 692.93,79.86 693.78,165.32 694.62,184.64 695.47,171.78 696.31,69.86 697.16,180.57 698.00,257.10 698.84,120.63 699.69,197.36 700.53,120.89 701.38,237.23 702.22,215.45 703.07,186.42 703.91,112.48 704.76,203.14 705.60,74.56 706.45,106.53 707.29,154.09 708.14,179.72 708.98,102.22 709.83,194.29 710.67,161.71 711.52,207.73 712.36,145.08 713.21,172.77 714.05,204.87 714.90,144.11 715.74,193.87 716.59,44.00 717.43,137.74 718.28,169.23 719.12,218.51 719.97,276.00 720.81,125.15 721.66,79.06 722.50,215.33 723.35,95.12 724.19,124.10 725.04,215.70 725.88,226.42 726.73,114.55 727.57,74.22 728.42,44.00 729.26,188.95 730.11,114.61 730.95,73.83 731.80,100.97 732.64,276.00 733.49,135.98 734.33,131.83 735.18,83.73 736.02,149.98 736.87,199.80 737.71,219.80 738.56,144.10 739.40,126.46 740.25,118.66 741.09,172.03 741.94,173.10 742.78,110.44 743.63,149.76 744.47,164.71 745.32,111.71 746.16,78.66 747.01,141.27 747.85,44.00 748.70,106.86 749.54,141.46 750.39,164.63 751.23,201.76 752.08,131.25 752.92,135.35 753.77,44.00 754.61,96.33 755.46,112.22 756.30,216.11 757.15,179.75 757.99,135.58 758.84,276.00 759.68,77.88 760.53,179.88 761.37,101.55 762.22,228.59 763.06,142.43 763.91,131.59 764.75,128.06 765.60,116.07 766.44,88.73 767.29,44.00 768.13,98.12 768.98,188.69 769.82,129.51 770.67,82.18 771.51,232.94 772.36,101.93 773.20,262.18 774.05,192.47 774.89,118.81 775.74,276.00 776.58,146.93 777.43,117.09 778.27,181.93 779.12,44.00 779.96,44.00 780.81,133.10 781.65,175.05 782.50,246.96 783.34,157.96 784.19,123.45 785.03,113.94 785.88,129.38 786.72,163.34 787.57,190.02 788.41,146.21 789.26,170.85 790.10,179.41 790.95,155.24 791.79,151.32 792.64,153.76 793.48,248.59 794.33,264.09 795.17,184.78 796.02,167.39 796.86,174.12 797.71,125.46 798.55,256.17 799.40,118.83 800.24,260.06 801.09,255.26 801.93,44.00 802.78,59.21 803.62,122.81 804.47,236.13 805.31,89.70 806.16,276.00 807.00,115.57 807.84,151.06 808.69,144.26 809.53,44.00 810.38,106.68 811.22,93.31 812.07,130.51 812.91,89.10 813.76,131.73 814.60,220.38 815.45,218.21 816.29,222.66 817.14,44.00 817.98,144.20 818.83,195.42 819.67,162.68 820.52,276.00 821.36,203.44 822.21,91.51 823.05,246.56 823.90,219.79 824.74,85.47 825.59,154.43 826.43,44.00 827.28,73.39 828.12,256.12 828.97,244.79 829.81,44.00 830.66,232.60 831.50,173.23 832.35,229.74 833.19,55.92 834.04,148.84 834.88,188.92 835.73,276.00 836.57,230.51 837.42,229.41 838.26,140.42 839.11,205.84 839.95,206.32 840.80,276.00 841.64,149.76 842.49,189.94 843.33,268.18 844.18,87.40 845.02,276.00 845.87,44.00 846.71,227.39 847.56,167.17 848.40,271.19 849.25,108.85 850.09,44.10 850.94,121.05 851.78,73.93 852.63,65.92 853.47,44.00 854.32,44.00 855.16,176.39 856.01,68.22 856.85,166.16 857.70,73.56 858.54,135.55 859.39,165.06 860.23,276.00 861.08,165.84 861.92,240.07 862.77,161.76 863.61,161.20 864.46,271.43 865.30,225.14 866.15,119.58 866.99,103.54 867.84,229.00 868.68,155.67 869.53,241.50 870.37,120.15 871.22,139.85 872.06,87.43 872.91,112.39 873.75,144.76 874.60,196.64 875.44,44.00 876.29,185.20 877.13,140.16 877.98,156.87 878.82,253.83 879.67,137.79 880.51,48.36 881.36,130.20 882.20,255.72 883.05,143.22 883.89,190.77 884.74,44.00 885.58,195.62 886.43,159.57 887.27,155.41 888.12,147.65 888.96,226.18 889.81,253.42 890.65,209.77 891.50,120.38 892.34,136.47 893.19,152.34 894.03,86.03 894.88,172.13 895.72,111.39 896.57,47.40 897.41,184.16 898.26,99.43 899.10,276.00 899.95,109.83 900.79,121.74 901.64,62.89 902.48,174.01 903.33,149.75 904.17,177.38 905.02,174.55 905.86,218.83 906.71,151.21 907.55,195.30 908.40,264.51 909.24,276.00 910.09,167.07 910.93,164.57 911.78,124.59 912.62,142.66 913.47,115.56 914.31,145.72 915.16,139.20 916.00,221.08" fill="none" stroke="#145c9e" stroke-width="2.2"/>
  <text x="44" y="24" font-family="monospace" font-size="15" fill="#222">seatbelt.both.hang.zhangyu.20260205.batch.1 ep 000000</text>
  <text x="656" y="24" font-family="monospace" font-size="13" fill="#145c9e">diffusion_precision_score</text>
  <text x="656" y="44" font-family="monospace" font-size="12" fill="#a23b3b">precision threshold</text>
</svg>
